<?xml version="1.0" standalone="no"?>
<!DOCTYPE svg PUBLIC "-//W3C//DTD SVG 20010904//EN"
 "http://www.w3.org/TR/2001/REC-SVG-20010904/DTD/svg10.dtd">
<svg version="1.0" xmlns="http://www.w3.org/2000/svg"
 width="260.000000pt" height="260.000000pt" viewBox="0 0 260.000000 260.000000"
 preserveAspectRatio="xMidYMid meet">
<metadata>
Created by potrace 1.11, written by Peter Selinger 2001-2013
</metadata>
<g transform="translate(0.000000,260.000000) scale(0.100000,-0.100000)"
fill="#000000" stroke="none">
<path d="M603 1621 c2 -372 7 -692 11 -711 65 -319 197 -500 421 -575 138 -46
355 -53 497 -15 272 73 435 294 475 645 6 52 10 1294 5 1318 -4 16 -16 18
-121 16 l-117 -2 -1 -616 c0 -551 -3 -699 -17 -766 -38 -190 -135 -324 -267
-370 -177 -63 -380 -26 -489 87 -63 67 -123 202 -136 307 -3 25 -7 60 -9 76
-2 17 -4 312 -4 657 l-1 627 -126 -1 -125 -1 4 -676z"/>
</g>
</svg>
