<svg xmlns="http://www.w3.org/2000/svg" viewBox="0 0 127.37849 136.07132" height="136.071" width="127.378"><path d="M42.476 133.995c-21.964-4.27-27.5-8.785-27.5-22.432 0-10.993-1.042-13.76-5.347-14.19-3.515-.35-4.042-1.06-6.733-9.062-3.66-10.88-3.86-17.726-.55-18.778 1.583-.502 2.166-1.543 1.75-3.13-.425-1.628 1.248-4.373 5.318-8.725 6.04-6.458 6.932-10.46 1.112-4.99-2.467 2.317-2.994 2.487-2.328.75.806-2.103 4.04-4.64 14.043-11.02 2.927-1.866 3.752-3.03 2.813-3.97-2.07-2.072-1.578-4.697 1.362-7.246 3.16-2.74 3.808-2.834 5.808-.833 2.22 2.22 1.953-1.766-.604-8.964l-2.104-5.925 3.667-5.807c7.933-12.564 20.738-12.935 28.27-.818 2.142 3.446 4.62 6.265 5.508 6.265.96 0 1.77 1.893 2 4.687.407 4.918 1.06 5.193 9.138 3.853 2.086-.346 2.473.237 2.332 3.512-.22 5.11 2.424 6.38 14.634 7.035 10.76.577 15.858 2.92 19.343 8.894 1.248 2.14 3.78 5.86 5.626 8.267 3.73 4.862 5.42 8.75 3.803 8.75-.583 0-1.996-1.266-3.14-2.813-1.67-2.254-1.638-1.984.16 1.36 1.232 2.296 3.226 4.707 4.43 5.357 2.882 1.56 2.788 6.385-.32 16.45-1.596 5.164-3.536 8.792-5.332 9.97-2.423 1.587-3.04 3.67-4.36 14.697-2.398 20.05-6.37 24.507-24.966 28.017-17.165 3.24-33.976 3.536-47.836.84zm43.642-4.547c13.77-2.233 19.576-4.67 21.9-9.187 1.57-3.056 5.208-26.078 4.264-26.99-.237-.228-6.197-.61-13.244-.846-12.12-.41-12.815-.297-12.832 2.068-.027 3.79-1.176 4.798-9.855 8.64-6.956 3.082-9.076 3.46-16.25 2.897-4.537-.357-10.5-1.41-13.25-2.343-4.336-1.47-5.052-2.247-5.398-5.858-.323-3.37-.8-3.987-2.5-3.234-1.155.51-6.32 1.575-11.476 2.363L18.1 98.392l.278 6.174c.613 13.7 1.53 16.793 5.748 19.386 11.027 6.78 38.86 9.247 61.992 5.495zm-23.017-6.83c.426-.69 2.147-1.25 3.825-1.25 1.678 0 3.05.56 3.05 1.25 0 .686-1.72 1.25-3.823 1.25-2.23 0-3.5-.522-3.05-1.25zm-14.374-7.74c-3.093-.747-7.192-1.36-9.107-1.362-2.01-.002-3.276-.59-2.992-1.39.27-.76 1.557-1.183 2.858-.938 1.3.245 9.96.73 19.24 1.075 17.98.67 32.52-1.034 35.073-4.11 1.537-1.852 4.218-1.175 3.02.764-.384.62-3.346 2.35-6.583 3.84-4.786 2.205-8.69 2.783-20.886 3.095-8.25.21-17.53-.228-20.624-.974zm30.318-17.002c5.612-5.612 5.476-11.48-.38-16.427-4.376-3.697-6.19-3.908-22.778-2.656-.53.04-3.484 2.394-6.563 5.232-4.423 4.077-5.597 6.01-5.597 9.222 0 6.906 6.06 9.485 21.006 8.94 9.744-.357 10.62-.62 14.312-4.312zm-21.568-16.51c4.54-1.453 11.25-1.453 11.25 0 0 .704-3.146 1.196-7.187 1.126-5.487-.095-6.45-.36-4.064-1.125zm-43.75 8.205c0-1.866-3.478-5.142-4.44-4.18-.346.347-.053 2.148.653 4.004 1.257 3.308 3.786 3.426 3.786.177zm27.193-4.804c4.573-4.574 5.496-6.224 4.872-8.71-.706-2.81-1.54-3.134-9.914-3.842-5.03-.425-11.227-.434-13.773-.02l-4.63.75v9.003c0 4.952.266 9.268.59 9.592.325.324 4.33.202 8.9-.27 7.712-.8 8.72-1.27 13.954-6.504zm-12.506.25c-4.274-2.49-1.36-9.407 3.556-8.44 3.836.754 5.052 4.34 2.447 7.218-2.64 2.916-2.978 2.985-6.003 1.223zm4.062-4.9c0-.687-.562-1.25-1.25-1.25-.687 0-1.25.563-1.25 1.25 0 .688.563 1.25 1.25 1.25.688 0 1.25-.562 1.25-1.25zm80.76 5.723c.376-.978.02-3.018-.793-4.535-1.16-2.167-1.128-2.97.146-3.758 1.284-.794 1.31-1.677.128-4.275-1.818-3.99-1.87-4.786-.242-3.78.688.425 1.25.104 1.25-.712 0-1.112-3.507-1.258-13.957-.58-7.678.497-14.71 1.192-15.626 1.544-.94.36-1.668 2.506-1.668 4.923 0 3.22 1.075 5.358 4.334 8.616 4.27 4.27 4.49 4.334 15.04 4.334 8.1 0 10.87-.433 11.387-1.778zM93.31 80.532c-1.486-1.485-.883-6.32.98-7.866 3.876-3.217 9.363 1.678 7.456 6.65-.78 2.03-6.758 2.894-8.436 1.216zm5.104-4.48c-.59-1.768-2.6-1.574-3.23.314-.23.687.52 1.25 1.667 1.25s1.85-.703 1.564-1.563zm20.562 5.064c-1.166-1.167-1.5-.834-1.5 1.5 0 2.333.334 2.666 1.5 1.5 1.167-1.167 1.167-1.834 0-3zM13.486 76.96c-.386-.386-1.085.308-1.554 1.54-.68 1.782-.535 1.925.7.7.854-.848 1.238-1.856.853-2.24zm62.312-9.838c6.334-3.286 18.272-5.73 28.067-5.746 5.473-.01 5.734-.167 5.167-3.134-.363-1.9-.02-3.125.872-3.125.81 0 1.063-.658.566-1.463-.608-.983-.222-1.2 1.176-.664 1.144.44 2.08.2 2.08-.53s-1.208-1.643-2.685-2.03c-2.52-.66-2.55-.8-.467-2.322 2.07-1.514 1.976-1.86-1.436-5.273-5.01-5.008-21.464-8.57-23.603-5.11-.578.935-1.243.957-2.13.068-1.58-1.58-8.43-.353-10.7 1.916-.91.91-1.295 1.657-.853 1.657.443 0-.04.843-1.07 1.875-1.03 1.03-3.636 1.875-5.788 1.875-2.44 0-3.605.5-3.094 1.325.553.896-1.35 1.147-5.864.775-8.187-.675-11.088-1.725-13.7-4.96-2.286-2.836-5.094-1.914-4.076 1.337.575 1.836.392 1.805-1.255-.21-1.53-1.873-2.994-2.217-7.1-1.666-8.32 1.116-14.71 8.78-8.364 10.028l2.81.553-2.725.906c-1.527.508-2.452 1.622-2.102 2.532.343.894.023 1.997-.712 2.45-.733.455-1.334 2.48-1.334 4.502v3.677h14.722c10.603 0 15.422.49 17.223 1.75 5.826 4.082 17.436 3.643 26.378-.995zM26.85 61.367c-.424-.688.106-1.25 1.177-1.25 1.072 0 1.95.562 1.95 1.25 0 .687-.53 1.25-1.177 1.25s-1.524-.563-1.95-1.25zm6.25-1.815c-4.58-1.422-4.756-1.63-2.096-2.482 3.757-1.203 8.5.01 9.42 2.41.844 2.2-.43 2.212-7.323.072zm53.126-1.07c0-2.395 3.795-6.75 4.484-5.15.318.74 2.33 1.085 4.474.77 2.977-.436 3.66-.186 2.89 1.06-.726 1.173-.425 1.406 1.072.83 1.144-.438 2.08-.318 2.08.268 0 1.686-4.822 2.498-5.41.912-.392-1.065-.926-1.056-2.086.035-.857.805-2.334 1.167-3.28.803-.95-.363-1.724-.038-1.724.723 0 .76-.562 1.384-1.25 1.384-.687 0-1.25-.737-1.25-1.636zm-36.41-15.816c-1.506-2.036-3.303-3.352-3.994-2.925-.706.438.233 2.06 2.144 3.702 4.565 3.927 5.146 3.683 1.85-.776zm10.056 2.046c-4.403-3.422-8.646-5.74-8.646-4.72 0 1.288 5.834 4.98 8.02 5.075.63.027.913-.132.626-.355zm2.37-5.365c-1.11-1.11-2.78-1.738-3.705-1.393-1.11.413-.618 1.076 1.44 1.94 4.327 1.82 4.573 1.76 2.265-.547zm9.297-2.558c-.86-.348-2.267-.348-3.126 0-.86.346-.156.63 1.562.63 1.72 0 2.422-.284 1.563-.63zm-38.766-2.557c-1.555-.3-3.805-.288-5 .025-1.195.313.077.557 2.827.543 2.75-.012 3.73-.268 2.174-.567zm26.295-4.35c3.97-.744 7.434-1.705 7.7-2.135.266-.43-.243-2.507-1.13-4.616l-1.613-3.836-13.588 4.407c-7.474 2.424-13.8 4.553-14.056 4.732-.256.178-.11 1.256.328 2.395.858 2.235 6.72 1.987 22.357-.946zM48.725 13.868c1.593-1.03 1.538-1.215-.367-1.23-1.234-.012-2.13-.723-1.99-1.583.49-3.045-1.7-5.937-4.496-5.937-2.197 0-2.835.71-2.835 3.148 0 2.698.278 2.92 1.952 1.563 1.652-1.342 1.827-1.252 1.138.586-.447 1.195-.412 2.113.08 2.04 2.475-.37 4.08.3 3.39 1.413-.976 1.582.678 1.582 3.126 0z"/><path d="M43.61 133.978c-14.448-2.797-22.674-6.234-25.598-10.696-1.434-2.19-2.427-7.015-2.918-14.18l-.743-10.86-4.185-.625c-3.98-.594-4.334-1.09-7.17-10-3.657-11.487-3.81-15.738-.63-17.44 1.47-.787 2.156-2.155 1.788-3.564-.392-1.498 1.424-4.534 5.272-8.815 5.77-6.416 6.9-10.376 1.626-5.694-1.976 1.755-2.534 1.89-2.103.513.322-1.032 2.414-2.753 4.65-3.825 2.234-1.073 4.444-2.55 4.91-3.28.464-.732 2.78-2.502 5.15-3.934 3.508-2.122 3.912-2.754 2.187-3.416-2.83-1.086-2.668-2.923.555-6.354 2.085-2.22 3.182-2.57 5-1.6 2.963 1.588 3.118-1.282.474-8.778-1.705-4.833-1.665-5.616.503-9.844C39.62-2.54 54.227-3.634 61.85 9.378c1.85 3.156 4.154 5.74 5.12 5.74 1.144 0 1.763 1.415 1.775 4.06.03 6.553 1.437 7.793 6.102 5.38 4.9-2.533 6.762-1.53 5.747 3.09-.986 4.49 1.828 6.207 10.238 6.25 8.043.04 16.7 2.132 19.567 4.727 1.284 1.162 4.857 5.873 7.94 10.47 3.94 5.87 5.37 9.102 4.812 10.863-.563 1.772-.046 2.908 1.764 3.877 3.252 1.74 3.224 4.693-.15 16.082-1.978 6.67-3.436 9.447-5.34 10.17-2.267.863-2.822 2.717-4.156 13.87-1.633 13.656-4.133 20.182-9.172 23.944-4.097 3.06-23.873 7.053-38.622 7.8-8.553.432-15.23-.05-23.867-1.722zm44.44-4.512c12.885-2.247 17.474-4.366 19.988-9.228 1.805-3.49 5.42-25.82 4.35-26.862-.296-.286-6.28-.715-13.298-.952l-12.76-.432-.365 3.125c-.28 2.417-2.014 3.947-7.645 6.755-9.26 4.616-17.1 5.395-26.6 2.643-8.894-2.576-10.494-3.767-10.494-7.81 0-2.473-.446-2.92-2.187-2.192-1.204.503-6.548 1.527-11.876 2.277l-9.688 1.363v4.56c0 7.273 2.345 17.66 4.533 20.078 6.593 7.288 42.006 10.867 66.04 6.676zm-24.95-6.85c.426-.687 2.18-1.25 3.9-1.25 1.764 0 2.788.545 2.35 1.25-.424.688-2.178 1.25-3.896 1.25-1.765 0-2.79-.543-2.353-1.25zm-15.378-8.085c-4.334-.98-8.77-1.442-9.858-1.024-1.343.515-1.786.193-1.38-1.003.382-1.12 1.693-1.534 3.608-1.136 1.655.343 12.853.613 24.884.6 17.746-.02 22.76-.422 26.563-2.124 2.577-1.154 4.686-1.634 4.686-1.066 0 .567-2.953 2.32-6.562 3.896-8.355 3.645-29.848 4.598-41.942 1.858zm29.98-15.038c7.203-5.372 7.73-11.337 1.546-17.52l-4.478-4.478-9.972.596c-5.485.328-10.923 1.312-12.085 2.188-4.757 3.586-10.26 10.477-9.644 12.08.36.942.656 2.716.656 3.94 0 6.117 26.695 8.625 33.977 3.194zM58.727 81.367c1.72-.55 4.532-1.05 6.25-1.107 2.457-.082 2.724.154 1.25 1.107-1.03.666-3.843 1.164-6.25 1.106-4.008-.097-4.113-.19-1.25-1.106zm-45 8.085c0-3.014-2.99-5.512-4.632-3.87-1.066 1.067 1.78 7.035 3.355 7.035.702 0 1.276-1.424 1.276-3.165zm15.366 1.932c3.91-.014 5.838-1.043 11-5.87 4.842-4.53 6.172-6.58 5.883-9.063-.35-3.016-.943-3.275-9.88-4.32-5.228-.61-11.556-.725-14.062-.255l-4.557.855v9.11c0 9.96.552 11.26 4.343 10.24 1.392-.373 4.665-.687 7.272-.696zm-2.376-8.045c-1.02-2.657 1.762-6.973 4.492-6.973 3.16 0 5.17 3.63 3.618 6.53-1.418 2.65-7.143 2.962-8.11.442zm5.76-3.223c0-.688-.562-1.25-1.25-1.25-.687 0-1.25.562-1.25 1.25 0 .687.563 1.25 1.25 1.25.688 0 1.25-.563 1.25-1.25zm80.76 5.722c.376-.978.02-3.018-.793-4.535-1.16-2.167-1.128-2.97.146-3.758 1.284-.794 1.31-1.677.128-4.275-1.818-3.99-1.87-4.786-.242-3.78.688.425 1.25-.07 1.25-1.098 0-1.378-1.068-1.74-4.062-1.374-2.235.273-8.34.786-13.566 1.14-12.598.853-13.622 1.336-13.622 6.422 0 2.913 1.188 5.55 3.88 8.616l3.88 4.42h11.16c8.493 0 11.322-.426 11.84-1.78zm-19.41-6.228c-.856-1.03-1.207-2.975-.78-4.32 1.183-3.73 4.528-4.383 7.455-1.457 2.02 2.02 2.276 3.03 1.206 4.737-1.787 2.852-5.923 3.398-7.88 1.04zm4.9-3.974c0-1.09-.668-1.757-1.484-1.485-2.318.773-2.702 3.464-.495 3.464 1.09 0 1.98-.89 1.98-1.98zm20.25 5.48c-1.166-1.168-1.5-.835-1.5 1.5 0 2.332.334 2.665 1.5 1.5 1.167-1.168 1.167-1.835 0-3zm-105.25-2.95c0-1.072-.562-1.6-1.25-1.176-.687.425-1.25 1.302-1.25 1.948 0 .647.563 1.177 1.25 1.177.688 0 1.25-.877 1.25-1.95zm61.918-10.664c6.26-3.02 10.878-4.16 21.138-5.225 12.667-1.315 13.105-1.46 12.43-4.145-.52-2.076-.036-2.993 1.908-3.61 2.982-.946 3.556-4.408.73-4.408-1.03 0-1.874-.596-1.874-1.324 0-.728.563-.976 1.25-.55 1.73 1.068 1.565-.14-.587-4.303-2.063-3.988-6.667-5.98-16.503-7.135-4.506-.53-7.226-.276-8.516.795-1.04.865-1.894 1.07-1.894.455s-4.078-1.14-9.062-1.17c-4.985-.028-7.5.163-5.59.426 2.418.334 3.367 1.118 3.125 2.58-.988 5.97-7.494 6.828-15.79 2.087-6.377-3.647-7.355-3.852-5.035-1.056.938 1.13 3.96 3.077 6.716 4.326l5.01 2.27-5.816-.262c-3.2-.144-5.644-.544-5.432-.888.704-1.14-5.498-8.044-6.41-7.133-.49.49.427 2.298 2.04 4.014 3.8 4.045 1.28 4.04-3.528-.005-4.148-3.49-7.122-4.107-6.026-1.25.396 1.03.235 1.875-.357 1.875s-1.405-.858-1.808-1.906c-.768-2-4.153-1.72-11.146.93-5.736 2.172-8 8.444-3.077 8.52l2.81.045-2.628 1.52c-1.446.834-2.383 2.22-2.083 3.08.3.86-.1 1.562-.885 1.562-.888 0-1.283 1.777-1.042 4.687l.388 4.688 13.75-.398c11.955-.346 14.398-.06 18.703 2.187 7.318 3.822 15.37 3.412 25.09-1.276zm-48.168-6.137c-1.602-1.036-1.557-1.215.313-1.23 1.202-.012 2.186.542 2.186 1.23 0 1.524-.14 1.524-2.5 0zm6.532-1.785c-2.252-.818-3.705-1.876-3.23-2.35 1.705-1.706 6.353-.82 8.573 1.635 2.623 2.897 1.193 3.088-5.342.715zm53.006-.452c-.426-.69.39-2.577 1.814-4.196 1.424-1.618 2.177-2.15 1.674-1.185-.734 1.41-.076 1.597 3.342.947l4.257-.81-3.09 2.392c-1.698 1.315-3.59 2.082-4.2 1.704-.613-.378-1.543.007-2.067.856-.6.972-1.24 1.08-1.73.29zm26.087-.263c-.424-.688-1.334-1.25-2.02-1.25-.69 0-.904.562-.48 1.25.426.687 1.336 1.25 2.024 1.25.687 0 .902-.563.477-1.25zm7.593-2.218c-2.16-2.063-2.193-2.03-.76.76.822 1.607 1.84 2.578 2.258 2.16.42-.42-.254-1.734-1.497-2.92zM63.175 39.45c-1.335-1.01-3.303-1.817-4.375-1.796-1.558.032-1.462.408.478 1.875 1.334 1.01 3.303 1.82 4.375 1.797 1.557-.032 1.462-.408-.478-1.875zm-25.7-5.092c0-.27-2.563-.493-5.698-.493-3.134 0-5.426.44-5.093.98.59.954 10.792.495 10.792-.487zm18.25-3.603c5.347-1.023 10.204-2.343 10.796-2.935.84-.84-.354-5.43-2.26-8.69-.114-.196-2.954.706-6.31 2.005-3.354 1.3-9.826 3.353-14.382 4.564-7 1.863-8.187 2.57-7.666 4.56.774 2.962 6.225 3.1 19.824.497zm19.857-3.172c-.377-.61-1.56-.774-2.626-.365-1.515.582-1.587.962-.332 1.738 1.896 1.172 3.943.222 2.958-1.373zM48.726 13.867c1.593-1.03 1.538-1.215-.367-1.23-1.234-.012-2.158-.723-2.053-1.583.337-2.767-1.577-7.187-3.113-7.187-2.003 0-6.757 3.66-4.82 3.71.926.024 1.202.898.704 2.227-.743 1.982-.603 2.012 1.494.313 2.153-1.745 2.217-1.694.926.73-1.097 2.06-1.02 2.603.366 2.603.964 0 1.467-.462 1.117-1.027-.348-.565.236-.694 1.3-.286 1.062.408 1.62 1.245 1.24 1.86-.907 1.47.842 1.398 3.206-.13z"/><path d="M43.82 133.792c-15.384-2.954-22.838-5.978-25.772-10.455-1.447-2.21-2.345-6.893-2.778-14.492-.633-11.1-.677-11.228-3.905-11.247-4.895-.03-5.67-1.035-8.654-11.23-3.392-11.6-3.428-14.542-.2-16.27 1.396-.746 2.213-1.88 1.818-2.518-1.027-1.662 1.423-5.754 7.198-12.02 4.786-5.19 4.345-7.772-.568-3.326-2.137 1.934-2.27 1.938-1.545.048.437-1.14 1.855-2.407 3.15-2.818 1.297-.41 4.673-2.683 7.503-5.048 2.83-2.364 5.743-4.3 6.472-4.3.73 0 .308-1.124-.937-2.5-2.183-2.413-2.18-2.588.085-5.092 1.538-1.7 3.368-2.397 5.313-2.025 2.788.53 2.92.292 2.174-3.97-2.29-13.117-2.293-13.077 1.625-18.477C42.502-2.565 54.124-2.2 61.235 8.88c2.2 3.43 4.787 6.237 5.747 6.237 1.13 0 1.75 1.428 1.763 4.062.03 6.278 1.25 7.434 5.966 5.654 4.97-1.876 7.49-.125 5.412 3.76-1.143 2.135-.844 2.68 2.072 3.782 1.874.708 7.53 1.622 12.566 2.032 10.745.873 15.895 3.19 18.763 8.442 1.143 2.093 3.906 6.044 6.14 8.78 2.235 2.735 4.025 5.904 3.98 7.042-.064 1.522-.445 1.326-1.442-.743-1.32-2.74-3.474-3.847-3.474-1.788 0 .563 1.998 3.358 4.44 6.21 3.954 4.62 4.345 5.702 3.582 9.913-1.51 8.328-5.488 17.55-7.836 18.165-1.825.478-2.538 2.977-3.87 13.573-2.754 21.88-6.103 25.418-27.566 29.136-19.07 3.303-29.07 3.452-43.657.652zm41.78-3.703c11.776-1.672 19.656-4.83 22.365-8.965 1.838-2.805 5.653-26.575 4.447-27.704-.31-.287-6.3-.746-13.316-1.018l-12.756-.494-.37 3.14c-.287 2.448-2.024 3.965-7.87 6.875-8.634 4.3-18.7 5.026-28.124 2.03-7.338-2.33-8.75-3.5-8.75-7.248 0-2.447-.464-2.926-2.187-2.26-1.204.465-6.622 1.494-12.04 2.287l-9.85 1.44.762 9.904c.447 5.795 1.596 11.173 2.77 12.964 2.784 4.25 10.638 7.392 22.42 8.97 18.125 2.43 25.837 2.444 42.5.08zm-21.874-7.473c0-.688 1.44-1.25 3.2-1.25 1.813 0 2.863.54 2.425 1.25-.424.687-1.863 1.25-3.198 1.25-1.334 0-2.426-.563-2.426-1.25zm-12.42-7.587c-3.735-.665-7.072-1.49-7.413-1.83-.34-.34 8.06-.54 18.67-.444 16.242.148 20.423-.213 26.476-2.287 3.952-1.357 7.186-2.068 7.186-1.583 0 .486-3.234 2.134-7.187 3.664-8.323 3.222-26.764 4.433-37.733 2.48zm-15.08-2.587c0-.592 1.407-1.076 3.125-1.076 1.72 0 3.126.215 3.126.48 0 .263-1.406.747-3.125 1.076-1.717.328-3.124.113-3.124-.48zm40.88-12.485c7.754-4.79 8.71-12.32 2.328-18.34-4.082-3.85-4.74-4.04-13.437-3.878-5.03.093-10.27.724-11.646 1.4-3.245 1.6-11.91 11.002-11.75 12.75.738 7.987 5.283 10.35 20.354 10.578 8.038.12 10.644-.34 14.153-2.51zm-18.692-18.17c.86-.346 2.265-.346 3.125 0 .858.348.155.63-1.564.63-1.718 0-2.422-.282-1.562-.63zm-44.08 9.605c1.094-1.768-1.62-6.276-3.777-6.276-2.153 0-2.335 1.722-.537 5.082 1.412 2.636 3.13 3.112 4.315 1.193zm26.006-6.096c4.486-4.348 5.897-6.586 5.625-8.915-.3-2.556-1.256-3.268-5.364-3.99-6.307-1.112-18.544-1.265-21.147-.267-1.574.605-1.977 2.79-1.977 10.725v9.966l8.438-.857c7.868-.8 8.84-1.25 14.426-6.663zM27.015 83.22c-1.22-3.185 1.48-7.062 4.608-6.617 2.112.3 2.728 1.236 2.728 4.14 0 3.115-.552 3.813-3.277 4.13-2.13.246-3.55-.333-4.058-1.654zm5.46-3.103c0-.688-.56-1.25-1.25-1.25-.686 0-1.25.562-1.25 1.25 0 .687.564 1.25 1.25 1.25.69 0 1.25-.563 1.25-1.25zm80.83 5.545c.412-1.075.126-3.325-.638-5-1-2.195-1.005-3.045-.018-3.045 1.325 0 1.082-2.014-.796-6.577-.695-1.69-.437-2.022 1.108-1.43 1.985.763 2.9-1.3 1.077-2.425-1.784-1.1-29.24 1.52-30.97 2.958-2.62 2.174-.89 8.692 3.564 13.41 3.762 3.99 4.036 4.064 14.877 4.064 8.865 0 11.193-.386 11.795-1.955zm-19.33-5.795c-2.126-2.127-1.864-4.032.9-6.533 2.284-2.068 2.522-2.046 5.028.46 2.1 2.1 2.364 3.13 1.308 5.1-1.482 2.773-4.966 3.24-7.234.973zm4.75-4.23c0-1.088-.667-1.756-1.483-1.484-2.318.773-2.702 3.464-.495 3.464 1.09 0 1.98-.89 1.98-1.98zm20.17 4.913c-1.177-2.024-1.347-1.853-1.38 1.38-.028 2.688.335 3.313 1.34 2.307.99-.988 1-2.033.04-3.687zm-105.17-2.456c0-1.03-.56-1.527-1.25-1.102-.686.425-1.25 1.616-1.25 2.647 0 1.03.564 1.527 1.25 1.102.69-.425 1.25-1.617 1.25-2.648zm62.17-10.62c6.52-3.177 9.99-4.002 18.85-4.48 11.776-.638 19.42-2.405 18.294-4.228-.392-.632-1.274-1.15-1.96-1.15-.69 0-.85.65-.36 1.444.553.894.344 1.104-.55.55-2.47-1.526-1.586-4.41 1.598-5.21 3.384-.85 3.096-4.27-.363-4.302-1.734-.017-1.77-.198-.237-1.17 1.59-1.005 1.59-1.574 0-4.548-3.065-5.736-8.6-7.215-28.067-7.502-9.624-.14-16.655.01-15.624.34 5.915 1.883 5.685 1.7 3.715 2.947-1.01.64-1.377 1.172-.812 1.183.565.01.183.862-.848 1.894-2.85 2.85-7.202 2.263-13.684-1.848-3.228-2.047-5.87-3.26-5.87-2.693 0 1.635 4.048 4.86 8.128 6.48 2.182.864 3.068 1.736 2.12 2.086-2.556.946-8.68-2.105-10.84-5.4-1.983-3.027-4.408-4.016-4.408-1.798 0 .66 1.194 2.314 2.653 3.673 2.628 2.45 2.63 2.466.08 1.8-1.414-.37-3.54-1.74-4.722-3.048-2.762-3.052-6.058-3.175-5.017-.188.68 1.95.567 1.936-1.028-.118-1.96-2.525-7.02-2.086-13.377 1.16-4.824 2.464-6.642 7.99-2.65 8.06 2.066.035 2.064.108-.028 1.326-1.217.708-1.91 1.777-1.542 2.375.37.598.1 1.44-.598 1.872-.7.43-1.27 3.078-1.27 5.88v5.097l14.212-.876c13.032-.8 14.563-.66 18.436 1.702 6.52 3.974 15.904 3.497 25.77-1.31zm-48.42-6.107c-1.6-1.036-1.556-1.215.314-1.23 1.202-.012 2.186.542 2.186 1.23 0 1.524-.14 1.524-2.5 0zm6.876-1.815c-4.433-1.376-4.686-1.652-2.233-2.438 2.906-.93 7.86.99 7.86 3.047 0 .664-.14 1.148-.313 1.076-.172-.072-2.563-.83-5.313-1.684zm53.126-2.254c0-1.03.952-2.647 2.115-3.59 1.797-1.457 1.96-1.455 1.074.014-.828 1.373-.2 1.607 3.034 1.132l4.077-.598-2.962 2.244c-1.63 1.234-3.157 1.685-3.396 1.003-.27-.77-1.1-.688-2.187.215-1.372 1.138-1.754 1.047-1.754-.42zm-23.75-17.806c-4.88-3.6-4.613-3.513-5.64-1.852-.432.7 1.082 2.085 3.365 3.076 6.213 2.698 7.01 2.27 2.276-1.224zm-26.354-5.174c.287-.248-2.104-.45-5.312-.45-3.21 0-5.834.568-5.834 1.263 0 1.136 9.715.427 11.146-.812zm26.907-1.585c.384-.623-.426-.84-1.802-.48-2.92.764-3.288 1.614-.7 1.614.99 0 2.116-.51 2.5-1.134zm-7.675-1.854c4.678-.906 9.044-2.186 9.704-2.846 1.574-1.575-1.117-9.44-3.04-8.885-4.233 1.224-27.72 8.834-28.01 9.075-.19.156.012 1.208.446 2.338.98 2.555 8.722 2.673 20.9.316zm19.62-2.072c0-1.945-2.12-2.368-4.21-.84-1.843 1.35-1.722 1.544 1.066 1.704 1.73.1 3.146-.29 3.146-.864zm-33.16-15.002c1.194 1.934 5.12 1.592 6.944-.604 1.395-1.682 1.175-1.758-1.804-.625-4.29 1.63-5.77 1.6-2.917-.06 2.634-1.535 2.72-3.466.292-6.673-1.52-2.01-2.31-2.17-4.887-.998-3.22 1.468-4.225 7.174-1.046 5.955 1.31-.503 1.34-.077.15 2.157-1.315 2.47-1.26 2.6.485 1.162 1.323-1.092 2.234-1.195 2.78-.314z"/><path d="M45.6 133.674c-16.437-2.898-26.35-7.02-28.128-11.694-.684-1.798-1.608-8.015-2.054-13.816-.804-10.456-.84-10.547-4.223-10.547-4.413 0-5.255-1.236-8.514-12.5C-.666 73.545-.7 71.31 2.477 70.48c1.7-.446 2.502-1.71 2.506-3.947.003-2.143 1.965-5.453 5.625-9.49 3.09-3.408 5.62-6.825 5.62-7.593 0-.77 1.542-2.76 3.428-4.428 2.36-2.085 2.808-2.25 1.44-.53-3.23 4.06-3.83 6.875-1.466 6.875 1.773 0 1.72.266-.352 1.835-1.765 1.335-1.933 1.846-.614 1.875 1.41.03 1.48.373.312 1.54-.825.825-1.5 3.717-1.5 6.427v4.927l14.012-.663c12.162-.577 14.594-.353 18.42 1.698 6.512 3.49 17.948 3.186 24.668-.656 6.743-3.857 15.692-5.733 27.337-5.733 8.492 0 11.336-1.102 8.063-3.125-1.66-1.026-1.6-3.125.09-3.125.736 0 2.25-.913 3.366-2.028 1.78-1.78 1.8-2.2.178-3.438-1.017-.776-1.667-2.292-1.444-3.37.702-3.387-4.33-8.278-9.97-9.69-2.94-.738-12.657-1.306-21.595-1.264-14.83.07-15.867.22-11.874 1.713 2.407.9 3.64 1.68 2.74 1.732-.9.052-1.304.635-.896 1.295 1.137 1.84-6.462-1.11-8.174-3.172-1.92-2.315-4.92-2.286-4.92.047 0 1.045 2.134 2.464 5 3.322 2.75.824 5 2.042 5 2.707 0 2.08-7.696-.207-12.165-3.615-2.336-1.782-4.588-2.9-5.004-2.485-1.02 1.02 4.696 6.997 6.69 6.997.87 0 1.968.622 2.438 1.384 1.763 2.853-5.123-.372-8.503-3.98-1.88-2.01-3.99-3.653-4.686-3.653-1.74 0-1.596 2.92.232 4.75 1.155 1.155 1.158 1.5.01 1.5-.818 0-2.19-1.125-3.05-2.5-1.718-2.752-5.95-3.415-5.98-.938-.013 1.116-.333 1.065-1.122-.182-1.07-1.69-4.427-1.535-10.733.5-2.326.752-2.34.707-.22-.65 2.162-1.383 2.168-1.58.12-3.844-2.05-2.265-2.043-2.518.144-4.935 1.685-1.862 3.22-2.347 5.704-1.802 3.378.742 3.39.72 2.212-4.015-2.872-11.52-2.756-13.233 1.27-18.763 6.82-9.367 18.634-9.817 24.678-.94 1.29 1.893 3.82 4.924 5.625 6.735 2.048 2.056 3.28 4.67 3.28 6.962 0 2.018.87 4.22 1.936 4.89 1.728 1.09 1.712 1.384-.158 2.765-1.804 1.333-1.528 1.53 2.016 1.438 4.608-.12 6.505-1.827 3.368-3.03-1.646-.633-1.725-1.003-.392-1.848 3.455-2.19 5.134-1.242 4.39 2.48-.93 4.648 1.737 5.982 14.13 7.066 11.764 1.028 16.995 3.194 19.738 8.174 1.188 2.156 3.982 6.258 6.21 9.115 2.227 2.857 4.033 6.038 4.012 7.07-.02 1.03-.952.187-2.07-1.875-1.116-2.063-2.254-3.08-2.528-2.264-.604 1.805 3.134 7.88 6.274 10.198 1.73 1.277 2.09 2.638 1.496 5.625-1.818 9.12-4.79 16.602-7.527 18.942-2.397 2.05-3.18 4.528-4.34 13.75-1.895 15.057-3.14 18.586-8.096 22.938-4.598 4.036-9.67 5.426-30.446 8.343-15.415 2.164-13.43 2.218-30.827-.85zm44.152-4.043c16.927-2.998 19.787-6.13 22.13-24.235.864-6.685 1.304-12.435.977-12.778-.327-.344-6.41-.625-13.52-.625-12.904 0-12.926.005-13.573 3.234-.506 2.532-2.346 3.997-8.46 6.74-8.796 3.948-17.174 4.534-26.96 1.885-7.557-2.044-9.12-3.27-9.12-7.147 0-2.59-.47-2.995-2.813-2.432-1.547.372-5.063 1.022-7.813 1.445-2.75.423-6.827 1.05-9.06 1.392-4.04.62-4.064.662-4.034 7.754.042 9.962 1.835 16.642 5.135 19.13 9.836 7.42 41.877 10.112 67.112 5.64zm-25.4-7.013c.424-.688 2.004-1.242 3.51-1.23 2.227.014 2.39.245.864 1.23-2.462 1.59-5.358 1.59-4.375 0zm-11.222-7.565c-12.33-1.924-10.86-2.412 4.97-1.652 13.217.635 23.633-.234 32.892-2.743 1.16-.315-.166.53-2.948 1.88-6.1 2.957-23.873 4.237-34.914 2.515zm40.596-5.487c0-.303.563-.898 1.25-1.323.688-.425 1.25-.177 1.25.55 0 .73-.562 1.325-1.25 1.325-.687 0-1.25-.248-1.25-.552zm-23.2-6.86c7.803-1.28 13.2-6.68 13.2-13.203 0-3.368-.988-5.224-4.47-8.393-4.3-3.912-4.814-4.053-13.432-3.655-10.31.477-13.924 2.016-19.412 8.266-6.297 7.173-4.82 12.626 4.3 15.863 6.79 2.41 10.634 2.628 19.814 1.12zm-56.19-11.312c1.092-1.768-1.623-6.276-3.78-6.276-1.922 0-2.348 2.195-1.07 5.522.844 2.2 3.682 2.642 4.85.753zm14.756.44c4.496-.616 7.064-2.03 12.05-6.638 3.483-3.22 6.334-6.523 6.334-7.34 0-.82-1.125-2.613-2.5-3.988-2.126-2.127-4.166-2.5-13.648-2.5-6.13 0-12.037.34-13.125.758-2.126.817-2.6 7.182-1.174 15.804.853 5.168 1.442 5.36 12.062 3.903zm-.73-7.497c-1.506-1.506-.98-5.086.99-6.72 2.506-2.08 5.894.61 5.372 4.266-.37 2.588-4.597 4.218-6.362 2.454zm4.114-4.22c0-.687-.562-1.25-1.25-1.25-.687 0-1.25.563-1.25 1.25 0 .688.563 1.25 1.25 1.25.688 0 1.25-.562 1.25-1.25zm73.387 7.5h8.183l-.8-5c-.48-2.996-.305-5 .435-5 .797 0 .774-1.21-.063-3.41-.906-2.386-.897-3.545.03-3.855.732-.242 1.33-1.233 1.33-2.2 0-1.45-2.36-1.625-13.438-.995-16.532.94-19.756 2.206-19.51 7.653.307 6.772 8.88 14.948 13.986 13.335.916-.29 5.347-.526 9.847-.526zm-11.42-8.21c-2.696-2.697-.392-7.097 3.43-6.553 4.62.658 4.054 8.39-.62 8.495-.466.01-1.73-.864-2.81-1.943zm4.283-3.738c0-2.063-1.975-2.41-3.125-.55-1.018 1.648.477 3.99 1.963 3.07.64-.395 1.163-1.53 1.163-2.52zm20.554 8.314c.386-.624.173-2.452-.472-4.062-.8-1.996-1.2-2.264-1.253-.843-.043 1.147-.42 2.975-.837 4.062-.8 2.08 1.358 2.79 2.562.842zM12.938 81.054c.94-3.504 1.006-6.572.125-5.69-1.29 1.29-2.898 8.503-1.895 8.503.56 0 1.356-1.266 1.77-2.813zm-4.707-1.85c-.414-.414-.71.324-.655 1.642.06 1.456.356 1.752.755.755.36-.9.317-1.98-.1-2.395zM113.1 58.868c-.424-.688-1.334-1.25-2.02-1.25-.69 0-.904.562-.48 1.25.426.687 1.336 1.25 2.024 1.25.687 0 .902-.563.477-1.25zm-75.624-23.75c0-.688-2.11-1.26-4.687-1.27-3.488-.014-4.208-.33-2.814-1.23 1.032-.667 1.285-1.22.563-1.23-1.54-.024-4.314 2.537-4.314 3.98 0 .55 2.532 1 5.625 1 3.095 0 5.626-.563 5.626-1.25zm26.875-2.5c.915-1.48-.308-1.48-3.75 0-2.41 1.035-2.4 1.077.24 1.162 1.506.047 3.086-.476 3.51-1.163zm-5.558-1.975c9.14-2.08 9.83-2.896 7.234-8.59-1.692-3.713-1.99-3.763-8.212-1.38-2.592.992-8.79 2.985-13.775 4.428-4.986 1.442-9.064 2.834-9.064 3.092 0 .26.342 1.36.76 2.447 1.01 2.637 11.466 2.638 23.056 0zm-13.19-13.025c.424-.688.21-1.25-.478-1.25s-1.598.562-2.023 1.25c-.424.687-.21 1.25.48 1.25.686 0 1.596-.563 2.02-1.25zm-2.538-3.81c1.238 2.002 5.152 1.56 7.072-.8 1.508-1.854 1.442-2.006-.554-1.257-1.842.69-2.12.38-1.478-1.64.453-1.428.22-2.493-.544-2.493-.733 0-1.334-.844-1.334-1.875 0-1.14-1.163-1.875-2.972-1.875-4.784 0-5.865 2.413-4.687 10.465.087.6.953.432 1.923-.373 1.206-1.002 2.02-1.05 2.574-.154zm-8.088 45.516L30.6 57.758l3.99-.07c2.194-.04 4.36.53 4.813 1.262 1.245 2.015.37 2.09-4.427.373zm52.71-2.33c.247-1.376.864-2.36 1.37-2.19.506.173 2.078.314 3.494.314 1.507 0 2.232.553 1.75 1.335-.455.734-1.545 1.06-2.423.723-.878-.337-2.282.046-3.12.852-1.18 1.136-1.422.903-1.072-1.035z"/></svg>