<svg xmlns="http://www.w3.org/2000/svg" viewBox="0 0 126.95834 134.15247" height="134.152" width="126.958"><path d="M63.45 133.5c-.074-1.538-1.178-2.074-4.1-1.99-2.197.062-4.212-.538-4.478-1.334-.265-.796-1.28-1.448-2.253-1.448-.975 0-1.772-.61-1.772-1.354 0-.744-.703-1.114-1.562-.82-.86.293-2.41-.43-3.444-1.61-1.035-1.178-4.227-2.54-7.093-3.023-7.38-1.246-13.098-7.15-15.28-15.78-2.654-10.484-3.615-12.412-6.188-12.412-1.308 0-3.068-.83-3.912-1.848-1.118-1.347-2.158-1.515-3.832-.62-1.55.83-3.312.767-5.425-.195-3.63-1.654-5.415-5.165-3.024-5.95.898-.295 3.338-2.39 5.42-4.657 3.203-3.48 3.714-4.912 3.302-9.237-.34-3.574.145-5.816 1.613-7.438 1.96-2.166 1.963-2.727.036-8.375-3.607-10.578.122-21.002 12.57-35.135C33.45 9.574 56.333.07 72.84 0c10.894-.046 29.6 8.71 35.873 16.79 2.162 2.785 6.106 7.22 8.765 9.853 9.238 9.154 12.143 20.96 6.853 27.854-1.52 1.984-3.49 4.056-4.374 4.606-1.075.668-1.608 4.06-1.608 10.226 0 8.512.21 9.255 2.715 9.624 4.226.622 4.232 3.478.01 5.072-3.982 1.503-6.058 6.55-3.812 9.268.762.92.74 1.598-.064 1.875-1.11.383-2.512 6.328-2.973 12.62-.088 1.204-.663 2.188-1.276 2.188-.614 0-.792.844-.397 1.875.42 1.095.02 1.875-.963 1.875-.925 0-2.377.837-3.225 1.86-.85 1.022-4.883 3.076-8.966 4.564-4.082 1.49-8.098 3.615-8.923 4.726-2.017 2.715-8.415 6.727-9.306 5.836-.392-.393-1.47-.086-2.394.68-.925.768-3.285 1.075-5.246.683-1.98-.396-4.2-.077-4.997.72-1.076 1.076-1.446.67-1.488-1.63-.054-2.936-.128-2.908-1.774.686-1.048 2.29-1.756 2.93-1.818 1.647zm-16.392-19.073c-.02-.728-.865-.232-1.875 1.103-3.072 4.062-2.08 1.13 3.113-9.197 2.72-5.413 6.453-11.025 8.293-12.473 3.493-2.748 6.206-3.522 4.892-1.396-.446.722.086.91 1.28.45 1.638-.627 1.713-.994.38-1.84-.92-.582-1.134-1.066-.48-1.076.652-.01.51-.695-.314-1.52-1.768-1.768-1.98-5.555-.366-6.552.623-.386.84.415.485 1.778-.785 3.003 3.585 5.024 10.86 5.024 6.205 0 8.77-1.026 8.77-3.508 0-1.452.375-1.618 1.38-.612.935.934.983 2.09.15 3.58-.974 1.738-.48 2.835 2.347 5.213 1.968 1.657 4.24 5.217 5.047 7.912 1.112 3.71 1.85 4.583 3.037 3.597 1.892-1.57 2.363-.89 4.247 6.132.802 2.99 1.744 5.154 2.092 4.805.35-.35.075-2.662-.61-5.14-.684-2.48-.768-4.212-.187-3.853.58.36 1.425 2.334 1.876 4.39 1.13 5.14 3.532 4.83 2.538-.328-.702-3.64-.6-3.835.976-1.875 2.157 2.684 3.358 2.795 3.358.313 0-1.03-.502-1.875-1.116-1.875-.614 0-1.47-.923-1.904-2.05-.688-1.795-.518-1.834 1.35-.314 1.9 1.545 2.04 1.475 1.25-.625-.753-2.008-.6-2.127 1.017-.785 3.11 2.58 2.396-1.154-.91-4.753l-2.812-3.063 2.92 1.52c3.526 1.837 4.926.87 2.672-1.847-1.334-1.606-1.337-1.904-.017-1.593.892.21 1.755-.742 1.918-2.117.162-1.375.684-3.934 1.16-5.687.706-2.59.285-3.5-2.25-4.855-2.655-1.42-3.872-1.365-8.222.375-5.713 2.286-14.038 2.676-17.506.82-2.606-1.395-5.05-7.498-5.05-12.61 0-2.63-1.088-4.135-4.527-6.26-3.934-2.433-5.05-2.61-8.525-1.353-2.2.796-4.803 1.404-5.786 1.35-.983-.05.15-.794 2.52-1.65 6.14-2.218 3.056-3.61-9.445-4.267-9.132-.48-11.018-.173-17.547 2.848-4.023 1.86-8.72 3.632-10.44 3.936-7.35 1.297-7.288.956-3.66 20.478.83 4.47 1.55 9.124 1.602 10.344.053 1.26.78 1.955 1.683 1.61 1.26-.485 1.278-.114.092 1.786-2.272 3.638-.124 4.53 2.71 1.125 1.37-1.644 2.51-2.28 2.532-1.415.022.866-1.084 2.538-2.46 3.716-2.945 2.522-3.097 3.664-.793 5.968 1.095 1.096 2.212 1.288 3.125.536 1.005-.83 1.054-.733.168.33-1.565 1.88-1.628 4.75-.104 4.75.63 0 1.974-2.39 2.987-5.312 1.81-5.22 1.84-5.242 1.79-1.245-.03 2.238-.81 4.697-1.737 5.466-1.885 1.564-2.282 4.842-.587 4.842.603 0 2.026-1.265 3.16-2.812l2.064-2.813-1.387 2.92c-1.802 3.79-.47 5.088 2.046 1.99 1.074-1.326 1.56-1.644 1.076-.707-1.378 2.672 2.284 4.255 4.13 1.785.86-1.15 1.544-2.685 1.522-3.413zm50.39-21.877c-.124-1.635.403-2.204 1.608-1.742.986.38 1.792.025 1.792-.785 0-1.84 3.12-5.045 4.91-5.045.738 0 1.34 1.16 1.34 2.574 0 1.416-.558 2.23-1.24 1.808-.68-.42-2.675.67-4.43 2.426-3.827 3.826-3.75 3.81-3.98.764zm-41.603-7.884c1.135-1.592 1.166-2.188.112-2.188-1.043 0-1.086-.674-.153-2.417 1.956-3.653 1.618-3.9-2.274-1.668-3.38 1.94-3.808 1.907-8.125-.64-4.86-2.87-5.292-2.733-3.278 1.03 1.064 1.988.924 2.254-.83 1.58-1.537-.59-1.83-.36-1.086.847.682 1.1.542 1.356-.42.763-1.823-1.128-1.883-7.304-.086-9.1.973-.974.543-1.924-1.53-3.375l-2.882-2.02 3.09.004c1.7.002 8.12.62 14.267 1.374 10.226 1.254 11.314 1.18 12.812-.867 1.524-2.086 1.636-2.045 1.636.608 0 2.026-1.1 3.263-3.81 4.286-3.06 1.155-3.675 1.98-3.12 4.19.476 1.9-.33 3.844-2.596 6.267-1.807 1.933-2.584 2.53-1.727 1.326zm3.715-6.563c0-.687-.545-.406-1.212.625-.666 1.032-1.212 2.438-1.212 3.125 0 .688.546.407 1.212-.625.667-1.03 1.212-2.437 1.212-3.125zm-3.99-4.143c.41-1.247-.518-1.445-3.84-.822-3.415.64-4.643.348-5.583-1.33-.662-1.184-1.853-1.936-2.646-1.672-1 .333-.823 1.362.572 3.355 1.58 2.254 2.98 2.793 6.486 2.494 2.46-.21 4.715-1.12 5.012-2.024zm14.838 2.05c1.874-.907 3.383-.893 5 .047 1.926 1.12 1.475 1.338-2.685 1.3-4.362-.042-4.658-.213-2.315-1.347zm5.753-4.432c-1.774-.634-2.15-4.1-.446-4.1 1.053 0 3.086 3.792 2.35 4.383-.187.152-1.044.025-1.903-.282zm21.516 43.088c-.977-4.564-1.493-5.44-2.572-4.36-1.13 1.13.767 8.422 2.193 8.422.755 0 .905-1.607.38-4.062zm-29.328-8.006c0-1.088 1.544-1.682 4.375-1.682 2.832 0 4.375.594 4.375 1.682 0 .924 1.22 2.753 2.712 4.062 2.435 2.138 2.63 2.158 1.914.194-.52-1.426-.184-2.188.965-2.188.968 0 2.08-.517 2.47-1.15 1.084-1.752-3.05-5.266-5.38-4.572-1.132.337-3.44-.148-5.13-1.078-2.83-1.558-3.488-1.35-8.385 2.663-4.255 3.487-5.012 4.684-3.803 6.005 1.247 1.36 1.894 1.308 3.7-.302 1.202-1.074 2.186-2.71 2.186-3.633zm-6.956-5.304c-.784-.785-3.016 2.39-2.985 4.247.01.688.84.167 1.843-1.158 1.002-1.325 1.516-2.715 1.142-3.09zm23.206-2.076c0-.303-.562-.552-1.25-.552-.687 0-1.25.596-1.25 1.324 0 .728.563.976 1.25.55.688-.423 1.25-1.02 1.25-1.322zm-10-.552c0-.687-.595-1.25-1.324-1.25-.728 0-.976.563-.55 1.25.424.688 1.02 1.25 1.323 1.25.303 0 .55-.562.55-1.25zM20.638 85.29c.102-3.265-.37-6.78-1.05-7.812-.893-1.354-1.068-.66-.63 2.5.46 3.314.37 3.623-.365 1.273-1.48-4.726-7.058-4.695-9.865.057-1.194 2.02-3.174 3.993-4.4 4.382-2.98.945-2.823 2.682.33 3.683 2.942.933 5.542-.878 9-6.27l2.406-3.75-.794 4.71c-.912 5.414-.19 7.165 2.954 7.165 1.798 0 2.264-1.144 2.414-5.937zm-9.79-3.914c0-.687.563-1.598 1.25-2.023.688-.424 1.25-.21 1.25.478s-.562 1.6-1.25 2.023c-.687.425-1.25.21-1.25-.477zM116.706 67.73c.69-8.245.626-8.494-2.633-9.98-1.838-.836-6.71-1.522-10.824-1.522-4.115 0-9.5-.843-11.97-1.875-5.4-2.256-9.34-2.346-18.15-.415-7.236 1.586-10.718 3.54-6.307 3.54 1.498 0 4.996.91 7.773 2.02 4.44 1.777 6.25 1.825 15.02.4 9.87-1.602 10-1.588 13.222 1.42 3.45 3.218 8.01 11.183 8.01 13.986 0 .92.68 2.353 1.508 3.183 2.262 2.26 3.52-.85 4.35-10.758zM18.348 73.86c0-.614-.844-1.44-1.875-1.836-1.03-.395-1.875-1.412-1.875-2.258 0-1.197.334-1.206 1.5-.04 2.328 2.328 3.714 1.778 3.275-1.3-.507-3.55-4.704-4.447-6.88-1.472-2.398 3.28-2.022 5.45 1.168 6.734 3.697 1.485 4.688 1.522 4.688.172zm85-2.082c0-.303-.562-.552-1.25-.552-.687 0-1.25.596-1.25 1.324 0 .728.563.976 1.25.55.688-.423 1.25-1.02 1.25-1.322zM27.41 61.012c1.594-.817 2.188-2.65 2.188-6.746 0-4.92 7.12-25.084 8.404-23.8.226.226-1.29 4.662-3.37 9.857-3.303 8.246-5.1 19.655-3.097 19.655.378 0 2.33-.848 4.335-1.886 2.006-1.037 5.71-2.315 8.234-2.84l4.588-.952.375-7.698c.207-4.234 1.255-9.397 2.33-11.474 1.073-2.076 2.016-5.07 2.096-6.65.117-2.325.26-2.43.743-.55.33 1.277-.256 4.652-1.3 7.5-3.98 10.86-4.033 18.3-.13 18.3 1.328 0 1.794-1.702 1.8-6.562.003-3.61.638-8.813 1.41-11.563.77-2.75 1.823-7.812 2.337-11.25.912-6.105.936-6.134 1.045-1.25.06 2.75-.704 8.375-1.7 12.5-2.423 10.035-2.37 15.505.163 16.476 1.108.424 7.295-.267 13.75-1.536 11.397-2.24 11.738-2.407 11.738-5.73 0-1.883-.645-5.006-1.433-6.942-.788-1.935-1.832-8.862-2.32-15.394-.488-6.53-1.258-13-1.71-14.375-.454-1.375.002-.812 1.013 1.25 1.03 2.1 1.862 7.394 1.894 12.03.03 4.555.9 10.673 1.93 13.595C83.755 37.9 84.6 42.19 84.6 44.51c0 2.916.58 4.218 1.875 4.218 2.347 0 2.348-3.99.002-10.577-.97-2.722-1.524-5.19-1.23-5.485.89-.89 3.346 6.362 4.017 11.868.754 6.184 3.607 7.945 12.87 7.945 5.61 0 6.243-.296 6.99-3.267.53-2.12-.143-5.586-1.926-9.886-1.927-4.65-2.603-8.422-2.27-12.67l.472-6.05.233 6.874c.152 4.448 1.11 8.2 2.718 10.625 1.456 2.2 2.487 5.865 2.492 8.862.007 4.26.538 5.354 3.192 6.563 4.704 2.143 6.255 1.802 7.866-1.733 3.14-6.89-.09-15.925-8.354-23.376-2.858-2.577-5.196-5.23-5.196-5.894 0-.665-1.087-1.79-2.415-2.502-1.33-.71-2.768-2.404-3.2-3.763-.47-1.478-4.612-4.36-10.33-7.187-8.48-4.19-10.71-4.747-19.903-4.965-9.37-.22-10.546.016-12.37 2.5l-2.013 2.745.825-2.813c.774-2.637.604-2.73-2.697-1.498C42.63 10.13 39.438 13.044 36.39 23.176c-.964 3.2-2.833 7.587-4.153 9.748-3.196 5.232-6.39 16.367-6.39 22.28 0 2.627-.56 4.774-1.25 4.774-1.627 0-1.59-.717.588-11.066 1.01-4.8 3.48-12.29 5.49-16.644 6.062-13.13 7.81-17.57 7.174-18.206-1.95-1.95-13.09 9.644-17.858 18.582-1.33 2.497-3.27 5.388-4.305 6.424-2.967 2.967-2.854 15.65.183 20.646 2.118 3.483 2.963 3.946 5.912 3.24 1.893-.45 4.426-1.326 5.63-1.942zm84.914-14.994c-.124-3.21-.55-6.865-.945-8.125-.676-2.147-.633-2.153.692-.09.777 1.208 1.202 4.864.945 8.124l-.468 5.926-.226-5.835zm-28.686-19.79c0-2.406.257-3.39.572-2.187.314 1.204.314 3.173 0 4.376-.315 1.203-.572.22-.572-2.188zm24.81 1.98c-.055-1.318.24-2.056.655-1.64.416.414.46 1.493.1 2.395-.4.997-.696.7-.756-.755zM54.84 21.853c-.026-2.062.234-3.057.576-2.21.343.845.363 2.533.046 3.75-.316 1.215-.597.523-.622-1.54z"/></svg>