<svg xmlns="http://www.w3.org/2000/svg" viewBox="0 0 128.75 129.98904" height="129.989" width="128.75"><path d="M56.994 128.023c-.552-1.44-1.217-1.65-2.32-.736-1.887 1.56-8.424.486-8.424-1.383 0-.74-.826-.25-1.835 1.083-1.01 1.335-1.853 1.74-1.875.903-.022-.838-.84-1.216-1.816-.842-1.15.442-1.97-.342-2.33-2.226-.462-2.43-.588-2.292-.764.84-.195 3.487-.332 3.59-1.953 1.45-1.183-1.56-2.577-2.036-4.335-1.478-2.163.687-2.592.292-2.592-2.386 0-2.02-.695-3.21-1.875-3.21-1.03 0-1.875.596-1.875 1.324 0 .728-.608.948-1.35.49-.744-.46-1.048-2.322-.676-4.137.372-1.816.37-2.598-.003-1.74-1.337 3.077-3.246 1.585-2.398-1.874.8-3.257.747-3.307-.995-.962-1.723 2.32-1.894 2.086-2.74-3.75-.496-3.424-1.363-6.808-1.927-7.52-.563-.714-1.195-3.948-1.405-7.187-.378-5.857-.405-5.89-4.874-5.89C3.184 88.787 0 85.7 0 80.42 0 75.873 4.247 70.04 7.56 70.04c1.44 0 3.156-1.598 4.358-4.062l1.982-4.063-2.547 3.125C8.74 68.243 7.598 66.294 9.93 62.61c.78-1.233.493-2.276-.908-3.3-1.744-1.275-1.818-2.03-.5-5.072l1.547-3.575-2.49 3.125-2.486 3.125.145-7.5c.174-9.044 1.372-12.652 5.71-17.2 3.042-3.188 3.176-3.773 1.76-7.686-1.848-5.114-.82-12.84 2.208-16.578C21.438-.1 33.094-2.113 46.874 2.433c4.78 1.577 8.19 2.043 9.976 1.364 4.554-1.732 27.076-1.22 31.72.72 2.308.965 4.677 1.456 5.266 1.092 1.883-1.163 13.053 5.327 14.807 8.603.93 1.74 1.372 4.383.98 5.877-.527 2.02.56 4.037 4.236 7.862 2.718 2.83 4.655 5.896 4.303 6.813-.352.918.563 4.026 2.033 6.908 2.84 5.566 2.876 5.99.633 7.376-1.075.662-1.068 1.25.027 2.345 1.02 1.02 1.095 2.423.25 4.643-.665 1.75-.922 3.928-.572 4.84.35.914.144 1.66-.457 1.66-.602 0-.777 1.213-.39 2.696.52 1.985.28 2.433-.903 1.7-1.06-.654-1.42-.423-1.053.675.306.916 2.12 2.085 4.03 2.596 1.912.512 4.248 1.95 5.192 3.194 2.34 3.088 2.242 11.014-.168 13.424-1.6 1.6-6.69 2.636-10.67 2.172-.418-.05-.608 1.29-.423 2.977.185 1.686-.21 3.065-.877 3.065s-.846.595-.398 1.32c.96 1.552-2.025 12.43-3.41 12.43-.52 0-.41 1.407.242 3.125 1.372 3.61.37 4.11-1.932.962-1.373-1.878-1.488-1.672-.873 1.562.606 3.19.44 3.505-1.148 2.194-1.587-1.31-1.776-.95-1.306 2.5.45 3.303.253 3.75-1.095 2.47-.905-.858-2.4-1.562-3.325-1.562-.924 0-1.588.704-1.477 1.563.522 4.022-.077 4.52-4.068 3.374-2.186-.627-4.427-1.853-4.98-2.725-.804-1.267-1.01-1.257-1.026.05-.01.9-.583 1.288-1.27.863-.688-.424-1.25-.21-1.25.474 0 1.193-1.166 1.363-9.21 1.347-1.97-.004-4.22.517-5 1.158-.778.64-4.087 1.025-7.353.854-4.287-.225-5.937.155-5.937 1.366 0 2.334-2.07 2.1-3.006-.34zM78.75 98.62c0-.514-.563-1.282-1.25-1.707-.688-.424-1.25-.176-1.25.552 0 .838-4.35 1.323-11.875 1.323-8.403 0-11.875-.438-11.875-1.5 0-1.164-.334-1.165-1.497-.003-1.162 1.162-.94 2.24.99 4.826 3.07 4.115 6.386 4.74 8.36 1.576 1.525-2.44 8.397-3.452 8.397-1.237 0 .638.907 2.067 2.016 3.176 1.855 1.855 2.255 1.692 5-2.03 1.64-2.223 2.984-4.463 2.984-4.977zm-36.884-2.317c.438-.71-.064-.918-1.176-.49-2.166.83-2.562 1.725-.764 1.725.647 0 1.52-.556 1.94-1.235zm47.51-.015c-.426-.687-1.336-1.25-2.024-1.25-.687 0-.902.563-.477 1.25.425.688 1.335 1.25 2.023 1.25.687 0 .902-.562.477-1.25zm-54.08-5.777c3.42-1.77 3.74-1.773 3.075-.037-1.08 2.82 2.695 1.14 6.96-3.096 1.9-1.887 4.474-3.755 5.72-4.15 1.658-.526 2.126-1.65 1.75-4.212-.327-2.224.236-4.115 1.547-5.203 1.845-1.53 1.975-1.37 1.247 1.53-1.003 3.995 1.98 5.946 9.085 5.946 6.21 0 9.7-2.45 8.738-6.134-.595-2.277-.41-2.5 1.055-1.284.978.81 1.777 3.028 1.777 4.928 0 2.4 1.048 4.123 3.438 5.652 1.89 1.21 4.466 3.267 5.723 4.572 1.466 1.52 3.17 2.092 4.75 1.59 1.434-.454 3.872.137 5.84 1.416 3.113 2.026 3.238 2.03 1.615.05-1.31-1.6-1.398-2.506-.342-3.563 1.057-1.057 2.117-.804 4.162.99 1.51 1.325 2.358 1.744 1.884.932-.474-.812-.28-1.835.43-2.274.71-.438.993-1.28.63-1.867-.364-.59 0-2.522.81-4.297 1.408-3.094 1.57-3.138 3.87-1.057 2.332 2.11 2.356 2.077.86-1.204-1.224-2.688-1.216-3.764.036-5.273.935-1.127 1.243-3.214.76-5.142-.595-2.366-.406-2.993.696-2.31 1.094.675 1.232.27.498-1.46-.558-1.315-1.165-3.798-1.347-5.517-.183-1.718-.76-4.2-1.285-5.517-.703-1.764-.537-2.134.634-1.41 1.244.768 1.29.424.213-1.59-1.772-3.308-1.743-4.357.087-3.225 1.034.638 1.17.202.465-1.49-.55-1.315-1.284-3.798-1.634-5.517l-.635-3.125 3.528 3.125c2.116 1.874 1.317.453-1.993-3.548-3.036-3.67-6.48-7.186-7.65-7.812-3.328-1.78-16.903-1.343-28.268.913-11.76 2.335-24.063 1.148-30.076-2.9-5.12-3.448-13.675-2.392-17.942 2.214-1.852 2-4 3.634-4.772 3.634-.847 0-1.082 1.017-.592 2.56.447 1.408.135 3.377-.694 4.375-1.144 1.38-1.152 1.815-.03 1.815.813 0 1.11.595.66 1.322-1.408 2.28-1.57 7.416-.207 6.573.814-.503.944.295.36 2.222-2.404 7.942-3.566 21.133-1.862 21.133.622 0 1.13 1.44 1.13 3.2 0 1.76.497 2.89 1.105 2.515 1.243-.768 3.91 4.94 4.22 9.023.187 2.502.347 2.542 2.467.623 1.738-1.574 2.61-1.71 3.738-.582 1.127 1.127 1.12 1.82-.03 2.97-.825.825-1.456 2.09-1.4 2.813.053.723.385.598.737-.275.35-.874 2.358-2.478 4.458-3.564zM31.64 74.474c-2.95-1.294-4.367-3.028-5.46-6.675-1.92-6.41.257-11.31 6.352-14.29 3.7-1.812 5.167-1.925 9.145-.704 9.633 2.957 11.977 12.09 4.825 18.802-4.31 4.043-9.776 5.098-14.86 2.867zm11.255-2.14c6.63-3.53 7.85-10.543 2.56-14.704-7.058-5.554-16.725-1.805-16.686 6.47.02 4.655.845 6.204 4.355 8.195 3.24 1.837 6.37 1.85 9.77.04zm-6.02-7.295c-1.046-1.693.366-3.75 2.574-3.75.99 0 1.8 1.125 1.8 2.5 0 2.588-3.016 3.45-4.375 1.25zm49.375 9.078c-5.723-2.88-9.41-10.008-7.43-14.357 1.928-4.233 7.495-7.222 13.45-7.222 13.663 0 15.52 20.293 2.105 23.018-2.42.492-5.3-.02-8.125-1.44zm9.17-1.5c3.92-1.49 6.618-8.77 4.628-12.488-3.103-5.797-11.565-6.82-16.74-2.024-4.286 3.97-4.184 7.5.346 12.03 3.834 3.835 6.648 4.428 11.767 2.482zm-7.704-8.402c.527-2.735 4.16-3.122 4.16-.443 0 1.023-1.036 2.06-2.302 2.302-1.67.322-2.18-.187-1.858-1.858zM26.25 48.837c0-.616.817-1.937 1.815-2.935 1-1 1.52-2.11 1.16-2.47-.706-.708 3.105-1.6 12.054-2.82 4.688-.64 6.042-.342 7.934 1.748 3.698 4.087 1.46 5.512-7.48 4.76-4.38-.37-8.544-1.03-9.254-1.47-.71-.438-1.137-.14-.948.666.188.804-.923 1.953-2.47 2.552-1.635.634-2.812.62-2.812-.03zm73.438.34c-1.204-.315-2.188-1.408-2.188-2.43 0-1.02-.53-1.53-1.176-1.13-1.83 1.133-14.95 2.236-17.04 1.435-1.628-.625-1.594-1.14.263-3.976 1.94-2.96 2.653-3.186 7.856-2.475 9.52 1.302 12.647 2.096 12.05 3.062-.313.507.526 1.71 1.864 2.675 1.338.964 2.433 2.192 2.433 2.727 0 1.026-.515 1.04-4.063.113zM67.24 92.993c-1.125-1.126-2.934-1.706-4.018-1.29-3.398 1.304-2.152 3.335 2.046 3.335 3.72 0 3.866-.15 1.972-2.045zm4.635.795c-.425-.687-1.02-1.25-1.324-1.25-.302 0-.55.563-.55 1.25 0 .688.596 1.25 1.324 1.25.728 0 .976-.562.55-1.25zM10.945 82.85c.326-.99-.21-1.285-1.466-.804-2.154.827-2.764-1.376-.73-2.633 1.57-.97 1.637-3.125.1-3.125-.634 0-1.534 1.744-2.002 3.874-.53 2.406-1.294 3.43-2.02 2.704-1.784-1.784.962-7.738 4.104-8.9 2.35-.87 2.433-1.116.615-1.813-4.347-1.67-9.6 8.666-6.156 12.11 1.383 1.382 6.982.335 7.556-1.413zM126 79.975c.267-3.175-.334-5.08-2.11-6.685-3.72-3.368-5.493-1.22-1.932 2.34 3.104 3.104 3.92 6.22 1.946 7.44-.604.373-1.44-1.038-1.86-3.135-.466-2.33-1.297-3.482-2.136-2.963-.99.61-.993 1.23-.015 2.208 2.068 2.066 1.623 3.883-.515 2.108-1.52-1.262-1.875-1.212-1.875.264 0 2.716 1.42 3.643 4.953 3.23 2.645-.307 3.234-1.105 3.545-4.807zM10 40.038c.736-1.375 1.057-2.5.713-2.5s-1.227 1.125-1.963 2.5-1.057 2.5-.713 2.5 1.227-1.125 1.963-2.5zm56.59-13.84c4.28-3.53 6.648-3.648 3.16-.16-2.712 2.712.33 1.567 4.708-1.773 2.596-1.98 4.292-2.644 4.292-1.68 0 1.065.826.843 2.5-.672 1.375-1.244 2.5-1.825 2.5-1.29 0 .534.844.27 1.875-.585 2.263-1.878 2.515.07.313 2.413-.86.915-.007.675 1.896-.532 3.322-2.108 3.424-2.105 2.583.086-.762 1.987-.363 1.916 3.104-.553 3.66-2.605 5.563-2.248 2.795.526-.747.75.615 1.312 3.693 1.526 5.605.39 7.91-2.202 6.135-6.9-1.373-3.636-2.353-3.636-1.496 0 .553 2.346.024 2.087-3.19-1.564-2.12-2.406-3.878-3.933-3.906-3.393-.027.54-1.243.343-2.7-.437-2.093-1.12-2.445-1.084-1.67.168.73 1.183.37 1.323-1.412.548-1.316-.57-3.79-1-5.5-.95-1.71.047-4.1-.444-5.313-1.093-1.412-.755-2.205-.737-2.205.05 0 .696-1.885.443-4.335-.58-5.49-2.294-6.36-2.28-4.404.077 1.362 1.64.964 1.81-3.013 1.302-2.745-.353-4.284-.108-3.84.61 1.2 1.94-1.458 1.37-3.157-.677-.856-1.03-2.418-1.875-3.472-1.875-1.605 0-1.55.405.347 2.5 1.97 2.178 2.005 2.5.268 2.5-1.098 0-2.38-.622-2.85-1.383-.604-.977-1.146-.914-1.843.214-.773 1.25-1.74 1.103-4.467-.685-2.398-1.57-3.632-1.826-3.967-.82-.306.918-1.874.293-4.222-1.683-4.586-3.86-13.222-4.348-16.87-.956-1.293 1.203-1.806 1.766-1.138 1.25 2.06-1.59 9.5-1.038 13.856 1.03 2.28 1.08 5.675 4.174 7.545 6.872l3.4 4.906 4.38-2.707c3.067-1.896 4.216-2.176 3.83-.936-.303.976-2.338 2.617-4.522 3.648-4.208 1.987-5.24 3.75-2.193 3.75 1.007 0 3.82-1.745 6.25-3.88 3.397-2.982 4.418-3.398 4.418-1.8 0 1.143.563 1.73 1.25 1.305 1.994-1.232 1.445 1.408-.655 3.15-3.344 2.776-.865 2.87 2.655.1 1.86-1.463 3.718-2.32 4.128-1.905.41.415-.94 2.108-3.003 3.76-2.063 1.655-3.175 3.01-2.472 3.014.702.004 3.374-1.722 5.937-3.835zm-50.173-3.972c-.405-2.537-.833-3.214-1.14-1.802-.464 2.148.386 5.864 1.342 5.864.246 0 .155-1.828-.203-4.062zM67.5 9.456c0-.318-1.266-1.193-2.813-1.943-2.7-1.308-2.716-1.285-.386.58 2.552 2.045 3.2 2.32 3.2 1.364z"/><path d="M57.538 128.476c-.042-2.4-1.38-2.828-3.225-1.034-1.524 1.48-8.063.232-8.063-1.538 0-.74-.826-.25-1.835 1.083-1.034 1.367-1.853 1.744-1.875.864-.022-.858-.693-1.42-1.492-1.25-.798.173-1.867-1.093-2.375-2.812-.834-2.822-.938-2.7-1.068 1.25-.104 3.177-.458 3.878-1.292 2.56-.63-.998-.934-2.162-.672-2.586.264-.424-1.18-.528-3.206-.23-3.288.482-3.684.184-3.684-2.77 0-2.924-.292-3.155-2.5-1.974-2.19 1.173-2.5.95-2.5-1.79 0-2.27-.516-2.933-1.875-2.412-2.32.89-2.32-.487 0-4.548 3.076-5.38 2.02-5.873-1.336-.625-2.804 4.382-3.11 4.575-2.47 1.563.44-2.075.193-3.438-.62-3.438-.74 0-.985-.587-.54-1.305.443-.717-.14-2.75-1.298-4.514-1.292-1.973-1.912-4.844-1.608-7.446.272-2.33.01-4.236-.58-4.236s-.724-.562-.3-1.25c.457-.737-.935-1.25-3.397-1.25C3.657 88.788 0 85.77 0 80.76 0 75.894 4.15 70.04 7.6 70.04c1.766 0 3.675-2.535 7.06-9.375 2.55-5.156 5.097-9.375 5.658-9.375.56 0 .376 1.203-.41 2.673-.787 1.47-1.57 4.143-1.742 5.94-.17 1.794-.768 4.34-1.326 5.656-.734 1.73-.596 2.134.498 1.458 1.626-1.005.838 4.152-1.26 8.255-1.782 3.48-1.125 4.388.74 1.02l1.728-3.124.86 3.428c.474 1.885 1.28 3.167 1.795 2.85 1.383-.855 3.85 5.26 3.008 7.455-.405 1.054-.047 1.888.81 1.888 1.148 0 1.102.547-.177 2.155-1.064 1.337-.33 1.086 1.937-.66 4.67-3.6 6.794-1.854 3.724 3.06l-2.23 3.57 3.746-3.437c4.057-3.723 8.295-4.95 5.512-1.596-1.332 1.605-1.046 1.6 2.215-.026 2.06-1.027 4.465-2.737 5.347-3.8.882-1.06 3.098-2.704 4.926-3.65 2.68-1.385 3.22-2.41 2.797-5.3C52.506 77.012 53 74.93 54 74.1c1.38-1.145 1.704-.77 1.67 1.93-.037 2.723.754 3.61 4.232 4.75 4.765 1.558 12.378.387 13.944-2.146.54-.872.364-2.74-.388-4.153-1.228-2.304-1.155-2.39.712-.85 1.144.943 2.08 3.352 2.08 5.354 0 2.834.968 4.21 4.375 6.22C83.03 86.624 85 88.25 85 88.82c0 .57 1.744 1.905 3.876 2.97 3.284 1.637 3.642 1.65 2.346.09-2.8-3.375 1.9-2.128 5.483 1.454 3.59 3.59 4.6 2.718 1.2-1.04-1.593-1.76-1.747-2.663-.642-3.77 1.105-1.104 2.167-.783 4.426 1.34l2.97 2.792-.35-4.425c-.402-5.07 1.105-6.62 4.182-4.297 1.807 1.364 1.894 1.342.57-.142-2.617-2.935-1.74-4.297 1.13-1.758l2.695 2.38-2.168-3.37c-1.634-2.537-1.846-3.926-.858-5.624.722-1.24 1.33-1.66 1.35-.93.02.727.91 2.415 1.974 3.75 1.77 2.22 1.786 2.107.175-1.325-.967-2.062-2.128-5.437-2.58-7.5-.77-3.534-.71-3.61 1.076-1.323 2.18 2.792 2.512 1.69.58-1.92-.723-1.352-1.518-3.987-1.768-5.857s-.877-4.525-1.393-5.9c-.77-2.05-.442-1.936 1.825.625l2.764 3.125-2.722-5.625-2.723-5.625 2.85 2.5 2.85 2.5-2.977-5.228c-3.803-6.68-2.208-8.42 2.582-2.818 2.02 2.363 3.696 3.928 3.724 3.477.027-.45-1.92-3.175-4.325-6.056-2.406-2.88-4.375-5.707-4.375-6.283 0-.575-1.787-2.32-3.972-3.874-3.35-2.385-5.355-2.783-12.812-2.545-4.863.156-13.467 1.14-19.12 2.188-11.695 2.167-23.32.852-29.284-3.312-2.45-1.71-4.704-2.145-8.658-1.668-6 .723-10.288 2.614-9.353 4.126.342.553-.806 1.656-2.552 2.45-2.247 1.025-3.068 2.264-2.812 4.246.2 1.54-.076 3.503-.61 4.362-.536.86-.444 1.562.204 1.562 1.52 0-1.288 8.107-6.13 17.7-3.78 7.486-6.13 9.445-3.716 3.1.854-2.248.842-3.3-.04-3.3-.71 0-.974-.514-.585-1.143.388-.63.136-1.333-.56-1.565-.727-.242-.165-2.477 1.316-5.24 3.448-6.434 2.396-7.14-1.174-.788-1.54 2.743-2.917 4.986-3.06 4.986-.14 0-.167-3.515-.06-7.812.23-9.157 1.55-12.98 5.86-16.988 2.923-2.72 3.03-3.206 1.493-6.88-2.18-5.22-.63-13.677 3.282-17.922 6.48-7.03 16.432-8.392 30.22-4.134 5.86 1.81 8.987 2.19 11.176 1.36 4.92-1.87 27.144-.855 32.556 1.488 2.602 1.127 4.38 1.478 3.948.78-1.46-2.362 8.79 2.716 12.335 6.11 2.883 2.762 3.385 4.083 2.78 7.312-.702 3.735 1.53 7.936 4.216 7.936 1.095 0 4.412 6.383 4.07 7.835-.123.528.528 2.778 1.45 5 1.853 4.473 2.562 17.605.894 16.574-.58-.36-.81 1.962-.512 5.158.5 5.347.373 5.67-1.58 4.06-1.938-1.6-1.992-1.508-.623 1.06.824 1.548 2.562 2.813 3.863 2.813 3.365 0 7.547 5.874 7.547 10.6 0 5.487-3.622 8.585-9.265 7.926-4.154-.485-4.356-.333-3.97 2.982.224 1.92-.115 3.492-.753 3.492s-.792.595-.344 1.32c.924 1.495-2 12.43-3.324 12.43-.473 0-.608 1.266-.3 2.813.523 2.62.45 2.655-1.054.518-4.165-5.92-4.62-6.188-2.786-1.632 1.98 4.916 1.43 7.846-.848 4.516-.905-1.322-1.033-.698-.458 2.224.866 4.397.46 4.744-3.23 2.768-2.14-1.144-2.418-.864-2.418 2.435 0 3.658-.076 3.702-4.063 2.34-2.234-.766-4.402-1.903-4.818-2.53-.42-.63-1.53-.402-2.5.52-.96.91-4.457 1.76-7.772 1.887-3.315.13-6.69.738-7.5 1.353-.81.616-4.177 1.04-7.482.943-4.26-.125-6.34.39-7.15 1.772-.996 1.702-1.145 1.672-1.178-.24zm14.944-21.563c.012.688 1.427-.384 3.145-2.38 3.397-3.952 3.722-5.383 1.873-8.245-1.03-1.594-1.215-1.54-1.23.36-.018 2.01-1.183 2.198-11.582 1.875-8.436-.262-11.478-.782-11.25-1.922.462-2.312-1.792-1.896-2.712.5-.913 2.38 3.848 10.022 6.243 10.022.87 0 2.283-1.313 3.14-2.917 2.26-4.222 6.777-3.827 8.813.77 1.087 2.458 1.95 3.188 2.585 2.188.525-.825.963-.937.974-.25zm17.518-10c-.856-1.03-2.19-1.857-2.966-1.835-.775.022-.317.866 1.017 1.875 3.118 2.358 3.926 2.34 1.95-.04zm-48.125-.625c.425-.687.21-1.25-.477-1.25-.688 0-1.598.563-2.023 1.25-.425.688-.21 1.25.477 1.25.688 0 1.598-.562 2.023-1.25zm29.097-3.46c-1.055-1.27-1.652-1.376-1.993-.35-.34 1.02-1.146.87-2.657-.498-1.98-1.792-2.366-1.742-4.467.58-2.285 2.524-2.26 2.54 4.16 2.31 5.493-.193 6.236-.5 4.956-2.04zM11.25 83.164c0-1.03-.984-1.892-2.188-1.914-2.073-.04-2.074-.127-.02-1.687 1.194-.906 1.803-2.013 1.355-2.46-1.668-1.67-2.858-.7-4 3.248-1.063 3.69-1.182 3.77-1.284.865C4.99 77.72 7.06 74.43 10 73.453c1.547-.514 1.484-.785-.36-1.546-4.444-1.834-9.533 6.4-6.882 11.137 1.46 2.607 8.492 2.705 8.492.12zm11.25-1.556c0-.343-.844.076-1.875.93-1.502 1.248-1.875 1.237-1.875-.054 0-.886-.338-1.274-.75-.86-.413.412-.363 1.376.11 2.143.63 1.017 1.34.998 2.626-.07.97-.805 1.764-1.745 1.764-2.09zm103.5 1.93c2.273-2.272 1.808-5.5-1.316-9.133-2.046-2.38-3.468-3.024-5.2-2.36-2.263.87-2.246.967.334 1.922 3.03 1.12 5.703 6.735 4.28 8.99-.557.882-1.177.018-1.572-2.19-.358-2.005-1.333-3.873-2.167-4.15-1.717-.57-3.53 5.08-2.28 7.1 1.105 1.788 6.067 1.676 7.92-.178zm-6.417-1.832c-.458-.458-.833-1.414-.833-2.125 0-.783.582-.71 1.48.188.813.813 1.188 1.77.832 2.125-.355.355-1.02.27-1.48-.188zM11.417 38.163c.813-1.646.142-1.303-1.967 1.008-1.76 1.93-3.182 4.18-3.16 5 .043 1.63 3.16-2.02 5.127-6.007zM66.832 26.16c4.63-4.066 5.98-3.728 2.23.557-2.41 2.755-1.046 2.218 5-1.97 2.295-1.588 3.438-1.863 3.438-.826 0 .87 1.377.26 3.125-1.382 1.72-1.614 3.125-2.487 3.125-1.94 0 .548.844.296 1.875-.56 2.223-1.844 2.544.082.375 2.25-2.323 2.323.38 1.77 3.018-.617 2.213-2.002 2.29-1.988 1.432.25-.806 2.1-.447 2.037 3.216-.572 3.99-2.842 4.078-2.85 2.7-.276-1.188 2.22-1.108 2.54.48 1.93 1.047-.402 1.904-.16 1.904.536 0 1.426 4.8.536 7.188-1.333 2.096-1.64 1.967-3.69-.415-6.615-1.95-2.393-1.967-2.392-1.244.073.58 1.983.083 1.774-2.402-1.01-1.723-1.93-3.655-3.186-4.294-2.792-.64.396-1.515.148-1.946-.55-.432-.7-1.348-1.272-2.036-1.272-.687 0-.843.66-.346 1.463.643 1.04.212 1.163-1.488.424-1.316-.57-3.79-1-5.5-.95-1.71.047-4.1-.444-5.313-1.093-1.468-.785-2.205-.733-2.205.158 0 .936-.727.95-2.416.045-1.33-.71-3.974-1.885-5.878-2.61C67.1 6.2 67.06 6.232 69.16 8.554c2.1 2.32 2.03 2.382-2.256 2.042-2.946-.233-4.143.105-3.582 1.012.464.75-.5.423-2.143-.727-3.572-2.502-7.544-2.955-5.18-.592 2.322 2.322 1.77 3.734-.9 2.304-1.704-.912-2.536-.87-2.876.148-.32.96-1.663.654-4.068-.92-2.76-1.81-3.716-1.975-4.136-.716-.384 1.15-1.553.673-3.932-1.606-2.61-2.5-4.654-3.24-8.924-3.23-10.027.023-12.563.595-13.95 3.145-1.36 2.5-1.36 2.5 1.55 0s2.91-2.5 2 0c-.732 2.006-.6 2.192.662.938 4.13-4.1 14.79-.544 21.355 7.125 4.468 5.22 4.53 5.245 7.737 3.144 1.778-1.166 3.233-1.56 3.233-.877s-1.688 1.94-3.75 2.795c-2.063.855-3.75 2.048-3.75 2.652 0 2.276 3.82.962 8.082-2.78 3.397-2.984 4.418-3.4 4.418-1.802 0 1.143.563 1.73 1.25 1.305 2.216-1.37 1.33 1-1.563 4.184-2.9 3.19-1.602 2.79 4.376-1.35 1.89-1.308 3.437-1.825 3.437-1.148 0 .676-1.547 2.384-3.438 3.795-1.89 1.41-2.753 2.582-1.918 2.604.835.02 3.507-1.707 5.938-3.84zM17.038 20.51c.104-3.67-.23-5.143-.918-4.055-1.702 2.686-1.22 9.96.65 9.824.058-.003.178-2.6.268-5.768zm23.587 2.026c-.425-.687-1.335-1.25-2.023-1.25-.687 0-.902.563-.477 1.25.425.688 1.335 1.25 2.023 1.25.687 0 .902-.562.477-1.25zM67.5 9.458c0-.32-1.266-1.195-2.813-1.945-2.7-1.308-2.716-1.285-.386.58 2.552 2.045 3.2 2.32 3.2 1.364zM28.877 72.665c-3.526-3.526-4.39-9.262-2.068-13.75 2.428-4.696 5.422-6.378 11.358-6.378 3.578 0 5.55.968 9 4.417 2.428 2.43 4.128 4.705 3.776 5.056-.352.353-2.352-1.072-4.446-3.165-7.098-7.1-18.248-3.866-18.248 5.29 0 5.538 2.095 8.12 7.392 9.114 5.782 1.084 9.136-.288 11.94-4.886 1.325-2.173 2.41-3.204 2.413-2.292.003.912-1.64 3.303-3.65 5.313-2.973 2.974-4.717 3.653-9.374 3.653-3.95 0-6.454-.733-8.093-2.372zm53.527-1.28c-5.125-5.127-5.05-11.2.192-15.61 5.516-4.643 12.61-4.474 17.5.416 3.964 3.964 4.398 6.34 2.273 12.436-1.694 4.856-4.393 6.41-11.134 6.41-4.057 0-5.97-.79-8.832-3.653zm14.954.215c6.95-5.77 3.02-16.562-6.03-16.562-8.79 0-13.747 6.894-9.996 13.903 2.594 4.848 11.593 6.34 16.026 2.66zm-9.3-6.67c-1.288-2.085 1.61-4.475 3.333-2.75 1.443 1.442.54 4.108-1.39 4.108-.606 0-1.48-.61-1.942-1.358zm-50.046-.36c-1.06-2.76.35-4.17 2.26-2.26 1.126 1.127 1.13 1.825.02 2.937-1.113 1.112-1.655.95-2.28-.678zM26.25 48.22c0-1.83 6.826-6.932 9.276-6.932 1.6 0 4.596-.336 6.654-.748 2.885-.577 4.343-.104 6.363 2.064 1.44 1.547 2.342 3.263 2.002 3.814-.57.924-16.843.18-17.88-.817-.255-.243-1.28.374-2.278 1.373-1.73 1.73-4.137 2.456-4.137 1.247zm72.348-1.038c-1.153-1.234-3.488-1.337-10.078-.445-4.717.64-8.897.84-9.288.45-1.267-1.267.836-5.752 3.02-6.44 4.227-1.33 15.17 1.318 17.753 4.297 1.372 1.582 2.495 3.072 2.495 3.31 0 1.053-2.536.29-3.902-1.172z"/><path d="M57.645 128.476c-.166-2.5-3.42-2.982-4.213-.625-.41 1.22-.983 1.185-2.604-.152-1.143-.944-2.078-1.297-2.078-.785 0 .513-.79.277-1.753-.524-1.347-1.118-1.905-1.08-2.405.16-.508 1.256-.945 1.2-1.978-.262-.974-1.377-1.33-1.44-1.345-.238-.01.9-.635 1.256-1.388.79-.752-.464-1.11-2.185-.798-3.823.313-1.638.085-2.98-.507-2.98-.593 0-1.142 1.83-1.222 4.064-.08 2.235-.398 3.1-.707 1.924-.43-1.637-1.426-1.967-4.23-1.407-3.312.663-3.668.415-3.668-2.547 0-3.24-2.147-3.987-4.043-1.407-.505.688-.972-.718-1.037-3.125-.064-2.406-.4-3.67-.748-2.812-.347.86-1.154 1.562-1.793 1.562-.64 0-.305-2.055.745-4.566 2.38-5.7 1.51-7.018-1.19-1.8-2 3.87-4.05 5.423-2.776 2.104.79-2.062-1.645-10.738-3.015-10.738-.514 0-.81-3.025-.654-6.724l.283-6.724-4.616.62C4.67 89.16 0 85.75 0 81.225c0-4.676 3.66-9.982 7.4-10.73 2.84-.568 4.17-2.103 6.724-7.77 1.75-3.885 4.102-8.188 5.224-9.563 1.978-2.424 1.996-2.41.584.486-.8 1.64-1.597 4.453-1.77 6.25-.175 1.794-1.246 5.373-2.382 7.95-2.407 5.47-1.738 6.23 1.1 1.25 1.684-2.95 1.85-3.025 1.177-.532-.77 2.85 1.418 10.15 3.464 11.562.572.395-.123 1.77-1.544 3.055-2.53 2.29-2.565 2.287-1.72-.092.674-1.9.522-2.116-.702-.988-1.073.99-1.186 2.116-.36 3.59 1.098 1.964 1.368 1.91 3.154-.64 2.242-3.202 5.128-2.235 3.994 1.34-.432 1.36-.172 2.393.603 2.393.82 0 .554 1.367-.672 3.438l-2.034 3.437 2.99-3.437c1.643-1.89 3.952-3.438 5.13-3.438 2.64 0 2.76 1.68.265 3.75-1.03.856-1.875 2.1-1.875 2.765 0 .664 1.752-.266 3.892-2.068 2.617-2.2 4.704-3.017 6.368-2.49 1.67.53 3.552-.218 5.795-2.307 1.826-1.702 4.535-3.718 6.02-4.48 1.814-.932 2.492-2.18 2.068-3.8-.347-1.33.027-3.446.832-4.705 1.025-1.603 1.283-1.693.86-.3-.944 3.107.894 4.975 6.037 6.135 6.612 1.49 13.786-.953 13.66-4.654-.05-1.497.425-2.4 1.058-2.01.633.39.908 2.36.612 4.38-.41 2.787.087 3.988 2.067 5.004 1.432.735 4.1 2.728 5.925 4.43 2.407 2.242 4.073 2.855 6.055 2.225 2.03-.644 3.67.028 6.367 2.613 3.86 3.697 5.072 2.924 1.538-.98-1.56-1.723-1.734-2.68-.682-3.73 1.05-1.052 2.39-.37 5.22 2.662 2.094 2.24 3.807 3.565 3.807 2.943 0-.622-.698-1.83-1.552-2.684-1.236-1.236-1.21-1.764.133-2.593 1.177-.727 1.27-1.3.303-1.897-.76-.47-1.383-1.418-1.383-2.105s.522-.926 1.16-.532c.638.394 1.533-.458 1.988-1.893.806-2.538.9-2.547 3.48-.33 2.643 2.273 2.644 2.27.692-.847-1.09-1.74-1.596-4.147-1.143-5.43.715-2.026 1.002-1.893 2.365 1.1.853 1.87 1.822 3.133 2.152 2.803.33-.33-.25-2.23-1.29-4.223-1.038-1.993-1.892-4.715-1.896-6.05-.008-2.402.012-2.402 1.936 0 1.87 2.333 1.892 2.32.59-.368-.744-1.538-1.853-5.474-2.465-8.747-.99-5.288-.915-5.68.66-3.53 2.286 3.13 2.214 1.002-.105-3.055-2.4-4.195-2.325-5.68.18-3.6 1.558 1.293 1.386.396-.713-3.72-1.52-2.98-2.446-5.742-2.054-6.134.392-.392.853-.47 1.025-.172.17.297 2.44 2.825 5.043 5.618 4.444 4.77 7.88 13.134 4.553 11.077-.983-.607-1.165-.053-.585 1.775.512 1.612.302 2.656-.535 2.656-.985 0-1 .705-.055 2.472 1.103 2.062.983 2.342-.726 1.686-1.754-.673-1.842-.397-.61 1.903.79 1.478 2.502 2.688 3.803 2.688 1.3 0 3.53 1.483 4.956 3.294 5.524 7.024 1.39 16.174-6.872 15.21-4.152-.486-6.468 1.48-4.843 4.11.386.625.12 1.136-.594 1.136-.88 0-.86.955.057 2.97 1.067 2.343.907 3.653-.76 6.196-1.162 1.773-1.696 3.9-1.187 4.723.597.965.396 1.17-.567.575-1.082-.67-1.284.053-.733 2.62.664 3.092.55 3.278-.887 1.462-.907-1.143-2.35-3.112-3.21-4.375-.927-1.363-.794-.313.33 2.583 1.91 4.928 1.455 7.855-.692 4.46-.852-1.35-1.193-.674-1.28 2.535-.064 2.407-.4 3.672-.748 2.813-1.143-2.833-4.172-1.7-4.172 1.563 0 1.72-.703 3.118-1.563 3.108-3.775-.04-7.187-1.675-7.187-3.444 0-1.463-.546-1.29-2.295.726-1.746 2.013-2.643 2.298-3.75 1.19-1.107-1.105-1.455-1.104-1.455.008 0 .872-1.785 1.395-4.42 1.296-2.432-.09-5.005.417-5.718 1.13-.72.72-4.263 1.057-7.973.757-5.66-.458-6.768-.195-7.264 1.72-.538 2.073-.598 2.08-.73.073zM72.5 116.288c0-.687-.563-1.25-1.25-1.25-.688 0-1.25.563-1.25 1.25 0 .688.563 1.25 1.25 1.25.688 0 1.25-.562 1.25-1.25zm-.02-8.82c.01.994 1.426-.1 3.145-2.43 3.196-4.332 4-8.06 2.006-9.294-.614-.38-1.438.143-1.83 1.16-.948 2.476-22.86 2.177-22.363-.303.443-2.21-1.772-1.947-2.64.313-1.325 3.455 2.502 9.604 6.326 10.165.974.143 2.392-1.1 3.15-2.765 1.99-4.367 6.58-4.016 8.65.663 1.087 2.457 1.95 3.187 2.585 2.187.69-1.087.96-1.003.973.306zm17.545-10.524c-.87-1.048-2.173-1.906-2.897-1.906-.723 0-.233 1.053 1.09 2.34 2.788 2.708 4.145 2.383 1.807-.434zm-53.775.386c0-.573-.53-1.042-1.176-1.042-.647 0-1.466.47-1.82 1.042-.354.573.175 1.042 1.176 1.042 1 0 1.82-.47 1.82-1.042zm4.964.257c1.01-.64 1.42-1.582.908-2.094-.513-.512-1.882.02-3.045 1.182-2.26 2.26-.906 2.837 2.137.912zm29.65-4.72c-1.594-1.594-2.114-1.693-2.114-.403 0 1.316-.532 1.23-2.297-.367-2.152-1.947-2.447-1.913-4.675.55L59.4 95.272l5.247-.38c2.886-.207 5.645.02 6.133.51.488.486 1.18.59 1.54.23.362-.36-.295-1.605-1.457-2.767zm10.386 1.7c0-.26-.984-1.244-2.188-2.188-1.982-1.556-2.026-1.512-.47.47 1.632 2.083 2.658 2.745 2.658 1.717zm12.5 0c0-.26-.984-1.244-2.188-2.188-1.982-1.556-2.026-1.512-.47.47 1.632 2.083 2.658 2.745 2.658 1.717zm-42.266-5.382c-.902-.362-1.98-.317-2.395.098-.417.416.32.71 1.64.657 1.455-.06 1.752-.356.754-.755zm-41.696-3.99c1.96-1.242 1.495-7.873-.6-8.56-.79-.26-2.012 1.103-2.714 3.028-1.103 3.025-1.29 3.13-1.375.777-.112-3.06 3.238-7.054 5-5.964.633.39 1.15.097 1.15-.653 0-2.216-3.623-2.946-5.77-1.163C1.96 75.58.97 80.053 3.12 83.332c2.033 3.102 3.894 3.622 6.668 1.864zM110 84.414c-.856-1.03-1.75-1.875-1.99-1.875-.237 0-.108.844.288 1.875.396 1.032 1.29 1.875 1.99 1.875.73 0 .61-.794-.288-1.875zm15.536-.09c3.337-3.337 1.52-10.964-2.953-12.383-3.857-1.224-5.832.618-2.468 2.303 2.74 1.373 5.756 8.295 3.614 8.295-.58 0-1.236-1.265-1.456-2.812-.62-4.358-4.084-3.483-4.533 1.145-.366 3.79.275 4.47 4.983 5.273.467.08 1.732-.738 2.813-1.82zM17.5 74.592c0-1.587-.577-.878-2.4 2.948-1.403 2.947-1.377 2.987.456.7 1.07-1.335 1.944-2.976 1.944-3.647zm11.818-2.62c-3.265-3.265-4.15-10.073-1.866-14.342 1.733-3.238 8.13-5.536 12.808-4.6C44.628 53.9 50 58.244 50 60.9c0 .923-1.616-.13-3.592-2.342-4.828-5.404-11.582-5.648-15.945-.575-5.575 6.48-2.45 14.1 6.49 15.82l4.922.948-4.744.145c-3.495.106-5.55-.664-7.812-2.925zm62.48 1.833c9.056-1.743 12.444-10.518 6.293-16.297-5.96-5.598-16.942-2.33-18.478 5.5-.44 2.24-.548 2.152-.692-.562-.23-4.378 4.664-8.703 10.777-9.523 6.056-.812 9.645.97 12.302 6.108 1.673 3.238 1.776 4.744.593 8.693-1.677 5.597-4.386 7.372-10.948 7.175l-4.77-.144 4.923-.947zm-45.548-3.14c.856-1.03 1.837-1.875 2.18-1.875.345 0-.074.844-.93 1.875-.856 1.032-1.837 1.875-2.18 1.875-.345 0 .074-.843.93-1.875zM9.952 63.88c1.345-2.515.563-6.342-1.297-6.342-1.386 0-.124-3.47 2.798-7.693 2.49-3.595 2.97-5.37 1.154-4.248-.63.39-1.38.002-1.666-.86-.31-.937-1.19-.31-2.185 1.555-1.524 2.86-1.49 2.977.415 1.406 1.144-.944 2.08-1.398 2.08-1.01 0 1.03-5.153 9.6-5.772 9.6-.5 0-.336-1.102 1.318-8.966.387-1.837 2.234-5.16 4.105-7.383 1.9-2.258 2.59-3.777 1.564-3.44-1.012.334-3.105 2.474-4.652 4.757C6.266 43.54 5 45.027 5 44.557c0-2.445 4.3-10.578 7.183-13.59 2.557-2.67 2.964-3.78 1.81-4.937-.822-.82-1.493-4.397-1.493-7.948 0-7.786 3.002-12.256 10.527-15.673C28.48-.07 40.942-.985 37.5 1.345c-1.418.96-1.1 1.09 1.308.534 1.75-.404 5.852.172 9.115 1.28 3.263 1.107 7.05 1.66 8.413 1.226 5.435-1.725 25.53-1.54 30.54.28 2.75 1 6.405 1.984 8.124 2.187 8.462 1 14.437 6.147 13.987 12.048-.324 4.264 1.64 8.638 3.877 8.638.84 0 2.128 1.547 2.864 3.438 7.972 20.476 7.194 22.656-3.202 8.982-9.165-12.056-10.367-12.562-25.717-10.812-6.84.78-18.533 1.35-25.986 1.266-11.7-.13-13.92-.492-16.25-2.654-3.225-2.992-11.028-3.324-16.128-.687C26.55 28.05 25 28.538 25 28.153c0-.386-1.173-.074-2.607.694-1.434.767-2.29 1.71-1.905 2.097.386.386 1.51.032 2.496-.787 1-.83 2.102-.99 2.49-.36.384.62-.69 1.76-2.388 2.533-1.857.845-3.15 2.535-3.247 4.244-.205 3.585-.75 8.195-1.446 12.214-.71 4.1-7.37 17.5-8.698 17.5-.57 0-.454-1.084.256-2.41zm56.945-37.174c4.635-3.103 4.806-3.133 2.478-.443l-2.5 2.89L70 27.56c1.72-.876 4.134-2.473 5.366-3.55 2.07-1.805 2.174-1.77 1.363.474-.758 2.092-.415 2.005 2.467-.622 1.842-1.678 4.56-3.237 6.042-3.463 2.625-.402 2.635-.348.408 2.113-2.77 3.06-1.153 3.37 2.12.408 2.213-2.002 2.29-1.988 1.432.25-.81 2.106-.44 2.043 3.384-.586 2.36-1.622 3.588-2.184 2.728-1.248-2.347 2.558-1.88 3.96.837 2.506 1.703-.91 2.536-.87 2.874.144.772 2.315 7.793-1.693 8.224-4.694.205-1.428-.604-3.392-1.797-4.363-1.945-1.585-2.08-1.51-1.298.733.538 1.545-.554.828-2.857-1.875-2.125-2.493-3.742-3.595-3.76-2.562-.028 1.41-.368 1.48-1.535.312-1.88-1.88-3.94-1.972-2.798-.125.574.93-.04.898-1.9-.096-1.51-.81-3.588-1.15-4.615-.754-1.028.394-3.066.075-4.53-.708-1.778-.952-2.805-.997-3.092-.137-.26.78-2.358.357-5.312-1.07-6.047-2.922-7.036-2.962-4.844-.194 1.627 2.055 1.54 2.055-1.68 0-4.35-2.777-4.73-2.73-4.73.584 0 2.14-.333 2.417-1.5 1.25-.825-.825-2.532-1.5-3.794-1.5-1.99 0-2.095.374-.795 2.813 1.403 2.633 1.353 2.693-.784.938-1.718-1.41-2.41-1.493-2.802-.33-.393 1.167-1.473 1.05-4.43-.478-2.812-1.455-4.046-1.61-4.398-.555-.295.885-1.656.207-3.433-1.71-2.723-2.94-4.46-3.43-13.063-3.703-2.812-.09-7.504 2.566-7.498 4.242.002.363 1.83.754 4.063.87 3.256.17 3.565 0 1.56-.85-2.2-.933-2.082-1.07.978-1.148 6.893-.174 16.39 6.25 18.748 12.68.46 1.248 1.534 1.114 4.808-.598l4.217-2.206-2.95 2.518c-1.624 1.385-3.767 2.518-4.762 2.518-.996 0-1.463.563-1.038 1.25 1.436 2.324 5.14 1.27 8.738-2.487 4.414-4.606 5.967-3.806 1.788.922-2.75 3.113-2.77 3.208-.205 1.044 1.55-1.308 3.23-1.97 3.73-1.468.503.5-.485 1.985-2.194 3.298-4.514 3.47-1.125 2.983 4.148-.596 2.462-1.67 4.215-2.355 3.895-1.52-.32.833-2.116 2.466-3.99 3.63-2.025 1.254-2.638 2.125-1.51 2.145 1.043.018 4.137-1.466 6.874-3.3zm-49.9-6.12c.074-3.474-.285-5.062-.92-4.063-1.672 2.64-1.166 9.77.694 9.765.058 0 .16-2.566.227-5.702zm24.253 1.952c0-.687-.877-1.25-1.95-1.25-1.07 0-1.6.563-1.175 1.25.425.688 1.302 1.25 1.95 1.25.646 0 1.175-.562 1.175-1.25zM21.25 5.9c0-.687-1.125-.23-2.5 1.013-1.375 1.245-2.5 2.825-2.5 3.513 0 .687 1.125.232 2.5-1.013 1.375-1.244 2.5-2.825 2.5-3.512zm16.942 59.247c-1.3-2.104.54-4.377 2.2-2.717.978.978.978 1.74 0 2.717-.98.98-1.595.98-2.2 0zm50 0c-1.3-2.104.54-4.377 2.2-2.717.978.978.978 1.74 0 2.717-.98.98-1.595.98-2.2 0zm-61.09-18.375c.756-1.968 2.418-2.27 3.435-.626.377.61-.392 1.39-1.708 1.734-1.676.438-2.193.106-1.728-1.108zm71.953 1.186c-.864-.348-1.253-1.148-.864-1.776 1.063-1.72 2.703-1.377 3.512.73.736 1.92.12 2.162-2.647 1.046zm-61.267-1.706c-5.28-.755-9.548-3.117-6.267-3.47.883-.093 3.292-.53 5.355-.972 6.154-1.315 10.82-.977 11.988.868 2.816 4.447.425 5.22-11.075 3.574zm41.348-.35c-1.26-2.04 4.736-6.14 7.667-5.24 1.415.434 4.217.905 6.226 1.046 3.835.27 5.868 2.912 3.01 3.913-3.633 1.276-16.16 1.483-16.904.282z"/><path d="M51.25 127.598c0-.873-.82-1.263-1.835-.873-1.01.387-2.184.14-2.61-.552-.506-.817-1.395-.744-2.54.208-1.214 1.007-1.765 1.04-1.765.1 0-.75-.772-1.067-1.716-.705-1.262.485-1.554-.186-1.104-2.54.36-1.885.04-3.197-.784-3.197-.768 0-1.396.877-1.396 1.95 0 1.07-.524 1.624-1.164 1.23-.64-.397-1.517-.15-1.948.55-.432.7-1.888 1.27-3.236 1.27-2.024 0-2.306-.573-1.62-3.305.77-3.066.582-3.258-2.593-2.65-3.06.584-3.363.337-2.855-2.32.312-1.636.084-2.975-.508-2.975-.593 0-1.12.704-1.176 1.563-.068 1.1-.273 1.135-.69.117-.325-.795.28-3.608 1.343-6.25 1.856-4.61 1.846-4.696-.247-2.14-1.2 1.466-2.905 3.716-3.79 5-.885 1.285-1.282 1.646-.882.803.855-1.8-1.57-11.592-2.87-11.59-.905 0-.986-7.84-.117-11.252.346-1.356-.386-1.775-2.647-1.513-6.913.8-12.58-2.692-12.4-7.638.087-2.434.227-2.37 1.317.606 1.38 3.765 4.056 5.21 7.58 4.092 3.25-1.03 2.752-8.76-.546-8.5-1.195.094-1.865-.328-1.488-.938.377-.61 1.496-1.11 2.487-1.11 2.79 0 2.123-2.45-1.012-3.71-2.695-1.083-2.704-1.133-.214-1.21 1.863-.056 3.43-1.855 5.538-6.353 3.697-7.895 5.99-6.27 2.532 1.797-2.983 6.96-3.176 8.544-.63 5.177 2.482-3.28 2.45-.03-.047 4.757-2.498 4.79-2.292 5.778.506 2.427l2.29-2.742 1.484 3.258c1.237 2.715 1.136 3.588-.603 5.242-1.935 1.842-1.974 1.76-.544-1.14 1.425-2.887 1.385-2.975-.525-1.16-2.71 2.578-1.367 7 1.422 4.685 1.02-.847 2.642-1.655 3.604-1.797 2.015-.295 2.353 1.502.5 2.647-.688.425-1.25 1.335-1.25 2.023 0 .687.563.902 1.25.477.688-.424 1.25-.21 1.25.478s-.563 1.6-1.25 2.023c-.688.425-1.25 1.408-1.25 2.183 0 .776 1.682-.2 3.737-2.17 4.037-3.868 6.043-3.648 3.864.423-2.113 3.95-1.6 4.6 1.462 1.842 4.532-4.08 6.503-4.928 5.525-2.38-.575 1.498-.347 1.956.725 1.457.86-.402 2.547-1.077 3.75-1.502 1.204-.424 2.188-1.26 2.188-1.858 0-.597 2.243-2.57 4.985-4.385 4.22-2.793 4.88-3.8 4.296-6.58-.572-2.732-.458-2.92.682-1.13 1.788 2.804 9.885 4.94 14.914 3.936 2.18-.435 4.848-1.983 5.93-3.44 1.945-2.622 1.957-2.616 1.235.572-.623 2.757.12 3.832 5.18 7.485 8.847 6.39 12.78 8.746 12.78 7.653 0-.54-.703-1.74-1.563-2.665-2.305-2.484 1.356-.42 5.2 2.932 2.975 2.593 3.018 2.4.724-3.31-1.492-3.718 2.408-2.543 5.515 1.66 3.375 4.565 5.013 4.05 1.956-.615-1.337-2.043-1.588-3.234-.68-3.234 1.028 0 1.074-.68.16-2.387-1.48-2.763.882-2.96 4.043-.337 1.5 1.244 2.002 1.156 2.622-.458.42-1.1.206-3.045-.48-4.325-.685-1.28-1.21-3.63-1.166-5.222.078-2.87.087-2.872 1.162-.21.962 2.384 3.758 5.206 3.758 3.792 0-.3-.844-2.566-1.875-5.034-2.37-5.673-2.384-6.968-.04-3.87 2.353 3.112 2.362 2.133.04-4.448-2.468-6.994-2.41-8.876.242-7.86 1.776.683 1.676.1-.625-3.623-3.073-4.973-3.66-7.96-.827-4.215 2.762 3.65 2.204.217-.788-4.855-3.694-6.26-1.093-5.526 4.916 1.388 4.166 4.794 4.843 6.26 3.793 8.223-.703 1.313-.972 3.188-.596 4.165.375.98.117 1.778-.573 1.778-.768 0-.673 1.093.244 2.813 1.36 2.55 1.305 2.653-.58 1.098-2.147-1.77-2.667-.644-1.32 2.863.416 1.09 1.963 2.014 3.436 2.058 2.65.078 2.648.09-.134 1.21-1.546.62-2.812 1.744-2.812 2.494 0 .75.517 1.044 1.15.654 1.77-1.095 5.115 2.914 4.975 5.964-.113 2.482-.2 2.447-.993-.402-1.264-4.54-4.426-3.963-4.896.895-.33 3.423.09 4.14 2.83 4.827 3.945.99 6.612-1.02 7.298-5.5l.51-3.347.19 3.438c.288 5.312-3.777 8.598-9.714 7.852-4.585-.576-4.854-.428-4.534 2.487.187 1.704-.133 3.098-.71 3.098-.58 0-.393 1.447.412 3.215 1.02 2.236 1.062 3.473.142 4.062-.728.467-1.718 2.114-2.2 3.66-.484 1.548-1.423 2.813-2.088 2.813-.75 0-.72.918.084 2.418 2.314 4.323 1.323 4.568-1.383.343-3.38-5.282-4.14-4.496-1.675 1.734 1.488 3.758 1.532 4.377.19 2.692-2.53-3.183-3.376-2.69-2.542 1.482.654 3.266.444 3.594-1.906 2.98-2.178-.57-2.64-.132-2.64 2.502 0 2.423-.603 3.148-2.5 3.005-1.375-.104-2.5-.63-2.5-1.173 0-.54-.797-.984-1.77-.984-.975 0-2.064-.703-2.422-1.562-.47-1.127-1.162-.933-2.484.7-1.298 1.6-2.098 1.836-2.735.804-.67-1.08-1.167-1.03-1.924.195-.562.91-3.114 1.786-5.672 1.95-2.557.164-5.058.958-5.557 1.766-.517.837-1.6 1.04-2.515.475-2.51-1.55-10.035-1.165-11.108.57-.72 1.164-1.177 1.014-1.79-.587-.776-2.02-.976-2.014-3.3.09-1.642 1.485-2.474 1.708-2.474.66zm21.25-10.685c0-1.03-.563-1.875-1.25-1.875-.688 0-1.25.844-1.25 1.875 0 1.032.563 1.875 1.25 1.875.688 0 1.25-.843 1.25-1.875zm-15.01-9.39c.623 1.008 1.515.215 2.654-2.358 1.1-2.482 2.62-3.877 4.23-3.877 1.61 0 3.133 1.395 4.232 3.877 1.14 2.573 2.03 3.366 2.653 2.358.724-1.173 1.05-1.177 1.437-.018.275.825 2-.61 3.836-3.19 2.563-3.602 3.05-5.218 2.107-6.982-1.368-2.556-3.815-3.137-3.327-.79.222 1.074-2.823 1.548-10.626 1.655-8.637.118-10.937-.22-10.937-1.61 0-2.442-3.03-1.206-3.544 1.446-.478 2.462 5.172 11.428 5.883 9.336.314-.928.763-.88 1.4.153zm-13.788-9.78c-.67-.23-.9-.933-.51-1.56 1.042-1.69-2.445-1.392-4.192.355-.825.825-1.5 2.063-1.5 2.75 0 .695.667.584 1.5-.25 2.127-2.126 3.497-1.86 3.52.688.015 1.866.193 1.912 1.21.312.76-1.196.75-2.026-.028-2.294zm51.61 1.045c1.433 0 2.213-.39 1.735-.87-1.502-1.5-4.545-1.473-4.585.044-.02.798-.61.467-1.312-.736-1.18-2.025-4.9-3.126-4.9-1.45 0 1.425 5.63 5.31 6.042 4.168.23-.636 1.588-1.156 3.02-1.156zM36.25 97.612c0-2.165-2.2-2.566-3.76-.685-1.287 1.55-1.1 1.86 1.107 1.86 1.46 0 2.653-.528 2.653-1.175zm21.875-2.574c.425-.687.21-1.25-.477-1.25-.688 0-1.598.563-2.023 1.25-.425.688-.21 1.25.477 1.25.688 0 1.598-.562 2.023-1.25zm10.234-.108c.977-.98 1.593-.98 2.198 0 .462.747 1.456 1.358 2.21 1.358.753 0 .372-1.102-.848-2.45s-2.848-2.332-3.618-2.187c-.813.153-1.32-1.308-1.207-3.487.138-2.7.02-2.943-.423-.865-.338 1.586-1.27 2.666-2.07 2.4-1.62-.54-4.602 1.983-4.602 3.897 0 2.517 6.19 3.505 8.36 1.335zm-17.11-2.54c0-.687-.563-.9-1.25-.477-.688.425-1.25 1.335-1.25 2.023 0 .687.563.902 1.25.477.688-.424 1.25-1.335 1.25-2.022zm29.202.773c-.396-1.03-1.204-1.875-1.797-1.875-.592 0-.753.844-.357 1.875.396 1.032 1.204 1.875 1.797 1.875.592 0 .753-.843.357-1.875zM52.5 88.788c0-.687-.53-1.25-1.176-1.25-.647 0-1.524.563-1.95 1.25-.424.688.105 1.25 1.177 1.25 1.073 0 1.95-.562 1.95-1.25zm26.875 0c-.425-.687-1.302-1.25-1.95-1.25-.646 0-1.175.563-1.175 1.25 0 .688.877 1.25 1.95 1.25 1.07 0 1.6-.562 1.175-1.25zM5.1 80.768c-.056-1.318.24-2.056.655-1.64.416.414.46 1.492.1 2.395-.4.997-.696.7-.756-.755zm-3.85-4.032c0-.67.875-2.312 1.944-3.646 1.833-2.288 1.86-2.248.456.698-1.823 3.827-2.4 4.536-2.4 2.948zm123.875-3.317c-1.58-2.634-1.554-2.66.598-.6 1.24 1.188 1.984 2.428 1.655 2.757-.33.33-1.342-.642-2.253-2.158zm-90.438.79c.86-.346 2.266-.346 3.126 0 .86.347.156.63-1.563.63-1.72 0-2.422-.283-1.563-.63zm58.726-.05c3.527-.682 7.837-6.078 7.837-9.813 0-4.54-1.3-6.77-5.09-8.73-5.406-2.796-8.515-2.224-13.16 2.42-4.48 4.48-5.068 4.616-2.963.682 1.514-2.83 7.53-6.182 11.092-6.182 7.543 0 13.234 7.196 11.252 14.23-1.32 4.68-5.414 8.334-9.083 8.1-2.61-.166-2.606-.183.113-.708zm-65.217-3.15c-1.07-1.528-1.946-4.665-1.946-6.97 0-5.25 5.756-11.502 10.59-11.502 4.46 0 10.27 3.172 12.047 6.576 1.24 2.376.98 2.288-1.73-.587-3.978-4.22-8.637-5.464-13.27-3.546-6.318 2.62-8.127 10.01-3.796 15.515 1.426 1.81 2.02 3.293 1.322 3.293-.7 0-2.146-1.25-3.216-2.778zm-17.573-8.112c.42-1.52.14-3.934-.625-5.363-1.12-2.095-.865-3.446 1.324-6.988 3.728-6.032 2.168-6.832-1.836-.94L6.25 54.368V50.82c0-1.95 1.668-6.018 3.708-9.04 3.923-5.813 3.183-7.412-1.24-2.68l-2.63 2.81 1.41-3.75c.776-2.06 2.832-5.238 4.57-7.06 2.604-2.73 2.918-3.754 1.794-5.854-1.683-3.145-1.763-10.242-.162-14.452.66-1.736 3.33-4.545 5.937-6.242C25.062 1.02 36.25-1.186 36.25 1.28c0 .888.84 1.204 2.01.755 1.104-.424 4.338-.097 7.186.727 3.206.926 11.612 1.365 22.062 1.15 13.622-.28 17.917.067 22.24 1.796 2.945 1.18 5.685 1.814 6.087 1.412.854-.854 7.555 2.356 10.727 5.138 1.5 1.314 2.188 3.76 2.188 7.774 0 4.868.477 6.072 2.827 7.143 2.846 1.297 4.238 3.57 7.113 11.613 2.368 6.627 2.97 10.007 1.768 9.943-.596-.03-4.4-4.295-8.453-9.474-4.053-5.18-8.605-9.888-10.116-10.462-3.413-1.298-19.35-.63-26.89 1.124-3.094.72-7.875 1.287-10.625 1.26-4.672-.045-4.795-.135-1.875-1.377 1.72-.73 4.35-1.414 5.848-1.52 1.497-.105 3.888-1.246 5.312-2.535 1.812-1.64 2.59-1.845 2.59-.682 0 1.038 1.182.55 3.152-1.3 4.546-4.27 9.606-4.483 5.348-.225-2.323 2.323.38 1.77 3.018-.617 2.21-2 2.29-1.988 1.448.206-.968 2.523.356 2.092 5.16-1.682 1.637-1.287 1.96-1.35.936-.185-2.414 2.75-1.85 4.02 1.09 2.448 1.862-.997 2.397-1.01 1.8-.044-1.55 2.507 5.07 1.474 7.457-1.163 1.795-1.984 2.042-3.256 1.13-5.835-.64-1.813-1.87-3.53-2.728-3.816-1.047-.35-1.292.237-.742 1.772.497 1.388-.278.936-1.965-1.146-2.774-3.423-6.08-4.85-4.34-1.875.504.86-.25.545-1.67-.7-1.8-1.576-2.738-1.807-3.088-.76-.38 1.145-1.14 1.166-3.153.088-1.96-1.048-2.775-1.052-3.12-.014-.32.96-1.735.75-4.477-.667-2.204-1.14-4.007-1.525-4.007-.854 0 .677-1.926.413-4.335-.593-5.596-2.34-6.35-2.282-4.256.316 1.615 2.004 1.535 2.004-1.376 0-4.147-2.855-6.203-2.712-5.396.374.62 2.375.473 2.408-2.93.64-4.01-2.082-5.453-.612-2.785 2.838 1.284 1.66 1.028 1.607-1.132-.236-2.606-2.224-2.79-2.235-2.79-.17 0 2.088-.182 2.095-3.2.116-1.762-1.153-3.853-1.88-4.648-1.615-.795.265-3.35-.81-5.678-2.39-3.3-2.24-5.86-2.85-11.618-2.77-6.36.09-7.734.547-9.89 3.286-1.375 1.75-2.22 3.46-1.876 3.805.344.344 1.8-.867 3.233-2.69 1.435-1.824 3.238-3.317 4.007-3.317.77 0 .525.704-.54 1.563-2.384 1.92-3.906 5.938-2.25 5.938.665 0 1.21-.562 1.21-1.25 0-.687 1.406-1.25 3.125-1.25 1.72 0 3.125-.523 3.125-1.162 0-1.097 3.807-.345 9.05 1.786 2.9 1.18 9.81 10.685 8.872 12.205-.408.66 0 1.66.906 2.22 2.036 1.258 8.078-1.697 9.142-4.47.707-1.842.943-1.844 2.763-.024 1.82 1.82 1.74 2.21-.934 4.562-2.89 2.542-2.892 2.566-.206 1.995 1.855-.395 2.523-.07 2.104 1.025-.893 2.325-10.182.916-15.002-2.276-2.16-1.43-3.676-3.263-3.366-4.07.31-.808-.35-1.82-1.465-2.247-1.58-.607-1.854-.23-1.238 1.713.684 2.154.218 2.492-3.43 2.492-2.32 0-5.287.782-6.593 1.736-1.306.955-3.01 1.492-3.79 1.194-.777-.3-2.202.407-3.166 1.57-1.585 1.91-1.455 2.026 1.362 1.227l3.115-.883-2.783 2.266c-1.883 1.533-2.975 4.083-3.378 7.89-1.123 10.62-1.597 12.222-5.597 18.916-2.206 3.69-3.665 5.465-3.244 3.944zm.627-18.166c0-.697-.83-.562-1.875.306-1.03.856-1.875 2.12-1.875 2.807 0 .697.83.56 1.875-.307 1.03-.855 1.875-2.118 1.875-2.806zm95.655-16.717c-1.113-1.113-2.403-1.645-2.866-1.182-.464.463-.015 1.365.996 2.004 2.953 1.868 4.068 1.377 1.87-.822zm-89.688-8.29c.184-4.64-.097-6.013-.96-4.687-1.453 2.236-1.678 11.25-.28 11.25.54 0 1.097-2.953 1.24-6.562zm39.71 5.23c1.345-2.177-.188-2.638-1.902-.572-.986 1.188-1.08 1.905-.252 1.905.73 0 1.7-.6 2.153-1.333zM21.25 23.09c0-.303-.563-.552-1.25-.552-.688 0-1.25.596-1.25 1.324 0 .728.563.976 1.25.55.688-.423 1.25-1.02 1.25-1.322zM37.5 63.788c0-.687.844-1.25 1.875-1.25 1.03 0 1.875.563 1.875 1.25 0 .688-.844 1.25-1.875 1.25-1.03 0-1.875-.562-1.875-1.25zm50.625 0c.425-.687 1.302-1.25 1.95-1.25.646 0 1.175.563 1.175 1.25 0 .688-.877 1.25-1.95 1.25-1.07 0-1.6-.562-1.175-1.25zm11.34-16.12c-2.065-.808-2.124-1.05-.415-1.707 1.156-.442 2.283-.01 2.682 1.032.38.988.567 1.757.416 1.71-.15-.05-1.357-.514-2.682-1.033zM27.5 46.99c0-1.32 2.4-1.874 3.112-.72.432.7-.09 1.27-1.163 1.27s-1.95-.248-1.95-.55zm14.375-.134c-.688-.198-3.433-.727-6.1-1.175-5.562-.935-4.59-3.467 1.32-3.435 1.94.01 4.114-.453 4.83-1.028 1.69-1.363 7.45 1.512 7.45 3.72 0 1.572-4.612 2.752-7.5 1.917zm37.32-.857c-.94-1.52 1.835-4.187 5.493-5.284 1.8-.54 2.812-.314 2.812.627 0 .916 1.1 1.193 2.923.736 1.646-.413 3.96.025 5.297 1.002 2.22 1.624 2.092 1.79-1.986 2.553-7.704 1.445-13.778 1.598-14.54.367zM62.5 25.663c.856-1.03 1.837-1.875 2.18-1.875.345 0-.074.844-.93 1.875-.856 1.032-1.837 1.875-2.18 1.875-.345 0 .074-.843.93-1.875zm-13.646-3.478c.287-.195 1.646-1.18 3.02-2.188 2.314-1.696 2.372-1.67.785.354-.944 1.204-2.303 2.188-3.02 2.188-.72 0-1.072-.16-.786-.353z"/></svg>