<svg xmlns="http://www.w3.org/2000/svg" viewBox="0 0 163.2305 135.36485" height="135.365" width="163.231"><path d="M67.758 134.37c-2.062-.498-4.877-1.512-6.256-2.253-1.378-.74-5.85-1.965-9.935-2.72-8.44-1.56-12.88-5.01-16.35-12.708-2.567-5.693-3.558-6.006-6.208-1.96-2.045 3.12-1.54 6.17 1.632 9.863 1.663 1.936 1.664 2.187.01 2.187-1.027 0-2.523-1.438-3.323-3.195-1.998-4.382-3.94-2.727-3.072 2.618.58 3.58.363 4.244-1.195 3.646-1.048-.403-1.94-1.96-1.98-3.463-.22-7.96-1.962-17.226-3.477-18.483-2.487-2.064-2.118-5.728.877-8.723 5.02-5.02 5.515-9.225 1.9-16.137-1.787-3.42-3.25-7.325-3.25-8.68 0-2.92 2.528-8.833 3.775-8.833.48 0 3.484-2.297 6.674-5.106 5.167-4.548 5.8-5.68 5.8-10.347 0-2.882.902-6.527 2.004-8.1 2.632-3.758 1.2-4.987-3.01-2.583-2.985 1.704-3.327 2.568-3.013 7.59.27 4.305-.272 6.385-2.26 8.668l-2.618 3.003 2.09-3.432c1.474-2.423 1.844-4.735 1.257-7.867-.458-2.44-.498-5.488-.09-6.776.838-2.638 8.046-5.645 9.66-4.03.58.58 1.7 4.535 2.493 8.79.79 4.257 1.9 7.277 2.467 6.712.565-.565.45-4.158-.258-7.983-1.362-7.37-.47-11.782 2.96-14.627 1.925-1.6 15.906-4.122 17.033-3.074 1.382 1.284-3.53 2.874-8.936 2.89-4.814.017-6.302.602-8.436 3.314-2.99 3.803-3.164 4.948-1.082 7.177 1.22 1.307 2.12 1.315 4.688.045 1.748-.865 5.422-2.038 8.165-2.606 3.185-.66 5.135-1.81 5.397-3.184.38-1.986-.13-1.963-6.726.306-3.925 1.35-7.9 3.09-8.834 3.865-1.192.99-1.7 1.004-1.7.05 0-1.788 4.062-3.907 12.5-6.52 5.19-1.608 6.974-2.78 7.276-4.778.437-2.9 2.725-3.692 2.725-.943 0 2.152 4.763 8.293 6.432 8.293.687 0 .084-1.482-1.34-3.293-1.426-1.812-2.592-3.906-2.592-4.653 0-.748.873-.114 1.94 1.41 2.465 3.52 5.85 5.342 13.685 7.365l6.25 1.613-9.748-.31c-8.145-.26-9.39-.05-7.573 1.278 3.767 2.755 24.797 1.525 23.83-1.393-.255-.766-3.258-1.738-6.673-2.162-6.09-.756-11.71-3.245-11.71-5.187 0-.54 1.566-.172 3.48.818s5.57 2.192 8.125 2.67c4.347.817 4.643.674 4.643-2.238 0-4.655-3.135-6.455-11.327-6.5-8.597-.05-7.924-2.032.94-2.772 7.01-.584 11.594 1.41 13.794 5.996 1.024 2.136 3.3 3.722 6.875 4.788 6.975 2.082 12.218 4.82 12.218 6.38 0 .687-1.3.396-2.888-.644-1.588-1.04-5.558-2.696-8.822-3.68-5.44-1.636-5.9-1.61-5.536.302.248 1.303 2.272 2.476 5.385 3.12 2.742.57 6.417 1.742 8.165 2.607 3.724 1.842 5.917.296 5.166-3.64-.827-4.33-4.094-6.874-8.85-6.892-5.412-.02-10.12-1.172-10.12-2.475 0-1.457 11.428.1 15.367 2.095 5.08 2.572 6.31 6.18 4.844 14.234-1.694 9.318.146 11.784 2.046 2.742 2.182-10.378 2.687-10.91 8.187-8.61 3.75 1.566 4.54 2.523 4.468 5.404-.048 1.926-.57 4.626-1.16 6-.812 1.893-1.02 1.305-.85-2.412.188-4.142-.305-5.216-3.143-6.842-4.21-2.41-5.645-1.182-3.01 2.578 1.1 1.572 1.995 5.124 1.986 7.893-.013 4.595.698 5.7 8.125 12.626 9.393 8.76 9.915 10.937 4.913 20.502-3.453 6.605-3.292 9.854.715 14.407 4.47 5.08 5.133 7.63 2.583 9.937-2.126 1.925-3.35 7.828-3.95 19.045-.08 1.502-1.002 3.06-2.05 3.462-1.572.603-1.775-.092-1.157-3.982l.747-4.713-2.427 3.125-2.427 3.125-.03-4.062c-.014-2.234-.607-4.063-1.316-4.063-.71 0-1.158 1.95-.997 4.33.16 2.383-.086 4.71-.547 5.17-1.11 1.11-7.167-2.903-7.167-4.746 0-.792-1.284-.233-2.853 1.24-1.576 1.482-6.47 3.495-10.937 4.5-4.447 1-10.335 2.68-13.085 3.733-5.26 2.013-23.105 2.526-30 .862zm38.125-6.91c12.277-3.31 16.486-5.732 19.652-11.305 2.212-3.895 2.675-6.147 2.095-10.192-.578-4.03-.01-6.832 2.543-12.518l3.287-7.326-5.07-9.8c-4.122-7.965-4.922-10.593-4.275-14.044.61-3.25.37-4.246-1.024-4.246-2.754 0-5.83-4.028-6.743-8.832-.448-2.36-1.327-4.947-1.952-5.746-1.075-1.374-12.81-3.74-15.292-3.082l-8.125 2.143c-9.565 2.523-15.914 1.314-20.913-3.98l-3.943-4.178-1.904 2.905c-1.367 2.087-3.566 3.134-7.805 3.715-7.197.986-9.28 2.566-9.28 7.04 0 3.967-4.29 10.015-7.105 10.015-1.51 0-1.752.913-1.127 4.246.648 3.444-.144 6.065-4.192 13.888l-4.99 9.643 3.203 7.61c2.43 5.77 3.014 8.792 2.42 12.5-1.403 8.785 7.204 19.505 15.794 19.668 1.58.03 5.687 1.095 9.124 2.367 8.226 3.044 33.53 2.77 45.625-.49zm-29.605.61c-1.502-.632-3.35-2.305-4.107-3.72-1.603-2.996-.42-3.253 3.015-.655 2.846 2.153 8.573 2.392 12.1.504 3.887-2.08 5.815-.61 2.257 1.72-4.083 2.676-9.805 3.603-13.264 2.15zM51.06 110.217c-1.726-4.994-4.612-6.613-3.34-1.875.54 2.015.158 1.75-1.352-.938-1.158-2.062-3.423-4.983-5.033-6.49-2.027-1.9-2.646-3.438-2.013-5 .807-1.996.962-1.93 1.327.574.266 1.83 1.893 3.45 4.6 4.582 4.994 2.086 8.498 6.955 7.88 10.95-.383 2.47-.68 2.213-2.07-1.804zm58.573.45c0-3.126 3.37-6.932 8.75-9.886 2.854-1.566 4.238-3.157 3.98-4.577-.236-1.29.146-1.84.937-1.35 2.192 1.354 1.52 4.096-1.606 6.556-1.616 1.272-3.868 3.985-5.004 6.03l-2.065 3.715.714-3.75c.68-3.57.62-3.634-1.247-1.323-1.078 1.334-1.96 3.444-1.96 4.687 0 1.243-.562 2.26-1.25 2.26-.687 0-1.25-1.062-1.25-2.36zm-36.25.543c0-.338 1.66-1.474 3.688-2.523 3.806-1.967 9.62-2.477 13.086-1.148 3.75 1.438 1.96 2.55-3.96 2.458-3.266-.05-7.485.34-9.375.87-1.89.527-3.437.682-3.437.343zm22.283-10.055c-.464-3.437-2.093-10.058-3.622-14.713-2.487-7.572-3.056-8.37-5.408-7.585-3.317 1.11-5.54 1.125-9.613.067-3.138-.815-3.296-.57-5.3 8.196-4.417 19.34-4.608 19.884-3.97 11.31.765-10.29 8.13-31.85 8.13-23.798 0 2.435 4.86 4.008 8.66 2.802 1.443-.458 2.59-1.892 2.59-3.238 0-3.652 2.126-2.894 2.865 1.022.357 1.89 2.135 7.334 3.952 12.096 2.248 5.894 3.184 10.483 2.93 14.375l-.372 5.715-.842-6.25zm-17.184-1.145c-.054-1.318.24-2.056.656-1.64.416.414.46 1.492.1 2.395-.4.997-.696.7-.756-.755zm3.85-1.98c0-1.718.282-2.422.63-1.562.346.86.346 2.265 0 3.125-.348.86-.63.156-.63-1.563zM61.39 89.55c1.31-1.523 1.993-2.77 1.518-2.77-.474 0-.235-1.173.533-2.607.768-1.434 1.712-2.29 2.098-1.905.386.386-.082 1.667-1.04 2.847-1.137 1.402-1.2 1.82-.184 1.21.856-.513 2.177-2.095 2.937-3.515 1-1.867 1.002-2.346.008-1.732-.756.468-1.375.234-1.375-.518 0-.95-.86-.908-2.812.137-2.265 1.21-2.022.604 1.25-3.125 5.533-6.303 5.39-9.383-.238-5.127-3.117 2.357-7.362 2.332-12.01-.072-4.323-2.235-4.965-.538-.876 2.314 1.547 1.08 2.11 1.992 1.25 2.028-.86.036-2.688-1.06-4.063-2.435-1.375-1.375-2.5-1.9-2.5-1.167 0 2.055 2.687 6.622 4.892 8.315 1.167.896 1.377 1.54.512 1.563-3.06.083-6.654-6.442-6.654-12.077 0-3.368-.488-5.228-1.25-4.758-.687.425-1.25.146-1.25-.62 0-2.223 12.505-7.336 20.136-8.233l6.987-.822.8 4.838c.44 2.66.805 7.99.813 11.84.015 7.684-2.988 13.595-8.737 17.202l-3.125 1.96 2.382-2.77zm1.944-18.993c2.49-1.333 4.99-7.213 4.13-9.714-1.368-3.97-18.18-.08-18.84 4.36-.744 5.02 8.824 8.504 14.71 5.354zm-5.992-5.027c.63-1.887 2.64-2.082 3.23-.312.285.86-.418 1.562-1.564 1.562-1.146 0-1.896-.562-1.666-1.25zm41.16 23.034C93.4 84.27 91.73 77.58 92.83 65.84l.878-9.366 7.015.825c7.654.898 20.163 6.008 20.163 8.235 0 .766-.542 1.058-1.205.648-.712-.44-1.158 1.6-1.09 4.988.087 4.368-.57 6.464-2.763 8.797-1.583 1.685-3.483 3.05-4.222 3.036-.74-.016-.108-1 1.404-2.188 1.51-1.188 3.307-3.66 3.99-5.49 1.587-4.25-.82-5.45-5.763-2.873-4.455 2.324-9.22 2.32-12.3-.007-5.332-4.033-4.958-.055.57 6.06 3.194 3.533 3.2 3.57.308 2.072-3.826-1.984-5.812-.093-3.305 3.146 1.82 2.35 1.854 2.352 1.042.04-.6-1.703-.4-2.12.687-1.448.84.52 1.29 1.596.996 2.392-.292.797.62 2.714 2.027 4.26 3.44 3.78 1.956 3.563-2.757-.403zm13.424-18.78c6.128-4.292.645-9.518-11.236-10.71-3.776-.378-4.22-.077-4.585 3.1-.65 5.663 2.75 9.606 8.28 9.606 2.58 0 5.974-.898 7.54-1.995zm-9.584-4.254c.63-1.887 2.64-2.082 3.23-.312.285.86-.418 1.562-1.564 1.562-1.146 0-1.896-.562-1.666-1.25zm8.54 10.345c0-.546 1.126-1.696 2.5-2.555 1.386-.864 2.5-1.018 2.5-.344 0 .67-1.124 1.818-2.5 2.554-1.374.736-2.5.89-2.5.345zM46.093 56.78c.338-1.03 3.1-3.782 6.14-6.113 3.73-2.86 4.56-3.934 2.557-3.303-2.186.687-2.72.53-2.026-.593 1.107-1.79 10.177-.932 12.27 1.162.966.965-.144 1.348-3.897 1.348-4.304 0-6.18.842-10.45 4.688-2.863 2.578-4.93 3.844-4.594 2.812zm68.968-.38c-1.833-3.166-9.64-7.108-14.177-7.16l-4.375-.048 3.125-1.787c4.226-2.415 9.324-2.324 11.41.205 1.55 1.88 1.453 1.94-1.015.625-4.894-2.607-4.63-1.535.543 2.213 5.317 3.85 7.24 6.072 6.178 7.134-.35.35-1.11-.182-1.688-1.182zm16.134 65.693c.322-2.578.428-4.877.237-5.11-.904-1.094-4.482 6.26-3.848 7.913 1.284 3.347 3.013 2.006 3.612-2.803zM24.427 115.46c-.64-4.38-3.544-4.577-3.544-.242 0 2.005.385 4.03.854 4.5 1.442 1.44 3.132-1.235 2.69-4.258zm117.706-.108c0-2.468-.542-3.6-1.562-3.26-1.84.613-2.7 4.052-1.676 6.716 1.136 2.96 3.24.716 3.24-3.456zm-3.267-9.76c-.432-2.44-1.28-4.97-1.884-5.624-1.53-1.652-1.402 3.353.19 7.542 1.164 3.06 1.09 3.227-.747 1.7-1.71-1.417-1.897-3.212-1.164-11.122.482-5.188 1.633-11.26 2.56-13.494 2.042-4.924.463-10.87-3.902-14.69-1.572-1.374-3.045-3.617-3.273-4.984-.23-1.367-1.448-2.685-2.71-2.928-1.875-.36-2.136.092-1.432 2.486.922 3.134 3.874 9.183 7.665 15.703 2.31 3.973 2.303 4.13-.472 11.876-3.61 10.076-3.62 15.58-.032 19.398 2.607 2.775 2.88 2.823 4.384.766 1.012-1.384 1.314-3.83.818-6.63zM30.49 110.31c3.726-3.5 3.667-7.72-.232-16.537-1.718-3.886-3.125-7.77-3.125-8.634 0-.86 1.908-5.204 4.24-9.65 5.552-10.594 6.477-13.71 4.066-13.71-1.025 0-2.513 1.97-3.307 4.375-.794 2.407-1.982 4.375-2.64 4.375-.7 0-.618-1.084.198-2.607 1.513-2.826.902-4.383-1.21-3.078-2.23 1.38-7.85 11.81-7.26 13.482.306.868 1.45-.53 2.546-3.11 2.644-6.227 3.723-6.01 1.496.303-1.508 4.274-1.51 5.587-.016 9.164.96 2.296 2.124 8.365 2.588 13.485.7 7.724.502 9.593-1.162 10.974-1.806 1.5-1.873 1.284-.67-2.168.735-2.108 1.106-4.842.824-6.077-.33-1.45-1.036-.41-1.99 2.934-2.453 8.6.182 11.62 5.654 6.478zm-7.712-6.12c1.076-4.9.385-5.52-3.044-2.744-1.824 1.477-2.472 2.964-1.918 4.406 1.322 3.446 4.04 2.536 4.962-1.663zm121.974 1.82c1.437-1.73 1.256-2.358-1.274-4.406-3.625-2.935-4.328-2.374-3.24 2.585.95 4.318 2.068 4.77 4.514 1.822zm-4.497-33.437c-2.166-4.564-6.446-9.137-7.534-8.05-1.103 1.105.843 4.755 2.536 4.755.883 0 2.584 2.39 3.78 5.313 1.195 2.922 2.42 4.635 2.72 3.806.302-.83-.374-3.45-1.5-5.825zM35.883 58.03c1.915-1.915 2.5-4.166 2.5-9.625 0-8.76-2.442-7.544-3.425 1.704-.353 3.325-1.502 7.03-2.552 8.233-2.703 3.096.343 2.822 3.477-.313zm94.092-.282c-.696-.876-1.556-4.313-1.912-7.64-.975-9.11-3.43-10.5-3.43-1.938 0 5.27.617 7.55 2.626 9.707 2.678 2.876 5.012 2.764 2.715-.13zm-116.42 69.708c-.095-1.347-2.722-4.79-5.84-7.653L2.05 114.6l.814-10.472c.447-5.76 1.624-11.768 2.614-13.35 1.667-2.664 1.508-3.213-2.137-7.364C-.896 78.592-.926 78.086 2.246 64.9c1.254-5.215 1.177-7.37-.46-12.957-2.33-7.952-1.966-9.29 3.398-12.454 3.316-1.957 4.213-3.41 4.797-7.763.784-5.843 3.53-10.25 8.883-14.244 2.682-2.003 5.345-2.584 11.943-2.604 7.124-.024 9.272-.564 13.346-3.36 7.195-4.938 10.87-5.474 15.96-2.328l4.31 2.663 3.382-3.134C71.67 5.14 77.68 3.654 83.303 4.89c2.81.617 5.48.053 9.785-2.067 11.024-5.428 28.42-2.69 34.166 5.38 3.446 4.84 2.06 6.14-2.32 2.177-6.054-5.473-7.417-6.165-14.374-7.298-6.68-1.088-15.15-.076-17.29 2.064-.582.582 4.15 1.113 10.518 1.18 11.33.12 18.067 1.972 20.295 5.577.472.765-.617.423-2.42-.76-1.855-1.214-3.28-1.56-3.28-.797 0 1.73 4.696 4.273 6.19 3.35.626-.387 1.45-.2 1.83.416.38.614 3.176.838 6.213.495 9.838-1.11 20.767 8.137 20.767 17.57 0 3.122 2.837 7.105 5.06 7.105.623 0 2.02 1.352 3.1 3.005 1.8 2.747 1.785 3.57-.188 9.602-2.032 6.21-2.035 7.08-.055 14.808 2.677 10.446 2.64 11.542-.547 15.593-2.216 2.816-2.413 3.878-1.248 6.73 2.194 5.37 1 28.122-1.692 32.23-1.652 2.52-2.458 2.95-3.22 1.715-1.353-2.186-4.59.373-5.34 4.22-.442 2.272-.558 2.165-.7-.644-.11-2.182.795-4.043 2.567-5.285 1.506-1.054 2.34-2.313 1.857-2.798-.485-.484-2.842 1.02-5.238 3.342-2.396 2.32-4.357 3.567-4.357 2.767 0-.8 1.964-3.417 4.364-5.817 3.828-3.828 4.212-4.765 3.125-7.623-1.72-4.523-1.486-5.403.676-2.545 1.01 1.334 1.835 3.837 1.835 5.562 0 2.227.388 2.75 1.337 1.8 2.57-2.57-.173-10.75-5.348-15.948-8.2-8.237-8.356-10.663-1.12-17.512 4.095-3.874 4.728-6.616 2.562-11.098-1.274-2.638-1.253-2.648.625-.304 3.056 3.816 2.304 8.004-2.432 13.537-4.746 5.545-5.42 8.486-2.5 10.91 1.587 1.317 1.875 1.047 1.875-1.752 0-1.82 1.97-6.17 4.375-9.668 2.407-3.498 4.375-7.346 4.375-8.55 0-3.02-4.194-8.078-9.332-11.253-7.11-4.396-9.552-9.614-8.63-18.448.7-6.694.482-7.81-2.022-10.315-2.31-2.31-3.775-2.698-8.286-2.19-4.513.51-5.48.254-5.48-1.45 0-1.138-.973-3.46-2.163-5.16-1.192-1.7-1.895-3.37-1.564-3.715.33-.343-1.597-1.698-4.285-3.01-3.944-1.927-5.57-2.128-8.437-1.047-1.952.737-3.55.837-3.55.223 0-1.947 6.353-2.804 10.758-1.452 3.43 1.053 4.243.965 4.243-.456 0-2.995-4.82-6.758-8.654-6.758-3.908 0-11.85 5.677-10.65 7.614.846 1.37-.457 1.332-3.822-.114-1.796-.77-1.95-1.1-.547-1.162 1.732-.078 7.423-6.36 7.423-8.194 0-.39-1.66.15-3.688 1.2-2.028 1.048-4.434 1.906-5.347 1.906-.913 0-5.768 1.97-10.79 4.375-5.02 2.407-9.786 4.33-10.59 4.273-.802-.056.368-.9 2.603-1.878 2.235-.977 4.063-2.1 4.063-2.498 0-.396-1.828-.4-4.062-.012l-4.062.71 3.75-1.804c2.063-.99 4.946-1.828 6.407-1.86 4.472-.094 10.468-1.564 10.468-2.566 0-1.91-6.82-2.178-11.693-.458-2.756.972-6.892 3.203-9.193 4.958-4.158 3.17-4.217 3.178-9.72 1.076-3.37-1.286-6.902-1.796-9.027-1.302-2.58.6-3.003.48-1.617-.457 2.43-1.644 7.024-1.65 10.082-.013 1.33.712 2.418.802 2.418.2 0-1.432-5.684-3.994-8.865-3.994-2.546 0-8.635 5.167-8.635 7.327 0 .73 1.636.687 4.242-.113 4.406-1.352 10.758-.495 10.758 1.452 0 .614-1.597.514-3.55-.223-2.865-1.08-4.492-.88-8.437 1.046-3.092 1.51-4.767 3.128-4.56 4.406.182 1.112-.52 2.727-1.56 3.59-1.042.864-1.893 2.558-1.893 3.764 0 1.838-.86 2.1-5.312 1.614-4.283-.467-5.887-.036-8.282 2.224-2.695 2.544-2.898 3.496-2.19 10.276.92 8.796-1.53 14.024-8.632 18.413-5.138 3.175-9.333 8.232-9.333 11.252 0 1.204 1.97 5.052 4.375 8.55 2.407 3.498 4.375 7.8 4.375 9.56 0 2.92.245 3.07 2.813 1.727 1.547-.81.08 1.094-3.26 4.23-3.567 3.35-5.707 6.297-5.186 7.14.487.788 1.673 1.132 2.635.763 2.082-.8 2.11-.61.51 3.597-1.087 2.858-.703 3.795 3.124 7.623 2.4 2.4 4.345 5.048 4.322 5.885-.023.836-1.03.337-2.24-1.11-2.316-2.77-7.72-6.13-7.72-4.8 0 .428 1.18 1.735 2.623 2.903 1.792 1.45 2.44 3.096 2.045 5.2-.427 2.282-.62 2.444-.746.628zm-4.48-19.15c-.403-.404-1.307-.16-2.01.542-.866.867-.778 2.44.277 4.916l1.55 3.64.46-4.18c.25-2.302.127-4.514-.276-4.918zM4.7 111.093c-1.082-3.62-1.104-3.63-1.21-.458-.058 1.776.268 3.604.727 4.062 1.45 1.45 1.62.2.482-3.604zm154.44-2.724c-.417-.416-.712.322-.658 1.64.06 1.456.356 1.752.755.755.36-.903.317-1.98-.098-2.396zM9.38 100.21c2.03-2.446 2.9-7.62 1.61-9.6-2.004-3.08-5.107.76-5.107 6.323 0 4.958 1.183 6.066 3.497 3.278zm148.232-7.38c-.628-2.188-1.836-4.21-2.685-4.493-2.027-.676-2.046 5.972-.03 10.398 1.476 3.24 1.543 3.256 2.685.698.716-1.604.727-4.172.03-6.603zM5.258 75.637c0-4.774-.348-5.855-1.562-4.847-1.988 1.65-2.027 7.526-.063 9.49.825.825 1.528 1.5 1.563 1.5.034 0 .062-2.764.062-6.143zm155.377.316c.207-2.068-.37-4.38-1.28-5.136-1.335-1.107-1.652-.296-1.627 4.165.034 6.163 2.31 6.924 2.907.97zM7.758 61.78c0-.916-.703-1.9-1.562-2.187-.93-.31-1.563.576-1.563 2.187 0 1.61.633 2.498 1.563 2.188.86-.287 1.562-1.27 1.562-2.188zm150.625 0c0-1.375-.53-2.5-1.176-2.5-1.678 0-2.86 2.276-1.95 3.75 1.308 2.114 3.126 1.387 3.126-1.25zm-142.52-6.863c-.014-3.01-.285-3.387-1.357-1.887-1.044 1.462-1.167 1.186-.557-1.25 3.166-12.656 1.795-14.792-4.806-7.486-4.5 4.98-5.405 7.89-3.428 11.01.714 1.125 1.548-.152 2.637-4.04.875-3.127 2.452-6.4 3.504-7.272 1.613-1.338 1.588-.96-.156 2.414-2.013 3.896-2.83 12.943-1.307 14.467 1.742 1.742 5.49-2.338 5.47-5.956zm137.66 3.426c.29-4.608-.47-8.574-2.338-12.188-1.803-3.49-1.792-3.63.156-2.013 1.153.956 2.742 4.304 3.532 7.442 1.327 5.274 1.532 5.49 2.707 2.855 1.542-3.46-1.682-10.293-6.28-13.305-2.69-1.764-3.033-1.757-3.734.07-.425 1.107-.133 4.145.648 6.752 1.727 5.766 1.788 7.578.17 5.073-.924-1.428-1.217-.932-1.232 2.084-.01 2.177.684 4.242 1.544 4.59 3.083 1.243 4.69.79 4.826-1.36zM22.552 47.32c-1.388-10.125 2.376-15.596 11.03-16.03 2.508-.127 4.423-1.098 5.26-2.667.723-1.357 2.408-4.108 3.743-6.112 2.18-3.27 2.206-3.558.26-2.81-1.192.456-5.51.83-9.593.83-6.954 0-7.778.325-12.975 5.116-5.237 4.827-7.923 9.273-6.476 10.72.356.356 1.52-1.04 2.584-3.1 2.418-4.675 8.506-8.457 15.435-9.588 7.552-1.233 6.576.837-1.77 3.753-10.455 3.654-11.976 6.344-10.898 19.275.752 9.014 1.095 10.137 2.504 8.21 1.065-1.456 1.376-4.096.897-7.595zm121.957-7.823c.163-5.493-5.212-10.897-12.877-12.947-7.226-1.933-7.528-3.82-.437-2.736 7.587 1.162 11.986 3.732 14.93 8.722 2.69 4.557 4.293 4.94 2.95.704-.434-1.364-3.285-4.78-6.337-7.594-5.314-4.897-5.9-5.116-13.704-5.116-4.484 0-8.153.304-8.153.675 0 .37 1.09 2.81 2.42 5.417 2.015 3.95 3.066 4.742 6.297 4.742 2.134 0 5.404 1.144 7.27 2.542 3.103 2.33 3.39 3.268 3.423 11.146.045 11.395 2.16 14.928 3.28 5.478.447-3.78.87-8.746.937-11.033zM6.436 43.167c-.942-.943-4.27 2.654-3.544 3.83.402.65 1.475.166 2.384-1.077.91-1.244 1.43-2.482 1.16-2.753zm153.105 1.627c-2.192-2.642-3.903-2.125-2.167.656.83 1.33 1.988 2.124 2.57 1.763.584-.36.403-1.45-.402-2.42zM33.354 19.28c4.748 0 8.893-.422 9.212-.937.318-.516-3.83-.938-9.217-.938-9.133 0-10.054.248-13.63 3.672-5.32 5.094-4.832 6.838.584 2.083 4.03-3.538 5.178-3.88 13.05-3.88zm110.383 2.46c-5.268-4.97-5.28-4.975-14.563-4.655-11.626.4-11.205 2.195.514 2.195 7.85 0 9.037.346 12.74 3.714 6.167 5.61 7.365 4.464 1.31-1.253zM74.946 10.2c4.118-1.758 4.628-3.965.625-2.7-4.125 1.306-8.12 4.15-8.983 6.4-.66 1.72-.394 1.702 2.083-.13 1.56-1.156 4.385-2.762 6.276-3.57zM33.964 122.947c-1.09-2.11-1.756-4.5-1.48-5.313.278-.813 1.73.913 3.227 3.835 1.5 2.922 2.165 5.312 1.48 5.312-.683 0-2.135-1.725-3.226-3.834zm-15.58-32.412c0-.686-1.97-3.426-4.376-6.09-4.42-4.892-5.45-9.192-3.03-12.664.97-1.39 1.098-.814.495 2.24-.712 3.612-.186 4.793 4.3 9.66 5.046 5.475 6.297 8.1 3.86 8.1-.687 0-1.25-.56-1.25-1.246zm117.474-34.41c-.87-1.047-1.34-2.146-1.043-2.442.296-.296 1.225.56 2.064 1.905 1.813 2.906 1.208 3.225-1.022.538zm-87.6-33.467c.58-.582 2.957-.863 5.28-.624 4.116.424 4.09.45-1.06 1.058-2.904.345-4.803.15-4.22-.433zm62 .373l-5-.895 4.375-.158c2.407-.087 5.22.387 6.25 1.053 2.046 1.322 1.758 1.322-5.625 0zM88.07 17.203c.86-.347 2.266-.347 3.126 0 .86.346.156.63-1.563.63-1.718 0-2.422-.284-1.562-.63z"/></svg>