<svg xmlns="http://www.w3.org/2000/svg" width="161857.002" height="170240.001" viewBox="0 0 151.74094 159.6"><path class="st0" d="M58.12 78.8h-3v4.4c1-.1 2-.2 3-.4v-4zm-3.8-.1h-3v4c.9.2 1.9.4 3 .4v-4.4zm-3.9 0h-3v2.5c.8.5 1.9 1 3 1.3v-3.8zm-3.8 2v-2h-1.7c-.5 0-.6.3-.2.6-.1-.1.6.6 1.9 1.4zm19.2-1.8h-3v2.7c1.1-.3 2.1-.7 3-1v-1.7zm-.7 9.3c-.1.2-.3.3-.3.5h2.1c1.7-1.9 7.9-8.2 15-7.9 3.3.1 5 4.1 4.9 5.4V86.8c0 .7-.1 2-.7 2.5-.2.2-.4.2-.7.2h-20.8c0 .1 0 .1.1.2.4 1.1 2.3 1.4 3.4 1.5.2 0 14.9-.1 17.2 0 .7 0 1.4-.2 1.9-.7 1.2-1.1 1.2-3.2 1.2-4.1v-.2c.1-1.9-1.9-6.5-5.9-7.1V78.8c0-.5-.4-.8-.8-.8h-1.3c-.5 0-.8.4-.8.8V79.1c-8 1.2-14.3 8.7-14.5 9.1zm23.4-21l1.4-2.3v2.8h.8v-4.2l-2.2-3.8c-1.2 0-2.2 1.7-2.2 3.8 0 2.1 1 3.7 2.2 3.7zm15.9 16.9c0-2.3-.8-4.2-1.9-4.8v9.6c1.2-.6 1.9-2.5 1.9-4.8zM47.02 88c.3.4.9.6 1.4.6h15.4l.2-.4c.1-.2.5-.7.5-.7s.2-.3.5-.6l4.1-3.7c.3-.3.6-1 .6-1.4v-1.3c0-.5-.3-.7-.8-.5 0 0-8.8 3.9-14.5 3.9-5.7 0-9.8-3.9-9.8-3.9-.3-.3-.6-.2-.6.3v3.2c0 .5.2 1.1.5 1.5l2.5 3zm21.8-9.1h-2.2v1.3c1.4-.5 2.2-.9 2.2-.9.5-.3.5-.4 0-.4zm15.8-7h6.9c.9 0 1.7-.8 1.7-1.7 0-.9-.8-1.7-1.7-1.7h-6.9c-.9 0-1.7.8-1.7 1.7 0 .9.8 1.7 1.7 1.7zm-22.6 6.9h-3v3.8c1-.2 2-.5 3-.8v-3zm36.5 19.1l5 9.8c-.9.7-1.4 1.8-1.4 3 0 2.2 1.8 3.9 3.9 3.9 2.2 0 3.9-1.8 3.9-3.9 0-2.1-1.8-3.9-3.9-3.9-.3 0-.7 0-1 .1l-5-9.8c1.9-.8 3.9-1.3 6-1.3 1.1 0 2.3.1 3.3.4.9.2 1.8-.4 2-1.3.2-.9-.4-1.8-1.3-2-1.3-.3-2.7-.5-4.1-.5-2.7 0-5.2.6-7.6 1.7l-1.7-3.3.7-.4c.4-.2.6-.7.4-1.1l-.6-1.3c1.2.7 2.8 1.1 4.4 1.1V79c-1.4 0-2.6.3-3.7.8l-4.3-8.4c-.3.5-.7.9-1.3 1.2-3.3.3-4.9 2.6-5 2.7-.1.1-.1.3-.1.5v.8c0 .5.4.8.8.8.5 0 .8-.4.8-.8v-.5c.4-.5 1.8-1.8 4.2-1.8l3.3 6.5c-.9.7-1.5 1.6-1.8 2.5l-1.2-2.3c-.2-.4-.7-.6-1.1-.4l-1.5.8c-.3.2-.5.5-.5.8v7.4h-1.7c-.2.6-.5 1.1-1 1.6-.7.6-1.5 1-2.5.9h-17.3c-1.5-.1-3.5-.6-4.1-2 0-.1-.1-.3-.1-.5h-16.1l-5.5-7h-12.3c-.5 0-.8.4-.8.8 0 .5.4.8.8.8h11.5c.1.1.6.7 1.2 1.5h-7.3v3.8h10.3c.9 1.2 1.8 2.3 2.3 2.9h-.8c-5.7 0-10.9 2.6-14.4 7.1-.6.7-.4 1.8.3 2.4.7.6 1.8.4 2.4-.3 2.9-3.7 7.1-5.8 11.8-5.8 1.1 0 2.1.1 3.1.3l-2.9 10.6h-.2c-2.2 0-3.9 1.8-3.9 3.9 0 2.1 1.8 3.9 3.9 3.9 2.2 0 3.9-1.8 3.9-3.9 0-1.5-.9-2.8-2.1-3.5l2.9-10.6c.8.3 1.6.6 2.4 1v-4.6l21.8 1.8h.1c.1 0 .5.1 1.2.2h19.8c-2.7 1.6-4.9 4-6.5 6.8-.4.8-.2 1.8.7 2.3.8.4 1.8.2 2.3-.7 1-2.1 3-4.1 5.2-5.4zm-14-.9h-3.3c.7.5 1.3 1 1.8 1.7h1.4c.2.1.5.4.7 1.5h-.8v1.7h4.8v-1.7h-2.3c-.4-3-2.1-3.2-2.3-3.2zm-50.4-10.4v-.8h-1.3v3.8h1.3v-.8h-.5v-2.1h.5zm72 11.7c-1.4 0-2.8.3-4.1.7l2.3 4.6c.6-.1 1.1-.2 1.7-.2 4 0 7.3 3.3 7.3 7.3s-3.3 7.3-7.3 7.3-7.3-3.3-7.3-7.3c0-2.2 1-4.2 2.6-5.5l-2.3-4.6c-3.2 2.2-5.3 5.9-5.3 10.1 0 6.8 5.5 12.4 12.4 12.4 6.8 0 12.4-5.5 12.4-12.4s-5.6-12.4-12.4-12.4zm-21.9 5.8h4.8v-1.7h-4.8v1.7zm-11 6.7c2 0 3.7-1.4 4.1-3.3h-1.8c-.3 1-1.3 1.6-2.3 1.6-1.1 0-2-.7-2.3-1.6h-1.8c.4 1.9 2.1 3.3 4.1 3.3zm11-4.4h4.8v-1.7h-4.8v1.7zm-5.6-6.3h-13.2v1.7h13.2v6.4c0 .2-.1.6-.3.9l-2.2 2.3c-.2.2-.6.3-.8.3h-10.6v-11.6c-.9 0-1.7.8-1.7 1.7v.6c-.4-.8-.9-1.7-1.5-2.4h-4.4c1.7 1.6 3 3.7 3.8 6 .3.9 1.2 1.4 2.1 1.1v4.6c0 .9.8 1.7 1.7 1.7h10.6c.7 0 1.6-.4 2-.9l2.2-2.3c.5-.5.8-1.3.8-2v-6.4c0-.9-.7-1.7-1.7-1.7zm-27.1-.7l-1.4 5c2.3 1.2 3.8 3.6 3.8 6.4 0 4-3.3 7.3-7.3 7.3s-7.3-3.3-7.3-7.3 3.3-7.3 7.3-7.3h.3l1.4-5c-.5-.1-1.1-.1-1.6-.1-6.8 0-12.4 5.5-12.4 12.4s5.5 12.4 12.4 12.4c6.8 0 12.4-5.5 12.4-12.4-.1-5.2-3.2-9.6-7.6-11.4zm21.7 4.8c1.1 0 2 .7 2.3 1.6h1.8c-.4-1.9-2.1-3.3-4.1-3.3-2 0-3.7 1.4-4.1 3.3h1.8c.3-.9 1.2-1.6 2.3-1.6zm11 4.5h1c0 .4-.1.9-.4 1.1-.1.1-.2.2-.5.2-.2 0-.3-.1-.4-.2-.7-.7-.7-3.4-.7-6.3v-1.2c0-5.7-7.5-6.7-7.8-6.7h-.1l-20.8-1.8V99h10v-2.6c0-.2.2-.4.4-.4s.4.2.4.4V99h.8v-2.6c0-.2.2-.4.4-.4s.4.2.4.4V99h.8v-2.6c0-.2.2-.4.4-.4s.4.2.4.4V99h11c1 .8 1.7 1.8 1.7 3.3v2.3c0 3.2.1 5.3 1.2 6.4.4.4 1 .6 1.6.6.7 0 1.3-.3 1.7-.8.5-.6.7-1.5.8-2.2h2v-1.7h-4.8v1.8z"/><path class="st0" d="M144.62 76.3c-3.3-6.8-6.5-13.2-6-22.4.5-9 10.9-23.4 11-23.5l.3-.4L119.02.1l-.4.3c-6.6 4.8-14.5 7.5-22.1 7.5-4.7 0-9.2-1-13.2-3-.7-.3-1.3-.7-2-1-1.7-.8-3.5-1.7-5.2-2.7l-.3-.2-.3.2c-1.7 1.1-3.7 2-5.6 2.9-.5.3-1 .5-1.6.7-4 2-8.4 3-13.1 3-7.7 0-15.5-2.7-22.1-7.5l-.4-.3-30.9 29.9.3.4c.1.1 10.2 14.6 11 23.5.8 8.8-2.4 15.4-5.9 22.4-2 4.1-4.1 8.4-5.4 13.1-4.6 17.2-.3 35 10.8 45.4 9.2 8.9 21.7 10.6 33.9 12.3 3.5.5 7.2 1 10.6 1.7 6.1 1.2 11.8 4.6 16.6 9.6.2.3.4.5.4.5.1.1.9.8 1.9.8.6 0 1.1-.2 1.6-.7l.1-.1c.1-.1.3-.3.4-.5 4.7-5 10.5-8.3 16.6-9.6 3.4-.7 7.1-1.2 10.6-1.7 12.2-1.7 24.7-3.4 33.9-12.3 11-10.3 15.2-28.1 10.8-45.4-1.4-4.8-3.4-9-5.4-13zm-5.8 58.2c-11.7 11.4-29.2 10.9-44.2 13.8-6.4 1.3-12.2 4.8-16.9 9.8l-.5.5c-1.3 1.3-2.7-.1-2.7-.1l-.4-.4c-4.7-5-10.5-8.5-16.9-9.8-15-2.9-32.5-2.4-44.2-13.8-12-11.2-14.8-29.4-10.7-44.9 3.4-12.7 12.7-21.6 11.3-35.8-.9-9.2-11.1-23.8-11.1-23.8L32.82.8c10.1 7.4 24.2 10.3 35.8 4.5 2.4-1.2 5-2.3 7.3-3.7 2.3 1.4 4.9 2.5 7.3 3.7 11.7 5.8 25.8 2.9 35.9-4.5l30.2 29.2s-10.6 14.6-11.1 23.8c-.9 14.8 7.6 22.4 11.4 35.8 3.8 15.5 1.1 33.7-10.8 44.9z"/><path class="st0" d="M138.12 53.8c.5-9.3 11.1-23.8 11.1-23.8L119.02.8c-10.1 7.4-24.2 10.3-35.9 4.5-2.3-1.2-4.9-2.3-7.3-3.7-2.2 1.4-4.9 2.5-7.3 3.7-11.7 5.8-25.7 2.9-35.8-4.5L2.42 30s10.2 14.6 11.1 23.8c1.4 14.2-8 23.1-11.3 35.8-4.1 15.5-1.3 33.7 10.7 44.9 11.7 11.4 29.2 10.9 44.2 13.8 6.4 1.3 12.2 4.8 16.9 9.8.1.2.3.4.4.4 0 0 1.4 1.4 2.7.1.2-.2.4-.3.5-.5 4.7-5 10.5-8.5 16.9-9.8 15-2.9 32.5-2.4 44.2-13.8 11.9-11.2 14.6-29.4 10.7-44.9-3.7-13.4-12.2-21-11.3-35.8zm.4 80.3c-8.9 8.6-21.3 10.3-33.3 12-3.6.5-7.2 1-10.7 1.7-6.4 1.3-12.3 4.7-17.2 10l-.1.1-.3.3-.2.2c-.3.3-.5.4-.8.4-.6 0-1.1-.5-1.1-.5-.1-.1-.2-.2-.2-.3l-.1-.1c-4.9-5.2-10.8-8.7-17.2-10-3.5-.7-7.1-1.2-10.7-1.7-12-1.6-24.4-3.3-33.3-12-10.8-10.1-15-27.5-10.5-44.3 1.2-4.7 3.3-8.9 5.3-12.9 3.6-7.2 6.9-14 6-23-.8-8.5-9.3-21.3-10.9-23.7l29.6-28.8c6.7 4.8 14.6 7.4 22.4 7.4 4.9 0 9.5-1 13.6-3.1.5-.2 1-.5 1.6-.7 1.8-.9 3.8-1.8 5.5-2.8 1.6.9 3.3 1.8 5 2.6.7.3 1.4.7 2 1C87.12 8 91.72 9 96.62 9c7.8 0 15.7-2.6 22.4-7.4l29.5 28.6c-1.7 2.4-10.4 15.1-10.9 23.7-.5 9.5 2.7 16 6.1 23 2 4 4 8.1 5.4 13 4.1 16.7 0 34.1-10.6 44.2z"/><path class="st0" d="M132.12 54.1c1.5-8.6 4.8-16.4 9.9-23.4l-23.6-22.9c-2.9 1.8-5.9 3.7-9.3 4.6-9.8 3.5-20.5 3.4-29.3-1.7l-3.5-2.1-3.5 2.1c-8.9 5.1-19.5 5.2-29.3 1.7-3.3-.9-6.3-2.8-9.3-4.6l-23.6 22.9c5.2 6.9 8.4 14.8 9.9 23.4 1.3 10.6-3.5 19.1-7.9 28-6.4 12.4-7.6 29-.2 41.3 3.3 7 11.2 12.3 18.8 14.7 14.7 4.9 33.2 1.3 44.6 13.9.3.3.5.3.8 0 11.4-12.6 29.9-9 44.6-13.9 7.6-2.4 15.5-7.7 18.8-14.7 7.4-12.3 6.2-28.9-.2-41.3-4.2-8.9-9-17.5-7.7-28zM14.02 31.2l21-19.9c23.3 13.7 41.4.8 41.4.8.1-.1 18.1 12.9 41.4-.8l21 19.9c-6.8 10-8 13.5-9.5 20.8H23.52c-1.6-7.3-2.7-10.8-9.5-20.8zm125.8 86.1c-3.6 9.2-12 15.6-22.4 18l-8 1.3c-11.7 2.5-23.8 1.2-33 10 0 0-.1.1-.2 0-9.2-8.8-21.2-7.6-33-10l-8-1.3c-10.4-2.4-18.8-8.9-22.4-18-1.7-4.4-4.3-12.5-.5-26.6.9-3.1 3.8-9.9 4.2-10.4 6.7-12.7 6.9-22.9 6.9-25.1h105.6c0 2.2.2 12.4 6.9 25.1.5.5 3.3 7.3 4.2 10.4 4.1 14.1 1.4 22.2-.3 26.6z"/><g><path class="st0" d="M46.92 31h-11.9c-.3 0-.5-.2-.5-.5s.2-.5.5-.5h11.9c.3 0 .5.2.5.5s-.2.5-.5.5zM46.92 33.8h-9.1c-.3 0-.5-.2-.5-.5s.2-.5.5-.5h9.1c.3 0 .5.2.5.5s-.2.5-.5.5zM46.92 28.3h-9.1c-.3 0-.5-.2-.5-.5s.2-.5.5-.5h9.1c.3 0 .5.2.5.5s-.2.5-.5.5z"/><g><path class="st0" d="M104.82 31h11.9c.3 0 .5-.2.5-.5s-.2-.5-.5-.5h-11.9c-.3 0-.5.2-.5.5s.2.5.5.5zM104.82 33.8h9.1c.3 0 .5-.2.5-.5s-.2-.5-.5-.5h-9.1c-.3 0-.5.2-.5.5s.2.5.5.5zM104.82 28.3h9.1c.3 0 .5-.2.5-.5s-.2-.5-.5-.5h-9.1c-.3 0-.5.2-.5.5s.2.5.5.5z"/></g></g><g><path class="st0" d="M64.82 126v4.5c0 .6.1 1.1.3 1.4.3.4.8.6 1.3.6.6 0 1-.2 1.3-.6.2-.3.3-.8.3-1.4V126h1.1v4.8c0 .8-.2 1.4-.7 2-.6.6-1.2.9-2 .9s-1.5-.3-2-.9c-.5-.5-.7-1.2-.7-2V126h1.1zM70.92 133c0-.2.1-.3.2-.5.1-.1.3-.2.5-.2s.3.1.5.2c.1.1.2.3.2.5s-.1.3-.2.5c-.1.1-.3.2-.5.2s-.4-.1-.5-.2c-.1-.2-.2-.3-.2-.5zM78.32 127.1l-.9.5c-.2-.3-.3-.5-.5-.6-.2-.1-.4-.2-.6-.2-.3 0-.6.1-.8.3-.2.2-.3.4-.3.7 0 .4.3.7.8.9l.8.3c.6.2 1.1.5 1.3.9.3.4.4.8.4 1.3 0 .7-.2 1.3-.7 1.7-.5.5-1 .7-1.7.7s-1.2-.2-1.6-.6c-.4-.4-.7-.9-.8-1.6l1.1-.3c.1.4.1.7.3.9.2.3.6.5 1 .5s.6-.1.9-.4c.2-.2.4-.5.4-.9 0-.1 0-.3-.1-.4 0-.1-.1-.2-.2-.3l-.3-.3c-.1-.1-.3-.2-.5-.3l-.7-.3c-1-.4-1.5-1.1-1.5-1.9 0-.6.2-1 .6-1.4.4-.4 1-.6 1.6-.6.8.1 1.5.6 2 1.4zM79.82 133c0-.2.1-.3.2-.5.1-.1.3-.2.5-.2s.3.1.5.2c.1.1.2.3.2.5s-.1.3-.2.5c-.1.1-.3.2-.5.2s-.4-.1-.5-.2c-.1-.2-.2-.3-.2-.5zM87.42 131.7h-3.2l-.8 1.8h-1.2l3.7-8 3.6 8h-1.2l-.9-1.8zm-.5-1.1l-1.1-2.6-1.2 2.6h2.3zM90.72 133c0-.2.1-.3.2-.5.1-.1.3-.2.5-.2s.3.1.5.2c.1.1.2.3.2.5s-.1.3-.2.5c-.1.1-.3.2-.5.2s-.4-.1-.5-.2c-.2-.2-.2-.3-.2-.5z"/><g><path class="st0" d="M29.32 48.3l1.6-8.1 2.6 5.8 2.7-5.8 1.4 8.1h-1.2l-.7-4.5-2.2 4.9-2.2-4.9-.8 4.5h-1.2zM38.72 44.5c0-1.1.4-2 1.2-2.7.8-.8 1.7-1.1 2.8-1.1 1.1 0 2 .4 2.8 1.1.8.8 1.2 1.7 1.2 2.8 0 1.1-.4 2-1.2 2.8-.8.8-1.7 1.1-2.8 1.1-1 0-1.8-.3-2.6-1-.9-.8-1.4-1.8-1.4-3zm1.2 0c0 .8.3 1.5.8 2 .6.5 1.2.8 1.9.8.8 0 1.5-.3 2-.8.5-.6.8-1.2.8-2s-.3-1.5-.8-2-1.2-.8-2-.8-1.4.3-2 .8c-.5.6-.7 1.2-.7 2zM49.82 41.8v6.5h-1.1v-6.5h-1.7v-1.1h4.6v1.1h-1.8zM52.02 44.5c0-1.1.4-2 1.2-2.7.8-.8 1.7-1.1 2.8-1.1 1.1 0 2 .4 2.8 1.1.8.8 1.2 1.7 1.2 2.8 0 1.1-.4 2-1.2 2.8-.8.8-1.7 1.1-2.8 1.1-1 0-1.8-.3-2.6-1-1-.8-1.4-1.8-1.4-3zm1.1 0c0 .8.3 1.5.8 2 .6.5 1.2.8 1.9.8.8 0 1.5-.3 2-.8.5-.6.8-1.2.8-2s-.3-1.5-.8-2-1.2-.8-2-.8-1.4.3-2 .8c-.4.6-.7 1.2-.7 2zM63.82 45.1l2.3 3.2h-1.4l-2.1-3.1h-.2v3.1h-1.1v-7.5h1.3c1 0 1.7.2 2.2.6.5.4.7 1 .7 1.6 0 .5-.2 1-.5 1.4-.3.3-.7.6-1.2.7zm-1.4-.9h.4c1.1 0 1.6-.4 1.6-1.2 0-.8-.5-1.2-1.6-1.2h-.4v2.4zM67.22 48.3v-7.5h1.1c.5 0 .9 0 1.2.1.3.1.6.2.8.4.2.2.4.4.5.7.1.3.2.6.2.9 0 .5-.2 1-.6 1.4.4.1.7.4.9.7.2.3.4.7.4 1.2 0 .6-.2 1.1-.6 1.5-.3.3-.5.4-.8.5-.3.1-.8.1-1.3.1h-1.8zm1.2-4.3h.4c.4 0 .7-.1.9-.3.2-.2.3-.5.3-.8 0-.4-.1-.6-.3-.8-.2-.2-.5-.3-.9-.3h-.4V44zm0 3.2h.7c.5 0 .9-.1 1.1-.3.3-.2.4-.5.4-.8 0-.3-.1-.6-.4-.8-.2-.2-.7-.3-1.3-.3h-.5v2.2zM74.32 40.8v7.5h-1.1v-7.5h1.1zM77.22 43.8l2.9-3h1.5l-3.4 3.4 3.4 4.1h-1.5l-2.7-3.3-.2.2v3.1h-1.1v-7.5h1.1v3zM86.82 41.8h-3v1.8h2.9v1.1h-2.9v2.5h3v1.1h-4.1v-7.5h4.1v1zM94.02 45.1l2.3 3.2h-1.4l-2.1-3.1h-.2v3.1h-1.2v-7.5h1.3c1 0 1.7.2 2.2.6.5.4.7 1 .7 1.6 0 .5-.2 1-.5 1.4-.2.3-.6.6-1.1.7zm-1.5-.9h.4c1.1 0 1.6-.4 1.6-1.2 0-.8-.5-1.2-1.6-1.2h-.4v2.4zM96.92 44.5c0-1.1.4-2 1.2-2.7.8-.8 1.7-1.1 2.8-1.1 1.1 0 2 .4 2.8 1.1.8.8 1.2 1.7 1.2 2.8 0 1.1-.4 2-1.2 2.8-.8.8-1.7 1.1-2.8 1.1-1 0-1.8-.3-2.6-1-1-.8-1.4-1.8-1.4-3zm1.1 0c0 .8.3 1.5.8 2 .6.5 1.2.8 1.9.8.8 0 1.5-.3 2-.8.5-.6.8-1.2.8-2s-.3-1.5-.8-2-1.2-.8-2-.8-1.4.3-2 .8c-.4.6-.7 1.2-.7 2zM107.32 40.8v4.5c0 .6.1 1.1.3 1.4.3.4.8.6 1.3.6.6 0 1-.2 1.3-.6.2-.3.3-.8.3-1.4v-4.5h1.1v4.8c0 .8-.2 1.4-.7 2-.6.6-1.2.9-2 .9s-1.5-.3-2-.9c-.5-.5-.7-1.2-.7-2v-4.8h1.1zM115.62 41.8v6.5h-1.1v-6.5h-1.7v-1.1h4.6v1.1h-1.8zM122.52 41.8h-3v1.8h2.9v1.1h-2.9v2.5h3v1.1h-4.1v-7.5h4.1v1z"/></g><g><path class="st0" d="M54.62 22h1.9v6.9h1.6V22h1.9v15h-1.9v-6.2h-1.6V37h-1.9V22zM61.82 22h1.9v15h-1.9V22zM65.42 22h4.2c.7 0 1.3.6 1.3 1.3v5.6c0 .7-.6 1.3-1.3 1.3h-2.2V37h-2V22zm3.6 1.9h-1.6v4.3h1.6v-4.3zM74.22 32.5v2.6h1.6v-4.9h-2.3c-.8 0-1.3-.6-1.3-1.3v-5.7c0-.8.5-1.3 1.3-1.3h2.9c.7 0 1.3.5 1.3 1.3v3.2h-1.9v-2.5h-1.6v4.4h2.3c.7 0 1.3.6 1.3 1.3v6.2c0 .7-.6 1.3-1.3 1.3h-2.9c-.7 0-1.3-.6-1.3-1.3v-3.3h1.9zM80.52 23.9h-1.7V22h5.4v1.9h-1.8V37h-1.9V23.9zM90.22 37h-5V22h4.8v1.9h-2.9V28h2v1.9h-2V35h3v2zM95.32 30.7h-1.6v6.4h-1.9v-15h4c.7 0 1.3.6 1.3 1.3v5.2c0 .5-.3.9-.7 1.1.6.1.9.7.9 1.3v6.2h-1.9v-6.5zm-1.6-2h1.4v-4.8h-1.4v4.8z"/></g></g></svg>