<svg xmlns="http://www.w3.org/2000/svg" xmlns:xlink="http://www.w3.org/1999/xlink" height="150" width="207.3" viewBox="0 0 207.3 150" id="Слой_1"><style id="style3">.st0{fill:#383433;} .st1{fill:none;}</style><g id="g5"><g id="g7"><g id="g9" fill="#383433" transform="translate(3.5 -27.9)"><path id="path11" d="M92.2 61.5c.5 0 .9-.4.9-.9s-.4-.9-.9-.9-.9.4-.9.9.4.9.9.9z" class="st0"/><circle r=".8" id="ellipse13" cy="60.6" cx="90.3" class="st0" transform="rotate(-89.626 90.323 60.616)"/><circle r=".8" id="ellipse15" cy="60.6" cx="88.5" class="st0" transform="matrix(.009 -1 1 .009 27.064 148.516)"/><circle r=".7" id="ellipse17" cy="60.6" cx="86.6" class="st0" transform="matrix(.008 -1 1 .008 25.34 146.72)"/><path id="path19" d="M92.2 63.3c.5 0 .9-.4.9-.9s-.4-.9-.9-.9-.9.4-.9.9.4.9.9.9z" class="st0"/><circle r=".8" id="ellipse21" cy="62.4" cx="90.3" class="st0" transform="matrix(.007 -1 1 .007 27.246 152.284)"/><circle r=".8" id="ellipse23" cy="62.4" cx="88.5" class="st0" transform="matrix(.0078 -1 1 .0078 25.363 150.375)"/><path id="path25" d="M86.6 63.1c.4 0 .7-.3.7-.7 0-.4-.3-.7-.7-.7-.4 0-.7.3-.7.7 0 .4.3.7.7.7z" class="st0"/><circle r=".6" id="ellipse27" cy="62.4" cx="84.7" class="st0" transform="matrix(.0088 -1 1 .0088 21.625 146.575)"/><circle r=".5" id="ellipse29" cy="62.4" cx="82.9" class="st0" transform="matrix(.008 -1 1 .008 19.867 144.757)"/><circle r=".5" id="ellipse31" cy="62.4" cx="81" class="st0" transform="rotate(-89.53 81.034 62.348)"/><circle r=".9" id="ellipse33" cy="64.2" cx="92.1" class="st0" transform="matrix(.0088 -1 1 .0088 27.103 155.82)"/><circle r=".8" id="ellipse35" cy="64.2" cx="90.3" class="st0" transform="rotate(-89.623 90.295 64.224)"/><circle r=".8" id="ellipse37" cy="64.2" cx="88.4" class="st0" transform="matrix(.008 -1 1 .008 23.538 152.145)"/><circle r=".7" id="ellipse39" cy="64.2" cx="86.6" class="st0" transform="rotate(-89.67 86.585 64.197)"/><circle r=".6" id="ellipse41" cy="64.2" cx="84.7" class="st0" transform="matrix(.008 -1 1 .008 19.877 148.402)"/><circle r=".5" id="ellipse43" cy="64.2" cx="82.9" class="st0" transform="rotate(-89.644 82.88 64.168)"/><circle r=".5" id="ellipse45" cy="64.2" cx="81" class="st0" transform="rotate(-89.706 81.025 64.154)"/><circle r=".4" id="ellipse47" cy="64.1" cx="79.2" class="st0" transform="rotate(-89.728 79.17 64.14)"/><circle r=".3" id="ellipse49" cy="64.1" cx="77.3" class="st0" transform="matrix(.01 -1 1 .01 12.418 140.8)"/><circle r=".9" id="ellipse51" cy="66" cx="92.1" class="st0" transform="rotate(-89.56 92.133 66.042)"/><path id="path53" d="M90.3 66.8c.5 0 .8-.4.8-.8 0-.5-.4-.8-.8-.8-.5 0-.8.4-.8.8 0 .5.3.8.8.8z" class="st0"/><circle r=".8" id="ellipse55" cy="66" cx="88.4" class="st0" transform="rotate(-89.63 88.427 66.014)"/><path id="path57" d="M86.6 66.7c.4 0 .7-.3.7-.7 0-.4-.3-.7-.7-.7-.4 0-.7.3-.7.7 0 .4.3.7.7.7z" class="st0"/><circle r=".6" id="ellipse59" cy="66" cx="84.7" class="st0" transform="rotate(-89.595 84.718 65.985)"/><circle r=".5" id="ellipse61" cy="66" cx="82.9" class="st0" transform="matrix(.008 -1 1 .008 16.225 148.307)"/><circle r=".5" id="ellipse63" cy="66" cx="81" class="st0" transform="rotate(-89.647 81.01 65.96)"/><circle r=".4" id="ellipse65" cy="65.9" cx="79.2" class="st0" transform="matrix(.0083 -1 1 .0083 12.557 144.553)"/><circle r=".3" id="ellipse67" cy="65.9" cx="77.3" class="st0" transform="rotate(-89.673 77.303 65.93)"/><circle r=".3" id="ellipse69" cy="65.9" cx="75.4" class="st0" transform="matrix(.009 -1 1 .009 8.86 140.776)"/><circle r=".9" id="ellipse71" cy="67.8" cx="92.1" class="st0" transform="rotate(-89.56 92.12 67.847)"/><circle r=".8" id="ellipse73" cy="67.8" cx="90.3" class="st0" transform="rotate(-89.627 90.27 67.833)"/><circle r=".8" id="ellipse75" cy="67.8" cx="88.4" class="st0" transform="rotate(-89.665 88.414 67.818)"/><path id="path77" d="M86.6 68.5c.4 0 .7-.3.7-.7 0-.4-.3-.7-.7-.7-.4 0-.7.3-.7.7 0 .4.3.7.7.7z" class="st0"/><circle r=".6" id="ellipse79" cy="67.8" cx="84.7" class="st0" transform="matrix(.008 -1 1 .008 16.25 151.963)"/><circle r=".5" id="ellipse81" cy="67.8" cx="82.9" class="st0" transform="matrix(.01 -1 1 .01 14.26 149.956)"/><circle r=".5" id="ellipse83" cy="67.8" cx="81" class="st0" transform="rotate(-89.473 80.994 67.76)"/><circle r=".4" id="ellipse85" cy="67.8" cx="79.1" class="st0" transform="rotate(-89.728 79.144 67.75)"/><circle r=".3" id="ellipse87" cy="67.7" cx="77.3" class="st0" transform="matrix(.01 -1 1 .01 8.79 144.35)"/><circle r=".3" id="ellipse89" cy="67.7" cx="75.4" class="st0" transform="matrix(.007 -1 1 .007 7.175 142.67)"/><circle r=".2" id="ellipse91" cy="67.7" cx="73.6" class="st0" transform="rotate(-89.72 73.58 67.708)"/><path id="path93" d="M71.7 67.8c.1 0 .1-.1.1-.1 0-.1-.1-.1-.1-.1-.1 0-.1.1-.1.1 0 .1 0 .1.1.1z" class="st0"/><circle r=".9" id="ellipse95" cy="69.7" cx="92.1" class="st0" transform="rotate(-89.655 92.11 69.65)"/><circle r=".8" id="ellipse97" cy="69.6" cx="90.3" class="st0" transform="matrix(.0077 -1 1 .0077 19.92 159.35)"/><path id="path99" d="M88.4 70.4c.4 0 .8-.3.8-.7 0-.4-.3-.8-.7-.8-.4 0-.8.3-.8.8-.1.3.3.7.7.7z" class="st0"/><circle r=".7" id="ellipse101" cy="69.6" cx="86.5" class="st0" transform="rotate(-89.635 86.545 69.61)"/><circle r=".6" id="ellipse103" cy="69.6" cx="84.7" class="st0" transform="matrix(.008 -1 1 .008 14.423 153.73)"/><circle r=".5" id="ellipse105" cy="69.6" cx="82.8" class="st0" transform="rotate(-89.69 82.838 69.58)"/><circle r=".5" id="ellipse107" cy="69.6" cx="81" class="st0" transform="matrix(.007 -1 1 .007 10.842 150.054)"/><path id="path109" d="M79.1 70c.2 0 .4-.2.4-.4s-.2-.4-.4-.4-.4.2-.4.4.2.4.4.4z" class="st0"/><circle r=".3" id="ellipse111" cy="69.5" cx="77.3" class="st0" transform="rotate(-89.18 77.276 69.54)"/><circle r=".3" id="ellipse113" cy="69.5" cx="75.4" class="st0" transform="matrix(.007 -1 1 .007 5.356 144.45)"/><circle r=".2" id="ellipse115" cy="69.5" cx="73.6" class="st0" transform="matrix(.0095 -1 1 .0095 3.358 142.415)"/><circle id="circle117" r=".1" cy="69.5" cx="71.7" class="st0"/><circle id="circle119" r=".1" cy="69.5" cx="69.9" class="st0"/><path id="path121" d="M92.1 72.3c.5 0 .9-.4.9-.9s-.4-.9-.9-.9-.9.4-.9.9.4.9.9.9z" class="st0"/><circle r=".8" id="ellipse123" cy="71.4" cx="90.2" class="st0" transform="rotate(-89.52 90.238 71.44)"/><circle r=".8" id="ellipse125" cy="71.4" cx="88.4" class="st0" transform="matrix(.007 -1 1 .007 16.332 159.306)"/><circle r=".7" id="ellipse127" cy="71.4" cx="86.5" class="st0" transform="rotate(-89.55 86.53 71.412)"/><circle r=".6" id="ellipse129" cy="71.4" cx="84.7" class="st0" transform="rotate(-89.59 84.677 71.4)"/><circle r=".5" id="ellipse131" cy="71.4" cx="82.8" class="st0" transform="matrix(.007 -1 1 .007 10.85 153.7)"/><circle r=".5" id="ellipse133" cy="71.4" cx="81" class="st0" transform="matrix(.0073 -1 1 .0073 9.012 151.822)"/><circle r=".4" id="ellipse135" cy="71.4" cx="79.1" class="st0" transform="matrix(.0084 -1 1 .0084 7.098 149.875)"/><circle r=".3" id="ellipse137" cy="71.3" cx="77.3" class="st0" transform="rotate(-89.672 77.262 71.344)"/><circle r=".3" id="ellipse139" cy="71.3" cx="75.4" class="st0" transform="matrix(.009 -1 1 .009 3.4 146.093)"/><circle r=".2" id="ellipse141" cy="71.3" cx="73.6" class="st0" transform="rotate(-89.735 73.552 71.317)"/><circle r=".1" id="ellipse143" cy="71.3" cx="71.7" class="st0" transform="rotate(-89.607 71.698 71.302)"/><circle id="circle145" r=".1" cy="71.3" cx="69.8" class="st0"/><circle r=".9" id="ellipse147" cy="73.3" cx="92.1" class="st0" transform="rotate(-89.688 92.082 73.26)"/><circle r=".8" id="ellipse149" cy="73.2" cx="90.2" class="st0" transform="matrix(.0077 -1 1 .0077 16.286 162.905)"/><circle r=".8" id="ellipse151" cy="73.2" cx="88.4" class="st0" transform="matrix(.0072 -1 1 .0072 14.51 161.08)"/><circle r=".7" id="ellipse153" cy="73.2" cx="86.5" class="st0" transform="matrix(.007 -1 1 .007 12.688 159.217)"/><circle r=".6" id="ellipse155" cy="73.2" cx="84.7" class="st0" transform="matrix(.0095 -1 1 .0095 10.657 157.17)"/><circle r=".5" id="ellipse157" cy="73.2" cx="82.8" class="st0" transform="rotate(-89.69 82.81 73.19)"/><circle r=".5" id="ellipse159" cy="73.2" cx="81" class="st0" transform="matrix(.007 -1 1 .007 7.206 153.613)"/><circle r=".4" id="ellipse161" cy="73.2" cx="79.1" class="st0" transform="matrix(.0107 -1 1 .0107 5.095 151.476)"/><circle r=".3" id="ellipse163" cy="73.1" cx="77.2" class="st0" transform="matrix(.01 -1 1 .01 3.325 149.657)"/><circle r=".3" id="ellipse165" cy="73.1" cx="75.4" class="st0" transform="rotate(-89.906 75.393 73.136)"/><circle r=".2" id="ellipse167" cy="73.1" cx="73.5" class="st0" transform="matrix(.0095 -1 1 .0095 -.28 145.963)"/><circle id="circle169" r=".1" cy="73.1" cx="71.7" class="st0"/><circle r=".9" id="ellipse171" cy="75.1" cx="92.1" class="st0" transform="matrix(.0088 -1 1 .0088 16.195 166.467)"/><circle r=".8" id="ellipse173" cy="75.1" cx="90.2" class="st0" transform="rotate(-89.66 90.214 75.05)"/><circle r=".8" id="ellipse175" cy="75" cx="88.4" class="st0" transform="rotate(-89.63 88.36 75.036)"/><circle r=".7" id="ellipse177" cy="75" cx="86.5" class="st0" transform="matrix(.008 -1 1 .008 10.8 160.933)"/><circle r=".6" id="ellipse179" cy="75" cx="84.7" class="st0" transform="matrix(.008 -1 1 .008 8.97 159.063)"/><circle r=".5" id="ellipse181" cy="75" cx="82.8" class="st0" transform="matrix(.0098 -1 1 .0098 6.995 157.054)"/><circle r=".5" id="ellipse183" cy="75" cx="80.9" class="st0" transform="matrix(.008 -1 1 .008 5.306 155.31)"/><circle r=".4" id="ellipse185" cy="75" cx="79.1" class="st0" transform="matrix(.0072 -1 1 .0072 3.553 153.515)"/><circle r=".3" id="ellipse187" cy="75" cx="77.2" class="st0" transform="matrix(.007 -1 1 .007 1.73 151.65)"/><circle r=".3" id="ellipse189" cy="74.9" cx="75.4" class="st0" transform="rotate(-89.277 75.38 74.942)"/><circle r=".2" id="ellipse191" cy="74.9" cx="73.5" class="st0" transform="matrix(.0167 -1 1 .0167 -2.615 147.193)"/><circle r=".9" id="ellipse193" cy="76.9" cx="92.1" class="st0" transform="matrix(.0082 -1 1 .0082 14.43 168.29)"/><path id="path195" d="M90.2 77.7c.5 0 .8-.4.8-.8s-.4-.8-.8-.8c-.5 0-.8.4-.8.8s.3.8.8.8z" class="st0"/><path id="path197" d="M88.3 77.6c.4 0 .8-.3.8-.7 0-.4-.3-.8-.7-.8-.4 0-.8.3-.8.8 0 .4.3.7.7.7z" class="st0"/><circle r=".7" id="ellipse199" cy="76.8" cx="86.5" class="st0" transform="matrix(.0093 -1 1 .0093 8.863 162.603)"/><circle r=".6" id="ellipse201" cy="76.8" cx="84.6" class="st0" transform="rotate(-89.683 84.638 76.813)"/><circle r=".5" id="ellipse203" cy="76.8" cx="82.8" class="st0" transform="rotate(-89.643 82.785 76.8)"/><circle r=".5" id="ellipse205" cy="76.8" cx="80.9" class="st0" transform="matrix(.0102 -1 1 .0102 3.323 156.93)"/><circle r=".4" id="ellipse207" cy="76.8" cx="79.1" class="st0" transform="matrix(.007 -1 1 .007 1.744 155.302)"/><path id="path209" d="M77.2 77.1c.2 0 .3-.2.3-.3 0-.2-.2-.3-.3-.3-.2 0-.3.1-.3.3 0 .1.1.3.3.3z" class="st0"/><circle r=".3" id="ellipse211" cy="76.7" cx="75.4" class="st0" transform="matrix(.0072 -1 1 .0072 -1.917 151.56)"/><circle r=".9" id="ellipse213" cy="78.7" cx="92" class="st0" transform="matrix(.0072 -1 1 .0072 12.71 170.15)"/><circle r=".8" id="ellipse215" cy="78.7" cx="90.2" class="st0" transform="rotate(-89.56 90.185 78.658)"/><circle r=".8" id="ellipse217" cy="78.6" cx="88.3" class="st0" transform="rotate(-89.628 88.333 78.644)"/><path id="path219" d="M86.5 79.3c.4 0 .7-.3.7-.7 0-.4-.3-.7-.7-.7-.4 0-.7.3-.7.7 0 .4.3.7.7.7z" class="st0"/><circle r=".6" id="ellipse221" cy="78.6" cx="84.6" class="st0" transform="matrix(.008 -1 1 .008 5.334 162.61)"/><circle r=".5" id="ellipse223" cy="78.6" cx="82.8" class="st0" transform="matrix(.007 -1 1 .007 3.577 160.813)"/><circle r=".5" id="ellipse225" cy="78.6" cx="80.9" class="st0" transform="matrix(.0092 -1 1 .0092 1.58 158.778)"/><circle r=".4" id="ellipse227" cy="78.6" cx="79.1" class="st0" transform="matrix(.0107 -1 1 .0107 -.36 156.793)"/><circle r=".3" id="ellipse229" cy="78.6" cx="77.2" class="st0" transform="rotate(-89.674 77.208 78.562)"/><path id="path231" d="M90.2 81.3c.5 0 .8-.4.8-.8 0-.5-.4-.8-.8-.8-.5 0-.8.4-.8.8s.3.8.8.8z" class="st0"/><circle r=".8" id="ellipse233" cy="80.5" cx="88.3" class="st0" transform="rotate(-89.627 88.32 80.45)"/><path id="path235" d="M86.5 81.1c.4 0 .7-.3.7-.7 0-.4-.3-.7-.7-.7-.4 0-.7.3-.7.7 0 .4.3.7.7.7z" class="st0"/><circle r=".6" id="ellipse237" cy="80.4" cx="84.6" class="st0" transform="matrix(.008 -1 1 .008 3.515 164.387)"/><circle r=".5" id="ellipse239" cy="80.4" cx="82.8" class="st0" transform="matrix(.007 -1 1 .007 1.76 162.592)"/><path id="path241" d="M80.9 80.9c.3 0 .5-.2.5-.5s-.2-.5-.5-.5-.5.2-.5.5.2.5.5.5z" class="st0"/><circle r=".4" id="ellipse243" cy="80.4" cx="79" class="st0" transform="rotate(-89.728 79.047 80.38)"/><circle r=".7" id="ellipse245" cy="82.2" cx="86.4" class="st0" transform="matrix(.0078 -1 1 .0078 3.535 168.043)"/><circle r=".6" id="ellipse247" cy="82.2" cx="84.6" class="st0" transform="rotate(-89.637 84.596 82.226)"/><circle r=".5" id="ellipse249" cy="82.2" cx="82.7" class="st0" transform="rotate(-89.69 82.743 82.21)"/><circle r=".5" id="ellipse251" cy="82.2" cx="80.9" class="st0" transform="matrix(.007 -1 1 .007 -1.883 162.503)"/><circle r=".6" id="ellipse253" cy="84" cx="84.6" class="st0" transform="matrix(.011 -1 1 .011 -.376 167.682)"/><circle r=".5" id="ellipse255" cy="84" cx="82.7" class="st0" transform="matrix(.007 -1 1 .007 -1.877 166.145)"/><path id="path257" d="M123.8 137.9c-.3.3-.3.9 0 1.3.3.3.9.3 1.3 0 .3-.3.3-.9 0-1.3-.4-.4-1-.4-1.3 0z" class="st0"/><circle r=".8" id="ellipse259" cy="139.8" cx="123.1" class="st0" transform="rotate(-45.502 123.125 139.804)"/><circle r=".8" id="ellipse261" cy="141.1" cx="121.8" class="st0" transform="rotate(-45.26 121.83 141.13)"/><path id="path263" d="M120 142c-.3.3-.3.7 0 1 .3.3.7.3 1 0 .3-.3.3-.7 0-1-.3-.3-.7-.3-1 0z" class="st0"/><circle r=".9" id="ellipse265" cy="137.2" cx="123.1" class="st0" transform="rotate(-45.356 123.13 137.213)"/><circle r=".8" id="ellipse267" cy="138.5" cx="121.8" class="st0" transform="rotate(-45.486 121.827 138.53)"/><path id="path269" d="M121.1 140.4c.3-.3.3-.8 0-1.1-.3-.3-.8-.3-1.1 0-.3.3-.3.8 0 1.1.3.3.8.3 1.1 0z" class="st0"/><path id="path271" d="M119.7 140.7c-.3-.3-.7-.3-1 0-.3.3-.3.7 0 1 .3.3.7.3 1 0 .3-.3.3-.7 0-1z" class="st0"/><circle r=".6" id="ellipse273" cy="142.5" cx="117.9" class="st0" transform="rotate(-45.324 117.93 142.498)"/><circle r=".5" id="ellipse275" cy="143.8" cx="116.6" class="st0" transform="rotate(-45.58 116.634 143.827)"/><circle r=".5" id="ellipse277" cy="145.1" cx="115.3" class="st0" transform="rotate(-45.377 115.338 145.154)"/><path id="path279" d="M121.2 136.6c.3.3.9.3 1.3 0 .3-.3.3-.9 0-1.3-.3-.3-.9-.3-1.3 0-.3.4-.3.9 0 1.3z" class="st0"/><path id="path281" d="M120 137.9c.3.3.8.3 1.2 0 .3-.3.3-.8 0-1.2-.3-.3-.8-.3-1.2 0-.4.3-.3.8 0 1.2z" class="st0"/><circle r=".8" id="ellipse283" cy="138.6" cx="119.3" class="st0" transform="rotate(-45.364 119.258 138.595)"/><circle r=".7" id="ellipse285" cy="139.9" cx="117.9" class="st0" transform="rotate(-45.436 117.944 139.91)"/><circle r=".6" id="ellipse287" cy="141.2" cx="116.6" class="st0" transform="rotate(-45.486 116.64 141.232)"/><circle r=".5" id="ellipse289" cy="142.6" cx="115.3" class="st0" transform="rotate(-45.4 115.355 142.565)"/><circle r=".5" id="ellipse291" cy="143.9" cx="114" class="st0" transform="rotate(-45.453 114.044 143.872)"/><circle r=".4" id="ellipse293" cy="145.2" cx="112.7" class="st0" transform="rotate(-45.385 112.75 145.21)"/><circle r=".3" id="ellipse295" cy="146.5" cx="111.4" class="st0" transform="rotate(-45.466 111.453 146.53)"/><circle r=".9" id="ellipse297" cy="134.7" cx="120.6" class="st0" transform="rotate(-45.396 120.576 134.686)"/><circle r=".8" id="ellipse299" cy="136" cx="119.3" class="st0" transform="rotate(-45.434 119.273 136.013)"/><circle r=".8" id="ellipse301" cy="137.3" cx="118" class="st0" transform="rotate(-45.37 117.974 137.336)"/><circle r=".7" id="ellipse303" cy="138.6" cx="116.7" class="st0" transform="rotate(-45.46 116.67 138.645)"/><circle r=".6" id="ellipse305" cy="140" cx="115.4" class="st0" transform="rotate(-45.26 115.352 139.964)"/><circle r=".5" id="ellipse307" cy="141.3" cx="114.1" class="st0" transform="rotate(-45.543 114.064 141.292)"/><circle r=".5" id="ellipse309" cy="142.6" cx="112.8" class="st0" transform="rotate(-45.292 112.762 142.612)"/><circle r=".4" id="ellipse311" cy="143.9" cx="111.5" class="st0" transform="rotate(-45.624 111.454 143.927)"/><circle r=".3" id="ellipse313" cy="145.3" cx="110.2" class="st0" transform="rotate(-45.348 110.148 145.246)"/><circle r=".3" id="ellipse315" cy="146.6" cx="108.9" class="st0" transform="rotate(-45.283 108.844 146.567)"/><circle r=".9" id="ellipse317" cy="133.4" cx="119.3" class="st0" transform="rotate(-45.404 119.28 133.414)"/><circle r=".8" id="ellipse319" cy="134.7" cx="118" class="st0" transform="rotate(-45.434 117.988 134.747)"/><path id="path321" d="M117.2 136.6c.3-.3.3-.8 0-1.1-.3-.3-.8-.3-1.1 0-.3.3-.3.8 0 1.1.4.3.8.3 1.1 0z" class="st0"/><circle r=".7" id="ellipse323" cy="137.4" cx="115.4" class="st0" transform="rotate(-45.523 115.38 137.388)"/><circle r=".6" id="ellipse325" cy="138.7" cx="114.1" class="st0" transform="rotate(-45.547 114.09 138.713)"/><circle r=".5" id="ellipse327" cy="140" cx="112.8" class="st0" transform="rotate(-45.396 112.773 140.02)"/><circle r=".5" id="ellipse329" cy="141.3" cx="111.5" class="st0" transform="rotate(-45.37 111.48 141.355)"/><circle r=".4" id="ellipse331" cy="142.7" cx="110.2" class="st0" transform="rotate(-45.53 110.17 142.67)"/><path id="path333" d="M108.6 143.7c-.1.1-.1.3 0 .5.1.1.4.1.5 0 .1-.1.1-.4 0-.5-.1-.1-.3-.1-.5 0z" class="st0"/><circle r=".3" id="ellipse335" cy="145.3" cx="107.6" class="st0" transform="rotate(-45.22 107.558 145.3)"/><path id="path337" d="M106.1 146.5c-.1.1-.1.2 0 .3.1.1.2.1.3 0 .1-.1.1-.2 0-.3-.1-.1-.2-.1-.3 0z" class="st0"/><circle r=".1" id="ellipse339" cy="148" cx="105" class="st0" transform="rotate(-45.71 104.968 147.953)"/><circle r=".9" id="ellipse341" cy="132.2" cx="118" class="st0" transform="rotate(-45.444 117.996 132.15)"/><circle r=".8" id="ellipse343" cy="133.5" cx="116.7" class="st0" transform="rotate(-45.316 116.688 133.47)"/><ellipse id="ellipse345" ry=".7" rx=".8" cy="134.8" cx="115.4" class="st0" transform="rotate(-45.42 115.396 134.792)"/><path id="path347" d="M114.6 136.6c.3-.3.3-.7 0-1-.3-.3-.7-.3-1 0-.3.3-.3.7 0 1 .3.3.7.3 1 0z" class="st0"/><circle r=".6" id="ellipse349" cy="137.4" cx="112.8" class="st0" transform="rotate(-45.316 112.803 137.443)"/><circle r=".5" id="ellipse351" cy="138.8" cx="111.5" class="st0" transform="rotate(-45.54 111.492 138.763)"/><path id="path353" d="M109.8 139.7c-.2.2-.2.5 0 .7.2.2.5.2.7 0 .2-.2.2-.5 0-.7-.2-.1-.5-.1-.7 0z" class="st0"/><circle r=".4" id="ellipse355" cy="141.4" cx="108.9" class="st0" transform="rotate(-45.436 108.897 141.4)"/><path id="path357" d="M107.3 142.5c-.1.1-.1.4 0 .5.1.1.4.1.5 0 .1-.1.1-.3 0-.5s-.3-.2-.5 0z" class="st0"/><circle r=".3" id="ellipse359" cy="144" cx="106.3" class="st0" transform="rotate(-45.428 106.293 144.043)"/><circle r=".2" id="ellipse361" cy="145.4" cx="105" class="st0" transform="matrix(.7 -.7143 .7143 .7 -72.32 118.613)"/><circle r=".1" id="ellipse363" cy="146.7" cx="103.7" class="st0" transform="rotate(-45.88 103.68 146.68)"/><circle r=".1" id="ellipse365" cy="148" cx="102.4" class="st0" transform="rotate(-46.717 102.384 148.002)"/><path id="path367" d="M116.1 131.5c.3.3.9.3 1.3 0 .3-.4.3-.9 0-1.3-.4-.3-.9-.3-1.3 0-.4.4-.4 1 0 1.3z" class="st0"/><circle r=".8" id="ellipse369" cy="132.2" cx="115.4" class="st0" transform="rotate(-45.36 115.417 132.216)"/><ellipse id="ellipse371" ry=".8" rx=".7" cy="133.5" cx="114.1" class="st0" transform="rotate(-45.444 114.117 133.528)"/><path id="path373" d="M113.3 135.3c.3-.3.3-.7 0-1-.3-.3-.7-.3-1 0-.3.3-.3.7 0 1 .3.3.7.3 1 0z" class="st0"/><circle r=".6" id="ellipse375" cy="136.2" cx="111.5" class="st0" transform="rotate(-45.478 111.512 136.173)"/><circle r=".5" id="ellipse377" cy="137.5" cx="110.2" class="st0" transform="rotate(-45.396 110.21 137.49)"/><circle r=".5" id="ellipse379" cy="138.8" cx="108.9" class="st0" transform="rotate(-45.535 108.896 138.806)"/><circle r=".4" id="ellipse381" cy="140.1" cx="107.6" class="st0" transform="rotate(-45.098 107.607 140.14)"/><path id="path383" d="M106.1 141.2c-.1.1-.1.4 0 .5.1.1.4.1.5 0 .1-.1.1-.3 0-.5-.2-.1-.4-.1-.5 0z" class="st0"/><circle r=".3" id="ellipse385" cy="142.8" cx="105" class="st0" transform="rotate(-45.58 105.008 142.784)"/><circle r=".2" id="ellipse387" cy="144.1" cx="103.7" class="st0" transform="rotate(-45.486 103.69 144.09)"/><circle r=".1" id="ellipse389" cy="145.4" cx="102.4" class="st0" transform="rotate(-45.444 102.4 145.415)"/><path id="path391" d="M101 146.7s0 .1 0 0c.1.1.1.1 0 0 .2.1.2 0 0 0 .1 0 .1 0 0 0z" class="st0"/><path id="path393" d="M114.8 130.3c.4.3.9.3 1.3 0 .3-.3.3-.9 0-1.3-.3-.3-.9-.3-1.3 0s-.3.9 0 1.3z" class="st0"/><circle r=".8" id="ellipse395" cy="130.9" cx="114.1" class="st0" transform="rotate(-45.434 114.128 130.947)"/><circle r=".8" id="ellipse397" cy="132.3" cx="112.8" class="st0" transform="rotate(-45.292 112.824 132.262)"/><circle r=".7" id="ellipse399" cy="133.6" cx="111.5" class="st0" transform="rotate(-45.466 111.525 133.588)"/><circle r=".6" id="ellipse401" cy="134.9" cx="110.2" class="st0" transform="rotate(-45.52 110.212 134.9)"/><path id="path403" d="M108.5 135.8c-.2.2-.2.6 0 .8.2.2.6.2.8 0 .2-.2.2-.6 0-.8-.2-.2-.6-.2-.8 0z" class="st0"/><circle r=".5" id="ellipse405" cy="137.5" cx="107.6" class="st0" transform="rotate(-45.575 107.61 137.54)"/><circle r=".4" id="ellipse407" cy="138.9" cx="106.3" class="st0" transform="rotate(-45.535 106.31 138.86)"/><circle r=".3" id="ellipse409" cy="140.2" cx="105" class="st0" transform="rotate(-45.52 105.018 140.186)"/><circle r=".3" id="ellipse411" cy="141.5" cx="103.7" class="st0" transform="rotate(-45.22 103.7 141.503)"/><circle r=".2" id="ellipse413" cy="142.8" cx="102.4" class="st0" transform="rotate(-45.195 102.418 142.836)"/><path id="path415" d="M101 144.1c-.1.1-.1.1 0 .2s.1 0 .2 0c.1-.1.1-.1 0-.2 0-.1-.1-.1-.2 0z" class="st0"/><path id="path417" d="M113.5 129c.4.3.9.3 1.3 0 .3-.4.3-.9 0-1.3-.4-.3-.9-.3-1.3 0-.3.4-.3.9 0 1.3z" class="st0"/><circle r=".8" id="ellipse419" cy="129.7" cx="112.8" class="st0" transform="rotate(-45.605 112.834 129.68)"/><circle r=".8" id="ellipse421" cy="131" cx="111.5" class="st0" transform="rotate(-45.47 111.548 130.996)"/><circle r=".7" id="ellipse423" cy="132.3" cx="110.2" class="st0" transform="rotate(-45.52 110.23 132.312)"/><circle r=".6" id="ellipse425" cy="133.6" cx="108.9" class="st0" transform="rotate(-45.486 108.926 133.63)"/><path id="path427" d="M107.2 134.6c-.2.2-.2.6 0 .8.2.2.6.2.8 0 .2-.2.2-.6 0-.8-.2-.2-.5-.2-.8 0z" class="st0"/><circle r=".5" id="ellipse429" cy="136.3" cx="106.3" class="st0" transform="rotate(-45.21 106.323 136.277)"/><circle r=".4" id="ellipse431" cy="137.6" cx="105" class="st0" transform="rotate(-45.292 105.03 137.6)"/><circle r=".3" id="ellipse433" cy="138.9" cx="103.7" class="st0" transform="rotate(-45.7 103.72 138.92)"/><circle r=".3" id="ellipse435" cy="140.2" cx="102.4" class="st0" transform="rotate(-45.22 102.44 140.25)"/><circle r=".2" id="ellipse437" cy="141.6" cx="101.1" class="st0" transform="rotate(-45.965 101.128 141.567)"/><path id="path439" d="M112.2 127.7c.3.3.9.3 1.3 0 .3-.4.3-.9 0-1.3-.3-.3-.9-.3-1.3 0-.3.4-.3 1 0 1.3z" class="st0"/><circle r=".8" id="ellipse441" cy="128.4" cx="111.6" class="st0" transform="rotate(-45.486 111.544 128.403)"/><circle r=".8" id="ellipse443" cy="129.7" cx="110.3" class="st0" transform="rotate(-45.502 110.244 129.723)"/><path id="path445" d="M109.4 131.5c.3-.3.3-.7 0-1-.3-.3-.7-.3-1 0-.3.3-.3.7 0 1 .3.3.8.3 1 0z" class="st0"/><circle r=".6" id="ellipse447" cy="132.4" cx="107.6" class="st0" transform="rotate(-45.52 107.64 132.365)"/><circle r=".5" id="ellipse449" cy="133.7" cx="106.3" class="st0" transform="rotate(-45.292 106.34 133.69)"/><circle r=".5" id="ellipse451" cy="135" cx="105" class="st0" transform="rotate(-45.292 105.048 135.013)"/><circle r=".4" id="ellipse453" cy="136.3" cx="103.7" class="st0" transform="rotate(-45.292 103.748 136.336)"/><circle r=".3" id="ellipse455" cy="137.7" cx="102.4" class="st0" transform="rotate(-45.292 102.442 137.654)"/><circle r=".3" id="ellipse457" cy="139" cx="101.1" class="st0" transform="rotate(-45.51 101.145 138.977)"/><circle r=".9" id="ellipse459" cy="125.8" cx="111.6" class="st0" transform="rotate(-45.377 111.575 125.83)"/><circle r=".8" id="ellipse461" cy="127.1" cx="110.3" class="st0" transform="rotate(-45.63 110.264 127.143)"/><circle r=".8" id="ellipse463" cy="128.5" cx="109" class="st0" transform="rotate(-45.47 108.977 128.463)"/><circle r=".7" id="ellipse465" cy="129.8" cx="107.7" class="st0" transform="rotate(-45.436 107.664 129.78)"/><circle r=".6" id="ellipse467" cy="131.1" cx="106.4" class="st0" transform="rotate(-45.292 106.37 131.11)"/><path id="path469" d="M104.7 132c-.2.2-.2.6 0 .8.2.2.6.2.8 0 .2-.2.2-.6 0-.8-.3-.2-.6-.2-.8 0z" class="st0"/><circle r=".5" id="ellipse471" cy="133.7" cx="103.8" class="st0" transform="rotate(-45.535 103.764 133.747)"/><circle r=".4" id="ellipse473" cy="135.1" cx="102.5" class="st0" transform="rotate(-45.63 102.455 135.07)"/><path id="path475" d="M100.9 136.2c-.1.1-.1.3 0 .5.1.1.4.1.5 0 .1-.1.1-.4 0-.5-.1-.2-.3-.2-.5 0z" class="st0"/><circle r=".8" id="ellipse477" cy="125.9" cx="109" class="st0" transform="rotate(-45.436 108.985 125.872)"/><ellipse id="ellipse479" ry=".7" rx=".8" cy="127.2" cx="107.7" class="st0" transform="rotate(-45.316 107.683 127.197)"/><circle r=".7" id="ellipse481" cy="128.5" cx="106.4" class="st0" transform="rotate(-45.316 106.384 128.52)"/><circle r=".6" id="ellipse483" cy="129.8" cx="105.1" class="st0" transform="rotate(-45.51 105.077 129.838)"/><circle r=".5" id="ellipse485" cy="131.2" cx="103.8" class="st0" transform="rotate(-45.47 103.778 131.155)"/><circle r=".5" id="ellipse487" cy="132.5" cx="102.5" class="st0" transform="rotate(-45.543 102.477 132.48)"/><circle r=".4" id="ellipse489" cy="133.8" cx="101.2" class="st0" transform="rotate(-45.336 101.18 133.81)"/><circle r=".7" id="ellipse491" cy="127.3" cx="105.1" class="st0" transform="rotate(-45.46 105.098 127.25)"/><circle r=".6" id="ellipse493" cy="128.6" cx="103.8" class="st0" transform="rotate(-45.292 103.786 128.568)"/><circle r=".5" id="ellipse495" cy="129.9" cx="102.5" class="st0" transform="rotate(-45.466 102.5 129.9)"/><circle r=".5" id="ellipse497" cy="131.2" cx="101.2" class="st0" transform="rotate(-45.372 101.19 131.212)"/><circle r=".6" id="ellipse499" cy="127.3" cx="102.5" class="st0" transform="rotate(-45.385 102.517 127.316)"/><circle r=".5" id="ellipse501" cy="128.6" cx="101.2" class="st0" transform="rotate(-45.547 101.21 128.63)"/><path id="path503" d="M107.3 110.2c1.8-1.8 3-4.4 3-7.2 0-5.6-4.6-10.2-10.2-10.2h-.1c-.5 0-1 0-1.5.1-.1 0-.2 0-.3.1-.5.1-1.1.2-1.6.4-.1 0-.1.1-.2.1-.4.2-.9.4-1.3.6 0 0-.1 0-.1.1-.2.1-.3.2-.5.3-.5.3-1 .7-1.5 1.2l-.2.2c-1.8 1.8-3 4.4-3 7.2 0 5.6 4.6 10.2 10.2 10.2h.2c.6 0 1.3-.1 1.9-.2.2 0 .4-.1.7-.2.5-.1.9-.3 1.3-.5.1 0 .1-.1.2-.1.5-.2 1-.5 1.4-.8.1-.1.2-.1.3-.2.5-.4.9-.7 1.3-1.1zm-1.4-1.5l-.1.1c-.3.3-.7.6-1.1.9-.1.1-.2.1-.3.2-.5.3-1 .5-1.5.7-.2.1-.3.1-.5.2-.6.2-1.1.3-1.7.3h-.4c-4.5 0-8.1-3.6-8.1-8.1 0-2.2.9-4.3 2.4-5.7l.2-.2.1-.1c.4-.4.9-.7 1.4-1 .2-.1.3-.2.5-.3.5-.2 1-.4 1.6-.6.1 0 .3-.1.4-.1.5-.1.9-.1 1.4-.1h.1c4.5 0 8.1 3.6 8.1 8.1-.1 2.2-1.1 4.2-2.5 5.7z" class="st0"/><path id="path505" d="M100.1 55.3c-26.3 0-47.6 21.4-47.6 47.6 0 26.3 21.4 47.6 47.6 47.6 26.3 0 47.6-21.4 47.6-47.6 0-26.2-21.3-47.6-47.6-47.6zm26.2 83.8c-.3-.3-.9-.3-1.3 0-.3.3-.3.9 0 1.3.2.2.4.2.6.2-.1.1-.3.2-.5.3 0-.2-.1-.3-.2-.5-.3-.3-.8-.3-1.2 0-.3.3-.3.8 0 1.2l.1.1c-.1.1-.2.1-.3.2v-.1c-.3-.3-.8-.3-1.1 0-.2.2-.3.5-.2.8-.2.1-.5.3-.7.4-.1 0-.3.1-.4.2-.5.3-1 .5-1.5.8.1-.2.1-.5-.1-.7-.2-.2-.6-.2-.9 0-.2.2-.2.6 0 .9.1.1.2.1.3.2-.3.1-.5.2-.8.3-.2-.2-.6-.2-.8 0-.1.1-.2.3-.2.4-1 .4-2 .8-3 1.1-.2-.2-.4-.2-.6 0-.1.1-.1.2-.1.3-1.9.6-3.9 1.1-5.9 1.4 0 0 0-.1-.1-.1-.1-.1-.2-.1-.3 0 0 0-.1.1-.1.2-2.4.4-4.8.6-7.2.6V135.5c.1-.1.1-.3 0-.5v-2h.1c.2-.2.2-.4 0-.6h-.1v-1.8s.1 0 .1-.1c.2-.2.2-.5 0-.7l-.1-.1V128c.1 0 .1-.1.2-.1.2-.2.2-.6 0-.8-.1-.1-.1-.1-.2-.1v-.7h.5c0 .1.1.2.2.3.2.2.6.2.9 0 .1-.1.2-.2.2-.4.4 0 .9-.1 1.3-.1 0 .2.1.4.2.5.3.3.7.3 1 0 .2-.2.2-.5.2-.7.5-.1.9-.2 1.4-.3-.3.3-.2.7 0 1 .3.3.8.3 1.1 0 .3-.3.3-.8 0-1.1-.1-.1-.2-.1-.3-.2.1 0 .3-.1.4-.1 0 0 0 .1.1.1.3.3.8.3 1.2 0 .2-.2.2-.4.2-.6.3-.1.6-.3 1-.4-.2.3-.1.7.2 1 .4.3.9.3 1.3 0 .3-.4.3-.9 0-1.3-.1-.1-.3-.2-.4-.2.1 0 .1-.1.2-.1 0 .1.1.2.2.3.3.3.7.3 1.1.2-.2.4-.1.8.2 1.1.3.3.7.3 1.1.2-.2.4-.1.8.2 1.1.3.3.7.3 1.1.2-.2.4-.1.8.2 1.1.3.3.7.3 1.1.2-.2.4-.1.8.2 1.1.3.3.7.3 1.1.2-.2.4-.1.8.2 1.1.3.3.7.3 1.1.2-.2.4-.1.8.2 1.1.3.3.7.3 1.1.2-.2.4-.1.8.2 1.1.3.3.7.3 1.1.2-.2.4-.1.8.2 1.1.3.3.7.3 1.1.2-.2.4-.1.8.2 1.1.3.3.7.3 1.1.2-.2.4-.1.8.2 1.1.3.3.7.3 1.1.2-.2.4-.1.8.2 1.1.3.3.7.3 1.1.2-.3-.1-.3.3 0 .6s.8.3 1.1.2v.1c-.3.2-.6.4-.8.6 0-.3 0-.6-.3-.9zm-52.7-73c.1 0 .2-.1.2-.2v-.1c1.6-1.2 3.4-2.2 5.1-3.2.1.1.2.1.3.1.2 0 .4-.2.4-.4 1-.5 1.9-.9 2.9-1.4.1.1.2.2.4.2.3 0 .5-.2.5-.5.3-.1.5-.2.8-.3-.1.1-.1.2-.1.3 0 .3.3.6.6.6s.6-.3.6-.6-.2-.5-.4-.6c.5-.2 1.1-.4 1.6-.5h.1c.2 0 .3-.1.4-.2.2-.1.5-.1.7-.2.1.3.4.5.7.5.4 0 .8-.3.8-.7v-.1c.1 0 .2-.1.3-.1v.2c0 .5.4.8.8.8.5 0 .8-.4.8-.8 0-.2-.1-.4-.2-.5.2 0 .4-.1.6-.1-.2.2-.2.4-.3.6 0 .5.4.9.9.9s.9-.4.9-.9c0-.4-.2-.7-.5-.8.3-.1.7-.1 1-.2 0 0 .1 0 .2.1-.4.1-.7.5-.7.9s.3.8.6.9c-.4.1-.7.5-.7.9s.3.8.6.9c-.4.1-.7.5-.7.9s.3.8.6.9c-.4.1-.7.5-.7.9s.3.8.6.9c-.4.1-.7.5-.7.9s.3.8.6.9c-.4.1-.7.5-.7.9s.3.8.6.9c-.4.1-.7.5-.7.9s.3.8.6.9c.3.1 0 .4 0 .9 0 .4.3.8.6.9-.4.1-.7.5-.7.9s.3.8.6.9c-.4.1-.7.5-.7.9s.3.8.6.9c-.4.1-.7.5-.7.9s.3.8.6.9c-.4.1-.7.5-.7.9s.3.8.6.9c-.4.1-.6.5-.7.9 0 .1 0 .3.1.4-.1 0-.1 0-.2.1.1-.1.1-.3.1-.4 0-.5-.4-.9-.9-.9s-.9.4-.9.9c0 .4.2.7.6.8-.3.1-.6.3-1 .4-.1-.2-.4-.3-.6-.3-.5 0-.8.4-.8.8v.1c-.1.1-.3.1-.4.2.1-.1.1-.2.1-.3 0-.4-.3-.8-.7-.8-.4 0-.8.3-.8.7 0 .4.3.7.7.8-.4.2-.8.5-1.2.8-.1-.2-.3-.4-.6-.4-.4 0-.7.3-.7.7 0 .2.1.4.2.5-.3.3-.7.5-1 .8-.1-.1-.2-.2-.4-.2-.3 0-.6.3-.6.6 0 .1 0 .3.1.4-.1.1-.2.2-.4.3V86v-.2c0-.3-.2-.5-.5-.6h-.2L81.3 84v-.1c0-.3-.2-.5-.5-.5h-.2l-1.3-1.3V82c0-.2-.2-.4-.4-.4h-.1l-1.4-1.4c0-.2-.1-.3-.3-.3l-1.6-1.6-.1-.1-7.6-7.6c1.7-1.7 3.6-3.3 5.5-4.7.2.2.2.2.3.2zm30.9 57.5c-.4.1-.9.2-1.3.2-.5.1-1.1.1-1.6.2h-1.5c-11.7 0-21.1-9.5-21.1-21.1 0-5.8 2.4-11.1 6.2-14.9.2-.2.4-.4.6-.5.2-.2.4-.3.5-.5.4-.3.8-.7 1.2-1 .4-.3.7-.5 1.1-.8l.9-.6c.5-.3.9-.5 1.4-.7.1 0 .1-.1.2-.1.4-.2.8-.4 1.2-.5.3-.1.5-.2.8-.3.5-.2 1-.3 1.5-.5h.1c.6-.1 1.1-.3 1.7-.4h.2c.5-.1 1.1-.2 1.6-.2h.2c.5 0 1-.1 1.6-.1 11.7 0 21.1 9.5 21.1 21.1 0 5.8-2.4 11.1-6.2 14.9l-1.1 1.1c-.1 0-.1.1-.2.1-.4.4-.9.7-1.3 1-.1 0-.1.1-.2.1l-1.5.9h-.1c-.5.3-.9.5-1.4.8-.3.1-.5.2-.8.4-.4.2-.8.3-1.2.5-.1 0-.2.1-.2.1-.5.2-1 .3-1.5.5-.2.2-.5.2-.9.3z" class="st0"/></g></g><g id="g507"><path id="polygon509" class="st0" fill="#383433" d="M101.3 75.2l-.6 3.2 2.9-1.5 2.9 1.5-.5-3.2 2.3-2.2-3.2-.5-1.5-2.9-1.4 2.9-3.2.5z"/></g><g id="g511" fill="#383433"><path id="path513" d="M32.5 48.5H.3l20.1 25.1L0 99h31.7c-2.5-7.5-3.9-15.6-3.9-24 0-9.3 1.7-18.2 4.7-26.5z" class="st0"/><path id="path515" d="M207.3 48.5h-31.6c3.1 8.3 4.8 17.2 4.8 26.5 0 8.4-1.4 16.4-3.9 24h30.3l-20.1-25.1 20.5-25.4z" class="st0"/><path id="path517" d="M174.3 48.5C163.6 20.2 136.2 0 104.2 0c-32 0-59.4 20.2-70.1 48.5-3.1 8.3-4.9 17.2-4.9 26.5 0 8.4 1.4 16.4 4 24 10 29.6 38.1 51 71 51 33 0 61-21.4 71-51 2.5-7.5 4-15.6 4-24-.1-9.3-1.8-18.2-4.9-26.5zm-3 50.5c-9.9 27.6-36.3 47.4-67.2 47.4-30.9 0-57.3-19.8-67.2-47.4-2.7-7.5-4.2-15.6-4.2-24 0-9.4 1.8-18.3 5.1-26.5C48.4 22.2 74.1 3.6 104 3.6c30 0 55.7 18.6 66.2 44.9 3.3 8.2 5.1 17.1 5.1 26.5.2 8.5-1.3 16.5-4 24z" class="st0"/></g><g id="g519" fill="#383433"><path id="path521" d="M61.1 34.5c-.4-.3-.8-.7-1-1.2-.4.4-.7.8-1.1 1.1-9.8 10.7-15.7 25-15.7 40.6 0 15.7 6 30 15.8 40.7.9 1 1.9 2 2.9 2.9.2-.5.5-.9.9-1.3-11.1-10.7-18.1-25.8-18.1-42.4 0-15.6 6.2-29.8 16.3-40.4z" class="st0"/><path id="path523" d="M149.1 35.4c-.5-.6-1-1.1-1.5-1.6-.2.5-.6.9-1 1.2 9.8 10.5 15.8 24.6 15.8 40 0 17.4-7.6 33.1-19.7 43.9.3.4.6.9.8 1.4 1.5-1.3 2.9-2.7 4.2-4.1C157.8 105.4 164 90.9 164 75c0-15.1-5.6-29-14.9-39.6z" class="st0"/></g><g id="text_33_"><path d="M144.3 32.1c23.1 22.5 23.6 59.4 1.2 82.5-22.5 23.1-59.4 23.6-82.5 1.2-23.1-22.5-23.6-59.4-1.1-82.5 22.4-23.2 59.3-23.7 82.4-1.2z" class="st1" id="SVGID_x5F_1_x5F_" fill="none"/><text id="text527" transform="translate(3.5 -27.9)"><textPath id="textPath529" startOffset="100%" xlink:href="#SVGID_x5F_1_x5F_"> <tspan id="tspan531" class="st0" font-size="20.037" font-family="GearedSlab-Regular" letter-spacing="74" fill="#383433">COOL MUSIC </tspan></textPath></text><path d="M82.2 21.9c30-11.8 63.9 2.9 75.7 32.9 11.8 30-2.9 63.9-32.9 75.7-30 11.8-63.9-2.9-75.7-32.9-11.8-30 2.9-63.9 32.9-75.7z" class="st1" id="SVGID_x5F_2_x5F_" fill="none"/><text id="text534" transform="translate(3.5 -27.9)"><textPath id="textPath536" startOffset="100%" xlink:href="#SVGID_x5F_2_x5F_"> <tspan id="tspan538" class="st0" font-size="18.66" font-family="GearedSlab-Regular" letter-spacing="74" fill="#383433"> COOL MUSIC</tspan></textPath></text></g></g></svg>