<svg xmlns="http://www.w3.org/2000/svg" id="Слой_1" viewBox="0 0 159.55 159.60001" width="159.55" height="159.6"><style id="style3">.st0{fill:#383433;} .st1{fill:#FFFFFF;}</style><g id="g5"><path class="st0" d="M59.9 15.8L13.8 61.9V28.6c0-7 5.8-12.8 12.8-12.8h33.3zm3.1 0L13.8 65v32.1l46.7 46.7h36l49.2-49.2V62.5L99 15.8H63zm69.9 128c7 0 12.8-5.8 12.8-12.8V97.7l-46.1 46.1h33.3zM13.8 131c0 7 5.8 12.8 12.8 12.8h30.8l-43.7-43.7V131zM145.7 28.6c0-7-5.8-12.8-12.8-12.8h-30.8l43.6 43.6V28.6zm10.1 41l-10.1-10.2v3.1l8.6 8.6c4.1 4.1 4.1 10.8 0 14.9l-8.6 8.6v3.1l10.1-10.1c5-5 5-13.1 0-18zM5.2 88.5c-2-2-3.1-4.6-3.1-7.5 0-2.8 1.1-5.5 3.1-7.5l8.6-8.6v-3.1L3.7 72C1.3 74.4 0 77.6 0 81c0 3.4 1.3 6.6 3.7 9l10.1 10.1V97l-8.6-8.5zM86 154.3c-2 2-4.6 3.1-7.5 3.1-2.8 0-5.5-1.1-7.5-3.1l-10.5-10.5h-3.1l12.1 12.1c2.4 2.4 5.6 3.7 9 3.7 3.4 0 6.6-1.3 9-3.7l12.1-12.1h-3.1L86 154.3zM73.5 5.2c2-2 4.6-3.1 7.5-3.1 2.8 0 5.5 1.1 7.5 3.1L99 15.7h3.1L90 3.7C87.6 1.3 84.4 0 81 0c-3.4 0-6.6 1.3-9 3.7L59.9 15.8H63L73.5 5.2z" id="path7" fill="#383433"/><path class="st1" d="M103 84.1s-3.1-4.9-3.4-5.3c-.3-.4-.7-.3-.7-.3.1-.2-.1-.6-.1-.6s-2.9-4.7-3.3-5.4c-.5-.7-1-.8-1-.8s-3.5-.4-3.6-.4c-.1 0 0-.1 0-.1s1.1-2.8 1.4-3.4c.2-.6 0-1.1 0-1.1s-3.2-5.3-3.6-5.8c-.3-.4-1.6-.2-1.6-.2s-4.9 1.6-5.5 1.8c-.6.2-.6.5-.6.5v.1c.3-.5.8-.5.8-.5s4.4-1.4 5-1.6c.5-.1.3.3.3.3s-1.2 3.2-1.5 3.6c-.3.4-.7.5-.7.5s-4.2 1.3-4.9 1.5c-.7.2-.4-.4-.4-.4l1.3-3.1s-.1 0-.1-.1c-.3-.4-1-.3-1-.3s-5.3 1.8-5.6 1.9c-.3.1-.3.4-.3.4.3-.3.6-.4.6-.4s4-1.3 4.5-1.4c.6-.2.3.2.3.2s-1.4 3.3-1.7 3.6c-.3.4-.7.5-.7.5s-3.8 1.1-4.5 1.3c-.7.2-.4-.4-.4-.4l1.5-3.2c0-.1.1-.1.1-.1-.4-.3-1-.2-1-.2s-4.4 1.4-4.9 1.6c-.5.2-.8.6-.8.6s-2.4 4.1-2.6 4.5c-.2.4 0 .6 0 .6h.1s.1 0 .1.1h.1s4-1.2 4.6-1.4c.6-.2.3.3.3.3s-1.9 3.7-2.2 4.1c-.3.4-.7.5-.7.5s-3.9 1-4.6 1.2c-.7.2-.4-.4-.4-.4l2.1-3.6c.2-.3.5-.5.7-.6-.3 0-.6.4-.6.4s-2.7 4.5-2.9 4.9c-.2.4.1.7.1.7l.1.1.4-.2s3.9-1 4.5-1.2c.6-.2.3.3.3.3s-2 3.9-2.3 4.3c-.3.4-.7.5-.7.5s-3.9 1-4.6 1.2c-.7.2-.4-.4-.4-.4l2.3-4c.1-.2.2-.3.4-.4-.3-.1-.5.1-.5.1s-2.6 4.5-3 5.1c-.3.5 0 1.1 0 1.1s4.1 5.2 4.3 5.3c.2.2.8.1.8.1l2.8-.6s1.4 1.8 1.6 1.9c.1.1.2.1.3 0l-.4-.4-1.2-1.4c0-.1.1-.1.1-.1s1.4-.3 1.5-.3c.1 0 .3.1.3.1s2 2.5 2.3 2.9c.4.5-.3.2-.3.2s-1.7-.7-2.1-.9c-.3.2-.1.4-.1.4l3.3 4.4c.3.4.7.6.7.6s13.4 6.5 13.7 6.6c.4.2.9-.1.9-.1s5.1-5.6 5.3-5.8c.2-.2.1-.9.1-.9.5 0 .8-.1.8-.1s4.6-5.2 4.9-5.5c.3-.3.2-1 .2-1 .6 0 .9-.2.9-.2s4.3-5 4.7-5.4c.3-.4.1-.9.1-.9zm-8.3-11s.4-.4.7 0c.2.3 3 4.8 3 4.8s.3.5 0 .8c-.3.3-4 4.7-4 4.7s-.3.2-.5 0c-.2-.3-3.4-4.8-3.4-4.8s-.2-.4.1-.8c.2-.4 4.1-4.7 4.1-4.7zm-2.2 12.1s-3.8 4.3-4.2 4.7c-.5.5-.8 0-.8 0l-2.8-3.8c1-.7 1.4-2 1.4-2s1.1-3 1.2-3.1c0-.1.1-.3.1-.3l1.2-1.2c.4-.4.8.1.8.1s2.7 4 3.1 4.5c.3.7 0 1.1 0 1.1zm-6.2 6.9c-.3.3-4.6 5-4.6 5s-.3.2-.5 0-3.7-4.6-3.7-4.6-.3-.4 0-.8c.3-.3 4.6-4.9 4.6-4.9s.4-.4.7 0c.2.3 3.4 4.5 3.4 4.5s.4.5.1.8zm-2.5-18.9c.2.2 3.6 5.3 3.6 5.3s.2.5.1 1c-.2.5-1.9 4.5-1.9 4.5s-.2.3-.5-.1-3.6-5.2-3.6-5.2-.2-.3 0-.7c.2-.4 1.9-4.8 1.9-4.8s.2-.4.4 0zm-10.2 8.3s-.3-.5.2-.6c.4-.1 5.7-1.5 5.7-1.5s.5-.1.7.1c.1.2 3.5 5.1 3.5 5.1s.6.8-.1.9c-.5.1-5.4 1.2-5.4 1.2s-.6.2-.8-.1c-.1-.3-3.8-5.1-3.8-5.1zm8.7-8.4s-1.5 4.3-1.8 4.7c-.3.4-.7.5-.7.5s-5.1 1.3-5.8 1.5c-.7.2-.4-.4-.4-.4l1.9-4.3c.3-.6.9-.7.9-.7s5-1.4 5.6-1.6c.5-.1.3.3.3.3zm-6.6 13.4s.5.7-.1.8c-.5.1-5.1 1.1-5.1 1.1s-.5.1-.8-.1c-.2-.2-3.9-4.9-3.9-4.9s-.3-.4.2-.6c.4-.1 5.3-1.2 5.3-1.2s.5-.1.6.1c.3.3 3.8 4.8 3.8 4.8zm-3.1 4.4l3.2 1.3s.4.2.7.5c.2.3 3.6 4.5 3.6 4.5s.4.6-.2.3c-.5-.2-3.6-1.7-3.6-1.7s-.3-.1-.5-.4c-.2-.3-3.4-4.3-3.4-4.3s-.4-.5.2-.2zm16.2-29.6c.2.2 3.2 5.2 3.2 5.2s.2.5.1 1c-.2.5-1.5 3.6-1.5 3.6s-.2.3-.5-.1-3.2-5.2-3.2-5.2-.2-.3 0-.7c.2-.4 1.6-3.7 1.6-3.7s.1-.4.3-.1zM86 66.9s.2-.4.4 0c.2.2 3.5 5.3 3.5 5.3s.2.5.1 1c-.2.5-1.6 4.1-1.6 4.1s-.2.3-.5-.1-3.5-5.2-3.5-5.2-.2-.3 0-.7c.1-.5 1.6-4.4 1.6-4.4zM78.3 69c.3-.6.9-.7.9-.7s4.7-1.5 5.3-1.7c.5-.1.3.3.3.3s-1.5 3.8-1.8 4.2c-.3.4-.7.5-.7.5s-4.5 1.3-5.2 1.5c-.7.2-.4-.4-.4-.4l1.6-3.7zm-12.7 2.3c-.7.2-.4-.3-.4-.3l2-3.3c.3-.4.8-.6.8-.6s3.9-1.2 4.4-1.4c.6-.2.3.2.3.2s-1.8 3.3-2.1 3.7c-.3.4-.7.5-.7.5s-3.6 1-4.3 1.2zm3.3 3.8l2-3.8c.3-.6.9-.7.9-.7s4.3-1.3 4.8-1.4c.6-.2.3.3.3.3s-1.7 4-2 4.4c-.3.4-.7.5-.7.5s-4.2 1-4.9 1.2c-.7 0-.4-.5-.4-.5zm-3.2 6.4l2-4.2c.3-.5.8-.7.8-.7s4.6-1.1 5.2-1.3c.6-.2.3.3.3.3s-1.8 4.1-2.1 4.5c-.3.4-.7.5-.7.5s-4.4 1.1-5.1 1.3c-.8.2-.4-.4-.4-.4zm-2.6 8.7s-.6.1-.8-.1c-.2-.2-3.9-4.9-3.9-4.9s-.3-.4.2-.6c.4-.1 4.9-1.3 4.9-1.3s.5-.1.6.1c.1.2 3.7 4.8 3.7 4.8s.5.7-.1.8c-.3.2-4.6 1.2-4.6 1.2zm4.8-.6c-.1-.1.1-.1.1-.1s.3-.1.6-.1c.3-.1.5 0 .5 0s1.4.6 1.7.7c.3.1.6.5.6.5s3 3.8 3.4 4.3c.4.5-.1.3-.1.3s-2.7-1.3-3.2-1.5c-.5-.3-.8-.7-.8-.7s-2.7-3.3-2.8-3.4zm6.3 8.9c-.5-.2-2.6-1.3-2.6-1.3s-.3-.1-.5-.4c-.2-.3-2.9-3.8-2.9-3.8s-.3-.5.3-.2l2.6 1.3s.4.2.7.5c.2.3 2.7 3.6 2.7 3.6s.3.6-.3.3zm4.8 2.4c-.5-.2-3.2-1.5-3.2-1.5s-.3-.1-.5-.4c-.2-.3-3-3.9-3-3.9s-.3-.5.3-.2l3.2 1.6s.4.2.7.5c.2.3 2.8 3.6 2.8 3.6s.3.5-.3.3zm5.5 2.6c-.5-.2-3.7-1.8-3.7-1.8s-.3-.1-.5-.4c-.2-.3-3-3.8-3-3.8s-.3-.5.3-.2l3.2 1.3s.4.2.7.5c.2.3 3.3 4.1 3.3 4.1s.3.6-.3.3zM91 98c-.3.3-4.5 5-4.5 5s-.3.2-.5 0c-.2-.3-3.5-4.3-3.5-4.3s-.3-.4 0-.8c.3-.3 4.5-5 4.5-5s.4-.4.7 0c.2.3 3.2 4.3 3.2 4.3s.4.5.1.8zm5.7-6.5c-.3.3-4.2 4.8-4.2 4.8s-.3.2-.5 0-3.2-4.4-3.2-4.4-.3-.4 0-.8c.3-.3 4.2-4.8 4.2-4.8s.4-.4.7 0c.2.3 3 4.4 3 4.4s.3.5 0 .8zm5.9-6.5c-.3.3-4.1 4.7-4.1 4.7s-.3.2-.5 0c-.2-.3-3.2-4.7-3.2-4.7s-.2-.4.1-.8c.3-.3 4.2-4.6 4.2-4.6s.4-.4.7 0c.2.3 2.8 4.6 2.8 4.6s.3.5 0 .8z" id="path9" fill="#fff"/><g id="g11" fill="#fff"><path class="st1" d="M93.6 126H66.9c-.6 0-1.1.3-1.1.6 0 .4.5.6 1.1.6h26.7c.6 0 1.1-.3 1.1-.6s-.5-.6-1.1-.6z" id="path13"/><path class="st1" d="M90.5 129.6H70c-.6 0-1.1.3-1.1.6s.5.6 1.1.6h20.5c.6 0 1.1-.3 1.1-.6 0-.4-.4-.6-1.1-.6z" id="path15"/></g><g id="text_7_"><g id="g18" fill="#fff"><path class="st1" d="M113.3 79v-.3h-.4v-.5l.4-.4h.9v6.8h-.9V79z" id="path20"/><path class="st1" d="M119.2 84.1c0 .3-.3.6-.6.6h-1.3-.1c-.3 0-.5-.3-.5-.6v-1.5h.9v1.2h.7v-2.2h-1c-.3 0-.6-.3-.6-.6v-2.6c0-.3.3-.5.6-.5h1.3c.3 0 .6.3.6.6v5.6zm-.9-5.3h-.7v2h.7v-2z" id="path22"/><path class="st1" d="M123 78.8h-1.7v-.9h2.6V79l-1.1 5.8h-.9l1.1-6z" id="path24"/><path class="st1" d="M125.9 77.9h.9v3.2h.6v-3.2h.9v3.2h.6v.9h-.6v2.8h-.9V82h-1.5v-4.1z" id="path26"/></g><g id="g28" fill="#fff"><path class="st1" d="M37 84.7h-2.3v-6.8h2.2v.9h-1.3v1.9h.9v.9h-.9v2.3H37v.8z" id="path30"/><path class="st1" d="M40.2 82.6v1.2h.7v-2.2h-1c-.3 0-.6-.3-.6-.6v-2.6c0-.3.2-.6.6-.6h1.3c.3 0 .6.2.6.6v1.4h-.9v-1.1h-.7v2h1c.3 0 .6.3.6.6v2.8c0 .3-.3.6-.6.6h-1.3c-.3 0-.6-.3-.6-.6v-1.5h.9z" id="path32"/><path class="st1" d="M44.8 78.8H44v-.9h2.4v.9h-.8v6h-.9v-6z" id="path34"/><path class="st1" d="M48 83.8h.9v.9H48v-.9z" id="path36"/></g><g id="g38" fill="#fff"><path class="st1" d="M47.2 118.3l1.6 2.2h-1l-1.5-2.2h-.1v2.2h-.8v-5.3h.9c.7 0 1.2.1 1.5.4.3.3.5.7.5 1.2 0 .4-.1.7-.3 1-.1.3-.4.5-.8.5zm-1-.6h.3c.8 0 1.1-.3 1.1-.9 0-.5-.4-.8-1.1-.8h-.3v1.7z" id="path40"/><path class="st1" d="M51.6 115.3v3.2c0 .5.1.8.2 1 .2.3.5.5.9.5s.7-.2.9-.5c.1-.2.2-.5.2-1v-3.2h.9v3.4c0 .6-.2 1-.5 1.4-.4.4-.9.6-1.4.6-.6 0-1-.2-1.4-.6-.3-.4-.5-.8-.5-1.4v-3.4h.7z" id="path42"/><path class="st1" d="M57.1 120.6v-5.3h.8c.4 0 .6 0 .8.1.2.1.4.1.5.3.1.1.3.3.4.5.1.2.1.4.1.6 0 .4-.1.7-.4 1 .3.1.5.3.7.5.2.2.2.5.2.8 0 .4-.1.8-.4 1-.2.2-.4.3-.6.4-.2.1-.5.1-.9.1h-1.2zm.8-3h.2c.3 0 .5-.1.7-.2.1-.1.2-.3.2-.6 0-.2-.1-.4-.2-.6-.1-.1-.3-.2-.6-.2h-.3v1.6zm0 2.2h.5c.4 0 .6-.1.8-.2.2-.2.3-.3.3-.6 0-.2-.1-.4-.3-.6-.2-.2-.5-.2-.9-.2h-.4v1.6z" id="path44"/><path class="st1" d="M63.3 115.3v5.3h-.8v-5.3h.8z" id="path46"/><path class="st1" d="M66.5 117.4l2.1-2.1h1.1l-2.4 2.4 2.4 2.9h-1.1l-1.9-2.3-.2.2v2.2h-.8v-5.3h.8v2z" id="path48"/><path class="st1" d="M72.1 115.1l.7.3-1 2-.5-.2.8-2.1z" id="path50"/><path class="st1" d="M78 116.1l-.6.4c-.1-.2-.2-.3-.3-.4-.1-.1-.3-.1-.4-.1-.2 0-.4.1-.6.2-.1.1-.2.3-.2.5 0 .3.2.5.6.6l.5.2c.4.2.7.4.9.6.2.3.3.6.3.9 0 .5-.2.9-.5 1.2-.3.3-.7.5-1.2.5s-.8-.1-1.1-.4c-.3-.3-.5-.7-.6-1.1l.8-.2c0 .3.1.5.2.6.2.2.4.3.7.3.2 0 .5-.1.6-.3.2-.2.2-.4.2-.6v-.3c0-.1-.1-.2-.1-.2l-.2-.2c-.1-.1-.2-.1-.3-.2l-.5-.2c-.7-.3-1.1-.8-1.1-1.3 0-.4.2-.7.5-1 .3-.3.7-.4 1.1-.4.5 0 1 .3 1.3.9z" id="path52"/><path class="st1" d="M84.4 118.4v2.1h-.8v-5.3h.9c.4 0 .8 0 1 .1l.6.3c.3.3.5.7.5 1.1 0 .5-.2.9-.5 1.1-.3.3-.8.4-1.3.4h-.4zm0-.7h.3c.7 0 1.1-.3 1.1-.8s-.4-.8-1.1-.8h-.3v1.6z" id="path54"/><path class="st1" d="M89.4 115.3v3.2c0 .5.1.8.2 1 .2.3.5.5.9.5s.7-.2.9-.5c.1-.2.2-.5.2-1v-3.2h.8v3.4c0 .6-.2 1-.5 1.4-.4.4-.9.6-1.4.6-.6 0-1-.2-1.4-.6-.3-.4-.5-.8-.5-1.4v-3.4h.8z" id="path56"/><path class="st1" d="M95.9 119.8h2.5v.7h-3.8l2.6-4.5H95v-.7h3.5l-2.6 4.5z" id="path58"/><path class="st1" d="M101.5 119.8h2.5v.7h-3.8l2.6-4.5h-2.2v-.7h3.5l-2.6 4.5z" id="path60"/><path class="st1" d="M106.9 115.3v4.5h1.6v.7h-2.3v-5.3h.7z" id="path62"/><path class="st1" d="M113.3 116.1h-2.1v1.3h2.1v.7h-2.1v1.8h2.1v.7h-2.9v-5.3h2.9v.8z" id="path64"/></g><g id="g66"><g id="g68" fill="#fff"><path class="st1" d="M48.3 33.2h2.9v10.2c1-.1 1.5-.1 2.4-.2V33.1h2.9v21.4c-1.2.1-1.7.2-2.9.4V46c-1 .1-1.5.1-2.4.2v9.1c-1.2.2-1.7.3-2.9.4V33.2z" id="path70"/><path class="st1" d="M59.1 33.2H62v20.9c-1.2.1-1.7.2-2.9.3V33.2z" id="path72"/><path class="st1" d="M64.6 33.2h6.3c1.1 0 1.9.8 1.9 1.7v7.6c0 .9-.9 1.7-1.9 1.7-1.4 0-2.1.1-3.4.1v9.3c-1.2.1-1.7.1-2.9.2v-9.4-11.2zm5.3 2.6h-2.5v5.9c1 0 1.5 0 2.5-.1v-5.8z" id="path74"/><path class="st1" d="M77.7 47.2v3.5h2.5v-6.5h-3.4c-1.1 0-1.9-.8-1.9-1.7v-7.6c0-1 .8-1.7 1.9-1.7h4.4c1.1 0 1.9.7 1.9 1.7v4.2h-2.9v-3.3h-2.5v5.8h3.4c1.1 0 1.9.8 1.9 1.7v8.2c0 .9-.9 1.7-1.9 1.7h-4.4c-1 0-1.9-.7-1.9-1.7v-4.4c1.1.1 1.7.1 2.9.1z" id="path76"/><path class="st1" d="M87.2 35.8h-2.6v-2.6h8.1v2.6h-2.6v17.7c-1.2-.1-1.7-.1-2.9-.1V35.8z" id="path78"/><path class="st1" d="M101.8 54.4c-3-.3-4.5-.4-7.5-.7V33.2h7.3v2.7c-1.7 0-2.6 0-4.4-.1v5.7c1.2 0 1.8.1 3.1.1v2.7c-1.2-.1-1.8-.1-3.1-.1v7c1.8.1 2.7.2 4.6.4v2.8z" id="path80"/><path class="st1" d="M109.4 45.9c-1-.1-1.5-.1-2.4-.2v9.2c-1.2-.2-1.7-.2-2.9-.4V33.1h6c1.1 0 1.9.9 1.9 1.9v7.8c0 .8-1 1.5-1 1.5s1.3 1.2 1.3 2v9.3c-1.2-.2-1.7-.3-2.9-.4v-9.3zm-2.4-3c.8 0 1.3.1 2.1.1v-7H107c-.1 2.8 0 4.2 0 6.9z" id="path82"/></g></g></g></g><g id="g84"><path class="st0" d="M59.9 15.8L13.8 61.9V28.6c0-7 5.8-12.8 12.8-12.8h33.3zm3.1 0L13.8 65v32.1l46.7 46.7h36l49.2-49.2V62.5L99 15.8H63zm69.9 128c7 0 12.8-5.8 12.8-12.8V97.7l-46.1 46.1h33.3zM13.8 131c0 7 5.8 12.8 12.8 12.8h30.8l-43.7-43.7V131zM145.7 28.6c0-7-5.8-12.8-12.8-12.8h-30.8l43.6 43.6V28.6zm10.1 41l-10.1-10.2v3.1l8.6 8.6c4.1 4.1 4.1 10.8 0 14.9l-8.6 8.6v3.1l10.1-10.1c5-5 5-13.1 0-18zM5.2 88.5c-2-2-3.1-4.6-3.1-7.5 0-2.8 1.1-5.5 3.1-7.5l8.6-8.6v-3.1L3.7 72C1.3 74.4 0 77.6 0 81c0 3.4 1.3 6.6 3.7 9l10.1 10.1V97l-8.6-8.5zM86 154.3c-2 2-4.6 3.1-7.5 3.1-2.8 0-5.5-1.1-7.5-3.1l-10.5-10.5h-3.1l12.1 12.1c2.4 2.4 5.6 3.7 9 3.7 3.4 0 6.6-1.3 9-3.7l12.1-12.1h-3.1L86 154.3zM73.5 5.2c2-2 4.6-3.1 7.5-3.1 2.8 0 5.5 1.1 7.5 3.1L99 15.7h3.1L90 3.7C87.6 1.3 84.4 0 81 0c-3.4 0-6.6 1.3-9 3.7L59.9 15.8H63L73.5 5.2z" id="path86" fill="#383433"/><path class="st1" d="M103 84.1s-3.1-4.9-3.4-5.3c-.3-.4-.7-.3-.7-.3.1-.2-.1-.6-.1-.6s-2.9-4.7-3.3-5.4c-.5-.7-1-.8-1-.8s-3.5-.4-3.6-.4c-.1 0 0-.1 0-.1s1.1-2.8 1.4-3.4c.2-.6 0-1.1 0-1.1s-3.2-5.3-3.6-5.8c-.3-.4-1.6-.2-1.6-.2s-4.9 1.6-5.5 1.8c-.6.2-.6.5-.6.5v.1c.3-.5.8-.5.8-.5s4.4-1.4 5-1.6c.5-.1.3.3.3.3s-1.2 3.2-1.5 3.6c-.3.4-.7.5-.7.5s-4.2 1.3-4.9 1.5c-.7.2-.4-.4-.4-.4l1.3-3.1s-.1 0-.1-.1c-.3-.4-1-.3-1-.3s-5.3 1.8-5.6 1.9c-.3.1-.3.4-.3.4.3-.3.6-.4.6-.4s4-1.3 4.5-1.4c.6-.2.3.2.3.2s-1.4 3.3-1.7 3.6c-.3.4-.7.5-.7.5s-3.8 1.1-4.5 1.3c-.7.2-.4-.4-.4-.4l1.5-3.2c0-.1.1-.1.1-.1-.4-.3-1-.2-1-.2s-4.4 1.4-4.9 1.6c-.5.2-.8.6-.8.6s-2.4 4.1-2.6 4.5c-.2.4 0 .6 0 .6h.1s.1 0 .1.1h.1s4-1.2 4.6-1.4c.6-.2.3.3.3.3s-1.9 3.7-2.2 4.1c-.3.4-.7.5-.7.5s-3.9 1-4.6 1.2c-.7.2-.4-.4-.4-.4l2.1-3.6c.2-.3.5-.5.7-.6-.3 0-.6.4-.6.4s-2.7 4.5-2.9 4.9c-.2.4.1.7.1.7l.1.1.4-.2s3.9-1 4.5-1.2c.6-.2.3.3.3.3s-2 3.9-2.3 4.3c-.3.4-.7.5-.7.5s-3.9 1-4.6 1.2c-.7.2-.4-.4-.4-.4l2.3-4c.1-.2.2-.3.4-.4-.3-.1-.5.1-.5.1s-2.6 4.5-3 5.1c-.3.5 0 1.1 0 1.1s4.1 5.2 4.3 5.3c.2.2.8.1.8.1l2.8-.6s1.4 1.8 1.6 1.9c.1.1.2.1.3 0l-.4-.4-1.2-1.4c0-.1.1-.1.1-.1s1.4-.3 1.5-.3c.1 0 .3.1.3.1s2 2.5 2.3 2.9c.4.5-.3.2-.3.2s-1.7-.7-2.1-.9c-.3.2-.1.4-.1.4l3.3 4.4c.3.4.7.6.7.6s13.4 6.5 13.7 6.6c.4.2.9-.1.9-.1s5.1-5.6 5.3-5.8c.2-.2.1-.9.1-.9.5 0 .8-.1.8-.1s4.6-5.2 4.9-5.5c.3-.3.2-1 .2-1 .6 0 .9-.2.9-.2s4.3-5 4.7-5.4c.3-.4.1-.9.1-.9zm-8.3-11s.4-.4.7 0c.2.3 3 4.8 3 4.8s.3.5 0 .8c-.3.3-4 4.7-4 4.7s-.3.2-.5 0c-.2-.3-3.4-4.8-3.4-4.8s-.2-.4.1-.8c.2-.4 4.1-4.7 4.1-4.7zm-2.2 12.1s-3.8 4.3-4.2 4.7c-.5.5-.8 0-.8 0l-2.8-3.8c1-.7 1.4-2 1.4-2s1.1-3 1.2-3.1c0-.1.1-.3.1-.3l1.2-1.2c.4-.4.8.1.8.1s2.7 4 3.1 4.5c.3.7 0 1.1 0 1.1zm-6.2 6.9c-.3.3-4.6 5-4.6 5s-.3.2-.5 0-3.7-4.6-3.7-4.6-.3-.4 0-.8c.3-.3 4.6-4.9 4.6-4.9s.4-.4.7 0c.2.3 3.4 4.5 3.4 4.5s.4.5.1.8zm-2.5-18.9c.2.2 3.6 5.3 3.6 5.3s.2.5.1 1c-.2.5-1.9 4.5-1.9 4.5s-.2.3-.5-.1-3.6-5.2-3.6-5.2-.2-.3 0-.7c.2-.4 1.9-4.8 1.9-4.8s.2-.4.4 0zm-10.2 8.3s-.3-.5.2-.6c.4-.1 5.7-1.5 5.7-1.5s.5-.1.7.1c.1.2 3.5 5.1 3.5 5.1s.6.8-.1.9c-.5.1-5.4 1.2-5.4 1.2s-.6.2-.8-.1c-.1-.3-3.8-5.1-3.8-5.1zm8.7-8.4s-1.5 4.3-1.8 4.7c-.3.4-.7.5-.7.5s-5.1 1.3-5.8 1.5c-.7.2-.4-.4-.4-.4l1.9-4.3c.3-.6.9-.7.9-.7s5-1.4 5.6-1.6c.5-.1.3.3.3.3zm-6.6 13.4s.5.7-.1.8c-.5.1-5.1 1.1-5.1 1.1s-.5.1-.8-.1c-.2-.2-3.9-4.9-3.9-4.9s-.3-.4.2-.6c.4-.1 5.3-1.2 5.3-1.2s.5-.1.6.1c.3.3 3.8 4.8 3.8 4.8zm-3.1 4.4l3.2 1.3s.4.2.7.5c.2.3 3.6 4.5 3.6 4.5s.4.6-.2.3c-.5-.2-3.6-1.7-3.6-1.7s-.3-.1-.5-.4c-.2-.3-3.4-4.3-3.4-4.3s-.4-.5.2-.2zm16.2-29.6c.2.2 3.2 5.2 3.2 5.2s.2.5.1 1c-.2.5-1.5 3.6-1.5 3.6s-.2.3-.5-.1-3.2-5.2-3.2-5.2-.2-.3 0-.7c.2-.4 1.6-3.7 1.6-3.7s.1-.4.3-.1zM86 66.9s.2-.4.4 0c.2.2 3.5 5.3 3.5 5.3s.2.5.1 1c-.2.5-1.6 4.1-1.6 4.1s-.2.3-.5-.1-3.5-5.2-3.5-5.2-.2-.3 0-.7c.1-.5 1.6-4.4 1.6-4.4zM78.3 69c.3-.6.9-.7.9-.7s4.7-1.5 5.3-1.7c.5-.1.3.3.3.3s-1.5 3.8-1.8 4.2c-.3.4-.7.5-.7.5s-4.5 1.3-5.2 1.5c-.7.2-.4-.4-.4-.4l1.6-3.7zm-12.7 2.3c-.7.2-.4-.3-.4-.3l2-3.3c.3-.4.8-.6.8-.6s3.9-1.2 4.4-1.4c.6-.2.3.2.3.2s-1.8 3.3-2.1 3.7c-.3.4-.7.5-.7.5s-3.6 1-4.3 1.2zm3.3 3.8l2-3.8c.3-.6.9-.7.9-.7s4.3-1.3 4.8-1.4c.6-.2.3.3.3.3s-1.7 4-2 4.4c-.3.4-.7.5-.7.5s-4.2 1-4.9 1.2c-.7 0-.4-.5-.4-.5zm-3.2 6.4l2-4.2c.3-.5.8-.7.8-.7s4.6-1.1 5.2-1.3c.6-.2.3.3.3.3s-1.8 4.1-2.1 4.5c-.3.4-.7.5-.7.5s-4.4 1.1-5.1 1.3c-.8.2-.4-.4-.4-.4zm-2.6 8.7s-.6.1-.8-.1c-.2-.2-3.9-4.9-3.9-4.9s-.3-.4.2-.6c.4-.1 4.9-1.3 4.9-1.3s.5-.1.6.1c.1.2 3.7 4.8 3.7 4.8s.5.7-.1.8c-.3.2-4.6 1.2-4.6 1.2zm4.8-.6c-.1-.1.1-.1.1-.1s.3-.1.6-.1c.3-.1.5 0 .5 0s1.4.6 1.7.7c.3.1.6.5.6.5s3 3.8 3.4 4.3c.4.5-.1.3-.1.3s-2.7-1.3-3.2-1.5c-.5-.3-.8-.7-.8-.7s-2.7-3.3-2.8-3.4zm6.3 8.9c-.5-.2-2.6-1.3-2.6-1.3s-.3-.1-.5-.4c-.2-.3-2.9-3.8-2.9-3.8s-.3-.5.3-.2l2.6 1.3s.4.2.7.5c.2.3 2.7 3.6 2.7 3.6s.3.6-.3.3zm4.8 2.4c-.5-.2-3.2-1.5-3.2-1.5s-.3-.1-.5-.4c-.2-.3-3-3.9-3-3.9s-.3-.5.3-.2l3.2 1.6s.4.2.7.5c.2.3 2.8 3.6 2.8 3.6s.3.5-.3.3zm5.5 2.6c-.5-.2-3.7-1.8-3.7-1.8s-.3-.1-.5-.4c-.2-.3-3-3.8-3-3.8s-.3-.5.3-.2l3.2 1.3s.4.2.7.5c.2.3 3.3 4.1 3.3 4.1s.3.6-.3.3zM91 98c-.3.3-4.5 5-4.5 5s-.3.2-.5 0c-.2-.3-3.5-4.3-3.5-4.3s-.3-.4 0-.8c.3-.3 4.5-5 4.5-5s.4-.4.7 0c.2.3 3.2 4.3 3.2 4.3s.4.5.1.8zm5.7-6.5c-.3.3-4.2 4.8-4.2 4.8s-.3.2-.5 0-3.2-4.4-3.2-4.4-.3-.4 0-.8c.3-.3 4.2-4.8 4.2-4.8s.4-.4.7 0c.2.3 3 4.4 3 4.4s.3.5 0 .8zm5.9-6.5c-.3.3-4.1 4.7-4.1 4.7s-.3.2-.5 0c-.2-.3-3.2-4.7-3.2-4.7s-.2-.4.1-.8c.3-.3 4.2-4.6 4.2-4.6s.4-.4.7 0c.2.3 2.8 4.6 2.8 4.6s.3.5 0 .8z" id="path88" fill="#fff"/><g id="g90" fill="#fff"><path class="st1" d="M93.6 126H66.9c-.6 0-1.1.3-1.1.6 0 .4.5.6 1.1.6h26.7c.6 0 1.1-.3 1.1-.6s-.5-.6-1.1-.6z" id="path92"/><path class="st1" d="M90.5 129.6H70c-.6 0-1.1.3-1.1.6s.5.6 1.1.6h20.5c.6 0 1.1-.3 1.1-.6 0-.4-.4-.6-1.1-.6z" id="path94"/></g><g id="text_1_"><g id="g97" fill="#fff"><path class="st1" d="M113.3 79v-.3h-.4v-.5l.4-.4h.9v6.8h-.9V79z" id="path99"/><path class="st1" d="M119.2 84.1c0 .3-.3.6-.6.6h-1.3-.1c-.3 0-.5-.3-.5-.6v-1.5h.9v1.2h.7v-2.2h-1c-.3 0-.6-.3-.6-.6v-2.6c0-.3.3-.5.6-.5h1.3c.3 0 .6.3.6.6v5.6zm-.9-5.3h-.7v2h.7v-2z" id="path101"/><path class="st1" d="M123 78.8h-1.7v-.9h2.6V79l-1.1 5.8h-.9l1.1-6z" id="path103"/><path class="st1" d="M125.9 77.9h.9v3.2h.6v-3.2h.9v3.2h.6v.9h-.6v2.8h-.9V82h-1.5v-4.1z" id="path105"/></g><g id="g107" fill="#fff"><path class="st1" d="M37 84.7h-2.3v-6.8h2.2v.9h-1.3v1.9h.9v.9h-.9v2.3H37v.8z" id="path109"/><path class="st1" d="M40.2 82.6v1.2h.7v-2.2h-1c-.3 0-.6-.3-.6-.6v-2.6c0-.3.2-.6.6-.6h1.3c.3 0 .6.2.6.6v1.4h-.9v-1.1h-.7v2h1c.3 0 .6.3.6.6v2.8c0 .3-.3.6-.6.6h-1.3c-.3 0-.6-.3-.6-.6v-1.5h.9z" id="path111"/><path class="st1" d="M44.8 78.8H44v-.9h2.4v.9h-.8v6h-.9v-6z" id="path113"/><path class="st1" d="M48 83.8h.9v.9H48v-.9z" id="path115"/></g><g id="g117" fill="#fff"><path class="st1" d="M47.2 118.3l1.6 2.2h-1l-1.5-2.2h-.1v2.2h-.8v-5.3h.9c.7 0 1.2.1 1.5.4.3.3.5.7.5 1.2 0 .4-.1.7-.3 1-.1.3-.4.5-.8.5zm-1-.6h.3c.8 0 1.1-.3 1.1-.9 0-.5-.4-.8-1.1-.8h-.3v1.7z" id="path119"/><path class="st1" d="M51.6 115.3v3.2c0 .5.1.8.2 1 .2.3.5.5.9.5s.7-.2.9-.5c.1-.2.2-.5.2-1v-3.2h.9v3.4c0 .6-.2 1-.5 1.4-.4.4-.9.6-1.4.6-.6 0-1-.2-1.4-.6-.3-.4-.5-.8-.5-1.4v-3.4h.7z" id="path121"/><path class="st1" d="M57.1 120.6v-5.3h.8c.4 0 .6 0 .8.1.2.1.4.1.5.3.1.1.3.3.4.5.1.2.1.4.1.6 0 .4-.1.7-.4 1 .3.1.5.3.7.5.2.2.2.5.2.8 0 .4-.1.8-.4 1-.2.2-.4.3-.6.4-.2.1-.5.1-.9.1h-1.2zm.8-3h.2c.3 0 .5-.1.7-.2.1-.1.2-.3.2-.6 0-.2-.1-.4-.2-.6-.1-.1-.3-.2-.6-.2h-.3v1.6zm0 2.2h.5c.4 0 .6-.1.8-.2.2-.2.3-.3.3-.6 0-.2-.1-.4-.3-.6-.2-.2-.5-.2-.9-.2h-.4v1.6z" id="path123"/><path class="st1" d="M63.3 115.3v5.3h-.8v-5.3h.8z" id="path125"/><path class="st1" d="M66.5 117.4l2.1-2.1h1.1l-2.4 2.4 2.4 2.9h-1.1l-1.9-2.3-.2.2v2.2h-.8v-5.3h.8v2z" id="path127"/><path class="st1" d="M72.1 115.1l.7.3-1 2-.5-.2.8-2.1z" id="path129"/><path class="st1" d="M78 116.1l-.6.4c-.1-.2-.2-.3-.3-.4-.1-.1-.3-.1-.4-.1-.2 0-.4.1-.6.2-.1.1-.2.3-.2.5 0 .3.2.5.6.6l.5.2c.4.2.7.4.9.6.2.3.3.6.3.9 0 .5-.2.9-.5 1.2-.3.3-.7.5-1.2.5s-.8-.1-1.1-.4c-.3-.3-.5-.7-.6-1.1l.8-.2c0 .3.1.5.2.6.2.2.4.3.7.3.2 0 .5-.1.6-.3.2-.2.2-.4.2-.6v-.3c0-.1-.1-.2-.1-.2l-.2-.2c-.1-.1-.2-.1-.3-.2l-.5-.2c-.7-.3-1.1-.8-1.1-1.3 0-.4.2-.7.5-1 .3-.3.7-.4 1.1-.4.5 0 1 .3 1.3.9z" id="path131"/><path class="st1" d="M84.4 118.4v2.1h-.8v-5.3h.9c.4 0 .8 0 1 .1l.6.3c.3.3.5.7.5 1.1 0 .5-.2.9-.5 1.1-.3.3-.8.4-1.3.4h-.4zm0-.7h.3c.7 0 1.1-.3 1.1-.8s-.4-.8-1.1-.8h-.3v1.6z" id="path133"/><path class="st1" d="M89.4 115.3v3.2c0 .5.1.8.2 1 .2.3.5.5.9.5s.7-.2.9-.5c.1-.2.2-.5.2-1v-3.2h.8v3.4c0 .6-.2 1-.5 1.4-.4.4-.9.6-1.4.6-.6 0-1-.2-1.4-.6-.3-.4-.5-.8-.5-1.4v-3.4h.8z" id="path135"/><path class="st1" d="M95.9 119.8h2.5v.7h-3.8l2.6-4.5H95v-.7h3.5l-2.6 4.5z" id="path137"/><path class="st1" d="M101.5 119.8h2.5v.7h-3.8l2.6-4.5h-2.2v-.7h3.5l-2.6 4.5z" id="path139"/><path class="st1" d="M106.9 115.3v4.5h1.6v.7h-2.3v-5.3h.7z" id="path141"/><path class="st1" d="M113.3 116.1h-2.1v1.3h2.1v.7h-2.1v1.8h2.1v.7h-2.9v-5.3h2.9v.8z" id="path143"/></g><g id="g145"><g id="g147" fill="#fff"><path class="st1" d="M48.3 33.2h2.9v10.2c1-.1 1.5-.1 2.4-.2V33.1h2.9v21.4c-1.2.1-1.7.2-2.9.4V46c-1 .1-1.5.1-2.4.2v9.1c-1.2.2-1.7.3-2.9.4V33.2z" id="path149"/><path class="st1" d="M59.1 33.2H62v20.9c-1.2.1-1.7.2-2.9.3V33.2z" id="path151"/><path class="st1" d="M64.6 33.2h6.3c1.1 0 1.9.8 1.9 1.7v7.6c0 .9-.9 1.7-1.9 1.7-1.4 0-2.1.1-3.4.1v9.3c-1.2.1-1.7.1-2.9.2v-9.4-11.2zm5.3 2.6h-2.5v5.9c1 0 1.5 0 2.5-.1v-5.8z" id="path153"/><path class="st1" d="M77.7 47.2v3.5h2.5v-6.5h-3.4c-1.1 0-1.9-.8-1.9-1.7v-7.6c0-1 .8-1.7 1.9-1.7h4.4c1.1 0 1.9.7 1.9 1.7v4.2h-2.9v-3.3h-2.5v5.8h3.4c1.1 0 1.9.8 1.9 1.7v8.2c0 .9-.9 1.7-1.9 1.7h-4.4c-1 0-1.9-.7-1.9-1.7v-4.4c1.1.1 1.7.1 2.9.1z" id="path155"/><path class="st1" d="M87.2 35.8h-2.6v-2.6h8.1v2.6h-2.6v17.7c-1.2-.1-1.7-.1-2.9-.1V35.8z" id="path157"/><path class="st1" d="M101.8 54.4c-3-.3-4.5-.4-7.5-.7V33.2h7.3v2.7c-1.7 0-2.6 0-4.4-.1v5.7c1.2 0 1.8.1 3.1.1v2.7c-1.2-.1-1.8-.1-3.1-.1v7c1.8.1 2.7.2 4.6.4v2.8z" id="path159"/><path class="st1" d="M109.4 45.9c-1-.1-1.5-.1-2.4-.2v9.2c-1.2-.2-1.7-.2-2.9-.4V33.1h6c1.1 0 1.9.9 1.9 1.9v7.8c0 .8-1 1.5-1 1.5s1.3 1.2 1.3 2v9.3c-1.2-.2-1.7-.3-2.9-.4v-9.3zm-2.4-3c.8 0 1.3.1 2.1.1v-7H107c-.1 2.8 0 4.2 0 6.9z" id="path161"/></g></g></g></g><g id="g163"><path class="st0" d="M59.9 15.8L13.8 61.9V28.6c0-7 5.8-12.8 12.8-12.8h33.3zm3.1 0L13.8 65v32.1l46.7 46.7h36l49.2-49.2V62.5L99 15.8H63zm69.9 128c7 0 12.8-5.8 12.8-12.8V97.7l-46.1 46.1h33.3zM13.8 131c0 7 5.8 12.8 12.8 12.8h30.8l-43.7-43.7V131zM145.7 28.6c0-7-5.8-12.8-12.8-12.8h-30.8l43.6 43.6V28.6zm10.1 41l-10.1-10.2v3.1l8.6 8.6c4.1 4.1 4.1 10.8 0 14.9l-8.6 8.6v3.1l10.1-10.1c5-5 5-13.1 0-18zM5.2 88.5c-2-2-3.1-4.6-3.1-7.5 0-2.8 1.1-5.5 3.1-7.5l8.6-8.6v-3.1L3.7 72C1.3 74.4 0 77.6 0 81c0 3.4 1.3 6.6 3.7 9l10.1 10.1V97l-8.6-8.5zM86 154.3c-2 2-4.6 3.1-7.5 3.1-2.8 0-5.5-1.1-7.5-3.1l-10.5-10.5h-3.1l12.1 12.1c2.4 2.4 5.6 3.7 9 3.7 3.4 0 6.6-1.3 9-3.7l12.1-12.1h-3.1L86 154.3zM73.5 5.2c2-2 4.6-3.1 7.5-3.1 2.8 0 5.5 1.1 7.5 3.1L99 15.7h3.1L90 3.7C87.6 1.3 84.4 0 81 0c-3.4 0-6.6 1.3-9 3.7L59.9 15.8H63L73.5 5.2z" id="path165" fill="#383433"/><path class="st1" d="M103 84.1s-3.1-4.9-3.4-5.3c-.3-.4-.7-.3-.7-.3.1-.2-.1-.6-.1-.6s-2.9-4.7-3.3-5.4c-.5-.7-1-.8-1-.8s-3.5-.4-3.6-.4c-.1 0 0-.1 0-.1s1.1-2.8 1.4-3.4c.2-.6 0-1.1 0-1.1s-3.2-5.3-3.6-5.8c-.3-.4-1.6-.2-1.6-.2s-4.9 1.6-5.5 1.8c-.6.2-.6.5-.6.5v.1c.3-.5.8-.5.8-.5s4.4-1.4 5-1.6c.5-.1.3.3.3.3s-1.2 3.2-1.5 3.6c-.3.4-.7.5-.7.5s-4.2 1.3-4.9 1.5c-.7.2-.4-.4-.4-.4l1.3-3.1s-.1 0-.1-.1c-.3-.4-1-.3-1-.3s-5.3 1.8-5.6 1.9c-.3.1-.3.4-.3.4.3-.3.6-.4.6-.4s4-1.3 4.5-1.4c.6-.2.3.2.3.2s-1.4 3.3-1.7 3.6c-.3.4-.7.5-.7.5s-3.8 1.1-4.5 1.3c-.7.2-.4-.4-.4-.4l1.5-3.2c0-.1.1-.1.1-.1-.4-.3-1-.2-1-.2s-4.4 1.4-4.9 1.6c-.5.2-.8.6-.8.6s-2.4 4.1-2.6 4.5c-.2.4 0 .6 0 .6h.1s.1 0 .1.1h.1s4-1.2 4.6-1.4c.6-.2.3.3.3.3s-1.9 3.7-2.2 4.1c-.3.4-.7.5-.7.5s-3.9 1-4.6 1.2c-.7.2-.4-.4-.4-.4l2.1-3.6c.2-.3.5-.5.7-.6-.3 0-.6.4-.6.4s-2.7 4.5-2.9 4.9c-.2.4.1.7.1.7l.1.1.4-.2s3.9-1 4.5-1.2c.6-.2.3.3.3.3s-2 3.9-2.3 4.3c-.3.4-.7.5-.7.5s-3.9 1-4.6 1.2c-.7.2-.4-.4-.4-.4l2.3-4c.1-.2.2-.3.4-.4-.3-.1-.5.1-.5.1s-2.6 4.5-3 5.1c-.3.5 0 1.1 0 1.1s4.1 5.2 4.3 5.3c.2.2.8.1.8.1l2.8-.6s1.4 1.8 1.6 1.9c.1.1.2.1.3 0l-.4-.4-1.2-1.4c0-.1.1-.1.1-.1s1.4-.3 1.5-.3c.1 0 .3.1.3.1s2 2.5 2.3 2.9c.4.5-.3.2-.3.2s-1.7-.7-2.1-.9c-.3.2-.1.4-.1.4l3.3 4.4c.3.4.7.6.7.6s13.4 6.5 13.7 6.6c.4.2.9-.1.9-.1s5.1-5.6 5.3-5.8c.2-.2.1-.9.1-.9.5 0 .8-.1.8-.1s4.6-5.2 4.9-5.5c.3-.3.2-1 .2-1 .6 0 .9-.2.9-.2s4.3-5 4.7-5.4c.3-.4.1-.9.1-.9zm-8.3-11s.4-.4.7 0c.2.3 3 4.8 3 4.8s.3.5 0 .8c-.3.3-4 4.7-4 4.7s-.3.2-.5 0c-.2-.3-3.4-4.8-3.4-4.8s-.2-.4.1-.8c.2-.4 4.1-4.7 4.1-4.7zm-2.2 12.1s-3.8 4.3-4.2 4.7c-.5.5-.8 0-.8 0l-2.8-3.8c1-.7 1.4-2 1.4-2s1.1-3 1.2-3.1c0-.1.1-.3.1-.3l1.2-1.2c.4-.4.8.1.8.1s2.7 4 3.1 4.5c.3.7 0 1.1 0 1.1zm-6.2 6.9c-.3.3-4.6 5-4.6 5s-.3.2-.5 0-3.7-4.6-3.7-4.6-.3-.4 0-.8c.3-.3 4.6-4.9 4.6-4.9s.4-.4.7 0c.2.3 3.4 4.5 3.4 4.5s.4.5.1.8zm-2.5-18.9c.2.2 3.6 5.3 3.6 5.3s.2.5.1 1c-.2.5-1.9 4.5-1.9 4.5s-.2.3-.5-.1-3.6-5.2-3.6-5.2-.2-.3 0-.7c.2-.4 1.9-4.8 1.9-4.8s.2-.4.4 0zm-10.2 8.3s-.3-.5.2-.6c.4-.1 5.7-1.5 5.7-1.5s.5-.1.7.1c.1.2 3.5 5.1 3.5 5.1s.6.8-.1.9c-.5.1-5.4 1.2-5.4 1.2s-.6.2-.8-.1c-.1-.3-3.8-5.1-3.8-5.1zm8.7-8.4s-1.5 4.3-1.8 4.7c-.3.4-.7.5-.7.5s-5.1 1.3-5.8 1.5c-.7.2-.4-.4-.4-.4l1.9-4.3c.3-.6.9-.7.9-.7s5-1.4 5.6-1.6c.5-.1.3.3.3.3zm-6.6 13.4s.5.7-.1.8c-.5.1-5.1 1.1-5.1 1.1s-.5.1-.8-.1c-.2-.2-3.9-4.9-3.9-4.9s-.3-.4.2-.6c.4-.1 5.3-1.2 5.3-1.2s.5-.1.6.1c.3.3 3.8 4.8 3.8 4.8zm-3.1 4.4l3.2 1.3s.4.2.7.5c.2.3 3.6 4.5 3.6 4.5s.4.6-.2.3c-.5-.2-3.6-1.7-3.6-1.7s-.3-.1-.5-.4c-.2-.3-3.4-4.3-3.4-4.3s-.4-.5.2-.2zm16.2-29.6c.2.2 3.2 5.2 3.2 5.2s.2.5.1 1c-.2.5-1.5 3.6-1.5 3.6s-.2.3-.5-.1-3.2-5.2-3.2-5.2-.2-.3 0-.7c.2-.4 1.6-3.7 1.6-3.7s.1-.4.3-.1zM86 66.9s.2-.4.4 0c.2.2 3.5 5.3 3.5 5.3s.2.5.1 1c-.2.5-1.6 4.1-1.6 4.1s-.2.3-.5-.1-3.5-5.2-3.5-5.2-.2-.3 0-.7c.1-.5 1.6-4.4 1.6-4.4zM78.3 69c.3-.6.9-.7.9-.7s4.7-1.5 5.3-1.7c.5-.1.3.3.3.3s-1.5 3.8-1.8 4.2c-.3.4-.7.5-.7.5s-4.5 1.3-5.2 1.5c-.7.2-.4-.4-.4-.4l1.6-3.7zm-12.7 2.3c-.7.2-.4-.3-.4-.3l2-3.3c.3-.4.8-.6.8-.6s3.9-1.2 4.4-1.4c.6-.2.3.2.3.2s-1.8 3.3-2.1 3.7c-.3.4-.7.5-.7.5s-3.6 1-4.3 1.2zm3.3 3.8l2-3.8c.3-.6.9-.7.9-.7s4.3-1.3 4.8-1.4c.6-.2.3.3.3.3s-1.7 4-2 4.4c-.3.4-.7.5-.7.5s-4.2 1-4.9 1.2c-.7 0-.4-.5-.4-.5zm-3.2 6.4l2-4.2c.3-.5.8-.7.8-.7s4.6-1.1 5.2-1.3c.6-.2.3.3.3.3s-1.8 4.1-2.1 4.5c-.3.4-.7.5-.7.5s-4.4 1.1-5.1 1.3c-.8.2-.4-.4-.4-.4zm-2.6 8.7s-.6.1-.8-.1c-.2-.2-3.9-4.9-3.9-4.9s-.3-.4.2-.6c.4-.1 4.9-1.3 4.9-1.3s.5-.1.6.1c.1.2 3.7 4.8 3.7 4.8s.5.7-.1.8c-.3.2-4.6 1.2-4.6 1.2zm4.8-.6c-.1-.1.1-.1.1-.1s.3-.1.6-.1c.3-.1.5 0 .5 0s1.4.6 1.7.7c.3.1.6.5.6.5s3 3.8 3.4 4.3c.4.5-.1.3-.1.3s-2.7-1.3-3.2-1.5c-.5-.3-.8-.7-.8-.7s-2.7-3.3-2.8-3.4zm6.3 8.9c-.5-.2-2.6-1.3-2.6-1.3s-.3-.1-.5-.4c-.2-.3-2.9-3.8-2.9-3.8s-.3-.5.3-.2l2.6 1.3s.4.2.7.5c.2.3 2.7 3.6 2.7 3.6s.3.6-.3.3zm4.8 2.4c-.5-.2-3.2-1.5-3.2-1.5s-.3-.1-.5-.4c-.2-.3-3-3.9-3-3.9s-.3-.5.3-.2l3.2 1.6s.4.2.7.5c.2.3 2.8 3.6 2.8 3.6s.3.5-.3.3zm5.5 2.6c-.5-.2-3.7-1.8-3.7-1.8s-.3-.1-.5-.4c-.2-.3-3-3.8-3-3.8s-.3-.5.3-.2l3.2 1.3s.4.2.7.5c.2.3 3.3 4.1 3.3 4.1s.3.6-.3.3zM91 98c-.3.3-4.5 5-4.5 5s-.3.2-.5 0c-.2-.3-3.5-4.3-3.5-4.3s-.3-.4 0-.8c.3-.3 4.5-5 4.5-5s.4-.4.7 0c.2.3 3.2 4.3 3.2 4.3s.4.5.1.8zm5.7-6.5c-.3.3-4.2 4.8-4.2 4.8s-.3.2-.5 0-3.2-4.4-3.2-4.4-.3-.4 0-.8c.3-.3 4.2-4.8 4.2-4.8s.4-.4.7 0c.2.3 3 4.4 3 4.4s.3.5 0 .8zm5.9-6.5c-.3.3-4.1 4.7-4.1 4.7s-.3.2-.5 0c-.2-.3-3.2-4.7-3.2-4.7s-.2-.4.1-.8c.3-.3 4.2-4.6 4.2-4.6s.4-.4.7 0c.2.3 2.8 4.6 2.8 4.6s.3.5 0 .8z" id="path167" fill="#fff"/><g id="g169" fill="#fff"><path class="st1" d="M93.6 126H66.9c-.6 0-1.1.3-1.1.6 0 .4.5.6 1.1.6h26.7c.6 0 1.1-.3 1.1-.6s-.5-.6-1.1-.6z" id="path171"/><path class="st1" d="M90.5 129.6H70c-.6 0-1.1.3-1.1.6s.5.6 1.1.6h20.5c.6 0 1.1-.3 1.1-.6 0-.4-.4-.6-1.1-.6z" id="path173"/></g><g id="text_2_"><g id="g176" fill="#fff"><path class="st1" d="M113.3 79v-.3h-.4v-.5l.4-.4h.9v6.8h-.9V79z" id="path178"/><path class="st1" d="M119.2 84.1c0 .3-.3.6-.6.6h-1.3-.1c-.3 0-.5-.3-.5-.6v-1.5h.9v1.2h.7v-2.2h-1c-.3 0-.6-.3-.6-.6v-2.6c0-.3.3-.5.6-.5h1.3c.3 0 .6.3.6.6v5.6zm-.9-5.3h-.7v2h.7v-2z" id="path180"/><path class="st1" d="M123 78.8h-1.7v-.9h2.6V79l-1.1 5.8h-.9l1.1-6z" id="path182"/><path class="st1" d="M125.9 77.9h.9v3.2h.6v-3.2h.9v3.2h.6v.9h-.6v2.8h-.9V82h-1.5v-4.1z" id="path184"/></g><g id="g186" fill="#fff"><path class="st1" d="M37 84.7h-2.3v-6.8h2.2v.9h-1.3v1.9h.9v.9h-.9v2.3H37v.8z" id="path188"/><path class="st1" d="M40.2 82.6v1.2h.7v-2.2h-1c-.3 0-.6-.3-.6-.6v-2.6c0-.3.2-.6.6-.6h1.3c.3 0 .6.2.6.6v1.4h-.9v-1.1h-.7v2h1c.3 0 .6.3.6.6v2.8c0 .3-.3.6-.6.6h-1.3c-.3 0-.6-.3-.6-.6v-1.5h.9z" id="path190"/><path class="st1" d="M44.8 78.8H44v-.9h2.4v.9h-.8v6h-.9v-6z" id="path192"/><path class="st1" d="M48 83.8h.9v.9H48v-.9z" id="path194"/></g><g id="g196" fill="#fff"><path class="st1" d="M47.2 118.3l1.6 2.2h-1l-1.5-2.2h-.1v2.2h-.8v-5.3h.9c.7 0 1.2.1 1.5.4.3.3.5.7.5 1.2 0 .4-.1.7-.3 1-.1.3-.4.5-.8.5zm-1-.6h.3c.8 0 1.1-.3 1.1-.9 0-.5-.4-.8-1.1-.8h-.3v1.7z" id="path198"/><path class="st1" d="M51.6 115.3v3.2c0 .5.1.8.2 1 .2.3.5.5.9.5s.7-.2.9-.5c.1-.2.2-.5.2-1v-3.2h.9v3.4c0 .6-.2 1-.5 1.4-.4.4-.9.6-1.4.6-.6 0-1-.2-1.4-.6-.3-.4-.5-.8-.5-1.4v-3.4h.7z" id="path200"/><path class="st1" d="M57.1 120.6v-5.3h.8c.4 0 .6 0 .8.1.2.1.4.1.5.3.1.1.3.3.4.5.1.2.1.4.1.6 0 .4-.1.7-.4 1 .3.1.5.3.7.5.2.2.2.5.2.8 0 .4-.1.8-.4 1-.2.2-.4.3-.6.4-.2.1-.5.1-.9.1h-1.2zm.8-3h.2c.3 0 .5-.1.7-.2.1-.1.2-.3.2-.6 0-.2-.1-.4-.2-.6-.1-.1-.3-.2-.6-.2h-.3v1.6zm0 2.2h.5c.4 0 .6-.1.8-.2.2-.2.3-.3.3-.6 0-.2-.1-.4-.3-.6-.2-.2-.5-.2-.9-.2h-.4v1.6z" id="path202"/><path class="st1" d="M63.3 115.3v5.3h-.8v-5.3h.8z" id="path204"/><path class="st1" d="M66.5 117.4l2.1-2.1h1.1l-2.4 2.4 2.4 2.9h-1.1l-1.9-2.3-.2.2v2.2h-.8v-5.3h.8v2z" id="path206"/><path class="st1" d="M72.1 115.1l.7.3-1 2-.5-.2.8-2.1z" id="path208"/><path class="st1" d="M78 116.1l-.6.4c-.1-.2-.2-.3-.3-.4-.1-.1-.3-.1-.4-.1-.2 0-.4.1-.6.2-.1.1-.2.3-.2.5 0 .3.2.5.6.6l.5.2c.4.2.7.4.9.6.2.3.3.6.3.9 0 .5-.2.9-.5 1.2-.3.3-.7.5-1.2.5s-.8-.1-1.1-.4c-.3-.3-.5-.7-.6-1.1l.8-.2c0 .3.1.5.2.6.2.2.4.3.7.3.2 0 .5-.1.6-.3.2-.2.2-.4.2-.6v-.3c0-.1-.1-.2-.1-.2l-.2-.2c-.1-.1-.2-.1-.3-.2l-.5-.2c-.7-.3-1.1-.8-1.1-1.3 0-.4.2-.7.5-1 .3-.3.7-.4 1.1-.4.5 0 1 .3 1.3.9z" id="path210"/><path class="st1" d="M84.4 118.4v2.1h-.8v-5.3h.9c.4 0 .8 0 1 .1l.6.3c.3.3.5.7.5 1.1 0 .5-.2.9-.5 1.1-.3.3-.8.4-1.3.4h-.4zm0-.7h.3c.7 0 1.1-.3 1.1-.8s-.4-.8-1.1-.8h-.3v1.6z" id="path212"/><path class="st1" d="M89.4 115.3v3.2c0 .5.1.8.2 1 .2.3.5.5.9.5s.7-.2.9-.5c.1-.2.2-.5.2-1v-3.2h.8v3.4c0 .6-.2 1-.5 1.4-.4.4-.9.6-1.4.6-.6 0-1-.2-1.4-.6-.3-.4-.5-.8-.5-1.4v-3.4h.8z" id="path214"/><path class="st1" d="M95.9 119.8h2.5v.7h-3.8l2.6-4.5H95v-.7h3.5l-2.6 4.5z" id="path216"/><path class="st1" d="M101.5 119.8h2.5v.7h-3.8l2.6-4.5h-2.2v-.7h3.5l-2.6 4.5z" id="path218"/><path class="st1" d="M106.9 115.3v4.5h1.6v.7h-2.3v-5.3h.7z" id="path220"/><path class="st1" d="M113.3 116.1h-2.1v1.3h2.1v.7h-2.1v1.8h2.1v.7h-2.9v-5.3h2.9v.8z" id="path222"/></g><g id="g224"><g id="g226" fill="#fff"><path class="st1" d="M48.3 33.2h2.9v10.2c1-.1 1.5-.1 2.4-.2V33.1h2.9v21.4c-1.2.1-1.7.2-2.9.4V46c-1 .1-1.5.1-2.4.2v9.1c-1.2.2-1.7.3-2.9.4V33.2z" id="path228"/><path class="st1" d="M59.1 33.2H62v20.9c-1.2.1-1.7.2-2.9.3V33.2z" id="path230"/><path class="st1" d="M64.6 33.2h6.3c1.1 0 1.9.8 1.9 1.7v7.6c0 .9-.9 1.7-1.9 1.7-1.4 0-2.1.1-3.4.1v9.3c-1.2.1-1.7.1-2.9.2v-9.4-11.2zm5.3 2.6h-2.5v5.9c1 0 1.5 0 2.5-.1v-5.8z" id="path232"/><path class="st1" d="M77.7 47.2v3.5h2.5v-6.5h-3.4c-1.1 0-1.9-.8-1.9-1.7v-7.6c0-1 .8-1.7 1.9-1.7h4.4c1.1 0 1.9.7 1.9 1.7v4.2h-2.9v-3.3h-2.5v5.8h3.4c1.1 0 1.9.8 1.9 1.7v8.2c0 .9-.9 1.7-1.9 1.7h-4.4c-1 0-1.9-.7-1.9-1.7v-4.4c1.1.1 1.7.1 2.9.1z" id="path234"/><path class="st1" d="M87.2 35.8h-2.6v-2.6h8.1v2.6h-2.6v17.7c-1.2-.1-1.7-.1-2.9-.1V35.8z" id="path236"/><path class="st1" d="M101.8 54.4c-3-.3-4.5-.4-7.5-.7V33.2h7.3v2.7c-1.7 0-2.6 0-4.4-.1v5.7c1.2 0 1.8.1 3.1.1v2.7c-1.2-.1-1.8-.1-3.1-.1v7c1.8.1 2.7.2 4.6.4v2.8z" id="path238"/><path class="st1" d="M109.4 45.9c-1-.1-1.5-.1-2.4-.2v9.2c-1.2-.2-1.7-.2-2.9-.4V33.1h6c1.1 0 1.9.9 1.9 1.9v7.8c0 .8-1 1.5-1 1.5s1.3 1.2 1.3 2v9.3c-1.2-.2-1.7-.3-2.9-.4v-9.3zm-2.4-3c.8 0 1.3.1 2.1.1v-7H107c-.1 2.8 0 4.2 0 6.9z" id="path240"/></g></g></g></g><g id="g242"><path class="st0" d="M59.9 15.8L13.8 61.9V28.6c0-7 5.8-12.8 12.8-12.8h33.3zm3.1 0L13.8 65v32.1l46.7 46.7h36l49.2-49.2V62.5L99 15.8H63zm69.9 128c7 0 12.8-5.8 12.8-12.8V97.7l-46.1 46.1h33.3zM13.8 131c0 7 5.8 12.8 12.8 12.8h30.8l-43.7-43.7V131zM145.7 28.6c0-7-5.8-12.8-12.8-12.8h-30.8l43.6 43.6V28.6zm10.1 41l-10.1-10.2v3.1l8.6 8.6c4.1 4.1 4.1 10.8 0 14.9l-8.6 8.6v3.1l10.1-10.1c5-5 5-13.1 0-18zM5.2 88.5c-2-2-3.1-4.6-3.1-7.5 0-2.8 1.1-5.5 3.1-7.5l8.6-8.6v-3.1L3.7 72C1.3 74.4 0 77.6 0 81c0 3.4 1.3 6.6 3.7 9l10.1 10.1V97l-8.6-8.5zM86 154.3c-2 2-4.6 3.1-7.5 3.1-2.8 0-5.5-1.1-7.5-3.1l-10.5-10.5h-3.1l12.1 12.1c2.4 2.4 5.6 3.7 9 3.7 3.4 0 6.6-1.3 9-3.7l12.1-12.1h-3.1L86 154.3zM73.5 5.2c2-2 4.6-3.1 7.5-3.1 2.8 0 5.5 1.1 7.5 3.1L99 15.7h3.1L90 3.7C87.6 1.3 84.4 0 81 0c-3.4 0-6.6 1.3-9 3.7L59.9 15.8H63L73.5 5.2z" id="path244" fill="#383433"/><path class="st1" d="M103 84.1s-3.1-4.9-3.4-5.3c-.3-.4-.7-.3-.7-.3.1-.2-.1-.6-.1-.6s-2.9-4.7-3.3-5.4c-.5-.7-1-.8-1-.8s-3.5-.4-3.6-.4c-.1 0 0-.1 0-.1s1.1-2.8 1.4-3.4c.2-.6 0-1.1 0-1.1s-3.2-5.3-3.6-5.8c-.3-.4-1.6-.2-1.6-.2s-4.9 1.6-5.5 1.8c-.6.2-.6.5-.6.5v.1c.3-.5.8-.5.8-.5s4.4-1.4 5-1.6c.5-.1.3.3.3.3s-1.2 3.2-1.5 3.6c-.3.4-.7.5-.7.5s-4.2 1.3-4.9 1.5c-.7.2-.4-.4-.4-.4l1.3-3.1s-.1 0-.1-.1c-.3-.4-1-.3-1-.3s-5.3 1.8-5.6 1.9c-.3.1-.3.4-.3.4.3-.3.6-.4.6-.4s4-1.3 4.5-1.4c.6-.2.3.2.3.2s-1.4 3.3-1.7 3.6c-.3.4-.7.5-.7.5s-3.8 1.1-4.5 1.3c-.7.2-.4-.4-.4-.4l1.5-3.2c0-.1.1-.1.1-.1-.4-.3-1-.2-1-.2s-4.4 1.4-4.9 1.6c-.5.2-.8.6-.8.6s-2.4 4.1-2.6 4.5c-.2.4 0 .6 0 .6h.1s.1 0 .1.1h.1s4-1.2 4.6-1.4c.6-.2.3.3.3.3s-1.9 3.7-2.2 4.1c-.3.4-.7.5-.7.5s-3.9 1-4.6 1.2c-.7.2-.4-.4-.4-.4l2.1-3.6c.2-.3.5-.5.7-.6-.3 0-.6.4-.6.4s-2.7 4.5-2.9 4.9c-.2.4.1.7.1.7l.1.1.4-.2s3.9-1 4.5-1.2c.6-.2.3.3.3.3s-2 3.9-2.3 4.3c-.3.4-.7.5-.7.5s-3.9 1-4.6 1.2c-.7.2-.4-.4-.4-.4l2.3-4c.1-.2.2-.3.4-.4-.3-.1-.5.1-.5.1s-2.6 4.5-3 5.1c-.3.5 0 1.1 0 1.1s4.1 5.2 4.3 5.3c.2.2.8.1.8.1l2.8-.6s1.4 1.8 1.6 1.9c.1.1.2.1.3 0l-.4-.4-1.2-1.4c0-.1.1-.1.1-.1s1.4-.3 1.5-.3c.1 0 .3.1.3.1s2 2.5 2.3 2.9c.4.5-.3.2-.3.2s-1.7-.7-2.1-.9c-.3.2-.1.4-.1.4l3.3 4.4c.3.4.7.6.7.6s13.4 6.5 13.7 6.6c.4.2.9-.1.9-.1s5.1-5.6 5.3-5.8c.2-.2.1-.9.1-.9.5 0 .8-.1.8-.1s4.6-5.2 4.9-5.5c.3-.3.2-1 .2-1 .6 0 .9-.2.9-.2s4.3-5 4.7-5.4c.3-.4.1-.9.1-.9zm-8.3-11s.4-.4.7 0c.2.3 3 4.8 3 4.8s.3.5 0 .8c-.3.3-4 4.7-4 4.7s-.3.2-.5 0c-.2-.3-3.4-4.8-3.4-4.8s-.2-.4.1-.8c.2-.4 4.1-4.7 4.1-4.7zm-2.2 12.1s-3.8 4.3-4.2 4.7c-.5.5-.8 0-.8 0l-2.8-3.8c1-.7 1.4-2 1.4-2s1.1-3 1.2-3.1c0-.1.1-.3.1-.3l1.2-1.2c.4-.4.8.1.8.1s2.7 4 3.1 4.5c.3.7 0 1.1 0 1.1zm-6.2 6.9c-.3.3-4.6 5-4.6 5s-.3.2-.5 0-3.7-4.6-3.7-4.6-.3-.4 0-.8c.3-.3 4.6-4.9 4.6-4.9s.4-.4.7 0c.2.3 3.4 4.5 3.4 4.5s.4.5.1.8zm-2.5-18.9c.2.2 3.6 5.3 3.6 5.3s.2.5.1 1c-.2.5-1.9 4.5-1.9 4.5s-.2.3-.5-.1-3.6-5.2-3.6-5.2-.2-.3 0-.7c.2-.4 1.9-4.8 1.9-4.8s.2-.4.4 0zm-10.2 8.3s-.3-.5.2-.6c.4-.1 5.7-1.5 5.7-1.5s.5-.1.7.1c.1.2 3.5 5.1 3.5 5.1s.6.8-.1.9c-.5.1-5.4 1.2-5.4 1.2s-.6.2-.8-.1c-.1-.3-3.8-5.1-3.8-5.1zm8.7-8.4s-1.5 4.3-1.8 4.7c-.3.4-.7.5-.7.5s-5.1 1.3-5.8 1.5c-.7.2-.4-.4-.4-.4l1.9-4.3c.3-.6.9-.7.9-.7s5-1.4 5.6-1.6c.5-.1.3.3.3.3zm-6.6 13.4s.5.7-.1.8c-.5.1-5.1 1.1-5.1 1.1s-.5.1-.8-.1c-.2-.2-3.9-4.9-3.9-4.9s-.3-.4.2-.6c.4-.1 5.3-1.2 5.3-1.2s.5-.1.6.1c.3.3 3.8 4.8 3.8 4.8zm-3.1 4.4l3.2 1.3s.4.2.7.5c.2.3 3.6 4.5 3.6 4.5s.4.6-.2.3c-.5-.2-3.6-1.7-3.6-1.7s-.3-.1-.5-.4c-.2-.3-3.4-4.3-3.4-4.3s-.4-.5.2-.2zm16.2-29.6c.2.2 3.2 5.2 3.2 5.2s.2.5.1 1c-.2.5-1.5 3.6-1.5 3.6s-.2.3-.5-.1-3.2-5.2-3.2-5.2-.2-.3 0-.7c.2-.4 1.6-3.7 1.6-3.7s.1-.4.3-.1zM86 66.9s.2-.4.4 0c.2.2 3.5 5.3 3.5 5.3s.2.5.1 1c-.2.5-1.6 4.1-1.6 4.1s-.2.3-.5-.1-3.5-5.2-3.5-5.2-.2-.3 0-.7c.1-.5 1.6-4.4 1.6-4.4zM78.3 69c.3-.6.9-.7.9-.7s4.7-1.5 5.3-1.7c.5-.1.3.3.3.3s-1.5 3.8-1.8 4.2c-.3.4-.7.5-.7.5s-4.5 1.3-5.2 1.5c-.7.2-.4-.4-.4-.4l1.6-3.7zm-12.7 2.3c-.7.2-.4-.3-.4-.3l2-3.3c.3-.4.8-.6.8-.6s3.9-1.2 4.4-1.4c.6-.2.3.2.3.2s-1.8 3.3-2.1 3.7c-.3.4-.7.5-.7.5s-3.6 1-4.3 1.2zm3.3 3.8l2-3.8c.3-.6.9-.7.9-.7s4.3-1.3 4.8-1.4c.6-.2.3.3.3.3s-1.7 4-2 4.4c-.3.4-.7.5-.7.5s-4.2 1-4.9 1.2c-.7 0-.4-.5-.4-.5zm-3.2 6.4l2-4.2c.3-.5.8-.7.8-.7s4.6-1.1 5.2-1.3c.6-.2.3.3.3.3s-1.8 4.1-2.1 4.5c-.3.4-.7.5-.7.5s-4.4 1.1-5.1 1.3c-.8.2-.4-.4-.4-.4zm-2.6 8.7s-.6.1-.8-.1c-.2-.2-3.9-4.9-3.9-4.9s-.3-.4.2-.6c.4-.1 4.9-1.3 4.9-1.3s.5-.1.6.1c.1.2 3.7 4.8 3.7 4.8s.5.7-.1.8c-.3.2-4.6 1.2-4.6 1.2zm4.8-.6c-.1-.1.1-.1.1-.1s.3-.1.6-.1c.3-.1.5 0 .5 0s1.4.6 1.7.7c.3.1.6.5.6.5s3 3.8 3.4 4.3c.4.5-.1.3-.1.3s-2.7-1.3-3.2-1.5c-.5-.3-.8-.7-.8-.7s-2.7-3.3-2.8-3.4zm6.3 8.9c-.5-.2-2.6-1.3-2.6-1.3s-.3-.1-.5-.4c-.2-.3-2.9-3.8-2.9-3.8s-.3-.5.3-.2l2.6 1.3s.4.2.7.5c.2.3 2.7 3.6 2.7 3.6s.3.6-.3.3zm4.8 2.4c-.5-.2-3.2-1.5-3.2-1.5s-.3-.1-.5-.4c-.2-.3-3-3.9-3-3.9s-.3-.5.3-.2l3.2 1.6s.4.2.7.5c.2.3 2.8 3.6 2.8 3.6s.3.5-.3.3zm5.5 2.6c-.5-.2-3.7-1.8-3.7-1.8s-.3-.1-.5-.4c-.2-.3-3-3.8-3-3.8s-.3-.5.3-.2l3.2 1.3s.4.2.7.5c.2.3 3.3 4.1 3.3 4.1s.3.6-.3.3zM91 98c-.3.3-4.5 5-4.5 5s-.3.2-.5 0c-.2-.3-3.5-4.3-3.5-4.3s-.3-.4 0-.8c.3-.3 4.5-5 4.5-5s.4-.4.7 0c.2.3 3.2 4.3 3.2 4.3s.4.5.1.8zm5.7-6.5c-.3.3-4.2 4.8-4.2 4.8s-.3.2-.5 0-3.2-4.4-3.2-4.4-.3-.4 0-.8c.3-.3 4.2-4.8 4.2-4.8s.4-.4.7 0c.2.3 3 4.4 3 4.4s.3.5 0 .8zm5.9-6.5c-.3.3-4.1 4.7-4.1 4.7s-.3.2-.5 0c-.2-.3-3.2-4.7-3.2-4.7s-.2-.4.1-.8c.3-.3 4.2-4.6 4.2-4.6s.4-.4.7 0c.2.3 2.8 4.6 2.8 4.6s.3.5 0 .8z" id="path246" fill="#fff"/><g id="g248" fill="#fff"><path class="st1" d="M93.6 126H66.9c-.6 0-1.1.3-1.1.6 0 .4.5.6 1.1.6h26.7c.6 0 1.1-.3 1.1-.6s-.5-.6-1.1-.6z" id="path250"/><path class="st1" d="M90.5 129.6H70c-.6 0-1.1.3-1.1.6s.5.6 1.1.6h20.5c.6 0 1.1-.3 1.1-.6 0-.4-.4-.6-1.1-.6z" id="path252"/></g><g id="text_3_"><g id="g255" fill="#fff"><path class="st1" d="M113.3 79v-.3h-.4v-.5l.4-.4h.9v6.8h-.9V79z" id="path257"/><path class="st1" d="M119.2 84.1c0 .3-.3.6-.6.6h-1.3-.1c-.3 0-.5-.3-.5-.6v-1.5h.9v1.2h.7v-2.2h-1c-.3 0-.6-.3-.6-.6v-2.6c0-.3.3-.5.6-.5h1.3c.3 0 .6.3.6.6v5.6zm-.9-5.3h-.7v2h.7v-2z" id="path259"/><path class="st1" d="M123 78.8h-1.7v-.9h2.6V79l-1.1 5.8h-.9l1.1-6z" id="path261"/><path class="st1" d="M125.9 77.9h.9v3.2h.6v-3.2h.9v3.2h.6v.9h-.6v2.8h-.9V82h-1.5v-4.1z" id="path263"/></g><g id="g265" fill="#fff"><path class="st1" d="M37 84.7h-2.3v-6.8h2.2v.9h-1.3v1.9h.9v.9h-.9v2.3H37v.8z" id="path267"/><path class="st1" d="M40.2 82.6v1.2h.7v-2.2h-1c-.3 0-.6-.3-.6-.6v-2.6c0-.3.2-.6.6-.6h1.3c.3 0 .6.2.6.6v1.4h-.9v-1.1h-.7v2h1c.3 0 .6.3.6.6v2.8c0 .3-.3.6-.6.6h-1.3c-.3 0-.6-.3-.6-.6v-1.5h.9z" id="path269"/><path class="st1" d="M44.8 78.8H44v-.9h2.4v.9h-.8v6h-.9v-6z" id="path271"/><path class="st1" d="M48 83.8h.9v.9H48v-.9z" id="path273"/></g><g id="g275" fill="#fff"><path class="st1" d="M47.2 118.3l1.6 2.2h-1l-1.5-2.2h-.1v2.2h-.8v-5.3h.9c.7 0 1.2.1 1.5.4.3.3.5.7.5 1.2 0 .4-.1.7-.3 1-.1.3-.4.5-.8.5zm-1-.6h.3c.8 0 1.1-.3 1.1-.9 0-.5-.4-.8-1.1-.8h-.3v1.7z" id="path277"/><path class="st1" d="M51.6 115.3v3.2c0 .5.1.8.2 1 .2.3.5.5.9.5s.7-.2.9-.5c.1-.2.2-.5.2-1v-3.2h.9v3.4c0 .6-.2 1-.5 1.4-.4.4-.9.6-1.4.6-.6 0-1-.2-1.4-.6-.3-.4-.5-.8-.5-1.4v-3.4h.7z" id="path279"/><path class="st1" d="M57.1 120.6v-5.3h.8c.4 0 .6 0 .8.1.2.1.4.1.5.3.1.1.3.3.4.5.1.2.1.4.1.6 0 .4-.1.7-.4 1 .3.1.5.3.7.5.2.2.2.5.2.8 0 .4-.1.8-.4 1-.2.2-.4.3-.6.4-.2.1-.5.1-.9.1h-1.2zm.8-3h.2c.3 0 .5-.1.7-.2.1-.1.2-.3.2-.6 0-.2-.1-.4-.2-.6-.1-.1-.3-.2-.6-.2h-.3v1.6zm0 2.2h.5c.4 0 .6-.1.8-.2.2-.2.3-.3.3-.6 0-.2-.1-.4-.3-.6-.2-.2-.5-.2-.9-.2h-.4v1.6z" id="path281"/><path class="st1" d="M63.3 115.3v5.3h-.8v-5.3h.8z" id="path283"/><path class="st1" d="M66.5 117.4l2.1-2.1h1.1l-2.4 2.4 2.4 2.9h-1.1l-1.9-2.3-.2.2v2.2h-.8v-5.3h.8v2z" id="path285"/><path class="st1" d="M72.1 115.1l.7.3-1 2-.5-.2.8-2.1z" id="path287"/><path class="st1" d="M78 116.1l-.6.4c-.1-.2-.2-.3-.3-.4-.1-.1-.3-.1-.4-.1-.2 0-.4.1-.6.2-.1.1-.2.3-.2.5 0 .3.2.5.6.6l.5.2c.4.2.7.4.9.6.2.3.3.6.3.9 0 .5-.2.9-.5 1.2-.3.3-.7.5-1.2.5s-.8-.1-1.1-.4c-.3-.3-.5-.7-.6-1.1l.8-.2c0 .3.1.5.2.6.2.2.4.3.7.3.2 0 .5-.1.6-.3.2-.2.2-.4.2-.6v-.3c0-.1-.1-.2-.1-.2l-.2-.2c-.1-.1-.2-.1-.3-.2l-.5-.2c-.7-.3-1.1-.8-1.1-1.3 0-.4.2-.7.5-1 .3-.3.7-.4 1.1-.4.5 0 1 .3 1.3.9z" id="path289"/><path class="st1" d="M84.4 118.4v2.1h-.8v-5.3h.9c.4 0 .8 0 1 .1l.6.3c.3.3.5.7.5 1.1 0 .5-.2.9-.5 1.1-.3.3-.8.4-1.3.4h-.4zm0-.7h.3c.7 0 1.1-.3 1.1-.8s-.4-.8-1.1-.8h-.3v1.6z" id="path291"/><path class="st1" d="M89.4 115.3v3.2c0 .5.1.8.2 1 .2.3.5.5.9.5s.7-.2.9-.5c.1-.2.2-.5.2-1v-3.2h.8v3.4c0 .6-.2 1-.5 1.4-.4.4-.9.6-1.4.6-.6 0-1-.2-1.4-.6-.3-.4-.5-.8-.5-1.4v-3.4h.8z" id="path293"/><path class="st1" d="M95.9 119.8h2.5v.7h-3.8l2.6-4.5H95v-.7h3.5l-2.6 4.5z" id="path295"/><path class="st1" d="M101.5 119.8h2.5v.7h-3.8l2.6-4.5h-2.2v-.7h3.5l-2.6 4.5z" id="path297"/><path class="st1" d="M106.9 115.3v4.5h1.6v.7h-2.3v-5.3h.7z" id="path299"/><path class="st1" d="M113.3 116.1h-2.1v1.3h2.1v.7h-2.1v1.8h2.1v.7h-2.9v-5.3h2.9v.8z" id="path301"/></g><g id="g303"><g id="g305" fill="#fff"><path class="st1" d="M48.3 33.2h2.9v10.2c1-.1 1.5-.1 2.4-.2V33.1h2.9v21.4c-1.2.1-1.7.2-2.9.4V46c-1 .1-1.5.1-2.4.2v9.1c-1.2.2-1.7.3-2.9.4V33.2z" id="path307"/><path class="st1" d="M59.1 33.2H62v20.9c-1.2.1-1.7.2-2.9.3V33.2z" id="path309"/><path class="st1" d="M64.6 33.2h6.3c1.1 0 1.9.8 1.9 1.7v7.6c0 .9-.9 1.7-1.9 1.7-1.4 0-2.1.1-3.4.1v9.3c-1.2.1-1.7.1-2.9.2v-9.4-11.2zm5.3 2.6h-2.5v5.9c1 0 1.5 0 2.5-.1v-5.8z" id="path311"/><path class="st1" d="M77.7 47.2v3.5h2.5v-6.5h-3.4c-1.1 0-1.9-.8-1.9-1.7v-7.6c0-1 .8-1.7 1.9-1.7h4.4c1.1 0 1.9.7 1.9 1.7v4.2h-2.9v-3.3h-2.5v5.8h3.4c1.1 0 1.9.8 1.9 1.7v8.2c0 .9-.9 1.7-1.9 1.7h-4.4c-1 0-1.9-.7-1.9-1.7v-4.4c1.1.1 1.7.1 2.9.1z" id="path313"/><path class="st1" d="M87.2 35.8h-2.6v-2.6h8.1v2.6h-2.6v17.7c-1.2-.1-1.7-.1-2.9-.1V35.8z" id="path315"/><path class="st1" d="M101.8 54.4c-3-.3-4.5-.4-7.5-.7V33.2h7.3v2.7c-1.7 0-2.6 0-4.4-.1v5.7c1.2 0 1.8.1 3.1.1v2.7c-1.2-.1-1.8-.1-3.1-.1v7c1.8.1 2.7.2 4.6.4v2.8z" id="path317"/><path class="st1" d="M109.4 45.9c-1-.1-1.5-.1-2.4-.2v9.2c-1.2-.2-1.7-.2-2.9-.4V33.1h6c1.1 0 1.9.9 1.9 1.9v7.8c0 .8-1 1.5-1 1.5s1.3 1.2 1.3 2v9.3c-1.2-.2-1.7-.3-2.9-.4v-9.3zm-2.4-3c.8 0 1.3.1 2.1.1v-7H107c-.1 2.8 0 4.2 0 6.9z" id="path319"/></g></g></g></g></svg>