<svg xmlns="http://www.w3.org/2000/svg" width="157653.332" height="170346.667" viewBox="0 0 147.8 159.7"><path class="st0" d="M141.8 17.7H6c-6 0-6 0-6 1v.3l73.9 140.7L147.8 19v-.3c-.1-1-.1-1-6-1zm-68 137.5L2.7 19.7h142.2L73.8 155.2zM55.4 130.5C27.6 123.6 8.3 98.8 8.3 70.1c0-7.7.4-15.8 3.3-23 .2-.6-.1-1.2-.6-1.5-.6-.2-1.2.1-1.5.6-3 7.6-3.4 15.9-3.4 23.8 0 29.7 20.1 55.4 48.8 62.5h.3c.5 0 1-.3 1.1-.8.1-.4-.3-1-.9-1.2zM136.6 45.4c-.6.2-.9.9-.6 1.5 3 7.4 3.4 15.5 3.4 23.3 0 28.4-19.2 53.2-46.6 60.2-.6.2-1 .8-.8 1.4.1.5.6.8 1.1.8h.3c28.4-7.3 48.3-33 48.3-62.4 0-8-.4-16.4-3.5-24.1-.3-.6-1-.9-1.6-.7zM33.3 17c.3 0 .5-.1.7-.3C45.1 7.4 59.3 2.3 73.8 2.3c14.2 0 28.1 4.9 39.1 13.8.5.4 1.2.3 1.6-.2.4-.5.3-1.2-.2-1.6C102.9 5 88.5 0 73.8 0c-15 0-29.7 5.3-41.2 14.9-.5.4-.5 1.1-.1 1.6.2.3.5.5.8.5z"/><g><path class="st0" d="M120.3 48.4c-1-10.9-4-15.4-6.9-19.3-.1-.1-.3-.2-.4-.1-.2.1-.2.3-.2.4 2.5 6 4.8 12 5 17.6l-1.4-1.4c-.2-.1-1.4-1.4-2.8-2.4-.5-2.6-1-4.3-2.9-6.4-.1-.1-.2-.1-.3 0-.1 0-.1.1-.1.2.7 2.2 1.5 4.2 1.5 5.3-2.6-.8-4-.8-5.9-.8-.1 0-.1 0-.1.1s0 .1.1.2c2.3 1.3 6.1 2 6.8 3.9 1.1 2.7 1.8 7.3.3 9.3-1.5 2-5 4-8.8 6.4l-4 7.7v.2c1.2-1.5 2.6-2.8 4.3-4.1 3.9-2.9 6.4-4.5 8.9-5.7 2.1-1 3.8-3.1 5.6-4.2 1.8-1.2 2.8-1.6 3.2-3.5.1-1.1-.6-2.3-1.9-3.4zm-2.4 2.5c-.2.4-.4.8-.8 1-.2.1-.5.1-.7 0-.2-.1-.4-.4-.4-.6-.1-1.4-.6-2.5-1.2-3.8l3 2.7c.1.1.2.4.1.7zM34.8 54.9c-1.5-2-.8-6.7.3-9.3.7-1.9 4.5-2.6 6.8-3.9.1 0 .1-.1.1-.2s-.1-.1-.1-.1c-2 0-3.4 0-5.9.8 0-1.1.8-3.1 1.5-5.3 0-.1 0-.2-.1-.2-.1-.1-.2 0-.3 0-1.9 2.1-2.4 3.8-2.9 6.4-1.4 1-2.6 2.3-2.8 2.4L30 46.9c.2-5.7 2.5-11.6 5-17.6 0-.2 0-.3-.2-.4-.2-.1-.3 0-.4.1-2.9 3.9-5.8 8.4-6.9 19.3-1.3 1.1-2 2.3-1.8 3.3.4 1.9 1.4 2.3 3.2 3.5 1.9 1.2 3.6 3.3 5.6 4.2 2.5 1.2 4.9 2.8 8.9 5.7 1.4 1 2.5 2.1 3.5 3.2L43 60.8c-3.5-2.1-6.8-4-8.2-5.9zm-3-3.6c0 .3-.2.5-.4.6-.2.1-.5.1-.7 0-.4-.2-.7-.6-.8-1-.1-.3 0-.6.2-.7l3-2.7c-.7 1.3-1.2 2.3-1.3 3.8z"/><g><path class="st0" d="M102.4 57.7H45.2l28.6 54.5"/></g></g><g><path class="st0" d="M46.3 32.4h2.5v9h2.1v-9h2.5v19.4h-2.5v-8h-2.1v8h-2.5V32.4zM55.7 32.4h2.5v19.4h-2.5V32.4zM60.4 32.4h5.4c.9 0 1.7.8 1.7 1.7v7.3c0 .9-.8 1.6-1.7 1.6h-2.9v8.8h-2.5V32.4zm4.6 2.5h-2.1v5.6H65v-5.6zM71.6 46v3.4h2.1v-6.3h-2.9c-1 0-1.7-.8-1.7-1.6v-7.4c0-1 .7-1.7 1.7-1.7h3.8c.9 0 1.7.7 1.7 1.6v4.1h-2.5v-3.2h-2.1v5.7h2.9c.9 0 1.7.8 1.7 1.7v8c0 .9-.8 1.6-1.7 1.6h-3.8c-.9 0-1.7-.7-1.7-1.6v-4.2h2.5zM79.9 34.9h-2.2v-2.5h6.9v2.5h-2.2v16.9h-2.5V34.9zM92.4 51.8H86V32.4h6.2v2.5h-3.7v5.4h2.6v2.5h-2.6v6.6h3.9v2.4zM99 43.6h-2.1v8.2h-2.5V32.4h5.1c.9 0 1.7.8 1.7 1.7v6.8c0 .7-.4 1.2-.9 1.4.8.2 1.2.9 1.2 1.6v8H99v-8.3zm-2.2-2.5h1.8v-6.2h-1.8v6.2z"/></g><path class="st3" d="M84.7 80.6h-2.5l-.3-.3h1.7c.2 0 .4-.2.4-.4s-.2-.4-.4-.4h-2.4l-.3-.3h1.7c.2 0 .4-.2.4-.4s-.2-.4-.4-.4h-2.4L74.8 73l7.5-7.5c.1.2.2.5.3.7l.2.9.1.1s.1 0 .1-.1l1.2-4.6v-.1h-.1l-4.4 1.2c-.1 0-.1.1-.1.2s.1.1.1.1l.7.2c.3.1.7.2.9.4l-7.6 7.6-7.5-7.5c.3-.2.6-.3.9-.4l.9-.2.1-.1s0-.1-.1-.1l-4.6-1.2h-.1v.1l1.2 4.4c0 .1.1.1.2.1s.1-.1.1-.1l.2-.7c.1-.3.2-.5.3-.8l7.5 7.5-5.4 5.4H65c-.2 0-.4.2-.4.4s.2.4.4.4h1.7l-.3.3H64c-.2 0-.4.2-.4.4s.2.4.4.4h1.7l-.3.3H63c-.2 0-.4.2-.4.4s.2.4.4.4h2.6v2.6c0 .2.2.4.4.4s.4-.2.4-.4v-2.6l.3-.3v1.7c0 .2.2.4.4.4s.4-.2.4-.4v-2.4l.3-.3v1.7c0 .2.2.4.4.4s.4-.2.4-.4v-2.4l5.4-5.4 5.4 5.4v2.4c0 .2.2.4.4.4s.4-.2.4-.4v-1.7l.3.3v2.4c0 .2.2.4.4.4s.4-.2.4-.4v-1.7l.3.3V84c0 .2.2.4.4.4s.4-.2.4-.4v-2.6H85c.2 0 .4-.2.4-.4-.4-.2-.5-.4-.7-.4z"/></svg>