<svg xmlns="http://www.w3.org/2000/svg" id="Слой_1" viewBox="0 0 143.80174 168" width="143.802" height="168"><style id="style3">.st0{fill:#383433;} .st1{fill:#FFFFFF;} .st2{fill-rule:evenodd;clip-rule:evenodd;fill:#FFFFFF;}</style><g id="g5"><g id="g7"><path class="st0" d="M139 103.6c0 29.9-57.5 54.8-59.9 55.8-2.9 1.2-5.1 2.2-6.2 2.6l-.3.3h-1.3c0-.2-.1-.3-.3-.4-1-.4-3.2-1.4-6.2-2.7-2.4-1-59.9-25.9-59.9-55.8v-90c0-4.4 3.6-7.9 7.9-7.9H131c4.4 0 7.9 3.5 7.9 7.9v90.2z" id="path9" fill="#383433"/><g id="g11"><path class="st0" d="M134.5 0H9.4C4.2 0 0 4.2 0 9.4v95.3c0 32.4 61.4 58.9 64 60 2.8 1.2 5.1 2.2 6.2 2.7v.1c0 .3.2.5.5.5H73.1c.3 0 .5-.2.5-.5 1.2-.5 3.4-1.5 6.2-2.7 2.6-1.1 64-27.7 64-60V9.4c.1-5.2-4.1-9.4-9.3-9.4zm8.4 104.7c0 31.7-60.8 58-63.4 59.1-3 1.3-5.4 2.3-6.5 2.8-.2.1-.3.2-.3.4h-1.4c0-.2-.1-.3-.3-.4-1-.5-3.4-1.5-6.5-2.8-2.6-1.1-63.4-27.4-63.4-59.1V9.4C1.1 4.8 4.9 1 9.5 1h125.1c4.6 0 8.4 3.8 8.4 8.4v95.3z" id="path13" fill="#383433"/></g></g><path class="st1" d="M39.6 82.3h64.1c3.8 0 6.8-3 6.8-6.8V28.7c0-3.8-3.1-6.8-6.8-6.8H39.6c-3.8 0-6.8 3.1-6.8 6.8v46.8c0 3.7 3 6.8 6.8 6.8zm-1.9-53.6c0-1 .8-1.8 1.8-1.8h64.1c1 0 1.8.8 1.8 1.8v46.8c0 1-.8 1.8-1.8 1.8h-64c-1 0-1.8-.8-1.8-1.8V28.7zm69.2 55.9H37.2c-2.3 0-4.3 1.9-4.3 4.3 0 2.3 1.9 4.3 4.3 4.3h69.7c2.4 0 4.3-1.9 4.3-4.3-.1-2.4-2-4.3-4.3-4.3zm-67.4 6.2c-1 0-1.9-.8-1.9-1.9 0-1 .8-1.9 1.9-1.9 1 0 1.9.8 1.9 1.9-.1 1-.9 1.9-1.9 1.9zm6 0c-1 0-1.9-.8-1.9-1.9 0-1 .8-1.9 1.9-1.9 1 0 1.9.8 1.9 1.9 0 1-.9 1.9-1.9 1.9z" id="path15" fill="#fff"/><g id="g17"><g id="g19"><path class="st2" d="M123.6 109.6c0 .4-.2.6-.5.6H91.4c-.3 0-.5-.3-.5-.6 0-.4.2-.6.5-.6h31.7c.2 0 .5.3.5.6z" id="path21" clip-rule="evenodd" fill="#fff" fill-rule="evenodd"/></g><g id="g23"><path class="st2" d="M20.3 109.6c0 .4.2.6.5.6h31.7c.3 0 .5-.3.5-.6 0-.4-.2-.6-.5-.6H20.8c-.2 0-.5.3-.5.6z" id="path25" clip-rule="evenodd" fill="#fff" fill-rule="evenodd"/></g></g><g id="text_37_" fill="#fff"><g id="g28"><path class="st1" d="M66.4 124.3c-.4-.7-1.4-.6-2.2.8l-5 8.7h-1.5l2.7-4.7h-2.3l-1 1.7c-4.5 7.8-12.3 2.9-9.5-1.8 1-1.7 2.5-1.8 2.5-1.8l.3 1.1s-1.1.3-1.7 1.3c-2 3.4 3.7 6.6 7.2.5l3.1-5.3c-1.6.8-4.2.9-4.9 2.1-.7 1.3.6 1.8.6 1.8l-.6 1c-1-.4-2.2-1.6-1.2-3.3 1.2-2.2 4.6-1.4 7.2-3.5l.8 1.3-2.4 4.2h2.3l2.2-3.7c1.9-3.2 5-1.7 5 .2 0 .5-.4.9-.9.9s-.9-.4-.9-.9c0-.3.1-.4.2-.6zm.4 6.3c.2.1.5.3.6.5-1.3 1.5-2.7 2.8-3.9 2.8-1.2 0-1.7-1-1-2.2l3-5.3H67l-3.2 5.7c-.3.6-.2.8.2.8.7 0 1.7-1 2.8-2.3z" id="path30"/><path class="st1" d="M63.1 137l6-10.5h1.5l-.3.5c1.5-1.4 3.8-.6 2.4 1.8l-1.7 2.9c-.2.3-.4.7-.6 1.1.9-.3 1.9-1.1 2.8-2.1l.1-.1c.2.1.5.3.6.5-1.2 1.4-2.7 2.8-4.9 2.8h-.1c-1.4 0-1.7-1.2-1.7-1.2l.9-.4c.3.6.8.4 1.1 0l2.3-4c.4-.7-.7-1.5-2.4.8l-4.5 7.9h-1.5z" id="path32"/><path class="st1" d="M72.7 132.7l.9-.5s.2.6.7.6c1.4 0 1.1-2.8 1.7-4.4-.5.7-1.3 1.8-2.2 2.8-.2-.1-.4-.3-.6-.5 1.4-1.6 2.7-3.6 3.4-4.4l1.1.6c-.9 1.9-.8 4.1-1.3 5.6.6-.4 1.3-1 1.8-1.6l.1-.1c.2.1.5.3.6.5-1.1 1.3-2.7 2.5-4.2 2.8h-.4c-1.3-.2-1.6-1.4-1.6-1.4z" id="path34"/><path class="st1" d="M79.9 125.8h1.4l1.4-2.5h1.5l-1.4 2.5h1.3l-.4.7h-1.2l-3.2 5.7c-.3.6-.2.8.2.8.7 0 1.7-1 2.8-2.3l.1-.1c.2.1.5.3.6.5-1.3 1.5-2.7 2.8-3.9 2.8-1.2 0-1.7-1-1-2.2l3-5.3h-1.7l.5-.6z" id="path36"/><path class="st1" d="M83.5 130.9l-.1.3c-.7 1.2-.1 1.8.8 1.8 1.1 0 2.5-1 3.6-2.3l.1-.1c.2.1.5.3.6.5-1.3 1.5-3 2.8-4.7 2.8-1.8 0-2.6-1.5-1.7-3.1l1.6-2.7c.6-1.1 1.6-1.7 2.8-1.7 1.2 0 2 1 1.2 2.4l-.2.4c-1.2 1.9-3 2.1-4 1.7zm.5-.7c.6.2 1.5.2 2.3-1l.2-.4c.9-1.6-.6-1.8-1.5-.3l-1 1.7z" id="path38"/><path class="st1" d="M91.2 129c.2-.3.1-.6-.1-.9l-.2-.2c-1.2 1.6-1.8 2.4-2.5 3.2-.2-.1-.4-.3-.6-.5 1-1.2 1.9-2.4 2.6-3.4l-.1-.2c-.5-.7-.5-1.6.4-2.3l.8.9c-.3.3-.3.6-.1.9l.8 1c.5.6.7 1.1.2 2.1l-1.5 2.7c-.3.6-.2.8.2.8.7 0 1.7-1 2.8-2.3l.1-.1c.2.1.5.3.6.5-1.3 1.5-2.7 2.8-3.9 2.8-1.2 0-1.7-1-1-2.2l1.5-2.8z" id="path40"/><path class="st1" d="M62.7 139.5v1.3c-.2-.3-.4-.5-.6-.6-.2-.1-.4-.2-.6-.2-.4 0-.7.1-.9.4-.2.3-.4.6-.4 1s.1.7.4 1c.2.3.5.4.9.4.2 0 .4-.1.6-.2.2-.1.4-.3.6-.6v1.3c-.4.2-.8.3-1.2.3-.7 0-1.2-.2-1.7-.6-.4-.4-.7-1-.7-1.6 0-.6.2-1.2.7-1.6.4-.4 1-.7 1.7-.7.4.1.8.2 1.2.4z" id="path42"/><path class="st1" d="M63.4 141.4c0-.6.2-1.1.7-1.6.4-.4 1-.6 1.6-.6.6 0 1.2.2 1.6.7.4.4.7 1 .7 1.6 0 .6-.2 1.2-.7 1.6-.4.4-1 .6-1.6.6-.6 0-1.2-.2-1.6-.7-.4-.4-.7-1-.7-1.6zm1 0c0 .4.1.8.3 1 .2.3.5.4.9.4s.7-.1.9-.4c.2-.2.3-.6.3-1s-.1-.7-.3-1c-.2-.3-.5-.4-.9-.4s-.7.1-.9.4c-.1.3-.3.6-.3 1z" id="path44"/><path class="st1" d="M72.2 136.1h1v7.4h-1v-.4c-.4.4-.8.6-1.3.6-.6 0-1.1-.2-1.5-.6-.4-.4-.6-1-.6-1.6 0-.6.2-1.2.6-1.6.4-.4.9-.6 1.4-.6.5 0 .9.2 1.3.6v-3.8zm-2.4 5.3c0 .4.1.7.3 1 .2.3.5.4.8.4.4 0 .7-.1.9-.4.2-.3.3-.6.3-1s-.1-.7-.3-1c-.2-.3-.5-.4-.9-.4-.3 0-.6.1-.8.4-.2.3-.3.6-.3 1z" id="path46"/><path class="st1" d="M74.2 137.5c0-.2.1-.3.2-.4.1-.1.3-.2.5-.2s.3.1.5.2c.1.1.2.3.2.5s-.1.3-.2.5c-.1.1-.3.2-.5.2s-.3-.1-.5-.2c-.1-.3-.2-.4-.2-.6zm1.2 1.8v4.3h-1v-4.3h1z" id="path48"/><path class="st1" d="M76.6 139.3h1v.4c.3-.3.7-.5 1.2-.5s.9.2 1.2.5c.2.3.4.7.4 1.3v2.6h-1v-2.4c0-.4-.1-.7-.2-.9-.1-.2-.3-.2-.6-.2s-.6.1-.7.3c-.1.2-.2.6-.2 1.1v2.1h-1v-4.3z" id="path50"/><path class="st1" d="M85.7 143.4v.5c0 .2 0 .3-.1.4-.1.3-.2.6-.4.8-.4.4-.9.7-1.6.7-.6 0-1-.2-1.4-.5-.4-.3-.6-.8-.7-1.3h1c0 .2.1.4.2.5.2.3.5.4.9.4.7 0 1.1-.4 1.1-1.3v-.6c-.4.4-.8.6-1.4.6-.6 0-1.1-.2-1.4-.6-.4-.4-.6-1-.6-1.6 0-.6.2-1.1.5-1.6.4-.5.9-.7 1.5-.7.5 0 1 .2 1.3.6v-.5h1v4.2zm-1-2c0-.4-.1-.7-.3-1-.2-.3-.5-.4-.9-.4s-.7.1-.9.4c-.2.2-.3.6-.3 1s.1.7.3 1c.2.3.5.4.9.4s.7-.1.9-.4c.2-.3.3-.6.3-1z" id="path52"/></g><g id="g54"><path class="st1" d="M53 37.4h1.5v11.1H53V37.4z" id="path56"/><path class="st1" d="M59.2 37.4h1.4l1.5 4.4c.4 1.2.8 2.6 1.1 4-.1-.9-.2-1.6-.3-2.3-.1-.7-.1-1.3-.1-2v-4.1h1.6v11.1H63l-1.7-5c-.2-.5-.3-.9-.4-1.4-.1-.5-.3-1-.4-1.5v-.2c0-.1 0-.2-.1-.3v.5l.1 1.1.1 1.4v.7l.1 4.8h-1.5V37.4z" id="path58"/><path class="st1" d="M66.1 37.4h4v1.3h-2.5v3.5h2.2v1.3h-2.2v3.8h2.5v1.3h-4V37.4z" id="path60"/><path class="st1" d="M71.4 37.4h4v1.3h-2.5v3.5h2.2v1.3h-2.2v3.8h2.5v1.3h-4V37.4z" id="path62"/><path class="st1" d="M76.8 37.4h1.8c.6 0 1 .1 1.4.2.4.1.7.3.9.6.4.5.7 1.1.9 1.8.2.7.3 1.7.3 3.1 0 1.2-.1 2.2-.3 3-.2.7-.5 1.3-.9 1.7-.5.5-1.5.7-2.9.7h-1.2V37.4zm1.5 9.8c.9 0 1.5-.3 1.8-.8.3-.6.5-1.6.5-3.2 0-1.7-.2-2.9-.5-3.5-.3-.6-.9-1-1.7-1h-.2v8.5z" id="path64"/><path class="st1" d="M88.2 37.4h1.2l2.4 11.1h-1.5l-.4-2.2h-2.2l-.4 2.2h-1.4l2.3-11.1zm1.5 7.8l-.3-1.8c-.2-1.2-.4-2.5-.5-3.8-.1.7-.2 1.3-.3 2-.1.7-.2 1.4-.4 2.2l-.3 1.4h1.8z" id="path66"/><path class="st1" d="M62.4 54.7V56L58 58.1l4.4 2.1v1.3l-5.8-2.8v-1.1l5.8-2.9z" id="path68"/><path class="st1" d="M65.3 51.9v4.8c.5-.5 1.1-.8 1.8-.8.8 0 1.4.3 1.9.8.5.6.8 1.3.8 2.1 0 .9-.3 1.6-.8 2.1-.5.6-1.1.8-1.9.8-.6 0-1.2-.2-1.7-.7v.6h-1.3v-9.7h1.2zm3.1 7c0-.5-.1-1-.4-1.3-.3-.3-.7-.5-1.1-.5-.5 0-.9.2-1.2.5-.3.3-.4.8-.4 1.3s.1 1 .4 1.3c.3.3.7.5 1.1.5.4 0 .8-.2 1.1-.5.3-.4.5-.8.5-1.3z" id="path70"/><path class="st1" d="M71 56h1.3v.5c.2-.2.4-.4.6-.5.2-.1.4-.1.7-.1.3 0 .7.1 1.1.3l-.6 1.2c-.2-.2-.5-.3-.7-.3-.7 0-1.1.5-1.1 1.6v2.9H71V56z" id="path72"/><path class="st1" d="M79.6 52.8l1.1.5L75.6 65l-1-.4 5-11.8z" id="path74"/><path class="st1" d="M81.5 61.5v-1.3l4.3-2.1-4.3-2.1v-1.3l5.8 2.8v1.1l-5.8 2.9z" id="path76"/></g></g><path class="st1" d="M77.5 103.3s.2-1.2.3-1.6c.8-.4 2-.7 3.2 0 .8.4 1.2 1.2 1.3 2.1.1 1.1-.4 2.2-1.4 3.1-1.2 1.1-3.4 2-5 2.5.3-.5.5-1.1.7-1.5 1.3-.5 2.7-1.2 3.5-1.9.7-.6 1-1.3 1-2 0-.5-.3-.9-.7-1.2-1.3-.7-2.9.5-2.9.5zm-10.3 7.4H74c1.7-1.2 2.2-3.2 2.4-4 .3-1.1.9-4.7 1-5.7H63.7c.2 1 .8 4.7 1 5.7.3.9.8 2.8 2.5 4zm9.7 2.4c2.9-.5 4.8-1.3 5.8-1.9h-24c1 .5 2.9 1.3 5.8 1.9h12.4zm-.1.5H64.6c.3.4.6 1 .7 1.1h10.8c.1-.1.5-.7.7-1.1z" id="path78" fill="#fff"/></g></svg>