<svg xmlns="http://www.w3.org/2000/svg" viewBox="0 0 159.61694 159.50763" height="170141.473" width="170258.067"><path d="M115.208 102.2c-4.9 5.4-12.2 5.6-19.1 4.9 1.9-5 3.3-10.3 4-15.9 4.1-3.5 7.7-7.1 11-11.4 3.4 4.6 6.2 9.5 6.4 15.4.4 0 .8.2 1.1.2-.2-6.4-3.3-11.7-6.8-16.6 1.2-1.8 2.4-3.6 3.4-5.5 2.8-5.7 4.4-13 0-18.3-4.9-5.2-12.7-5.6-19.8-4.7-2.2-5-5.5-10.2-10.7-12.9-3.9-2.2-9.4-1.5-12.9 1.3l.8.8c1.8-1.4 3.9-2.2 6.2-2.3 7.5-.2 12.5 7.1 15.3 13.1v.3c-5.2.9-10.4 2.5-15.2 4.6-4.8-1.7-9.5-3.2-14.7-3.9l-.2-.2c1-2.3 2.2-4.6 3.7-6.7l-.8-.8c-1.7 2.4-2.9 4.9-4.1 7.4-.5 0-.9-.1-1.3-.2-7-.5-16.3.2-20.1 7.4-3.4 7.8 1 15.5 5.4 21.6l-2 3.1 1 .5 1.6-2.5.2-.1c3.3 4 6.7 7.4 10.7 10.6.8 5.6 2.1 10.9 4.2 15.9v.2c-6.2.7-13 .8-17.9-4-3.6-3.5-3.3-9.6-1.7-13.9-.4-.1-.7-.2-1-.5-1.4 4.2-2 9.5.6 13.5 4.3 6.2 12.2 6.8 19.5 6.1.4 0 .9-.3 1.1 0 .6 1.3 1.3 2.7 1.9 3.7 2 3.5 4.7 7.2 8.4 9.2 3.6 2.2 9.1 1.9 12.4-.6 4.8-3.1 7.6-8.3 9.9-13.1 6.9.7 16 .6 20.8-6-.4.4-1.1-.7-1.3.3zm-14.8-12.8c.6-6.3.8-13.8-.1-20.3 3.7 2.9 7.1 6.2 10 9.8-2.8 3.9-6.2 7.4-9.9 10.5zm13.5-34c.9 1 1.6 2 2.1 3.2 2.3 6-.5 12-3.3 16.9l-1.5 2.3h-.1c-3.2-4-6.9-7.4-10.8-10.5-.9-5.3-2.1-10.8-4.3-15.9 6.2-.7 13.2-.5 17.9 4zm-19.3-3.7c2 4.6 3.2 9.5 4.1 14.6-.5-.2-.9-.6-1.4-.9-5.3-3.7-11-7-16.9-9.5 4.5-2 9.3-3.4 14.2-4.2zm-31 .6c4.7.7 9.2 1.9 13.6 3.6-6.1 3-12 6.5-17.5 10.8.7-5.1 2-9.8 3.9-14.4zm-5.7 37.5c-3.2-2.8-6.9-6.2-9.6-9.7 2.8-3.7 6.2-7.3 9.7-10.4-.7 6.5-.7 13.7 0 20.2l-.1-.1zm.4-21.9c-4 3.3-7.7 7.2-10.7 11.2h-.1c-3.6-5.4-7.3-11.2-5.8-18.2 1-4.6 5.8-7.4 10.1-8.3 3.2-.7 7.1-.8 10.5-.4v.3c-2 4.8-3.2 10-4 15.4zm1.1.6c5.9-4.8 12.5-8.9 19.4-12 7.1 2.8 13.9 6.7 20.2 11.4l.1.3c1 7.2.9 15.8 0 22.3-6 5-12.6 9-19.5 12.1-7.3-2.9-13.9-6.8-20.2-11.8-1-6.7-1-15.2 0-22.3zm.3 24.2c2.4 1.6 4.9 3.5 7.4 5 3.5 2.1 7.1 4 10.9 5.6v.1c-4.6 1.8-9.4 3.4-14.2 4.2-2-4.6-3.4-9.9-4.1-14.9zm34.7 15.6c-2.8 6.4-8 14.2-16 13.9-6.7-.6-11.5-7.7-14.2-13.5 5.4-1 10.5-2.6 15.3-4.7 4.8 1.8 9.6 3.4 14.8 4.1v.2zm.6-1.4c-4.7-.6-9.4-1.9-13.8-3.6 6.2-2.9 12.1-6.6 17.6-10.9-.7 4.9-1.9 9.9-3.8 14.5zm-27.5-65.8c.2-.5.4-1.1 1-1.4 1-.5 2-.5 2.8.3.5.5.6 1.1.6 1.8-.1.6-.5 1.3-1.1 1.7-.7.5-1.7.3-2.3-.1-.7-.6-1.1-1.4-1-2.3zm11.7 44.7c-2 0-3.9-1.2-5-2.9-1.2-2.1-1.1-4.2-.1-6.2 1.3-2.2 3.7-3.3 6.2-3 1.5.3 2.9 1.2 4 2.5 1.2 1.7 1.3 3.9.6 5.9-1 2.3-3.5 3.8-5.7 3.7zm-37.3 1.8c-.4-.7-.4-1.7.1-2.4.4-.5 1-.8 1.5-.9.9 0 1.8.5 2.2 1.3.4.9.1 1.9-.5 2.5-.5.5-1.2.6-1.8.6-.6-.1-1.2-.6-1.5-1.1zm77.5 11.5c-.1.6-.6 1.3-1.2 1.6-.7.4-1.7.2-2.3-.2-.6-.5-.7-1.1-.9-1.7.1-.9.6-1.9 1.6-2.2.8-.3 1.8 0 2.3.7.4.5.6 1.1.5 1.8z" class="st0"/><path d="M159.508 83.5c0 1-.8 1.7-1.8 1.6-.9-.1-1.7-.9-1.6-1.8 0-.9.8-1.6 1.8-1.6.9.1 1.6.9 1.6 1.8zm-1.9 3.6c-.9-.1-1.7.6-1.9 1.5-.1.9.5 1.7 1.4 1.9.9.1 1.8-.5 1.9-1.5.3-.9-.4-1.8-1.4-1.9zm-.7 5.4c-.9-.1-1.8.5-1.9 1.4-.1.9.5 1.8 1.4 2 .9.2 1.8-.4 1.9-1.3.1-1.1-.5-2-1.4-2.1zm-1.1 5.3c-.9-.2-1.8.3-2.1 1.2-.2.9.3 1.8 1.2 2.1.9.3 1.8-.3 2.1-1.2.3-1-.3-1.9-1.2-2.1zm-1.3 5.2c-.9-.3-1.9.2-2.2 1-.3.8.1 1.8 1 2.1.9.3 1.9-.2 2.2-1 .3-.9-.1-1.8-1-2.1zm-1.9 5.1c-.9-.3-1.8.1-2.1.9-.3.9 0 1.8.9 2.2.8.4 1.9 0 2.2-.9.3-.9-.1-1.9-1-2.2zm-2.1 4.9c-.8-.4-1.8-.1-2.2.8-.4.8 0 1.8.8 2.3.8.4 1.8.1 2.2-.8.4-.9 0-1.9-.8-2.3zm-2.4 4.8c-.8-.5-1.9-.2-2.3.6-.5.8-.2 1.8.6 2.3.8.5 1.8.2 2.3-.6.4-.8.2-1.8-.6-2.3zm-2.8 4.6c-.8-.5-1.8-.3-2.3.5-.5.7-.4 1.8.4 2.3.8.5 1.8.4 2.4-.4.5-.8.2-1.9-.5-2.4zm-3.2 4.4c-.7-.6-1.8-.4-2.3.3-.5.7-.4 1.8.3 2.4.7.6 1.8.5 2.3-.3.6-.8.5-1.8-.3-2.4zm-5.8 4.3c-.6.7-.6 1.7.1 2.4.7.6 1.7.6 2.4-.1.6-.7.6-1.8-.1-2.4-.7-.6-1.7-.6-2.4.1zm-3.6 3.8c-.7.6-.7 1.7-.1 2.4s1.7.7 2.4.1.7-1.7.1-2.4c-.7-.7-1.7-.7-2.4-.1zm-3.9 3.6c-.7.6-.8 1.6-.2 2.3.6.7 1.7.9 2.4.3.7-.6.8-1.7.2-2.4-.7-.8-1.8-.8-2.4-.2zm-4.2 3.2c-.7.5-.9 1.6-.4 2.4.5.8 1.6.9 2.3.4.8-.6.9-1.6.4-2.4-.6-.8-1.6-1-2.3-.4zm-4.4 2.9c-.8.5-1 1.5-.5 2.3.5.8 1.5 1.1 2.3.6.8-.5 1.1-1.5.5-2.3-.5-.8-1.5-1.1-2.3-.6zm-4.5 2.7c-.8.4-1.1 1.4-.7 2.2.4.8 1.5 1.2 2.3.8.9-.4 1.1-1.5.7-2.3-.6-.9-1.5-1.1-2.3-.7zm-4.8 2.3c-.8.4-1.2 1.4-.8 2.3.4.9 1.4 1.2 2.2.8.9-.4 1.2-1.4.8-2.3-.4-.9-1.4-1.2-2.2-.8zm-4.9 1.9c-.9.3-1.3 1.3-1 2.2.3.9 1.3 1.3 2.2 1 .9-.3 1.3-1.3 1-2.2-.4-.8-1.4-1.3-2.2-1zm-5 1.7c-.9.2-1.4 1.1-1.2 2 .2.9 1.2 1.4 2.1 1.2.9-.2 1.4-1.2 1.2-2-.3-.9-1.2-1.5-2.1-1.2zm-5.1 1.3c-.9.3-1.5 1-1.3 2 .2.9 1.1 1.6 2 1.3.9-.2 1.5-1.2 1.3-2.1-.3-.9-1.1-1.4-2-1.2zm-5.2.8c-.9.1-1.5 1-1.4 1.9.1.9 1 1.6 1.9 1.4.9-.1 1.6-1 1.4-1.9-.2-.9-1-1.5-1.9-1.4zm-5.3.6c-.9 0-1.6.8-1.6 1.8 0 .9.9 1.7 1.8 1.6 1 0 1.7-.8 1.6-1.8-.1-.9-.9-1.6-1.8-1.6zm-5.2.3c-.9 0-1.7.7-1.7 1.6 0 .9.7 1.8 1.7 1.7 1 0 1.7-.8 1.7-1.8-.1-.8-.8-1.6-1.7-1.5zm-5.3-.2c-.9 0-1.7.7-1.8 1.6-.1.9.6 1.7 1.6 1.8 1 0 1.8-.7 1.8-1.6 0-1-.7-1.8-1.6-1.8zm-5.3-.6c-.9-.1-1.7.5-1.9 1.4-.1.9.5 1.8 1.4 1.9.9.1 1.8-.5 1.9-1.4.2-.8-.5-1.7-1.4-1.9zm-5.2-.7c-.9-.2-1.8.3-2 1.2-.2.9.4 1.8 1.3 2.1.9.1 1.8-.5 2-1.4.2-1-.4-1.8-1.3-1.9zm-5.1-1.4c-.9-.2-1.8.3-2.1 1.2-.3.9.3 1.8 1.2 2 .9.2 1.9-.3 2.1-1.2.2-.8-.3-1.7-1.2-2zm-5-1.6c-.9-.3-1.8.1-2.1 1-.3.9.1 1.8 1 2.2.9.3 1.9-.1 2.2-1 .2-.9-.3-1.8-1.1-2.2zm-5-1.8c-.8-.4-1.8 0-2.2.8-.4.8 0 1.9.8 2.3.8.4 1.9 0 2.2-.9.5-.9.1-1.8-.8-2.2zm-4.7-2.3c-.8-.4-1.8-.1-2.3.7-.5.8-.1 1.8.7 2.3.9.4 1.9.1 2.3-.8.4-.8.1-1.8-.7-2.2zm-4.6-2.7c-.8-.5-1.8-.2-2.3.6-.5.8-.3 1.8.6 2.3.8.5 1.9.2 2.3-.6.4-.8.2-1.8-.6-2.3zm-4.4-2.8c-.7-.5-1.8-.4-2.3.4-.6.7-.4 1.8.4 2.4.8.6 1.8.4 2.3-.4.5-.8.3-1.9-.4-2.4zm-4.2-3.2c-.7-.6-1.7-.5-2.3.2-.6.7-.5 1.8.2 2.4.8.6 1.8.4 2.4-.3.5-.7.4-1.8-.3-2.3zm-6.4-3.4c-.7.7-.6 1.7.1 2.4.7.6 1.8.6 2.4-.1.6-.7.6-1.8-.1-2.4-.6-.7-1.7-.6-2.4.1zm-3.6-4c-.7.6-.7 1.7-.1 2.4s1.7.8 2.4.1c.7-.7.7-1.7.1-2.4-.7-.7-1.7-.7-2.4-.1zm-3.5-4.1c-.7.6-.9 1.6-.3 2.4.5.8 1.7.8 2.4.2.7-.6.8-1.6.2-2.4-.5-.7-1.5-.8-2.3-.2zm-.8-4c-.6-.7-1.6-.9-2.4-.4-.8.5-1 1.6-.4 2.3.6.8 1.6.9 2.4.4.8-.5.9-1.6.4-2.3zm-2.8-4.4c-.5-.8-1.5-1-2.3-.6-.8.5-1.1 1.5-.6 2.3.5.8 1.5 1.1 2.3.6.8-.5 1-1.6.6-2.3zm-2.6-4.6c-.4-.8-1.4-1.2-2.2-.8-.8.4-1.2 1.4-.8 2.3.4.9 1.4 1.2 2.2.8.8-.5 1.2-1.5.8-2.3zm-2.3-4.8c-.3-.8-1.3-1.3-2.1-.9-.9.3-1.3 1.4-1 2.2.4.9 1.4 1.2 2.3.9.8-.4 1.2-1.4.8-2.2zm-1.8-4.9c-.3-.9-1.3-1.3-2.2-1-.9.3-1.3 1.2-1 2.1.3.9 1.3 1.4 2.2 1 .8-.3 1.3-1.3 1-2.1zm-2.8-3c.9-.3 1.4-1.2 1.2-2.1-.2-.9-1.1-1.4-2.1-1.2-.9.2-1.4 1.1-1.2 2.1.3.9 1.2 1.4 2.1 1.2zm-1.3-5.2c.9-.2 1.4-1.1 1.3-2-.1-.9-1-1.5-1.9-1.3-.9.2-1.5 1-1.4 2 .1.9 1.1 1.5 2 1.3zm-.9-5.4c.9-.1 1.6-1 1.4-1.9-.1-.9-1-1.5-1.9-1.5-.9.1-1.6.9-1.4 1.9.1 1 1 1.7 1.9 1.5zm-.6-5.3c.9-.1 1.6-.9 1.6-1.8s-.8-1.6-1.8-1.6c-.9 0-1.7.8-1.6 1.8 0 1 .8 1.7 1.8 1.6zm-.3-5.4c.9 0 1.6-.8 1.7-1.7 0-.9-.7-1.7-1.6-1.7-.9 0-1.7.7-1.8 1.7-.1.9.7 1.7 1.7 1.7zm.2-5.4c.9.1 1.7-.6 1.8-1.5 0-.9-.7-1.7-1.6-1.8-.9-.1-1.7.6-1.8 1.5-.1.9.7 1.8 1.6 1.8zm.5-5.4c.9.1 1.8-.5 1.9-1.4.1-.9-.5-1.8-1.4-1.9-.9-.2-1.8.5-1.9 1.4-.2 1 .4 1.8 1.4 1.9zm.8-5.3c.9.2 1.8-.4 2-1.3.2-.9-.3-1.8-1.2-2-.9-.2-1.8.3-2.1 1.3-.2.9.3 1.8 1.3 2zm1.3-5.2c.9.2 1.8-.3 2-1.2.2-.9-.2-1.8-1.1-2.1-.9-.3-1.9.2-2.1 1.1-.2 1 .3 1.9 1.2 2.2zm1.6-5.2c.9.3 1.9-.1 2.2-1 .3-.9-.1-1.8-1-2.2-.9-.3-1.8.1-2.2 1-.3.9.1 1.9 1 2.2zm1.9-5c.9.4 1.9 0 2.3-.8.4-.8 0-1.8-.8-2.2-.8-.4-1.9 0-2.3.8-.4.8-.1 1.8.8 2.2zm2.3-4.9c.8.4 1.8.1 2.2-.7.5-.8.2-1.8-.6-2.3-.8-.5-1.9-.2-2.4.6-.3.9 0 2 .8 2.4zm2.7-4.7c.8.5 1.8.2 2.3-.5.5-.8.2-1.8-.6-2.3-.8-.5-1.8-.3-2.3.5-.5.8-.2 1.8.6 2.3zm2.9-4.5c.8.5 1.8.4 2.4-.3.5-.7.4-1.8-.4-2.4-.7-.6-1.8-.4-2.4.3-.5.8-.4 1.9.4 2.4zm3.2-4.3c.7.6 1.7.5 2.4-.2.6-.7.5-1.7-.2-2.3-.7-.6-1.8-.6-2.4.2-.6.6-.5 1.7.2 2.3zm6-4.1c.6-.7.6-1.7 0-2.4-.7-.7-1.8-.7-2.4 0-.6.7-.6 1.8.1 2.4.7.6 1.7.6 2.3 0zm3.8-3.6c.7-.6.7-1.7.1-2.4s-1.7-.8-2.4-.1c-.7.6-.8 1.7-.1 2.4.7.6 1.7.7 2.4.1zm4.4-5.8c-.6-.8-1.6-.9-2.4-.3-.8.6-.9 1.6-.3 2.3.6.7 1.7.9 2.4.3.7-.5.8-1.5.3-2.3zm4.4-3.1c-.5-.8-1.6-1-2.4-.5-.8.5-1 1.6-.4 2.4.5.8 1.6.9 2.3.4.8-.5 1-1.5.5-2.3zm4.6-2.8c-.4-.8-1.5-1.1-2.3-.6-.8.5-1.1 1.5-.6 2.3.5.8 1.5 1.1 2.3.6.8-.4 1.1-1.4.6-2.3zm4.9-2.3c-.4-.8-1.4-1.2-2.3-.8-.9.4-1.2 1.4-.8 2.3.4.8 1.4 1.2 2.3.8.8-.5 1.1-1.5.8-2.3zm4.9-2.1c-.3-.9-1.3-1.3-2.2-1-.9.3-1.3 1.3-.9 2.2.4.8 1.3 1.2 2.2.9.8-.3 1.3-1.2.9-2.1zm5.1-1.8c-.3-.9-1.2-1.4-2.1-1.1-.9.3-1.4 1.3-1.1 2.2.3.9 1.3 1.3 2.1 1 .9-.3 1.4-1.2 1.1-2.1zm5.2-1.3c-.2-.9-1.1-1.5-2-1.2-.9.2-1.5 1.2-1.2 2.1.3.9 1.2 1.4 2 1.2.9-.3 1.4-1.2 1.2-2.1zm5.3-1c-.1-.9-1-1.6-2-1.4-1 .2-1.6 1-1.4 1.9.2.9 1.1 1.5 2 1.4 1-.1 1.6-1 1.4-1.9zm3.5-2.3c-.9.1-1.6 1-1.5 1.9.1.9 1 1.6 1.8 1.4.9-.1 1.6-.9 1.5-1.8 0-.8-.8-1.6-1.8-1.5zm5.5-.3c-1 0-1.7.8-1.6 1.8.1.9.8 1.7 1.7 1.6.9 0 1.6-.8 1.6-1.8.1-.9-.7-1.6-1.7-1.6zm5.5 0c-1 0-1.7.7-1.7 1.6 0 .9.7 1.7 1.6 1.8.9 0 1.7-.7 1.7-1.6.1-1-.6-1.8-1.6-1.8zm5.5.3c-1 0-1.8.7-1.8 1.6-.1.9.6 1.7 1.5 1.8.9.1 1.7-.5 1.8-1.5.2-.9-.5-1.9-1.5-1.9zm5.5.8c-.9-.1-1.8.5-1.9 1.4-.1.9.5 1.8 1.4 1.9.9.1 1.8-.5 1.9-1.4.2-.9-.5-1.8-1.4-1.9zm5.4 1.1c-.9-.2-1.8.3-2 1.2-.2.9.4 1.8 1.2 2.1.9.2 1.8-.3 2-1.2.3-1-.3-1.9-1.2-2.1zm5.3 1.4c-.9-.3-1.9.3-2.1 1.2-.3.9.3 1.8 1.1 2.1.8.3 1.8-.1 2.1-1 .3-1-.2-2-1.1-2.3zm5.2 1.9c-.9-.3-1.9.1-2.2 1-.3.9.1 1.8 1 2.2.9.3 1.8-.1 2.2-1 .3-.9-.1-1.9-1-2.2zm5 2.2c-.9-.4-1.9-.1-2.2.8-.4.9 0 1.9.8 2.3.8.4 1.8 0 2.2-.8.4-.9.1-1.9-.8-2.3zm5.5 4.8c.5-.8.2-1.9-.6-2.3-.8-.5-1.8-.2-2.3.6-.4.8-.1 1.8.6 2.3.9.5 1.9.2 2.3-.6zm4.6 2.9c.5-.8.4-1.9-.5-2.4-.8-.5-1.9-.3-2.4.5s-.3 1.8.5 2.3c.9.5 1.9.4 2.4-.4zm2 3.6c.7.5 1.8.4 2.4-.3.6-.7.4-1.8-.3-2.4-.8-.6-1.8-.4-2.4.3-.6.8-.5 1.8.3 2.4zm6.4 3.2c.6-.7.6-1.8-.1-2.4-.7-.6-1.8-.6-2.4.1-.6.7-.5 1.8.1 2.4.7.6 1.8.6 2.4-.1zm3.9 3.7c.7-.6.7-1.7.1-2.4-.7-.7-1.8-.6-2.4 0-.7.7-.6 1.7 0 2.3.5.8 1.6.8 2.3.1zm3.6 4c.7-.6.8-1.6.1-2.4-.6-.7-1.7-.8-2.4-.1-.7.6-.8 1.7-.1 2.4.6.7 1.7.7 2.4.1zm.9 4c.5.7 1.6.9 2.4.3.8-.5.9-1.6.3-2.4-.6-.8-1.6-.9-2.4-.3-.7.6-.9 1.7-.3 2.4zm3 4.3c.5.8 1.5 1 2.3.5.8-.5 1-1.5.5-2.4-.5-.8-1.5-1.1-2.3-.5-.7.6-1 1.6-.5 2.4zm2.8 4.5c.5.8 1.4 1.1 2.3.7.8-.4 1.2-1.5.7-2.3-.5-.8-1.6-1.1-2.4-.6-.8.4-1.1 1.5-.6 2.2zm2.3 4.8c.4.8 1.4 1.2 2.3.8.9-.4 1.2-1.4.8-2.2-.4-.9-1.4-1.2-2.3-.8-.8.3-1.2 1.3-.8 2.2zm2.1 4.8c.3.9 1.3 1.3 2.2 1 .9-.3 1.3-1.3 1-2.2-.3-.9-1.3-1.3-2.2-1-.9.4-1.4 1.4-1 2.2zm1.7 5c.2.9 1.1 1.4 2 1.1.9-.3 1.4-1.2 1.2-2.1-.3-.9-1.3-1.4-2.2-1.1-.8.3-1.2 1.2-1 2.1zm2.6 3.1c-.9.2-1.5 1.1-1.2 2 .2.9 1.2 1.4 2.1 1.3.9-.1 1.5-1.1 1.2-2-.3-1-1.2-1.6-2.1-1.3zm1.2 5.2c-.9.2-1.6 1-1.4 1.9.1.9 1 1.5 1.9 1.4.9-.1 1.6-1 1.4-1.9-.2-.9-1-1.5-1.9-1.4zm.8 5.4c-.9.1-1.5.9-1.5 1.8s.8 1.6 1.8 1.5c.9-.1 1.6-.9 1.6-1.8-.1-1-1-1.6-1.9-1.5zm.3 5.4c-.9 0-1.7.8-1.6 1.7 0 .9.8 1.6 1.8 1.6.9 0 1.7-.8 1.6-1.7 0-1-.8-1.7-1.8-1.6z" class="st2"/><path d="M33.108 40.7l-.9 1 4.2 3.6-1.3 1.5-10-8.6c-.2-.2-.3-.4-.3-.7 0-.3.1-.5.2-.7l2.2-2.5c.2-.2.4-.3.7-.3.3 0 .5.1.7.2l10 8.6-1.3 1.5-4.2-3.6zm-2.4-.2l.9-1-3.6-3.1-.9 1 3.6 3.1zM34.808 29.6l-1 .9 8.3 9-1.4 1.3-8.3-9-1 .9-1.3-1.4 3.4-3.2 1.3 1.5zM47.808 33.8c.2.2.2.5.2.7 0 .3-.2.5-.4.6l-2.7 2c-.2.2-.5.2-.7.2-.3 0-.5-.2-.6-.4l-7.2-9.9c-.2-.2-.2-.5-.2-.7 0-.3.2-.5.4-.6l2.7-2c.2-.2.5-.2.7-.2.3 0 .5.2.6.4l7.2 9.9zm-2.1.3l-6.1-8.3-1.1.8 6.1 8.3 1.1-.8zM55.508 30.5l-1.7.9-5.9-10.8-.4.2 5.9 10.8-1.7.9-5.9-10.8-.4.2 5.9 10.8-1.7.9-6.3-11.6c-.1-.2-.1-.5-.1-.7.1-.3.2-.5.5-.6l4.2-2.3c.2-.1.5-.1.7-.1.3.1.5.2.6.5l6.3 11.7zM58.808 29.2l-1.8.7-5.4-13.1 1.8-.7 5.4 13.1zM65.108 26c.1.2 0 .5-.1.7-.1.2-.3.4-.6.5l-3.2 1c-.2.1-.5 0-.7-.1-.2-.1-.4-.3-.5-.6l-3.6-11.7c-.1-.2-.1-.5.1-.7.1-.2.3-.4.6-.5l3.2-1c.2-.1.5 0 .7.1.2.1.4.3.5.6l1.2 4-1.9.6-1-3.1-1.3.4 3 9.9 1.3-.4-.4-1.4 1.9-.6.8 2.3zM78.708 25.1l-1.6.1c-.3 0-.5-.1-.7-.2-.2-.2-.3-.4-.3-.7l-.1-2.1c0-.3-.1-.5-.3-.7-.2-.2-.4-.3-.7-.2h-.4l.3 4-1.9.1-.9-13.2c0-.3.1-.5.2-.7.2-.2.4-.3.7-.3l3.3-.2c.3 0 .5.1.7.2.2.2.3.4.3.7l.4 6.7c0 .3-.1.5-.2.7-.2.2-.4.3-.7.3.3 0 .5.1.7.2.2.2.3.4.3.7l.2 2.6h.6l.1 2zm-3.1-7.3l-.3-4.7-1.3.1.3 4.7 1.3-.1zM83.208 19.7l-1.4-.1-.2 3.6 1.4.1.1-1.5 1.9.1-.1 2.5c0 .3-.1.5-.3.7-.2.2-.4.3-.7.3l-3.3-.2c-.3 0-.5-.1-.7-.3-.2-.2-.3-.4-.3-.7l.7-12.2c0-.3.1-.5.3-.7.2-.2.4-.3.7-.3l3.3.2c.3 0 .5.1.7.3.2.2.3.4.3.7l-.2 4.2-1.9-.1.2-3.2-1.4-.1-.3 4.7 1.4.1-.2 1.9zM91.608 25.5c0 .3-.2.5-.4.6-.2.2-.5.2-.7.2l-3.3-.6c-.3 0-.5-.2-.6-.4-.2-.2-.2-.5-.2-.7l2.1-12.1c0-.3.2-.5.4-.6.2-.2.5-.2.7-.2l3.3.6c.3 0 .5.2.6.4.2.2.2.5.2.7l-.7 4.2-1.9-.3.6-3.2-1.3-.2-1.8 10.2 1.3.2.3-1.5 1.9.3-.5 2.4zM98.308 27.3c-.1.3-.2.4-.5.6-.2.1-.5.2-.7.1l-3.2-1c-.3-.1-.4-.2-.6-.5-.1-.2-.2-.5-.1-.7l3.5-11.7c.1-.3.2-.4.5-.6.2-.1.5-.2.7-.1l3.2 1c.2.1.4.2.6.5.1.2.2.5.1.7l-3.5 11.7zm-1.6-1.5l3-9.9-1.3-.4-3 9.9 1.3.4zM104.708 31.1l-1.4-.6c-.2-.1-.4-.3-.5-.5-.1-.3-.1-.5 0-.7l.8-1.9c.1-.2.1-.5 0-.7-.1-.3-.3-.4-.5-.5l-.3-.1-1.6 3.7-1.8-.8 5.3-12.1c.1-.2.3-.4.5-.5.3-.1.5-.1.7 0l3 1.3c.2.1.4.3.5.5.1.3.1.5 0 .7l-2.7 6.1c-.1.2-.3.4-.5.5-.3.1-.5.1-.7 0 .3.1.4.3.5.5.1.2.1.5 0 .7l-1.1 2.4.6.2-.8 1.8zm.7-8l1.9-4.3-1.2-.5-1.9 4.3 1.2.5zM110.508 33.3c-.1.2-.3.4-.6.4-.3.1-.5 0-.7-.1l-2.9-1.7c-.2-.1-.4-.3-.4-.6-.1-.3 0-.5.1-.7l6.2-10.6c.1-.2.3-.4.6-.4.3-.1.5 0 .7.1l2.9 1.7c.2.1.4.3.4.6.1.3 0 .5-.1.7l-6.2 10.6zm-1.1-1.8l5.2-8.9-1.2-.7-5.2 8.9 1.2.7zM116.008 37.3c-.2.2-.4.3-.6.4-.3 0-.5 0-.7-.2l-2.6-2c-.2-.2-.3-.4-.4-.6 0-.3 0-.5.2-.7l1.5-1.9 1.5 1.2-.9 1.2 1.1.8 2.8-3.6-1.9-1.4c-.2-.2-.3-.4-.4-.6 0-.3 0-.5.2-.7l3.5-4.5c.2-.2.4-.3.6-.4.3 0 .5 0 .7.2l2.6 2c.2.2.3.4.4.6 0 .3 0 .5-.2.7l-2.6 3.4-1.5-1.2 2-2.6-1.1-.8-2.3 3 1.9 1.4c.2.2.3.4.4.6 0 .3 0 .5-.2.7l-4 5zM137.408 60.1l-.5-1.3-5.2 1.9-.7-1.8 12.4-4.6c.2-.1.5-.1.7 0 .3.1.4.3.5.5l1.2 3.1c.1.2.1.5 0 .7-.1.3-.3.4-.5.5l-12.4 4.6-.7-1.8 5.2-1.8zm1.4-1.9l.5 1.3 4.4-1.7-.5-1.3-4.4 1.7zM146.408 66.9l-.3-1.3-11.9 2.9-.5-1.9 11.9-2.9-.3-1.3 1.9-.5 1.1 4.5-1.9.5zM136.408 76.4c-.3 0-.5 0-.7-.2-.2-.2-.3-.4-.4-.6l-.4-3.3c0-.3 0-.5.2-.7.2-.2.4-.3.6-.4l12.2-1.5c.3 0 .5 0 .7.2.2.2.3.4.4.6l.4 3.3c0 .3 0 .5-.2.7-.2.2-.4.3-.6.4l-12.2 1.5zm.8-2.1l10.2-1.3-.2-1.4-10.2 1.3.2 1.4zM135.608 84.6v-1.9l12.3.1v-.5l-12.3-.1v-1.9l12.3.1v-.5l-12.3-.1v-1.9l13.2.1c.3 0 .5.1.7.3.2.2.3.4.3.7v4.8c0 .2-.1.5-.3.7-.2.2-.4.3-.7.3l-13.2-.2zM135.208 88.2l.2-1.9 14.1 1.6-.2 1.9-14.1-1.6zM134.908 95.2c-.3-.1-.5-.2-.6-.4-.2-.2-.2-.5-.1-.7l.7-3.2c.1-.3.2-.5.4-.6.2-.2.5-.2.7-.1l12 2.5c.3.1.5.2.6.4.2.2.2.5.1.7l-.7 3.2c-.1.3-.2.5-.4.6-.2.2-.5.2-.7.1l-4.1-.9.4-1.9 3.2.7.3-1.3-10.1-2.1-.3 1.3 1.4.3-.4 1.9-2.4-.5zM129.108 107.6l.7-1.4c.1-.2.3-.4.6-.5.3-.1.5-.1.7 0l1.9.9c.2.1.5.1.7 0 .3-.1.4-.3.6-.5l.2-.3-3.7-1.7.8-1.8 12 5.6c.2.1.4.3.5.6.1.3.1.5 0 .7l-1.4 3c-.1.2-.3.4-.6.5-.3.1-.5.1-.7 0l-6.1-2.8c-.2-.1-.4-.3-.5-.6-.1-.3-.1-.5 0-.7-.1.2-.3.4-.5.5-.3.1-.5.1-.7 0l-2.4-1.1-.3.6-1.8-1zm7.9.8l4.3 2 .6-1.2-4.3-2-.6 1.2zM131.708 114.2l.8-1.2-3.1-1.9-.7 1.2 1.3.8-1 1.7-2.1-1.3c-.2-.1-.4-.3-.4-.6-.1-.3 0-.5.1-.7l1.7-2.8c.1-.2.3-.4.6-.4.3-.1.5 0 .7.1l10.4 6.5c.2.1.4.3.4.6.1.3 0 .5-.1.7l-1.7 2.8c-.1.2-.3.4-.6.4s-.5 0-.7-.1l-3.6-2.2 1-1.7 2.8 1.7.7-1.2-4-2.5-.8 1.2-1.7-1.1zM122.608 118.8c-.2-.2-.3-.4-.3-.7 0-.3 0-.5.2-.7l2.1-2.6c.2-.2.4-.3.7-.3.3 0 .5 0 .7.2l9.6 7.7c.2.2.3.4.3.7 0 .3 0 .5-.2.7l-2.1 2.6c-.2.2-.4.3-.7.3-.3 0-.5 0-.7-.2l-3.3-2.6 1.2-1.5 2.5 2 .9-1.1-8-6.5-.9 1.1 1.1.9-1.2 1.5-1.9-1.5zM117.808 123.7c-.2-.2-.3-.4-.3-.7 0-.3.1-.5.3-.7l2.4-2.3c.2-.2.4-.3.7-.3.3 0 .5.1.7.3l8.6 8.8c.2.2.3.4.3.7 0 .3-.1.5-.3.7l-2.4 2.3c-.2.2-.4.3-.7.3-.3 0-.5-.1-.7-.3l-8.6-8.8zm2.1-.7l7.2 7.4 1-1-7.2-7.4-1 1zM111.408 127.5l1.3-1c.2-.2.4-.2.7-.2.3 0 .5.2.6.4l1.3 1.7c.2.2.4.3.6.4.3 0 .5 0 .7-.2l.3-.2-2.5-3.2 1.5-1.2 8.1 10.5c.2.2.2.4.2.7 0 .3-.2.5-.4.6l-2.6 2c-.2.2-.4.2-.7.2-.3 0-.5-.2-.6-.4l-4.1-5.3c-.2-.2-.2-.4-.2-.7 0-.3.2-.5.4-.6-.2.2-.5.2-.7.2-.3 0-.5-.2-.6-.4l-1.6-2.1-.5.4-1.2-1.6zm6.6 4.4l2.9 3.8 1.1-.8-2.9-3.8-1.1.8zM106.608 131.5c-.1-.2-.2-.5-.1-.7.1-.3.2-.5.4-.6l2.9-1.7c.2-.1.5-.2.7-.1.3.1.5.2.6.4l6.3 10.5c.1.2.2.5.1.7-.1.3-.2.5-.4.6l-2.9 1.7c-.2.1-.5.2-.7.1-.3-.1-.5-.2-.6-.4l-6.3-10.5zm2.2-.1l5.3 8.9 1.2-.7-5.3-8.9-1.2.7zM100.408 134.4c-.1-.2-.1-.5 0-.7.1-.3.3-.4.5-.5l3-1.3c.2-.1.5-.1.7 0 .3.1.4.3.5.5l1 2.2-1.8.8-.6-1.3-1.2.6 1.9 4.2 2.1-.9c.2-.1.5-.1.7 0 .3.1.4.3.5.5l2.3 5.2c.1.2.1.5 0 .7-.1.3-.3.4-.5.5l-3 1.3c-.2.1-.5.1-.7 0-.3-.1-.4-.3-.5-.5l-1.7-3.9 1.8-.8 1.3 3 1.2-.6-1.5-3.4-2.1.9c-.2.1-.5.1-.7 0-.3-.1-.4-.3-.5-.5l-2.7-6zM70.108 142.2l1.3.2.8-5.5 1.9.3-1.9 13.1c0 .3-.2.5-.4.6-.2.2-.5.2-.7.2l-3.3-.5c-.3 0-.5-.2-.6-.4-.2-.2-.2-.5-.2-.7l1.9-13.1 1.9.3-.7 5.5zm1.1 2.1l-1.3-.2-.7 4.7 1.3.2.7-4.7zM59.808 146.7l1.3.4 3.2-11.8 1.9.5-3.2 11.8 1.3.4-.5 1.9-4.5-1.2.5-2zM56.408 133.4c.1-.2.3-.4.5-.5.3-.1.5-.1.7 0l3.1 1.2c.2.1.4.3.5.5.1.3.1.5 0 .7l-4.5 11.4c-.1.2-.3.4-.5.5-.3.1-.5.1-.7 0l-3.1-1.2c-.2-.1-.4-.3-.5-.5-.1-.3-.1-.5 0-.7l4.5-11.4zm1.4 1.7l-3.8 9.6 1.3.5 3.8-9.6-1.3-.5zM49.508 128.7l1.7.9-6 10.7.4.2 6-10.7 1.7.9-6 10.7.4.2 6-10.7 1.7.9-6.4 11.6c-.1.2-.3.4-.6.5-.3.1-.5 0-.7-.1l-4.2-2.3c-.2-.1-.4-.3-.4-.6-.1-.3-.1-.5.1-.7l6.3-11.5zM46.608 126.7l1.6 1.1-8.2 11.6-1.6-1.1 8.2-11.6zM40.608 123c.2-.2.4-.3.7-.3.3 0 .5.1.7.2l2.5 2.2c.2.2.3.4.3.7 0 .3-.1.5-.2.7l-8 9.3c-.2.2-.4.3-.7.3-.3 0-.5-.1-.7-.2l-2.5-2.2c-.2-.2-.3-.4-.3-.7 0-.3.1-.5.2-.7l2.8-3.2 1.5 1.3-2.1 2.5 1 .9 6.7-7.8-1-.9-1 1.1-1.5-1.3 1.6-1.9zM32.608 112l.9 1.3c.2.2.2.5.2.7 0 .3-.2.5-.4.6l-1.7 1.2c-.2.2-.3.4-.4.6 0 .3 0 .5.2.7l.2.3 3.3-2.4 1.2 1.6-10.7 7.8c-.2.2-.5.2-.7.2-.3 0-.5-.2-.6-.4l-1.9-2.7c-.2-.2-.2-.5-.2-.7 0-.3.2-.5.4-.6l5.4-4c.2-.2.5-.2.7-.2.3 0 .5.2.6.4-.2-.2-.2-.5-.2-.7 0-.3.2-.5.4-.6l2.1-1.6-.4-.5 1.6-1zm-4.6 6.5l-3.8 2.8.8 1.1 3.8-2.8-.8-1.1zM25.608 111l.7 1.2 3.2-1.8-.7-1.2-1.3.7-1-1.7 2.1-1.2c.2-.1.5-.2.7-.1.3.1.5.2.6.5l1.6 2.9c.1.2.2.5.1.7-.1.3-.2.5-.5.6l-10.7 6c-.2.1-.5.2-.7.1-.3-.1-.5-.2-.6-.5l-1.6-2.9c-.1-.2-.2-.5-.1-.7.1-.3.2-.5.5-.6l3.7-2.1 1 1.7-2.8 1.6.7 1.2 4.1-2.3-.7-1.2 1.7-.9zM25.908 100.8c.2-.1.5-.1.7 0 .3.1.4.3.5.5l1.3 3.1c.1.2.1.5 0 .7-.1.3-.3.4-.5.5l-11.3 4.7c-.2.1-.5.1-.7 0-.3-.1-.4-.3-.5-.5l-1.3-3.1c-.1-.2-.1-.5 0-.7.1-.3.3-.4.5-.5l3.9-1.6.7 1.8-3 1.2.5 1.3 9.5-3.9-.5-1.3-1.4.6-.7-1.8 2.3-1zM23.908 94.3c.3-.1.5 0 .7.1.2.1.4.3.5.6l.9 3.2c.1.3 0 .5-.1.7-.1.2-.3.4-.6.5l-11.8 3.3c-.3.1-.5 0-.7-.1-.2-.1-.4-.3-.5-.6l-.9-3.2c-.1-.3 0-.5.1-.7.1-.2.3-.4.6-.5l11.8-3.3zm-.4 2.1l-9.9 2.8.4 1.3 9.9-2.8-.4-1.3zM23.708 86.8l.2 1.6c0 .3 0 .5-.2.7-.2.2-.4.4-.6.4l-2.1.3c-.3 0-.5.2-.6.4-.2.2-.2.5-.2.7l.1.4 4-.6.3 1.9-13.1 2c-.3 0-.5 0-.7-.2-.2-.2-.4-.4-.4-.6l-.5-3.3c0-.3 0-.5.2-.7.2-.2.4-.4.6-.4l6.6-1c.3 0 .5 0 .7.2.2.2.4.4.4.6 0-.3 0-.5.2-.7.2-.2.4-.3.6-.4l2.6-.4-.1-.6 2-.3zm-7.1 3.7l-4.7.7.2 1.3 4.7-.7-.2-1.3zM22.408 80.7c.3 0 .5.1.7.3.2.2.3.4.3.7l.1 3.3c0 .3-.1.5-.3.7-.2.2-.4.3-.7.3l-12.3.4c-.3 0-.5-.1-.7-.3-.2-.2-.3-.4-.3-.7l-.1-3.3c0-.3.1-.5.3-.7.2-.2.4-.3.7-.3l12.3-.4zm-.9 2l-10.3.3v1.4l10.3-.3v-1.4zM22.908 73.9c.3 0 .5.1.7.4.2.2.3.4.2.7l-.3 3.3c0 .3-.1.5-.4.7-.2.2-.4.3-.7.2l-2.4-.2.2-1.9 1.5.1.1-1.4-4.6-.4-.2 2.3c0 .3-.1.5-.4.7-.2.2-.4.3-.7.2l-5.7-.5c-.3 0-.5-.1-.7-.4-.2-.2-.3-.4-.2-.7l.3-3.3c0-.3.1-.5.4-.7.2-.2.4-.3.7-.2l4.2.4-.2 1.9-3.2-.3-.1 1.4 3.8.3.2-2.3c0-.3.1-.5.4-.7.2-.2.4-.3.7-.2l6.4.6z" class="st0"/><g><path d="M19.308 56.7c.2-.5.4-1.1 1-1.4.9-.5 2-.5 2.8.3.5.5.6 1.1.6 1.8-.1.6-.5 1.3-1.1 1.7-.7.5-1.7.3-2.3-.1-.8-.6-1.2-1.4-1-2.3zM127.608 42.3c.2-.5.4-1.1 1-1.4 1-.5 2-.5 2.8.3.5.5.6 1.1.6 1.8-.1.6-.5 1.3-1.1 1.7-.7.5-1.7.3-2.3-.1-.8-.6-1.2-1.5-1-2.3zM86.608 144.3c.2-.5.4-1.1 1-1.4 1-.5 2-.5 2.8.3.5.5.6 1.1.6 1.8-.1.6-.5 1.3-1.1 1.7-.7.5-1.7.3-2.3-.1-.7-.6-1.1-1.4-1-2.3z" class="st0"/></g></svg>