<?xml version="1.0" encoding="UTF-8" standalone="no"?>
<svg
   xmlns:dc="http://purl.org/dc/elements/1.1/"
   xmlns:cc="http://creativecommons.org/ns#"
   xmlns:rdf="http://www.w3.org/1999/02/22-rdf-syntax-ns#"
   xmlns:svg="http://www.w3.org/2000/svg"
   xmlns="http://www.w3.org/2000/svg"
   version="1.1"
   id="svg4671"
   viewBox="0 0 136.60215 159.9"
   height="45.127335mm"
   width="38.552162mm">
  <defs
     id="defs4673" />
  <metadata
     id="metadata4676">
    <rdf:RDF>
      <cc:Work
         rdf:about="">
        <dc:format>image/svg+xml</dc:format>
        <dc:type
           rdf:resource="http://purl.org/dc/dcmitype/StillImage" />
        <dc:title></dc:title>
      </cc:Work>
    </rdf:RDF>
  </metadata>
  <g
     transform="translate(-140.2704,-443.84078)"
     id="layer1">
    <g
       id="g5"
       transform="translate(-1264.2296,-33.659224)">
      <g
         id="g7">
        <path
           id="path9"
           d="m 1533.6,477.5 -121.5,0 c -4.2,0 -7.6,3.4 -7.6,7.6 0,0 0,49.4 0,92.5 0,30.8 61.2,56.8 61.2,56.8 3.8,1.6 7,3 7,3 0,0 0,0 0,0 0,0 0.1,0 0.1,0 0,0 0.1,0 0.1,0 0,0 3.1,-1.4 7,-3 0,0 61.2,-26.1 61.2,-56.8 0,-43.2 0,-92.5 0,-92.5 0.1,-4.2 -3.3,-7.6 -7.5,-7.6 z m 4.5,100.1 c 0,28.4 -58.8,53.8 -59.4,54 -1.9,0.8 -3.7,1.6 -4.9,2.1 -0.3,0.2 -0.7,0.3 -0.9,0.4 -0.3,-0.1 -0.6,-0.3 -0.9,-0.4 -1.3,-0.5 -3,-1.3 -4.9,-2.1 -0.6,-0.3 -59.4,-25.6 -59.4,-54 l 0,-92.6 c 0,-2.5 2,-4.5 4.5,-4.5 l 121.5,0 c 2.5,0 4.5,2 4.5,4.5 l 0,92.6 z"
           class="st0" />
      </g>
      <g
         id="g11">
        <g
           id="g13">
          <path
             id="path15"
             d="m 1469.7,535.7 c 1.4,0 2.7,0 4,0 0.1,0 0.2,0 0.3,0 0.1,0 0.2,0 0.3,0 1.2,0 2.6,0 4,0 -1.5,15.9 14.3,23.8 26.7,15.4 2.5,-5.7 6.1,-13.9 9.1,-16.8 -4.9,-8 -27.1,-6.5 -34.7,-1.7 -1.5,0.1 -2.3,0 -3.3,0 l 0,0 c -0.8,0 -1.5,0 -2.1,0 -0.6,0 -1.2,0 -2,0 l 0,0 c -1,0 -1.7,0.1 -3.3,0 -7.5,-4.8 -29.8,-6.2 -34.7,1.7 3,2.9 6.6,11.1 9.1,16.8 12.2,8.4 28.1,0.5 26.6,-15.4 z m 38.3,-2.4 2.6,0 c 0.4,0 0.7,0.4 0.7,0.9 0,0.5 -0.3,0.9 -0.7,0.9 l -2.6,0 c -0.4,0 -0.7,-0.4 -0.7,-0.9 0,-0.5 0.3,-0.9 0.7,-0.9 z m -25.6,1 c 6.7,-4.5 22,-6.2 23.8,2.8 4,20.8 -30.8,20.2 -23.8,-2.8 z m -42.6,0.8 -2.6,0 c -0.4,0 -0.7,-0.4 -0.7,-0.9 0,-0.5 0.3,-0.9 0.7,-0.9 l 2.6,0 c 0.4,0 0.7,0.4 0.7,0.9 0,0.5 -0.3,0.9 -0.7,0.9 z m 1.8,2 c 1.8,-9 17.1,-7.3 23.8,-2.8 7,23 -27.9,23.6 -23.8,2.8 z"
             class="st0" />
        </g>
      </g>
      <path
         d="m 1495.7,596.2 c 0.1,1.9 -5.1,6.4 -7.5,6 -3.8,-0.5 -9.1,-9 -15.3,-2.2 -6.1,-6.8 -11.4,1.6 -15.3,2.2 -2.4,0.3 -7.6,-4.1 -7.5,-6 0,0 -0.4,2.2 0.6,4.8 3.2,9.2 16.9,8.4 22.2,1.9 5.3,6.5 19,7.3 22.2,-1.9 1,-2.6 0.6,-4.8 0.6,-4.8 z"
         class="st1"
         id="moustache_1_" />
      <g
         id="text_13_">
        <g
           id="g19">
          <path
             id="path21"
             d="m 1426,561.3 3.6,0 0,13 3.1,0 0,-13 3.6,0 0,28.2 -3.6,0 0,-11.6 -3.1,0 0,11.6 -3.6,0 0,-28.2 z"
             class="st0" />
          <path
             id="path23"
             d="m 1441.5,561.3 3.6,0 0,28.2 -3.6,0 0,-28.2 z"
             class="st0" />
          <path
             id="path25"
             d="m 1450.4,561.3 7.9,0 c 1.4,0 2.4,1.1 2.4,2.4 l 0,10.6 c 0,1.3 -1.1,2.4 -2.4,2.4 l -4.3,0 0,12.8 -3.6,0 0,-12.8 0,-15.4 z m 6.7,3.6 -3.1,0 0,8.1 3.1,0 0,-8.1 z"
             class="st0" />
          <path
             id="path27"
             d="m 1468.7,581 0,4.9 3.1,0 0,-9.1 -4.3,0 c -1.4,0 -2.4,-1.2 -2.4,-2.4 l 0,-10.7 c 0,-1.4 1,-2.4 2.4,-2.4 l 5.5,0 c 1.4,0 2.4,1 2.4,2.4 l 0,5.9 -3.6,0 0,-4.7 -3.1,0 0,8.2 4.3,0 c 1.4,0 2.4,1.1 2.4,2.4 l 0,11.6 c 0,1.3 -1.1,2.4 -2.4,2.4 l -5.5,0 c -1.3,0 -2.4,-1.1 -2.4,-2.4 l 0,-6.1 3.6,0 z"
             class="st0" />
          <path
             id="path29"
             d="m 1482.7,564.9 -3.2,0 0,-3.6 10.1,0 0,3.6 -3.2,0 0,24.6 -3.6,0 0,-24.6 z"
             class="st0" />
          <path
             id="path31"
             d="m 1502.9,589.5 -9.3,0 0,-28.2 9.1,0 0,3.6 -5.4,0 0,7.8 3.8,0 0,3.6 -3.8,0 0,9.5 5.7,0 0,3.7 z"
             class="st0" />
          <path
             id="path33"
             d="m 1514.4,577.5 -3.1,0 0,12 -3.6,0 0,-28.2 7.5,0 c 1.4,0 2.4,1.1 2.4,2.4 l 0,9.8 c 0,1 -0.5,1.8 -1.3,2 1.1,0.2 1.7,1.4 1.7,2.4 l 0,11.6 -3.6,0 0,-12 z m -3.1,-3.6 2.6,0 0,-9 -2.6,0 0,9 z"
             class="st0" />
        </g>
        <g
           id="g35">
          <path
             id="path37"
             d="m 1500.9,511.2 0,1.5 -0.4,0 c 0,-0.2 0,-0.4 -0.1,-0.6 0,-0.1 -0.1,-0.3 -0.2,-0.4 -0.1,-0.1 -0.2,-0.2 -0.4,-0.2 l -0.6,0 0,8.8 c 0,0.1 0,0.2 0.1,0.3 0,0.1 0.1,0.1 0.1,0.1 0,0 0.1,0 0.2,0 l 0,0.4 -1.7,0 0,-0.4 c 0.1,0 0.1,0 0.2,0 0,0 0.1,0 0.1,-0.1 0,-0.1 0.1,-0.2 0.1,-0.3 l 0,-8.8 -0.6,0 c -0.2,0 -0.3,0.1 -0.4,0.2 -0.1,0.1 -0.2,0.3 -0.2,0.4 -0.1,0.2 -0.1,0.4 -0.1,0.6 l -0.4,0 0,-1.5 4.3,0 z"
             class="st0" />
          <path
             id="path39"
             d="m 1506.2,520.7 0,0.4 -1.7,0 0,-0.4 c 0.1,0 0.1,0 0.2,0 0,0 0.1,0 0.1,-0.1 0,-0.1 0.1,-0.2 0.1,-0.3 l 0,-4 -2.1,0 0,4 c 0,0.1 0,0.2 0.1,0.3 0,0.1 0.1,0.1 0.1,0.1 0.1,0 0.1,0 0.2,0 l 0,0.4 -1.6,0 0,-0.4 c 0.1,0 0.1,0 0.2,0 0,0 0.1,0 0.1,-0.1 0,-0.1 0.1,-0.2 0.1,-0.3 l 0,-8.3 c 0,-0.1 0,-0.2 -0.1,-0.3 0,-0.1 -0.1,-0.1 -0.1,-0.1 0,0 -0.1,0 -0.2,0 l 0,-0.3 1.6,0 0,0.3 c -0.1,0 -0.1,0 -0.2,0 0,0 -0.1,0.1 -0.1,0.1 0,0.1 -0.1,0.2 -0.1,0.3 l 0,4 2.1,0 0,-4 c 0,-0.1 0,-0.2 -0.1,-0.3 0,-0.1 -0.1,-0.1 -0.1,-0.1 0,0 -0.1,0 -0.2,0 l 0,-0.3 1.7,0 0,0.3 c -0.1,0 -0.1,0 -0.2,0 0,0 -0.1,0.1 -0.1,0.1 0,0.1 -0.1,0.2 -0.1,0.3 l 0,8.3 c 0,0.1 0,0.2 0.1,0.3 0,0.1 0.1,0.1 0.1,0.1 0.1,0 0.2,0 0.2,0 z"
             class="st0" />
          <path
             id="path41"
             d="m 1511.1,520.3 c 0,0.1 0.1,0.2 0.1,0.3 0.1,0.1 0.1,0.1 0.2,0.1 0.1,0 0.2,0 0.2,0 l 0,0.3 -2,0 0,-0.3 c 0.1,0 0.2,0 0.2,0 0,0 0.1,-0.1 0.1,-0.1 0,-0.1 0,-0.1 0,-0.3 0,0 0,-0.2 -0.1,-0.5 -0.1,-0.3 -0.1,-0.7 -0.2,-1.2 l -1.8,0 c -0.1,0.5 -0.2,0.9 -0.2,1.2 -0.1,0.3 -0.1,0.5 -0.1,0.5 0,0.1 0,0.2 0,0.3 0,0.1 0.1,0.1 0.1,0.1 0.1,0 0.1,0 0.2,0 l 0,0.3 -1.3,0 0,-0.3 c 0.1,0 0.2,0 0.2,0 0.1,0 0.1,-0.1 0.2,-0.1 0.1,-0.1 0.1,-0.1 0.1,-0.3 0,0 0,-0.1 0.1,-0.4 0,-0.3 0.1,-0.6 0.2,-1 0.1,-0.4 0.2,-0.9 0.3,-1.4 0.1,-0.5 0.2,-1.1 0.3,-1.7 l 0.8,-4.5 0.7,0 c 0.3,1.7 0.5,3.2 0.7,4.5 0.1,0.6 0.2,1.1 0.3,1.7 0.1,0.5 0.2,1 0.2,1.4 0.1,0.4 0.1,0.8 0.2,1 0.3,0.3 0.3,0.4 0.3,0.4 z m -3,-2 1.7,0 c -0.1,-0.4 -0.1,-0.8 -0.2,-1.2 -0.1,-0.4 -0.1,-0.9 -0.2,-1.3 -0.1,-0.4 -0.1,-0.9 -0.2,-1.3 -0.1,-0.4 -0.1,-0.8 -0.2,-1.1 -0.1,0.3 -0.1,0.7 -0.2,1.1 -0.1,0.4 -0.1,0.8 -0.2,1.3 -0.1,0.4 -0.2,0.9 -0.2,1.3 -0.2,0.4 -0.2,0.8 -0.3,1.2 z"
             class="st0" />
          <path
             id="path43"
             d="m 1515.6,511.2 1.2,0 0,0.3 c -0.1,0 -0.2,0 -0.2,0 0,0 -0.1,0.1 -0.1,0.1 0,0.1 -0.1,0.2 -0.1,0.3 l 0,9.1 -1.2,0 -2.3,-7.9 0,7.1 c 0,0.1 0,0.2 0.1,0.3 0,0.1 0.1,0.1 0.1,0.1 0.1,0 0.1,0 0.2,0 l 0,0.4 -1.2,0 0,-0.4 c 0.1,0 0.1,0 0.2,0 0,0 0.1,-0.1 0.1,-0.1 0,-0.1 0.1,-0.1 0.1,-0.3 l 0,-8.2 c 0,-0.1 0,-0.2 -0.1,-0.3 0,-0.1 -0.1,-0.1 -0.1,-0.1 -0.1,0 -0.1,0 -0.2,0 l 0,-0.3 1.4,0 2.4,8.3 0,-7.6 c 0,-0.1 0,-0.2 -0.1,-0.3 0,-0.1 -0.1,-0.1 -0.1,-0.1 -0.1,0 -0.1,0 -0.2,0 l 0,-0.4 z"
             class="st0" />
          <path
             id="path45"
             d="m 1524.4,520.3 c 0,0.1 0.1,0.2 0.1,0.3 0.1,0.1 0.1,0.1 0.2,0.1 0.1,0 0.2,0 0.2,0 l 0,0.3 -2,0 0,-0.3 c 0.1,0 0.2,0 0.2,0 0,0 0.1,-0.1 0.1,-0.1 0,-0.1 0,-0.1 0,-0.3 0,0 0,-0.2 -0.1,-0.5 -0.1,-0.3 -0.1,-0.7 -0.2,-1.2 l -1.8,0 c -0.1,0.5 -0.2,0.9 -0.2,1.2 0,0.3 -0.1,0.5 -0.1,0.5 0,0.1 0,0.2 0,0.3 0,0.1 0.1,0.1 0.1,0.1 0.1,0 0.1,0 0.2,0 l 0,0.3 -1.3,0 0,-0.3 c 0.1,0 0.2,0 0.2,0 0.1,0 0.1,-0.1 0.2,-0.1 0.1,-0.1 0.1,-0.1 0.1,-0.3 0,0 0,-0.1 0.1,-0.4 0,-0.3 0.1,-0.6 0.2,-1 0.1,-0.4 0.2,-0.9 0.3,-1.4 0.1,-0.5 0.2,-1.1 0.3,-1.7 l 0.8,-4.5 0.7,0 c 0.3,1.7 0.5,3.2 0.7,4.5 0.1,0.6 0.2,1.1 0.3,1.7 0.1,0.5 0.2,1 0.2,1.4 0.1,0.4 0.1,0.8 0.2,1 0.3,0.3 0.3,0.4 0.3,0.4 z m -3.1,-2 1.7,0 c -0.1,-0.4 -0.1,-0.8 -0.2,-1.2 -0.1,-0.4 -0.1,-0.9 -0.2,-1.3 -0.1,-0.4 -0.1,-0.9 -0.2,-1.3 -0.1,-0.4 -0.1,-0.8 -0.2,-1.1 -0.1,0.3 -0.1,0.7 -0.2,1.1 -0.1,0.4 -0.1,0.8 -0.2,1.3 -0.1,0.4 -0.2,0.9 -0.2,1.3 -0.1,0.4 -0.2,0.8 -0.3,1.2 z"
             class="st0" />
        </g>
        <g
           id="g47">
          <path
             id="path49"
             d="m 1425.7,500.4 c -0.8,-0.4 -1.7,-0.6 -2.5,-0.6 -3.1,0 -5.9,2.6 -5.9,6.6 0,4.7 3.2,8.4 9.6,8.4 0.1,-11 5.7,-24.5 14.4,-24.5 4,0 6,3.1 6,7.1 0,7.1 -6.1,17.3 -17.2,18.9 0,5.3 1,9.6 4,10.4 -0.1,-0.8 -0.2,-1.7 -0.2,-2.5 0,-5 2.4,-10 6.6,-10 2.9,0 4.3,2.3 4.3,5.2 0,3.7 -2.5,8.1 -7.5,9 0.8,1.8 2.1,3.2 4,3.7 l -1,2.4 c -3,-0.6 -4.9,-3 -5.8,-5.9 -4.9,-0.5 -7.3,-5.6 -7.6,-12 -8.1,0 -12.5,-4.9 -12.5,-10.4 0,-5.8 4.3,-9.3 8.8,-9.3 1.3,0 2.6,0.3 3.8,0.9 l -1.3,2.6 z m 4.5,14.2 c 9.5,-1.8 14.1,-11.7 14.1,-17.7 0,-2.8 -1,-4.8 -3,-4.8 -5.7,-0.1 -10.4,12.4 -11.1,22.5 z m 6.1,8.7 c 0,1.2 0.1,2.3 0.4,3.5 3.6,-0.9 5.6,-5 5.6,-7.9 0,-1.7 -0.7,-3 -2.1,-3 -2.4,0 -3.9,3.6 -3.9,7.4 z"
             class="st0" />
          <path
             id="path51"
             d="m 1457.6,511.5 c 0.1,0 0.2,0 0.2,0.2 -0.2,0.6 -0.7,1.1 -1.6,1.5 0,0.2 0,0.4 0,0.6 0,3.6 -1.9,7.7 -4.7,7.7 -2.8,0 -4,-2.6 -4,-5.5 0,-3.9 2.1,-8.5 5.1,-8.5 1.4,0 2.7,0.6 2.7,2.6 -0.5,-0.2 -1,-0.3 -1.4,-0.3 -2.8,0 -4.1,3.9 -4.1,7.1 0,2.1 0.6,3.8 1.7,3.8 1.5,0 2.6,-3.1 2.6,-5.7 0,-1.5 -0.4,-2.9 -1.2,-3.4 0,0 1.1,-0.5 1.8,-0.8 1.1,0.7 1.5,0.7 2.9,0.7 z"
             class="st0" />
          <path
             id="path53"
             d="m 1467.6,511.5 c 0.4,0 0.7,-0.1 1,-0.2 0.3,-8.2 3,-17.9 4.9,-17.9 1.5,0 2.3,1.7 2.3,4.2 0,4.1 -2,10.2 -5.5,13.5 0,0.6 0,1.3 0,1.9 0,4 0.8,7.1 3.2,7.1 0.5,0 1.4,-0.1 2.2,-2 0.1,-0.3 0.2,-0.4 0.3,-0.4 0.1,0 0.1,0.1 0.1,0.2 l 0,0.1 c 0,0.1 0.2,0.1 0.2,0.1 0,1.4 -1.3,4.2 -3.1,4.2 -3.3,0 -4.4,-4.4 -4.4,-9.7 l 0,-0.3 c -0.7,0.4 -1.4,0.7 -2.1,0.9 l 0,0.4 c 0,3.6 -1.9,7.7 -4.7,7.7 -2.8,0 -4,-2.6 -4,-5.5 0,-3.9 2.1,-8.5 5.1,-8.5 2.5,0 2.7,1.7 2.7,2.3 l 0,0.2 c -0.5,-0.2 -1,-0.3 -1.4,-0.3 -2.8,0 -4.1,3.9 -4.1,7.1 0,2.1 0.6,3.8 1.7,3.8 1.5,0 2.6,-3.1 2.6,-5.7 0,-1.5 -0.4,-2.9 -1.2,-3.4 0,0 1.1,-0.5 1.8,-0.8 1,0.9 1.2,1 2.4,1 z m 2.8,-1.5 c 2.5,-2.8 3.8,-8.7 3.8,-11.3 0,-0.8 -0.1,-1.3 -0.4,-1.3 -1.1,0 -2.9,6.5 -3.4,12.6 z"
             class="st0" />
          <path
             id="path55"
             d="m 1489,512.6 c -0.5,0.3 -1.2,0.4 -1.9,0.4 -0.1,0 -0.3,0 -0.4,0 -0.4,3.4 -2,8.9 -6.4,8.9 -2,0 -3.8,-1.5 -4.7,-5.3 -0.1,0 -0.3,0 -0.4,0 -0.2,0 -0.1,-0.4 -0.4,-0.7 0,0 -0.1,-0.1 -0.1,-0.1 0,-0.1 0.2,-0.3 0.4,-0.3 l 0.5,0.1 c 0.2,-3.9 2.1,-7.9 5.1,-7.9 1.4,0 2.2,1.2 2.2,2.9 0,2.2 -1.4,5 -4.8,6.3 0.3,3.1 1.4,4.2 2.7,4.2 3.2,0 4.5,-4.5 5,-8.4 -0.9,-0.6 -1.3,-1.9 -1.3,-3.1 0,-1.3 0.5,-2.5 1.5,-2.5 1,0 1.2,0.7 1.2,1.5 0,0.7 -0.2,1.5 -0.2,2.1 0,0.5 0.1,0.8 0.3,0.8 0.2,0 0.4,-0.1 0.7,-0.3 1.1,-0.7 2.8,-2.5 3.1,-2.5 0.4,0 1.1,0.8 1.1,1.3 0,0.8 -0.6,1.8 -1.3,2.3 -0.1,0.9 -0.2,1.7 -0.2,2.5 0,2.7 0.7,5 2.9,5 1.6,0 3.1,-1.1 4.2,-1.8 0.4,-0.3 1.1,-0.8 1.4,-0.8 0.1,0 0.1,0 0.1,0.1 0,0.2 -0.2,0.5 -0.7,1.2 l 0.1,0.6 c -1.4,2.7 -3.4,3.9 -5.1,3.9 -2.8,0 -4.8,-2.8 -4.8,-7.6 0.2,-1 0.2,-1.8 0.2,-2.8 l 0,0 z m -10.8,2.8 c 2.3,-0.8 3.3,-3.1 3.3,-4.6 0,-0.8 -0.3,-1.3 -0.7,-1.3 -1.5,-0.1 -2.6,3.1 -2.6,5.9 z"
             class="st0" />
        </g>
      </g>
    </g>
  </g>
</svg>
