<svg xmlns="http://www.w3.org/2000/svg" xmlns:xlink="http://www.w3.org/1999/xlink" height="159.6" width="159.6" viewBox="0 0 159.60001 159.60001" id="Слой_1"><style id="style3">.st0{fill:#383433;} .st1{fill-rule:evenodd;clip-rule:evenodd;fill:#383433;} .st2{font-family:&apos;Futura-Medium&apos;;} .st3{font-size:12.6px;} .st4{letter-spacing:1;} .st5{fill:none;}</style><g id="g5"><g id="g7"><path id="path9" d="M79.8 159.6c-44 0-79.8-35.8-79.8-79.8S35.8 0 79.8 0s79.8 35.8 79.8 79.8-35.8 79.8-79.8 79.8zm0-157.5C37 2.1 2.1 37 2.1 79.8c0 42.8 34.9 77.7 77.7 77.7 42.8 0 77.7-34.9 77.7-77.7 0-42.8-34.8-77.7-77.7-77.7z" class="st0" fill="#383433"/></g><g id="g11" fill="#383433"><path id="polygon13" class="st0" d="M47 97.6l-6.3-2-.6 2.1 4.6 1.4-1.5 1v-.2l-6.5-2-.6 2 5 1.6-1.5.9-6-1.8-.7 2 5.7 1.8-.7 5.7 2.2.2.7-6 1.3-.9-.4 4.8 2.2.1.5-6.3h-.2l1.7-1.1-.5 4.8 2.2.2.6-6.6 68.3-45.4-1.6 8 2.1.4 2.3-11.4-11.1-2.2-.4 2.1 7.3 1.5z"/><path id="polygon15" class="st0" d="M112.1 97.5l6.3-1.9.6 2.1-4.6 1.4 1.5 1v-.2l6.5-2 .6 2-5 1.6 1.5.9 6-1.8.6 2-5.6 1.8.7 5.7-2.2.2-.7-6-1.3-.9.4 4.8-2.2.1-.5-6.3h.2l-1.7-1.1.5 4.8-2.2.2-.6-6.6-68.3-45.4 1.6 8-2.1.4-2.3-11.4 11.1-2.2.4 2.1-7.3 1.5z"/></g><g id="g17" fill="#383433"><path id="polygon19" class="st0" d="M9.3 78.9l2 2.1-.4 2.9 2.6-1.3 2.6 1.2-.4-2.9 2-2-2.9-.5-1.4-2.6-1.3 2.6z"/><path id="polygon21" class="st0" d="M143.4 78.4l-2.8.5 2 2.1-.4 2.9 2.6-1.3 2.6 1.2-.4-2.9 2-2-2.9-.5-1.4-2.6z"/></g><path d="M96.2 99.3c0 1.3-3.5 4.4-5.2 4.2-2.6-.4-6.3-6.2-10.5-1.5-4.2-4.7-7.9 1.1-10.5 1.5-1.6.2-5.2-2.8-5.2-4.2 0 0-.3 1.5.4 3.3 2.2 6.3 11.7 5.8 15.3 1.3 3.6 4.5 13.1 5 15.3-1.3.7-1.9.4-3.3.4-3.3z" class="st1" id="moustache" clip-rule="evenodd" fill="#383433" fill-rule="evenodd"/><path id="path24" d="M80.3 49.4c-1.2 0-3.2-.8-4.5-1.3-1.1-.4-3.1-.7-4.1-.7-2.6-.1-4.3 0-6.8.4-.2 0-.3.2-.3.4v1.3c0 .2 0 .3.1.4l.5.4c.2.1.3.4.3.6.3 5.5 1.6 6.8 5.9 7.1 4.3.3 6.6-2.4 7.1-4.9.2-1 .9-1.6 1.7-1.6.8 0 1.5.5 1.7 1.6.5 2.5 2.8 5.2 7.1 4.9 4.3-.3 5.6-1.6 5.9-7.1 0-.3.1-.5.4-.6l.5-.4c.1-.1.2-.2.2-.4v-1.3c0-.2-.1-.4-.4-.4-2.4-.4-4.3-.5-6.9-.4-1 0-3 .3-4.1.7-1.1.5-3.2 1.3-4.3 1.3zm-14.5.2c-.1 0-.3-.2-.3-.5s.1-.5.3-.5c.1 0 .3.2.3.5s-.2.5-.3.5zm28.7-.5c0-.3.1-.5.3-.5.1 0 .3.2.3.5s-.1.5-.3.5c-.2 0-.3-.3-.3-.5zm-19.6 7.4c-1.7 1-5.7.6-6.8-.3-1.1-.9-2.1-4.8-.5-6.8 1.3-1.5 9.5-.6 9.8 1.4.3 2.3-.6 4.5-2.5 5.7zm8.2-5.6c.3-2 8.5-2.9 9.8-1.4 1.6 2 .6 5.9-.5 6.8-1.1.8-5.1 1.3-6.8.3-1.9-1.3-2.8-3.5-2.5-5.7z" class="st0" fill="#383433"/><g id="text_34_"><g id="g27"><text id="text29" class="st0 st2 st3 st4" transform="translate(100.808 83.574)" font-size="12.6" font-family="Futura-Medium" letter-spacing="1" fill="#383433">14</text></g><text id="text31" class="st0 st2 st3 st4" transform="translate(44.108 83.574)" font-size="12.6" font-family="Futura-Medium" letter-spacing="1" fill="#383433">20</text><g id="g33"><path d="M30.2 35.9c23.7-27.4 65.1-30.4 92.5-6.7 27.4 23.7 30.4 65.1 6.7 92.5-23.7 27.4-65.1 30.4-92.5 6.7-27.4-23.6-30.4-65-6.7-92.5z" class="st5" id="SVGID_x5F_1_x5F_" fill="none"/><text id="text36" transform="translate(-10.9 -18.1)"><textPath id="textPath38" startOffset="100%" xlink:href="#SVGID_x5F_1_x5F_"> <tspan id="tspan40" class="st0" font-size="17" font-family="GearedSlab-Regular" letter-spacing="77" fill="#383433">FASHION BLOG</tspan></textPath></text></g><path d="M125.2 34.6c26.2 25.1 27.1 66.6 2 92.8-25.1 26.2-66.6 27.1-92.8 2-26.2-25.1-27.1-66.6-2-92.8 25.1-26.2 66.6-27.1 92.8-2z" class="st5" id="SVGID_x5F_2_x5F_" fill="none"/><text id="text43" transform="translate(-10.9 -18.1)"><textPath id="textPath45" startOffset="100%" xlink:href="#SVGID_x5F_2_x5F_"> <tspan id="tspan47" class="st0" font-size="17" font-family="GearedSlab-Regular" letter-spacing="77" fill="#383433">HIPSTER DESION</tspan><tspan id="tspan49" class="st0 st2" font-size="15.75" font-family="Futura-Medium" letter-spacing="77" fill="#383433"> </tspan><tspan id="tspan51" class="st0" font-size="16.8" font-family="Haymaker" letter-spacing="77" fill="#383433"> </tspan></textPath></text></g></g></svg>