<svg xmlns="http://www.w3.org/2000/svg" xmlns:xlink="http://www.w3.org/1999/xlink" height="168" width="168" viewBox="0 0 168 168" id="Слой_1"><style id="style3">.st0{fill:#383433;} .st1{fill:none;}</style><g id="g5"><g id="g7"><path id="path9" d="M84 0C37.7 0 0 37.7 0 84s37.7 84 84 84 84-37.7 84-84S130.3 0 84 0zm0 164.4c-44.3 0-80.4-36.1-80.4-80.4C3.6 39.7 39.7 3.6 84 3.6c44.3 0 80.4 36.1 80.4 80.4 0 44.3-36 80.4-80.4 80.4z" class="st0" fill="#383433"/><g id="g11" fill="#383433"><path id="path13" d="M89.2 102.4v-.2l-5.4-6.6h-.2l-5.4 6.5.1.2s1.5 2.3 3.7 4.5l-5.6 22.4 7.5 9.6 7.5-9.6-5.7-22.5c2.1-2.1 3.5-4.3 3.5-4.3z" class="st0"/><path id="path15" d="M92.2 76.5c2 .3 1.3 2.9-.7 2.2-1.4-.6-2.2-1.5-3.9-2.8h-.1c-.4-.3-.9-.5-1.5-.5-1 0-1.8.6-2.2 1.4-.4-.8-1.2-1.4-2.2-1.4-.5 0-1.1.2-1.5.5H80c-1.7 1.3-2.5 2.2-3.9 2.8-2 .7-2.8-1.9-.7-2.2-1.8-.5-2.7 1.9-1.4 3.1 2.1 1.6 7 1 8.8-.1.4-.2.7-.6.9-1 .2.4.5.8.9 1 1.8 1.1 6.7 1.7 8.8.1 1.6-1.2.7-3.6-1.2-3.1z" class="st0"/><path id="path17" d="M95.3 87.5c0 .1 0 .1 0 0-.1.1-.1 0-.1 0 .3-.3.7-.6 1-.9l.3-.3.3-.3c3-3.1 5.5-7.1 7-11.6.5-1.5.9-3 1.2-4.6.7-.4 1.4-1.1 2.1-1.8 1.1-1.4 2-3.4 2-5.7v-1c7.6-20.2-5.9-27.3-11.4-28.6-5.6-1.3-7.5 2-7.5 2-3.6-10.3-27.7-5.6-32.4 8.9-2.1 6.5-1.5 11.7-.5 15.3-.1 1-.2 2.2-.2 3.3 0 2.4.9 4.7 2.4 6.3.6.6 1.3 1.2 2 1.5.3 1.5.7 3 1.1 4.4 1.5 4.6 4.1 8.7 7.2 11.8l.3.3.3.3c.3.3.6.6 1 .9C54.9 91 43 100 43 110.6v14.9c.1.1.2.2.4.3v-15.2c0-10.5 11.9-19.4 28.4-22.6l.1.1c-.6 1-1.1 1.9-1.2 2 0 7.4 3.1 12 4 13.2.5-.5 8.4-8.8 8.6-9.1-1.4-.1-3-1.1-4.5-2.3 1.4.4 2.9.7 4.4.7 2 0 4-.4 6-1.2-1.7 1.5-3.5 2.7-5.2 2.9.2.2 8.1 8.5 8.6 9.1.9-1.1 4-5.8 4-13.2 0-.1-.6-1.1-1.2-2.1 16.9 3.1 29.1 12.1 29.1 22.7v13.6l.3-.3v-13.3c.1-11-12.3-20.2-29.5-23.3zm-6.1-43.2c7.7 3.1 11.8 10 13.8 14.9-2.8-.4-5-.5-8-.4-1.3 0-3.7.4-5.1.9-1.7.6-4.3 1.6-5.7 1.6-1 0-2.7-.5-4.1-1 6.3-6.4 9.1-16 9.1-16zm13.5 16.6c0 .3-.1.6-.3.6-.2 0-.3-.3-.3-.6s.1-.6.3-.6c.2-.1.3.2.3.6zm-3.2 9c-1.4 1.1-6.4 1.7-8.5.3-2.5-1.5-3.6-4.3-3.2-7.1.4-2.6 10.8-3.7 12.3-1.8 2.1 2.5.8 7.5-.6 8.6zM83.6 51.2c-.7 2.5-2.9 6.5-4.3 8.8-.3-.1-.7-.2-.9-.3-1.1-.4-2.9-.7-4.2-.8 5.7-4 9.4-7.7 9.4-7.7zM68.1 61.3c.5-.6 1.9-.9 3.6-1 2.2-.1 4.9.3 6.7 1.1-.2.2-.2.4-.2.4.1-.1.3-.2.4-.3 1.1.4 1.8 1 1.9 1.6.4 2.8-.7 5.6-3.2 7.1-2.2 1.3-7.2.7-8.5-.3-1.2-.9-2.2-4.4-1.4-7.1.1-.5.4-1 .7-1.5zM83.3 92c-1.8 0-3.6-.4-5.3-1-2-.8-3.9-1.9-5.7-3.4-.4-.3-.7-.6-1.1-.9l-.3-.3-.3-.3c-3.4-3.4-6.2-8-7.7-13.3-.2-1-.4-2.1-.6-3.3-.2 0-.3 0-.5-.1-2.2-1.1-4.1-4-4.1-7.3 0-.7 0-1.5.1-2.2.1.4.3.8.4 1.1.8 1.8 1.5 2.8 1.5 2.8-.1-.6.8-1.9.8-1.9.1 1.4 1.1 3.5 1.1 3.5l.5-2.4c.4 1.8 1.8 5 1.8 5-.4-1.5-.1-3.6-.1-3.6.6-.2 1.2-.5 1.8-.8.4 6.4 2.2 8.1 7.5 8.4 5.4.3 8.4-3.1 9-6.2.2-1.3 1.2-2 2.2-2 1 0 2 .6 2.2 2 .6 3.2 3.6 6.6 9 6.2 5.4-.3 7.1-2.1 7.5-9 0-.3.2-.6.4-.8l.6-.5.1-.1c.5 1.6.7 2.6.7 2.6 1.3-1.8 1.5-4.2 1.5-4.2l.3 2c.9-1.4 1-2.4 1-2.4.2.5.4 1.1.6 1.6.2.6.4 1.1.4 1.1 0-.1 0-.1.1-.2-.1 3-1.6 5.5-3.5 6.8-.2 0-.4.1-.6.1-.1.9-.2 1.8-.4 2.6-1.4 5.6-4.3 10.5-7.8 14l-.3.3-.3.3c-.2.2-.4.4-.7.6-1.4 1.3-3 2.3-4.6 3.1-2.4 1.5-4.8 2.1-7.2 2.1z" class="st0"/></g><path id="path19" d="M84 22.2c-34.1 0-61.8 27.7-61.8 61.8 0 34.1 27.7 61.8 61.8 61.8 34.1 0 61.8-27.7 61.8-61.8 0-34.1-27.7-61.8-61.8-61.8zm0 122.2c-33.3 0-60.4-27.1-60.4-60.4S50.7 23.6 84 23.6s60.4 27.1 60.4 60.4-27.1 60.4-60.4 60.4z" class="st0" fill="#383433"/><g id="g21"><g id="g23"><g id="g25"><path id="path27" d="M150.2 56.1c-2.6-6-5.9-11.6-9.9-16.8l.2-.2c4 5.2 7.4 10.8 9.9 16.9l-.2.1z" class="st0" fill="#383433"/></g><g id="g29"><path id="path31" d="M141.3 40.4s2.1-.6 2.6-.5c1.2.2 1.7.8 1.6 1.4-.1.6-.8.9-1.8.6-.5-.2-2.4-1.5-2.4-1.5z" class="st0" fill="#383433"/></g><g id="g33"><path id="path35" d="M144.9 45.4s2.2-.4 2.7-.3c1.2.3 1.6 1 1.5 1.5-.1.6-.8.9-1.9.5-.6-.2-2.4-1.7-2.3-1.7z" class="st0" fill="#383433"/></g><g id="g37"><path id="path39" d="M148.1 51s2.2-.2 2.7-.1c1.1.4 1.5 1.1 1.4 1.7-.2.5-.9.8-1.9.3-.6-.2-2.2-1.9-2.2-1.9z" class="st0" fill="#383433"/></g><g id="g41"><path id="path43" d="M142.4 42s-1.2 1.8-1.3 2.3c-.2 1.1.2 1.7.7 1.9.5.1 1.2-.3 1.3-1.5 0-.5-.7-2.7-.7-2.7z" class="st0" fill="#383433"/></g><g id="g45"><path id="path47" d="M145.7 47.1s-1.4 1.7-1.5 2.2c-.3 1.1 0 1.7.5 1.9.5.2 1.2-.3 1.4-1.3.2-.5-.4-2.7-.4-2.8z" class="st0" fill="#383433"/></g><g id="g49"><path id="path51" d="M148.8 52.8s-1.5 1.6-1.7 2c-.4 1-.2 1.8.3 2 .5.2 1.2-.1 1.5-1.2.3-.5-.1-2.8-.1-2.8z" class="st0" fill="#383433"/></g></g><g id="g53"><g id="g55"><path id="path57" d="M155.2 74.9c-.8-6.7-2.5-13-5-18.8l.3-.1c2.5 5.8 4.2 12.2 5.1 18.9h-.4z" class="st0" fill="#383433"/></g><g id="g59"><path id="path61" d="M150.9 57.4s2.2 0 2.7.2c1.1.5 1.5 1.2 1.2 1.8-.2.5-1 .7-1.9.1-.4-.3-2-2.1-2-2.1z" class="st0" fill="#383433"/></g><g id="g63"><path id="path65" d="M153 63.2s2.2.2 2.7.4c1.1.6 1.3 1.4 1 1.9-.3.5-1.1.6-1.9-.1-.5-.3-1.8-2.2-1.8-2.2z" class="st0" fill="#383433"/></g><g id="g67"><path id="path69" d="M154.6 69.5s2.2.4 2.6.7c1 .7 1.2 1.5.8 2-.3.5-1.1.5-1.9-.2-.3-.5-1.6-2.5-1.5-2.5z" class="st0" fill="#383433"/></g><g id="g71"><path id="path73" d="M151.5 59.2s-1.6 1.4-1.9 1.9c-.6 1-.4 1.7.1 2 .5.3 1.2 0 1.6-1.1.3-.4.3-2.8.2-2.8z" class="st0" fill="#383433"/></g><g id="g75"><path id="path77" d="M153.4 65.1s-1.8 1.3-2.1 1.7c-.7 1-.5 1.7-.1 2 .5.3 1.2.1 1.7-.9.3-.5.6-2.8.5-2.8z" class="st0" fill="#383433"/></g><g id="g79"><path id="path81" d="M154.8 71.4s-1.9 1.1-2.2 1.5c-.7.9-.7 1.6-.2 2 .4.3 1.2.2 1.8-.8.2-.4.7-2.7.6-2.7z" class="st0" fill="#383433"/></g></g><g id="g83"><g id="g85"><path id="path87" d="M155.4 94.4h-.3c1-6.1 1-12.7.2-19.5h.3c.8 6.8.7 13.4-.2 19.5z" class="st0" fill="#383433"/></g><g id="g89"><path id="path91" d="M155.6 76.3s2.2.6 2.6.9c.9.8 1 1.6.6 2-.4.5-1.2.4-1.9-.4-.3-.3-1.2-2.5-1.3-2.5z" class="st0" fill="#383433"/></g><g id="g93"><path id="path95" d="M156 82.5s2.1.8 2.5 1.1c.9.8.8 1.7.4 2.1-.4.4-1.2.3-1.8-.6-.3-.4-1.1-2.6-1.1-2.6z" class="st0" fill="#383433"/></g><g id="g97"><path id="path99" d="M155.9 89s2 .9 2.4 1.3c.8.9.7 1.7.2 2.1-.4.4-1.2.2-1.8-.7-.2-.5-.8-2.7-.8-2.7z" class="st0" fill="#383433"/></g><g id="g101"><path id="path103" d="M155.7 78.3s-2 .9-2.4 1.3c-.8.8-.8 1.6-.4 2 .4.4 1.2.3 1.8-.6.4-.5 1-2.7 1-2.7z" class="st0" fill="#383433"/></g><g id="g105"><path id="path107" d="M155.9 84.4s-2.1.8-2.5 1.1c-.9.8-.9 1.5-.6 1.9.4.4 1.2.4 1.9-.4.4-.4 1.2-2.6 1.2-2.6z" class="st0" fill="#383433"/></g><g id="g109"><path id="path111" d="M155.6 90.9s-2.2.6-2.6.9c-1 .7-1.1 1.4-.7 1.9.3.4 1.1.5 1.9-.3.4-.4 1.4-2.5 1.4-2.5z" class="st0" fill="#383433"/></g></g><g id="g113"><g id="g115"><path id="path117" d="M150 113.2l-.3-.1c2.5-5.4 4.3-11.5 5.4-18.7h.3c-1.2 7.2-2.9 13.4-5.4 18.8z" class="st0" fill="#383433"/></g><g id="g119"><path id="path121" d="M155.1 95.9s2 1.1 2.2 1.6c.7 1 .5 1.8 0 2.1-.5.3-1.2.1-1.7-.9-.2-.5-.5-2.8-.5-2.8z" class="st0" fill="#383433"/></g><g id="g123"><path id="path125" d="M153.8 101.9s1.8 1.3 2.1 1.7c.6 1 .3 1.8-.2 2.1-.5.3-1.2 0-1.6-1-.1-.5-.2-2.8-.3-2.8z" class="st0" fill="#383433"/></g><g id="g127"><path id="path129" d="M151.9 108.1s1.7 1.5 1.9 1.9c.5 1.1.2 1.9-.3 2.1-.5.3-1.2-.1-1.5-1.2-.2-.5 0-2.8-.1-2.8z" class="st0" fill="#383433"/></g><g id="g131"><path id="path133" d="M154.6 97.8s-2.2.4-2.6.6c-1 .6-1.2 1.3-.9 1.8.3.5 1.1.6 1.9-.1.4-.3 1.6-2.3 1.6-2.3z" class="st0" fill="#383433"/></g><g id="g135"><path id="path137" d="M153.2 103.7s-2.2.2-2.7.4c-1.1.5-1.3 1.2-1 1.7.2.5 1 .7 1.9.1.4-.3 1.8-2.2 1.8-2.2z" class="st0" fill="#383433"/></g><g id="g139"><path id="path141" d="M151.1 109.9s-2.2 0-2.7.1c-1.1.4-1.4 1.1-1.2 1.6.2.5.9.8 1.9.3.5-.3 2-2 2-2z" class="st0" fill="#383433"/></g></g><g id="g143"><g id="g145"><path id="path147" d="M139.7 129.9l-.2-.2c4.1-5.1 7.5-10.7 10.2-16.6l.3.1c-2.7 6-6.2 11.6-10.3 16.7z" class="st0" fill="#383433"/></g><g id="g149"><path id="path151" d="M149.3 114.5s1.5 1.6 1.7 2.1c.4 1.1 0 1.9-.5 2.1-.5.2-1.2-.2-1.4-1.3-.2-.6.2-2.9.2-2.9z" class="st0" fill="#383433"/></g><g id="g153"><path id="path155" d="M146.5 120s1.4 1.7 1.5 2.2c.3 1.1-.1 1.9-.7 2-.6.2-1.2-.3-1.3-1.5-.1-.4.5-2.7.5-2.7z" class="st0" fill="#383433"/></g><g id="g157"><path id="path159" d="M142.9 125.5s1.2 1.8 1.3 2.3c.2 1.2-.3 1.8-.9 2-.6.1-1.1-.4-1.2-1.6.1-.5.9-2.8.8-2.7z" class="st0" fill="#383433"/></g><g id="g161"><path id="path163" d="M148.3 116.2s-2.2-.2-2.7-.1c-1.1.3-1.5.9-1.3 1.5.2.5.9.9 1.9.5.4-.3 2.1-1.9 2.1-1.9z" class="st0" fill="#383433"/></g><g id="g165"><path id="path167" d="M145.3 121.6s-2.2-.4-2.7-.4c-1.1.2-1.5.8-1.4 1.4.1.5.8.9 1.8.6.5-.2 2.3-1.6 2.3-1.6z" class="st0" fill="#383433"/></g><g id="g169"><path id="path171" d="M141.7 126.9s-2.1-.6-2.6-.6c-1.1.1-1.6.7-1.5 1.2.1.6.7 1 1.8.8.3-.1 2.3-1.4 2.3-1.4z" class="st0" fill="#383433"/></g></g></g><g id="g173"><g id="g175"><g id="g177"><path id="path179" d="M19.3 56.1c2.6-6 5.9-11.6 9.9-16.8l-.2-.2c-4 5.2-7.4 10.8-9.9 16.9l.2.1z" class="st0" fill="#383433"/></g><g id="g181"><path id="path183" d="M28.2 40.4s-2.1-.6-2.6-.5c-1.2.2-1.7.8-1.6 1.4.1.6.8.9 1.8.6.5-.2 2.4-1.5 2.4-1.5z" class="st0" fill="#383433"/></g><g id="g185"><path id="path187" d="M24.7 45.4s-2.2-.4-2.7-.3c-1.2.3-1.6 1-1.5 1.5.1.6.8.9 1.9.5.5-.2 2.3-1.7 2.3-1.7z" class="st0" fill="#383433"/></g><g id="g189"><path id="path191" d="M21.4 51s-2.2-.2-2.7-.1c-1.1.4-1.5 1.1-1.4 1.7.2.5.9.8 1.9.3.6-.2 2.2-1.9 2.2-1.9z" class="st0" fill="#383433"/></g><g id="g193"><path id="path195" d="M27.1 42s1.2 1.8 1.3 2.3c.2 1.1-.2 1.7-.7 1.9-.5.1-1.2-.3-1.3-1.5 0-.5.7-2.7.7-2.7z" class="st0" fill="#383433"/></g><g id="g197"><path id="path199" d="M23.8 47.1s1.4 1.7 1.5 2.2c.3 1.1 0 1.7-.5 1.9-.5.2-1.2-.3-1.4-1.3-.2-.5.4-2.7.4-2.8z" class="st0" fill="#383433"/></g><g id="g201"><path id="path203" d="M20.7 52.8s1.5 1.6 1.7 2c.4 1 .2 1.8-.3 2-.5.3-1.2-.1-1.5-1.2-.2-.5.1-2.8.1-2.8z" class="st0" fill="#383433"/></g></g><g id="g205"><g id="g207"><path id="path209" d="M14.3 74.9c.8-6.7 2.5-13 5-18.8L19 56c-2.5 5.8-4.2 12.2-5.1 18.9h.4z" class="st0" fill="#383433"/></g><g id="g211"><path id="path213" d="M18.6 57.4s-2.2 0-2.7.2c-1.1.5-1.5 1.2-1.2 1.8.2.5 1 .7 1.9.1.4-.3 2-2.1 2-2.1z" class="st0" fill="#383433"/></g><g id="g215"><path id="path217" d="M16.5 63.2s-2.2.2-2.7.4c-1.1.6-1.3 1.4-1 1.9.3.5 1.1.6 1.9-.1.5-.3 1.8-2.2 1.8-2.2z" class="st0" fill="#383433"/></g><g id="g219"><path id="path221" d="M14.9 69.5s-2.2.4-2.6.7c-1 .7-1.2 1.5-.8 2 .3.5 1.1.5 1.9-.2.3-.5 1.6-2.5 1.5-2.5z" class="st0" fill="#383433"/></g><g id="g223"><path id="path225" d="M18 59.2s1.6 1.4 1.9 1.9c.6 1 .4 1.7-.1 2-.5.3-1.2 0-1.6-1.1-.3-.4-.3-2.8-.2-2.8z" class="st0" fill="#383433"/></g><g id="g227"><path id="path229" d="M16.1 65.1s1.8 1.3 2.1 1.7c.7 1 .5 1.7.1 2-.5.3-1.2.1-1.7-.9-.3-.5-.6-2.8-.5-2.8z" class="st0" fill="#383433"/></g><g id="g231"><path id="path233" d="M14.7 71.4s1.9 1.1 2.2 1.5c.7.9.7 1.6.2 2-.4.3-1.2.2-1.8-.8-.2-.4-.7-2.7-.6-2.7z" class="st0" fill="#383433"/></g></g><g id="g235"><g id="g237"><path id="path239" d="M14.2 94.4h.3c-1-6.1-1-12.7-.2-19.5H14c-.9 6.8-.8 13.4.2 19.5z" class="st0" fill="#383433"/></g><g id="g241"><path id="path243" d="M13.9 76.3s-2.2.6-2.6.9c-.9.8-1 1.6-.6 2 .4.5 1.2.4 1.9-.4.3-.3 1.2-2.5 1.3-2.5z" class="st0" fill="#383433"/></g><g id="g245"><path id="path247" d="M13.5 82.5s-2.1.8-2.5 1.1c-.9.8-.8 1.7-.4 2.1.4.4 1.2.3 1.8-.6.3-.4 1.1-2.6 1.1-2.6z" class="st0" fill="#383433"/></g><g id="g249"><path id="path251" d="M13.6 89s-2 .9-2.4 1.3c-.8.9-.7 1.7-.2 2.1.4.4 1.2.2 1.8-.7.2-.5.8-2.7.8-2.7z" class="st0" fill="#383433"/></g><g id="g253"><path id="path255" d="M13.8 78.3s2 .9 2.4 1.3c.8.8.8 1.6.4 2-.4.4-1.2.3-1.8-.6-.3-.5-1-2.7-1-2.7z" class="st0" fill="#383433"/></g><g id="g257"><path id="path259" d="M13.6 84.4s2.1.8 2.5 1.1c.9.8.9 1.5.6 1.9-.4.4-1.2.4-1.9-.4-.4-.4-1.2-2.6-1.2-2.6z" class="st0" fill="#383433"/></g><g id="g261"><path id="path263" d="M13.9 90.9s2.2.6 2.6.9c1 .7 1.1 1.4.7 1.9-.3.4-1.1.5-1.9-.3-.4-.4-1.4-2.5-1.4-2.5z" class="st0" fill="#383433"/></g></g><g id="g265"><g id="g267"><path id="path269" d="M19.6 113.2l.3-.1c-2.5-5.4-4.3-11.5-5.4-18.7h-.3c1.1 7.2 2.8 13.4 5.4 18.8z" class="st0" fill="#383433"/></g><g id="g271"><path id="path273" d="M14.4 95.9s-2 1.1-2.2 1.6c-.7 1-.5 1.8 0 2.1.5.3 1.2.1 1.7-.9.2-.5.5-2.8.5-2.8z" class="st0" fill="#383433"/></g><g id="g275"><path id="path277" d="M15.7 101.9s-1.8 1.3-2.1 1.7c-.6 1-.3 1.8.2 2.1.5.3 1.2 0 1.6-1 .1-.5.3-2.8.3-2.8z" class="st0" fill="#383433"/></g><g id="g279"><path id="path281" d="M17.6 108.1s-1.7 1.5-1.9 1.9c-.5 1.1-.2 1.9.3 2.1.5.3 1.2-.1 1.5-1.2.2-.5 0-2.8.1-2.8z" class="st0" fill="#383433"/></g><g id="g283"><path id="path285" d="M14.9 97.8s2.2.4 2.6.6c1 .6 1.2 1.3.9 1.8-.3.5-1.1.6-1.9-.1-.4-.3-1.6-2.3-1.6-2.3z" class="st0" fill="#383433"/></g><g id="g287"><path id="path289" d="M16.3 103.7s2.2.2 2.7.4c1.1.5 1.3 1.2 1 1.7-.2.5-1 .7-1.9.1-.4-.3-1.8-2.2-1.8-2.2z" class="st0" fill="#383433"/></g><g id="g291"><path id="path293" d="M18.4 109.9s2.2 0 2.7.1c1.1.4 1.4 1.1 1.2 1.6-.2.5-.9.8-1.9.3-.5-.3-2-2-2-2z" class="st0" fill="#383433"/></g></g><g id="g295"><g id="g297"><path id="path299" d="M29.8 129.9l.2-.2c-4.1-5.1-7.5-10.7-10.2-16.6l-.3.1c2.7 6 6.2 11.6 10.3 16.7z" class="st0" fill="#383433"/></g><g id="g301"><path id="path303" d="M20.2 114.5s-1.5 1.6-1.7 2.1c-.4 1.1 0 1.9.5 2.1.5.2 1.2-.2 1.4-1.3.2-.6-.2-2.9-.2-2.9z" class="st0" fill="#383433"/></g><g id="g305"><path id="path307" d="M23.1 120s-1.4 1.7-1.5 2.2c-.3 1.1.1 1.9.7 2 .6.2 1.2-.3 1.3-1.5 0-.4-.5-2.7-.5-2.7z" class="st0" fill="#383433"/></g><g id="g309"><path id="path311" d="M26.6 125.5s-1.2 1.8-1.3 2.3c-.2 1.2.3 1.8.9 2 .6.1 1.1-.4 1.2-1.6-.1-.5-.8-2.8-.8-2.7z" class="st0" fill="#383433"/></g><g id="g313"><path id="path315" d="M21.2 116.2s2.2-.2 2.7-.1c1.1.3 1.5.9 1.3 1.5-.2.5-.9.9-1.9.5-.4-.3-2.1-1.9-2.1-1.9z" class="st0" fill="#383433"/></g><g id="g317"><path id="path319" d="M24.2 121.6s2.2-.4 2.7-.4c1.1.2 1.5.8 1.4 1.4-.1.5-.8.9-1.8.6-.5-.2-2.3-1.6-2.3-1.6z" class="st0" fill="#383433"/></g><g id="g321"><path id="path323" d="M27.8 126.9s2.1-.6 2.6-.6c1.1.1 1.6.7 1.5 1.2-.1.6-.7 1-1.8.8-.3-.1-2.3-1.4-2.3-1.4z" class="st0" fill="#383433"/></g></g></g><g id="text_25_"><g id="g326"><path d="M66.6 26.7c35-9.6 71.2 10.9 80.9 45.9 9.6 35-10.9 71.2-45.9 80.8-35 9.6-71.2-10.9-80.8-45.9-9.8-35 10.8-71.2 45.8-80.8z" class="st1" id="SVGID_x5F_1_x5F_" fill="none"/><text id="text329" transform="translate(-13.4 -20.9)"><textPath id="textPath331" startOffset="100%" xlink:href="#SVGID_x5F_1_x5F_"> <tspan id="tspan333" class="st0" font-size="14.4" font-family="Haymaker" fill="#383433"> HIPSTER STYLE</tspan></textPath></text></g><path d="M126.8 27.9c27.6 23.6 30.8 65.1 7.2 92.7-23.6 27.6-65.1 30.8-92.7 7.2-27.6-23.6-30.8-65.1-7.2-92.7 23.5-27.5 65.1-30.8 92.7-7.2z" class="st1" id="SVGID_x5F_2_x5F_" fill="none"/><text id="text336" transform="translate(-13.4 -20.9)"><textPath id="textPath338" startOffset="100%" xlink:href="#SVGID_x5F_2_x5F_"> <tspan id="tspan340" class="st0" font-size="14.4" font-family="Haymaker" fill="#383433">HIPSTER STYLE</tspan></textPath></text></g></g><g id="g342" fill="#383433" transform="translate(-13.4 -20.9)"><circle r=".7" id="ellipse344" cy="102" cx="93" class="st0" transform="rotate(-9.425 92.973 102.012)"/><g id="g346"><path id="path348" d="M92.9 101.6s-4.7.2-7.4 2.3c-1.7 1.4-3.4 2.9-4.9 4.4-4.8 4.9-2.1-4.5-5.1-4.5-2.2 0-5.2.7-5.3 1.7-.1 1 .6 7.1 2.9 8.4 3.5 2.1 7.3-1.1 8.9-3.2 1.6-2 2.5-3.2 4-4.9 1.7-2 3.7-3.1 7.1-3.4l-.2-.8z" class="st0"/><ellipse id="ellipse350" ry=".5" rx="2.2" cy="104.7" cx="73.5" class="st0" transform="rotate(-9.45 73.49 104.703)"/></g></g></g></svg>