<svg id="SvgjsSvg1000" xmlns="http://www.w3.org/2000/svg" version="1.1" xmlns:xlink="http://www.w3.org/1999/xlink" xmlns:svgjs="http://svgjs.com/svgjs" width="39" height="39"><defs id="SvgjsDefs1001"></defs><path id="SvgjsPath1007" d="M738.659 1125.7C735.337 1125.7 732.373 1123.8500000000001 731.105 1120.98C730.2 1118.93 730.288 1116.67 731.332 1114.69C731.12 1114.3500000000001 730.9399999999999 1114.01 730.788 1113.66C729.785 1111.39 729.755 1108.89 730.703 1106.6000000000001C731.727 1104.13 733.737 1102.22 736.3639999999999 1101.22C739.482 1100.04 743.1299999999999 1100.41 745.9069999999999 1102.15C746.685 1101.5300000000002 747.5609999999999 1101.0300000000002 748.5179999999999 1100.66C749.6669999999999 1100.23 750.8749999999999 1100.01 752.1049999999999 1100.01C755.9759999999999 1100.01 759.4319999999999 1102.16 760.9099999999999 1105.5C760.9219999999998 1105.53 760.9349999999998 1105.56 760.9459999999998 1105.58C761.3549999999998 1105.51 761.7709999999998 1105.48 762.1869999999998 1105.48C764.9499999999998 1105.48 767.4149999999997 1107.02 768.4669999999998 1109.39C769.1409999999997 1110.92 769.1609999999997 1112.6100000000001 768.5219999999997 1114.14C767.8529999999997 1115.76 766.4949999999997 1117.0600000000002 764.7889999999998 1117.73C765.1189999999998 1118.9 765.0459999999997 1120.13 764.5739999999997 1121.27C763.9549999999997 1122.76 762.7409999999998 1123.92 761.1569999999997 1124.52C760.4229999999997 1124.8 759.6509999999997 1124.94 758.8629999999997 1124.94C757.9804899999997 1124.94 757.1114899999997 1124.75872 756.3170599999997 1124.4177200000001C756.1238699999998 1124.84831 752.5759999999998 1132.7766700000002 752.5759999999998 1138.2500000000002L752.5759999999998 1139.0000000000002L743.8049999999998 1139.0000000000002L744.0289999999999 1138.0700000000002C744.0963899999999 1137.78258 745.6145999999999 1131.0613 739.6320799999999 1125.6456500000002C739.3103099999998 1125.6817800000001 738.9856599999998 1125.7000000000003 738.6589999999999 1125.7000000000003ZM740.198 1102.02C739.063 1102.02 737.949 1102.22 736.888 1102.6299999999999C734.65 1103.4799999999998 732.941 1105.09 732.076 1107.1799999999998C731.287 1109.08 731.312 1111.1599999999999 732.147 1113.0499999999997C732.32 1113.4399999999998 732.5400000000001 1113.8399999999997 732.8180000000001 1114.2499999999998L733.089 1114.6499999999999L732.8370000000001 1115.06C731.8340000000001 1116.7 731.6980000000001 1118.6399999999999 732.464 1120.37C733.493 1122.6999999999998 735.9240000000001 1124.1999999999998 738.6590000000001 1124.1999999999998C739.5340000000001 1124.1999999999998 740.392 1124.0499999999997 741.2070000000001 1123.7399999999998C742.2660000000001 1123.3299999999997 743.1990000000001 1122.6799999999998 743.9060000000001 1121.8499999999997L744.479 1121.1799999999996L745.042 1121.8599999999997C746.179 1123.2399999999998 747.974 1124.0699999999997 749.8430000000001 1124.0699999999997C750.6220000000001 1124.0699999999997 751.3850000000001 1123.9299999999996 752.113 1123.6499999999996C752.971 1123.3199999999997 753.735 1122.7999999999997 754.3800000000001 1122.0999999999997L754.8990000000001 1121.5399999999997L755.4450000000002 1122.0699999999997C756.3300000000002 1122.9399999999996 757.5760000000001 1123.4399999999996 758.8630000000002 1123.4399999999996C759.4700000000001 1123.4399999999996 760.0650000000002 1123.3299999999997 760.6320000000002 1123.1199999999997C761.8300000000002 1122.6599999999996 762.7420000000002 1121.7999999999997 763.2010000000001 1120.6899999999996C763.6130000000002 1119.6999999999996 763.6050000000001 1118.6199999999997 763.1800000000002 1117.6299999999997L763.1240000000001 1117.5099999999998L762.8040000000001 1116.7199999999998L763.8290000000001 1116.4499999999998C763.955 1116.4199999999998 764.0830000000001 1116.3899999999999 764.2090000000001 1116.35C765.5770000000001 1115.83 766.6220000000001 1114.84 767.1500000000001 1113.57C767.628 1112.4099999999999 767.6140000000001 1111.1499999999999 767.1080000000001 1110C766.2950000000001 1108.16 764.363 1106.98 762.187 1106.98C761.674 1106.98 761.164 1107.04 760.669 1107.18L759.996 1107.3600000000001L759.773 1106.69C759.706 1106.5 759.6360000000001 1106.3 759.551 1106.1100000000001C758.312 1103.3100000000002 755.389 1101.5000000000002 752.105 1101.5000000000002C751.054 1101.5000000000002 750.024 1101.6900000000003 749.043 1102.0600000000002C748.075 1102.43 747.207 1102.9600000000003 746.462 1103.64L746.02 1104.0500000000002L745.533 1103.7000000000003C744.008 1102.6200000000003 742.113 1102.0200000000002 740.198 1102.0200000000002ZM755.39878 1123.93024C755.24805 1123.8333 755.1016 1123.72982 754.96 1123.62C754.273 1124.25 753.494 1124.7299999999998 752.639 1125.05C751.742 1125.3899999999999 750.802 1125.56 749.843 1125.56C747.824 1125.56 745.87 1124.78 744.4639999999999 1123.4299999999998C743.689 1124.1699999999998 742.7579999999999 1124.7499999999998 741.732 1125.1399999999999C741.61795 1125.1828799999998 741.5032299999999 1125.22335 741.38788 1125.26138C745.99583 1129.97112 745.89522 1135.3660399999999 745.632 1137.5L751.462 1137.5C751.733 1131.67 754.997 1124.13 755.1419999999999 1123.8ZM749.59 1134.62L748.123 1134.3799999999999L748.8670000000001 1129.8799999999999L750.3340000000001 1130.1299999999999ZM746.704 1130.34L744.473 1125.85L745.804 1125.1799999999998L748.035 1129.6699999999998Z " fill="#ffffff" transform="matrix(1,0,0,1,-730,-1100)"></path><path id="SvgjsPath1008" d="M738.659 1125.7C735.337 1125.7 732.373 1123.8500000000001 731.105 1120.98C730.2 1118.93 730.288 1116.67 731.332 1114.69C731.12 1114.3500000000001 730.9399999999999 1114.01 730.788 1113.66C729.785 1111.39 729.755 1108.89 730.703 1106.6000000000001C731.727 1104.13 733.737 1102.22 736.3639999999999 1101.22C739.482 1100.04 743.1299999999999 1100.41 745.9069999999999 1102.15C746.685 1101.5300000000002 747.5609999999999 1101.0300000000002 748.5179999999999 1100.66C749.6669999999999 1100.23 750.8749999999999 1100.01 752.1049999999999 1100.01C755.9759999999999 1100.01 759.4319999999999 1102.16 760.9099999999999 1105.5C760.9219999999998 1105.53 760.9349999999998 1105.56 760.9459999999998 1105.58C761.3549999999998 1105.51 761.7709999999998 1105.48 762.1869999999998 1105.48C764.9499999999998 1105.48 767.4149999999997 1107.02 768.4669999999998 1109.39C769.1409999999997 1110.92 769.1609999999997 1112.6100000000001 768.5219999999997 1114.14C767.8529999999997 1115.76 766.4949999999997 1117.0600000000002 764.7889999999998 1117.73C765.1189999999998 1118.9 765.0459999999997 1120.13 764.5739999999997 1121.27C763.9549999999997 1122.76 762.7409999999998 1123.92 761.1569999999997 1124.52C760.4229999999997 1124.8 759.6509999999997 1124.94 758.8629999999997 1124.94C757.9804899999997 1124.94 757.1114899999997 1124.75872 756.3170599999997 1124.4177200000001C756.1238699999998 1124.84831 752.5759999999998 1132.7766700000002 752.5759999999998 1138.2500000000002L752.5759999999998 1139.0000000000002L743.8049999999998 1139.0000000000002L744.0289999999999 1138.0700000000002C744.0963899999999 1137.78258 745.6145999999999 1131.0613 739.6320799999999 1125.6456500000002C739.3103099999998 1125.6817800000001 738.9856599999998 1125.7000000000003 738.6589999999999 1125.7000000000003ZM740.198 1102.02C739.063 1102.02 737.949 1102.22 736.888 1102.6299999999999C734.65 1103.4799999999998 732.941 1105.09 732.076 1107.1799999999998C731.287 1109.08 731.312 1111.1599999999999 732.147 1113.0499999999997C732.32 1113.4399999999998 732.5400000000001 1113.8399999999997 732.8180000000001 1114.2499999999998L733.089 1114.6499999999999L732.8370000000001 1115.06C731.8340000000001 1116.7 731.6980000000001 1118.6399999999999 732.464 1120.37C733.493 1122.6999999999998 735.9240000000001 1124.1999999999998 738.6590000000001 1124.1999999999998C739.5340000000001 1124.1999999999998 740.392 1124.0499999999997 741.2070000000001 1123.7399999999998C742.2660000000001 1123.3299999999997 743.1990000000001 1122.6799999999998 743.9060000000001 1121.8499999999997L744.479 1121.1799999999996L745.042 1121.8599999999997C746.179 1123.2399999999998 747.974 1124.0699999999997 749.8430000000001 1124.0699999999997C750.6220000000001 1124.0699999999997 751.3850000000001 1123.9299999999996 752.113 1123.6499999999996C752.971 1123.3199999999997 753.735 1122.7999999999997 754.3800000000001 1122.0999999999997L754.8990000000001 1121.5399999999997L755.4450000000002 1122.0699999999997C756.3300000000002 1122.9399999999996 757.5760000000001 1123.4399999999996 758.8630000000002 1123.4399999999996C759.4700000000001 1123.4399999999996 760.0650000000002 1123.3299999999997 760.6320000000002 1123.1199999999997C761.8300000000002 1122.6599999999996 762.7420000000002 1121.7999999999997 763.2010000000001 1120.6899999999996C763.6130000000002 1119.6999999999996 763.6050000000001 1118.6199999999997 763.1800000000002 1117.6299999999997L763.1240000000001 1117.5099999999998L762.8040000000001 1116.7199999999998L763.8290000000001 1116.4499999999998C763.955 1116.4199999999998 764.0830000000001 1116.3899999999999 764.2090000000001 1116.35C765.5770000000001 1115.83 766.6220000000001 1114.84 767.1500000000001 1113.57C767.628 1112.4099999999999 767.6140000000001 1111.1499999999999 767.1080000000001 1110C766.2950000000001 1108.16 764.363 1106.98 762.187 1106.98C761.674 1106.98 761.164 1107.04 760.669 1107.18L759.996 1107.3600000000001L759.773 1106.69C759.706 1106.5 759.6360000000001 1106.3 759.551 1106.1100000000001C758.312 1103.3100000000002 755.389 1101.5000000000002 752.105 1101.5000000000002C751.054 1101.5000000000002 750.024 1101.6900000000003 749.043 1102.0600000000002C748.075 1102.43 747.207 1102.9600000000003 746.462 1103.64L746.02 1104.0500000000002L745.533 1103.7000000000003C744.008 1102.6200000000003 742.113 1102.0200000000002 740.198 1102.0200000000002ZM755.39878 1123.93024C755.24805 1123.8333 755.1016 1123.72982 754.96 1123.62C754.273 1124.25 753.494 1124.7299999999998 752.639 1125.05C751.742 1125.3899999999999 750.802 1125.56 749.843 1125.56C747.824 1125.56 745.87 1124.78 744.4639999999999 1123.4299999999998C743.689 1124.1699999999998 742.7579999999999 1124.7499999999998 741.732 1125.1399999999999C741.61795 1125.1828799999998 741.5032299999999 1125.22335 741.38788 1125.26138C745.99583 1129.97112 745.89522 1135.3660399999999 745.632 1137.5L751.462 1137.5C751.733 1131.67 754.997 1124.13 755.1419999999999 1123.8ZM749.59 1134.62L748.123 1134.3799999999999L748.8670000000001 1129.8799999999999L750.3340000000001 1130.1299999999999ZM746.704 1130.34L744.473 1125.85L745.804 1125.1799999999998L748.035 1129.6699999999998Z " fill="#444444" fill-opacity="1" transform="matrix(1,0,0,1,-730,-1100)"></path></svg>