<?xml version="1.0" encoding="UTF-8" standalone="no"?>
<!-- Generator: Adobe Illustrator 16.2.1, SVG Export Plug-In . SVG Version: 6.00 Build 0)  -->

<svg
   xmlns:dc="http://purl.org/dc/elements/1.1/"
   xmlns:cc="http://creativecommons.org/ns#"
   xmlns:rdf="http://www.w3.org/1999/02/22-rdf-syntax-ns#"
   xmlns:svg="http://www.w3.org/2000/svg"
   xmlns="http://www.w3.org/2000/svg"
   xmlns:sodipodi="http://sodipodi.sourceforge.net/DTD/sodipodi-0.dtd"
   xmlns:inkscape="http://www.inkscape.org/namespaces/inkscape"
   version="1.1"
   id="Layer_1"
   x="0px"
   y="0px"
   width="20px"
   height="20px"
   viewBox="0 0 512 512"
   enable-background="new 0 0 0 0"
   xml:space="preserve"
   inkscape:version="0.91 r13725"
   sodipodi:docname="quote.svg"><metadata
   id="metadata17"><rdf:RDF><cc:Work
       rdf:about=""><dc:format>image/svg+xml</dc:format><dc:type
         rdf:resource="http://purl.org/dc/dcmitype/StillImage" /></cc:Work></rdf:RDF></metadata><defs
   id="defs15" /><sodipodi:namedview
   pagecolor="#ffffff"
   bordercolor="#666666"
   borderopacity="1"
   objecttolerance="10"
   gridtolerance="10"
   guidetolerance="10"
   inkscape:pageopacity="0"
   inkscape:pageshadow="2"
   inkscape:window-width="1680"
   inkscape:window-height="987"
   id="namedview13"
   showgrid="false"
   inkscape:zoom="11.8"
   inkscape:cx="-4.5338983"
   inkscape:cy="9.9152542"
   inkscape:window-x="-8"
   inkscape:window-y="-8"
   inkscape:window-maximized="1"
   inkscape:current-layer="Layer_1" />
<g
   id="g3"
   style="fill:#ffffff;fill-opacity:1">
	<g
   id="g5"
   style="fill:#ffffff;fill-opacity:1">
		<path
   d="M192,64c-40.646,0-72.483,11.229-94.627,33.373C75.229,119.517,64,151.354,64,192v256h160V192h-96    c0-23.056,4.922-39.666,14.627-49.373C152.334,132.922,168.944,128,192,128"
   id="path7"
   style="fill:#ffffff;fill-opacity:1" />
	</g>
	<g
   id="g9"
   style="fill:#ffffff;fill-opacity:1">
		<path
   d="M416,64c-40.646,0-72.483,11.229-94.627,33.373C299.229,119.517,288,151.354,288,192v256h160V192h-96    c0-23.056,4.922-39.666,14.627-49.373C376.334,132.922,392.944,128,416,128"
   id="path11"
   style="fill:#ffffff;fill-opacity:1" />
	</g>
</g>
</svg>