<svg xmlns="http://www.w3.org/2000/svg" width="27" height="21.971" viewBox="0 0 27.000004 21.97076"><path d="M27 2.603c-.996.44-2.06.738-3.18.876 1.143-.688 2.024-1.775 2.436-3.068-1.07.635-2.254 1.098-3.52 1.345C21.727.675 20.284 0 18.693 0c-3.06 0-5.538 2.483-5.538 5.544 0 .435.046.858.143 1.265-4.606-.23-8.69-2.44-11.42-5.797-.475.818-.75 1.773-.75 2.786 0 1.922.984 3.62 2.472 4.616-.917-.022-1.775-.274-2.52-.692v.07c0 2.688 1.912 4.925 4.447 5.434-.463.126-.955.195-1.46.195-.354 0-.703-.035-1.04-.103.703 2.203 2.752 3.805 5.178 3.85-1.894 1.488-4.286 2.375-6.883 2.375-.447 0-.887-.03-1.322-.08 2.443 1.59 5.355 2.506 8.48 2.506 10.2 0 15.774-8.45 15.774-15.78 0-.24-.006-.48-.018-.714 1.082-.784 2.02-1.757 2.764-2.873z"/></svg>